<?xml version="1.0" encoding="UTF-8" standalone="no"?>
<!-- Created with Inkscape (http://www.inkscape.org/) -->

<svg
   width="256"
   height="256"
   viewBox="0 0 256 256"
   version="1.1"
   id="svg5"
   inkscape:version="1.2.2 (732a01da63, 2022-12-09)"
   sodipodi:docname="Clock_04_30.svg"
   xmlns:inkscape="http://www.inkscape.org/namespaces/inkscape"
   xmlns:sodipodi="http://sodipodi.sourceforge.net/DTD/sodipodi-0.dtd"
   xmlns="http://www.w3.org/2000/svg"
   xmlns:svg="http://www.w3.org/2000/svg"
   xmlns:rdf="http://www.w3.org/1999/02/22-rdf-syntax-ns#"
   xmlns:cc="http://creativecommons.org/ns#">
  <sodipodi:namedview
     id="namedview7"
     pagecolor="#ffffff"
     bordercolor="#000000"
     borderopacity="0.25"
     inkscape:showpageshadow="2"
     inkscape:pageopacity="0.0"
     inkscape:pagecheckerboard="true"
     inkscape:deskcolor="#d1d1d1"
     inkscape:document-units="px"
     showgrid="true"
     showguides="true"
     inkscape:zoom="2.8284271"
     inkscape:cx="-3.8890873"
     inkscape:cy="131.87541"
     inkscape:window-width="1920"
     inkscape:window-height="1027"
     inkscape:window-x="-8"
     inkscape:window-y="-8"
     inkscape:window-maximized="1"
     inkscape:current-layer="layer1">
    <inkscape:grid
       type="xygrid"
       id="grid132"
       empspacing="8"
       dotted="true" />
    <sodipodi:guide
       position="128,176"
       orientation="1,0"
       id="guide136"
       inkscape:locked="false" />
    <sodipodi:guide
       position="160,128"
       orientation="0,-1"
       id="guide138"
       inkscape:locked="false" />
  </sodipodi:namedview>
  <defs
     id="defs2" />
  <g
     inkscape:label="Layer 1"
     inkscape:groupmode="layer"
     id="layer1">
    <path
       id="path14"
       style="color:#000000;fill:#000000;stroke-linecap:round;stroke-linejoin:round;-inkscape-stroke:none;paint-order:stroke fill markers"
       d="M 128 0 C 57.402522 0 0 57.402522 0 128 C 0 198.59748 57.402522 256 128 256 C 198.59748 256 256 198.59748 256 128 C 256 57.402522 198.59748 0 128 0 z M 120 16.314453 L 120 40 A 8 8 0 0 0 128 48 A 8 8 0 0 0 136 40 L 136 16.314453 C 152.01068 17.440707 167.08187 21.900393 180.51953 29.033203 L 172.53516 42.861328 A 4 4 0 0 0 174 48.326172 A 4 4 0 0 0 179.46484 46.861328 L 187.44336 33.042969 C 201.80363 42.039001 213.961 54.196376 222.95703 68.556641 L 209.13867 76.535156 A 4 4 0 0 0 207.67383 82 A 4 4 0 0 0 213.13867 83.464844 L 226.9668 75.480469 C 234.0996 88.918124 238.55929 103.98932 239.68555 120 L 216 120 A 8 8 0 0 0 208 128 A 8 8 0 0 0 216 136 L 239.68555 136 C 238.55929 152.01068 234.0996 167.08187 226.9668 180.51953 L 213.13867 172.53516 A 4 4 0 0 0 210.10352 172.13672 A 4 4 0 0 0 207.67383 174 A 4 4 0 0 0 209.13867 179.46484 L 222.95703 187.44336 C 213.961 201.80363 201.80363 213.961 187.44336 222.95703 L 179.46484 209.13867 A 4 4 0 0 0 177.03516 207.27539 A 4 4 0 0 0 174 207.67383 A 4 4 0 0 0 172.53516 213.13867 L 180.51953 226.9668 C 167.08187 234.0996 152.01068 238.55929 136 239.68555 L 136 216 A 8 8 0 0 0 129.97266 208.25391 A 2.0002 2.0002 0 0 0 129.99414 208.20312 L 136.60156 142.14453 L 175.75586 157.85938 A 2.0002 2.0002 0 0 0 177.73438 154.43164 L 135.0625 120.9375 C 133.2499 119.1249 130.74957 118 128 118 C 122.50087 118 118 122.50087 118 128 C 118 128.63812 118.06395 129.26142 118.17969 129.86719 L 126.01367 208.20312 A 2.0002 2.0002 0 0 0 126.03906 208.26562 A 8 8 0 0 0 120 216 L 120 239.68555 C 103.98932 238.55929 88.918124 234.0996 75.480469 226.9668 L 83.464844 213.13867 A 4 4 0 0 0 82 207.67383 A 4 4 0 0 0 78.964844 207.27539 A 4 4 0 0 0 76.535156 209.13867 L 68.556641 222.95703 C 54.196376 213.961 42.039001 201.80363 33.042969 187.44336 L 46.861328 179.46484 A 4 4 0 0 0 48.326172 174 A 4 4 0 0 0 45.896484 172.13672 A 4 4 0 0 0 42.861328 172.53516 L 29.033203 180.51953 C 21.900393 167.08187 17.440707 152.01068 16.314453 136 L 40 136 A 8 8 0 0 0 48 128 A 8 8 0 0 0 40 120 L 16.314453 120 C 17.440707 103.98932 21.900393 88.918124 29.033203 75.480469 L 42.861328 83.464844 A 4 4 0 0 0 48.326172 82 A 4 4 0 0 0 46.861328 76.535156 L 33.042969 68.556641 C 42.039001 54.196376 54.196376 42.039001 68.556641 33.042969 L 76.535156 46.861328 A 4 4 0 0 0 82 48.326172 A 4 4 0 0 0 83.464844 42.861328 L 75.480469 29.033203 C 88.918124 21.900393 103.98932 17.440707 120 16.314453 z " />
  </g>
  <metadata
     id="metadata134">
    <rdf:RDF>
      <cc:Work
         rdf:about="">
        <cc:license
           rdf:resource="http://scripts.sil.org/OFL" />
      </cc:Work>
      <cc:License
         rdf:about="http://scripts.sil.org/OFL">
        <cc:permits
           rdf:resource="http://scripts.sil.org/pub/OFL/Reproduction" />
        <cc:permits
           rdf:resource="http://scripts.sil.org/pub/OFL/Distribution" />
        <cc:permits
           rdf:resource="http://scripts.sil.org/pub/OFL/Embedding" />
        <cc:permits
           rdf:resource="http://scripts.sil.org/pub/OFL/DerivativeWorks" />
        <cc:requires
           rdf:resource="http://scripts.sil.org/pub/OFL/Notice" />
        <cc:requires
           rdf:resource="http://scripts.sil.org/pub/OFL/Attribution" />
        <cc:requires
           rdf:resource="http://scripts.sil.org/pub/OFL/ShareAlike" />
        <cc:requires
           rdf:resource="http://scripts.sil.org/pub/OFL/DerivativeRenaming" />
        <cc:requires
           rdf:resource="http://scripts.sil.org/pub/OFL/BundlingWhenSelling" />
      </cc:License>
    </rdf:RDF>
  </metadata>
</svg>
