<?xml version="1.0" encoding="UTF-8" standalone="no"?>
<!-- Uploaded to: SVG Repo, www.svgrepo.com, Generator: SVG Repo Mixer Tools -->

<svg
   height="147.2"
   width="147.2"
   version="1.1"
   id="_x32_"
   viewBox="0 0 147.2 147.2"
   xml:space="preserve"
   sodipodi:docname="Fan.svg"
   inkscape:version="1.2.2 (732a01da63, 2022-12-09)"
   xmlns:inkscape="http://www.inkscape.org/namespaces/inkscape"
   xmlns:sodipodi="http://sodipodi.sourceforge.net/DTD/sodipodi-0.dtd"
   xmlns="http://www.w3.org/2000/svg"
   xmlns:svg="http://www.w3.org/2000/svg"><defs
   id="defs5174" /><sodipodi:namedview
   id="namedview5172"
   pagecolor="#505050"
   bordercolor="#eeeeee"
   borderopacity="1"
   inkscape:showpageshadow="0"
   inkscape:pageopacity="0"
   inkscape:pagecheckerboard="true"
   inkscape:deskcolor="#505050"
   showgrid="true"
   inkscape:zoom="2.9945972"
   inkscape:cx="135.24356"
   inkscape:cy="114.87355"
   inkscape:window-width="1920"
   inkscape:window-height="1027"
   inkscape:window-x="-8"
   inkscape:window-y="-8"
   inkscape:window-maximized="1"
   inkscape:current-layer="_x32_"><inkscape:grid
     type="xygrid"
     id="grid5293"
     dotted="true"
     empspacing="16"
     originx="-8.319999"
     originy="-8.3200002" /></sodipodi:namedview>
<style
   type="text/css"
   id="style5151">
	.st0{fill:#7f7f7f7f;}
</style>
<g
   id="g5169"
   transform="matrix(0.28750562,0,0,0.2875,-0.00143753,0)">
	<path
   id="path54"
   class="st0"
   d="M 48.998608 0 C 21.925635 0 0.0050000066 21.932799 0.0050000066 48.987772 L 0.0050000066 463.00272 C 0.0050000066 490.05869 21.925635 511.99728 48.998608 511.99728 L 463.01905 511.99728 C 490.07402 511.99728 511.99227 490.05769 511.99227 463.00272 L 511.99227 48.987772 C 511.99227 21.932799 490.07502 0 463.01905 0 L 48.998608 0 z M 255.99184 22.67663 C 384.86471 22.67663 489.32967 127.13798 489.32967 255.99185 C 489.32967 384.85572 384.86471 489.32065 255.99184 489.32065 C 127.13697 489.32065 22.674394 384.85572 22.674394 255.99185 C 22.674394 127.13798 127.13797 22.67663 255.99184 22.67663 z M 48.998608 31.705163 C 58.536598 31.705163 66.280878 39.448781 66.280878 48.987772 C 66.280878 58.543762 58.536598 66.27038 48.998608 66.27038 C 39.442617 66.27038 31.70275 58.543762 31.70275 48.987772 C 31.70275 39.447781 39.442617 31.705163 48.998608 31.705163 z M 463.01905 31.705163 C 472.55804 31.705163 480.30132 39.448781 480.30132 48.987772 C 480.30132 58.534762 472.55804 66.27038 463.01905 66.27038 C 453.46306 66.27038 445.7164 58.533762 445.7164 48.987772 C 445.7164 39.447781 453.46306 31.705163 463.01905 31.705163 z M 295.5427 54.0625 C 279.27728 54.611687 264.72003 63.315438 259.47004 77.527174 C 247.86505 108.86114 239.58107 142.06164 239.21907 174.15761 C 256.64506 170.55761 274.61364 172.7249 290.51563 179.90489 C 312.8016 149.96692 343.61288 123.53436 377.88484 105.64538 C 382.41884 103.27838 387.40506 95.205906 377.45007 87.798913 C 357.77609 73.164928 335.18206 63.548515 312.09808 56.331522 C 306.57659 54.604273 300.96451 53.879438 295.5427 54.0625 z M 178.33032 65.285326 C 176.31345 65.113139 173.89689 65.510382 171.05465 66.73913 C 148.53267 76.467121 128.91715 91.216712 111.11017 107.6087 C 94.102182 123.27568 90.255377 148.24619 103.14836 163.77717 C 124.50734 189.48815 149.09653 213.27496 176.7135 229.63995 C 182.3165 212.74796 193.17492 198.25264 207.3379 188.07065 C 192.55992 153.81769 185.07452 113.90149 186.70651 75.278533 C 186.86926 71.457286 184.38094 65.801888 178.33032 65.285326 z M 416.0091 169.33424 C 414.76993 169.40018 413.52392 169.54237 412.27955 169.75543 C 379.33058 175.38543 346.43663 184.79211 318.45666 200.5231 C 330.29764 213.82308 337.40819 230.48348 339.14919 247.84647 C 376.21315 252.17046 414.50844 265.6463 447.12941 286.37228 C 451.44541 289.11028 460.93389 289.39621 462.36689 277.06522 C 465.21388 252.71124 462.25438 228.34503 456.95938 204.73505 C 452.1997 183.57008 434.59654 168.34514 416.0091 169.33424 z M 255.99184 195.50272 C 222.58988 195.50272 195.51748 222.59088 195.51748 255.99185 C 195.51748 289.40281 222.58988 316.48777 255.99184 316.48777 C 289.41081 316.48777 316.50017 289.40281 316.50017 255.99185 C 316.50117 222.59088 289.41181 195.50272 255.99184 195.50272 z M 58.529671 224.11005 C 54.571501 224.44042 50.532806 227.2184 49.637182 234.92527 C 46.791185 259.27725 49.745277 283.64646 55.058272 307.25543 C 60.117267 329.83141 79.806745 345.64405 99.717725 342.23505 C 132.66569 336.60406 165.56265 327.19738 193.54062 311.46739 C 181.69963 298.1674 174.58909 281.507 172.84809 264.14402 C 135.78413 259.81803 97.48783 246.34519 64.867863 225.61821 C 63.249364 224.59146 60.904573 223.91184 58.529671 224.11005 z M 335.28377 282.36413 C 329.68078 299.24511 318.82236 313.73985 304.65937 323.91984 C 319.43836 358.1738 326.92955 398.088 325.29755 436.71196 C 325.08055 441.80695 329.57602 450.16635 340.96301 445.25136 C 363.46699 435.52237 383.10592 420.76698 400.8939 404.375 C 417.90189 388.70802 421.7419 363.7443 408.84891 348.21332 C 387.50793 322.51134 362.90074 298.72011 335.28377 282.36413 z M 221.50203 332.09239 C 199.23505 362.02236 168.42616 388.45492 134.15319 406.3519 C 129.6202 408.7099 124.63398 416.78458 134.58797 424.19158 C 154.26295 438.82556 176.85697 448.44097 199.93995 455.65897 C 222.02593 462.56696 245.56121 453.4123 252.5612 434.46332 C 264.16619 403.12935 272.45696 369.93785 272.81896 337.83288 C 255.39398 341.43288 237.40501 339.26438 221.50203 332.09239 z M 48.985021 445.72011 C 58.541011 445.72011 66.280878 453.45573 66.280878 463.00272 C 66.280878 472.54971 58.541011 480.28533 48.985021 480.28533 C 39.44703 480.28533 31.70275 472.54971 31.70275 463.00272 C 31.70275 453.45573 39.44703 445.72011 48.985021 445.72011 z M 463.01905 445.72011 C 472.55804 445.72011 480.30132 453.46473 480.30132 463.00272 C 480.30132 472.54971 472.55804 480.28533 463.01905 480.28533 C 453.46306 480.28533 445.7164 472.54971 445.7164 463.00272 C 445.7164 453.46473 453.46306 445.72011 463.01905 445.72011 z " />
	
	
	
	
	
	
	
</g>
</svg>
