<?xml version="1.0" encoding="UTF-8" standalone="no"?>
<!-- Uploaded to: SVG Repo, www.svgrepo.com, Generator: SVG Repo Mixer Tools -->

<svg
   height="120"
   width="120"
   version="1.1"
   id="_x32_"
   viewBox="0 0 120 120.00001"
   xml:space="preserve"
   sodipodi:docname="FanBlades.svg"
   inkscape:version="1.2.2 (732a01da63, 2022-12-09)"
   xmlns:inkscape="http://www.inkscape.org/namespaces/inkscape"
   xmlns:sodipodi="http://sodipodi.sourceforge.net/DTD/sodipodi-0.dtd"
   xmlns="http://www.w3.org/2000/svg"
   xmlns:svg="http://www.w3.org/2000/svg"><defs
   id="defs5174" /><sodipodi:namedview
   id="namedview5172"
   pagecolor="#505050"
   bordercolor="#eeeeee"
   borderopacity="1"
   inkscape:showpageshadow="0"
   inkscape:pageopacity="0"
   inkscape:pagecheckerboard="true"
   inkscape:deskcolor="#505050"
   showgrid="true"
   inkscape:zoom="2.9945972"
   inkscape:cx="121.21831"
   inkscape:cy="99.512549"
   inkscape:window-width="1920"
   inkscape:window-height="1027"
   inkscape:window-x="-8"
   inkscape:window-y="-8"
   inkscape:window-maximized="1"
   inkscape:current-layer="g5169"><inkscape:grid
     type="xygrid"
     id="grid5293"
     dotted="true"
     empspacing="16"
     originx="-22.27134"
     originy="-23.855395" /></sodipodi:namedview>
<style
   type="text/css"
   id="style5151">
	.st0{fill:#000000;}
</style>
<g
   id="g5169"
   transform="matrix(0.28750562,0,0,0.2875,-13.952779,-15.535382)">
	<path
   id="path48"
   class="st0"
   d="M 296.7593 60.802416 C 280.49388 61.351603 265.94342 70.055354 260.69343 84.26709 C 249.08844 115.60106 240.80447 148.80156 240.44247 180.89752 C 257.86845 177.29753 275.83703 179.46481 291.73902 186.64481 C 314.025 156.70684 344.82947 130.26748 379.10144 112.3785 C 383.63544 110.0115 388.62166 101.94583 378.66667 94.538829 C 358.99269 79.904843 336.39866 70.281637 313.31468 63.064644 C 307.79319 61.337396 302.18111 60.619353 296.7593 60.802416 z M 179.55371 72.018448 C 177.53684 71.846261 175.12028 72.250297 172.27804 73.479046 C 149.75606 83.207036 130.13375 97.956624 112.32676 114.34861 C 95.318777 130.0156 91.478765 154.98611 104.37176 170.51709 C 125.73073 196.22806 150.31992 220.00808 177.93689 236.37307 C 183.53989 219.48108 194.39831 204.98576 208.5613 194.80377 C 193.78331 160.55081 186.29791 120.64141 187.92991 82.018448 C 188.09266 78.197202 185.60433 72.53501 179.55371 72.018448 z M 417.23249 176.07415 C 415.99333 176.14009 414.74732 176.27549 413.50294 176.48856 C 380.55397 182.11855 347.66002 191.53203 319.68005 207.26301 C 331.52104 220.563 338.63158 237.21661 340.37258 254.57959 C 377.43654 258.90359 415.73184 272.37943 448.3528 293.1054 C 452.6688 295.8434 462.15049 296.13612 463.58348 283.80513 C 466.43048 259.45116 463.47777 235.07815 458.18277 211.46818 C 453.42309 190.3032 435.81993 175.08506 417.23249 176.07415 z M 257.21524 202.24263 C 223.81327 202.24263 196.74087 229.3308 196.74087 262.73176 C 196.74087 296.14273 223.81327 323.22769 257.21524 323.22769 C 290.6342 323.22769 317.72356 296.14273 317.72356 262.73176 C 317.72456 229.3308 290.6352 202.24263 257.21524 202.24263 z M 59.753063 230.84318 C 55.794893 231.17354 51.749405 233.95153 50.853781 241.65839 C 48.007784 266.01037 50.968669 290.38637 56.281664 313.99535 C 61.340659 336.57133 81.030133 352.38397 100.94112 348.97497 C 133.88908 343.34398 166.78604 333.9305 194.76401 318.20051 C 182.92302 304.90053 175.81248 288.24692 174.07148 270.88394 C 137.00752 266.55794 98.711222 253.0851 66.091255 232.35812 C 64.472756 231.33137 62.127965 230.64496 59.753063 230.84318 z M 336.50716 289.09725 C 330.90417 305.97824 320.04575 320.47976 305.88276 330.65975 C 320.66175 364.91372 328.14615 404.82112 326.51415 443.44508 C 326.29715 448.54007 330.79941 456.89948 342.1864 451.98448 C 364.69038 442.25549 384.32931 427.5069 402.11729 411.11492 C 419.12528 395.44793 422.96529 370.47742 410.0723 354.94644 C 388.73132 329.24446 364.12414 305.45324 336.50716 289.09725 z M 222.72542 338.82551 C 200.45844 368.75548 169.64955 395.19484 135.37658 413.09182 C 130.84359 415.44982 125.85737 423.51771 135.81136 430.9247 C 155.48634 445.55868 178.08037 455.18089 201.16334 462.39888 C 223.24932 469.30688 246.7846 460.14542 253.7846 441.19644 C 265.38958 409.86247 273.68035 376.67097 274.04235 344.566 C 256.61737 348.166 238.62841 345.99751 222.72542 338.82551 z " />
	
	
	
	
	
	
	
</g>
</svg>
