<?xml version="1.0" encoding="UTF-8" standalone="no"?>
<!-- Uploaded to: SVG Repo, www.svgrepo.com, Generator: SVG Repo Mixer Tools -->

<svg
   fill="#000000"
   height="256"
   width="256"
   version="1.1"
   id="Capa_1"
   viewBox="0 0 195.83968 195.83968"
   xml:space="preserve"
   sodipodi:docname="Flame.svg"
   inkscape:version="1.2.2 (732a01da63, 2022-12-09)"
   xmlns:inkscape="http://www.inkscape.org/namespaces/inkscape"
   xmlns:sodipodi="http://sodipodi.sourceforge.net/DTD/sodipodi-0.dtd"
   xmlns="http://www.w3.org/2000/svg"
   xmlns:svg="http://www.w3.org/2000/svg"><defs
   id="defs9" /><sodipodi:namedview
   id="namedview7"
   pagecolor="#505050"
   bordercolor="#eeeeee"
   borderopacity="1"
   inkscape:showpageshadow="0"
   inkscape:pageopacity="0"
   inkscape:pagecheckerboard="0"
   inkscape:deskcolor="#505050"
   showgrid="false"
   inkscape:zoom="2.1175"
   inkscape:cx="188.90201"
   inkscape:cy="143.09327"
   inkscape:window-width="1920"
   inkscape:window-height="1027"
   inkscape:window-x="-8"
   inkscape:window-y="-8"
   inkscape:window-maximized="1"
   inkscape:current-layer="Capa_1" />
<g
   id="g4"
   transform="matrix(0.31999871,0,0,0.31999871,3.9541991e-4,4.2412699e-4)">
	<path
   id="path10"
   d="M 273.53455 0.0126822 C 269.82083 -0.20725508 266.23108 2.8296946 266.54008 7.0911904 C 269.27408 44.827153 266.79497 152.97794 171.91406 282.18182 C 85.885149 402.0327 119.22023 494.07837 131.04922 519.00834 C 153.6652 566.76729 185.21136 594.81606 216.01933 611.19704 C 221.99733 614.37504 228.30334 607.48926 224.64335 601.79327 C 204.77737 570.8743 185.96799 518.84682 215.93996 451.84189 C 265.92191 340.105 296.33425 282.23318 296.33425 282.23318 C 296.33425 282.23318 312.50954 349.77014 356.3615 409.81908 C 398.56645 467.61203 421.67002 540.29915 384.42806 600.85009 C 380.93306 606.53308 387.0944 613.23683 393.0334 610.19783 C 439.13335 586.61585 490.84165 539.31085 496.67564 445.17894 C 498.82664 416.41497 495.60062 376.14685 479.46964 325.3299 C 458.72866 260.92396 433.22886 230.87229 418.47587 217.9663 C 414.06288 214.1053 407.20195 217.52591 407.56395 223.3779 C 411.86295 292.87183 385.717 310.50391 370.83602 270.76095 C 364.89302 254.88697 361.42758 227.43526 361.42758 193.99929 C 361.42758 138.33435 345.27912 81.030667 309.67416 34.466714 C 300.41517 22.357726 289.57849 11.043756 277.14851 1.3947656 C 276.02351 0.52126646 274.77245 0.085994626 273.53455 0.0126822 z " />
</g>
</svg>
