<?xml version="1.0" encoding="UTF-8" standalone="no"?>
<!-- Created with Inkscape (http://www.inkscape.org/) -->

<svg
   width="310"
   height="310"
   viewBox="0 0 310 310"
   version="1.1"
   id="svg5"
   inkscape:version="1.2.2 (732a01da63, 2022-12-09)"
   sodipodi:docname="RecyclingBinFull.svg"
   xmlns:inkscape="http://www.inkscape.org/namespaces/inkscape"
   xmlns:sodipodi="http://sodipodi.sourceforge.net/DTD/sodipodi-0.dtd"
   xmlns="http://www.w3.org/2000/svg"
   xmlns:svg="http://www.w3.org/2000/svg"
   xmlns:rdf="http://www.w3.org/1999/02/22-rdf-syntax-ns#"
   xmlns:cc="http://creativecommons.org/ns#">
  <sodipodi:namedview
     id="namedview7"
     pagecolor="#ffffff"
     bordercolor="#000000"
     borderopacity="0.25"
     inkscape:showpageshadow="2"
     inkscape:pageopacity="0.0"
     inkscape:pagecheckerboard="true"
     inkscape:deskcolor="#d1d1d1"
     inkscape:document-units="px"
     showgrid="true"
     showguides="true"
     inkscape:zoom="1.509105"
     inkscape:cx="95.752116"
     inkscape:cy="120.60128"
     inkscape:window-width="1920"
     inkscape:window-height="1027"
     inkscape:window-x="-8"
     inkscape:window-y="-8"
     inkscape:window-maximized="1"
     inkscape:current-layer="layer1">
    <inkscape:grid
       type="xygrid"
       id="grid132"
       empspacing="8"
       dotted="true"
       originx="0"
       originy="0" />
    <sodipodi:guide
       position="155,161"
       orientation="1,0"
       id="guide136"
       inkscape:locked="false" />
    <sodipodi:guide
       position="11,155"
       orientation="0,-1"
       id="guide138"
       inkscape:locked="false" />
  </sodipodi:namedview>
  <defs
     id="defs2" />
  <g
     inkscape:label="Layer 1"
     inkscape:groupmode="layer"
     id="layer1"
     transform="translate(-34.999365,-15.999285)">
    <path
       id="path14"
       style="color:#000000;fill:#7f7f7f7f;stroke-linecap:round;stroke-linejoin:round;-inkscape-stroke:none;paint-order:stroke fill markers"
       d="M 138.88999 15.999285 A 8.0008 8.0008 0 0 0 131.57163 21.028582 L 121.00522 47.442644 L 84.567724 40.155535 A 8.0008 8.0008 0 0 0 74.999365 47.999285 L 74.999365 69.999285 L 69.999365 69.999285 C 65.161673 69.999973 61.431262 74.260542 62.069677 79.055926 L 94.069677 319.05593 C 94.599621 323.03041 97.989716 325.99883 101.99936 325.99928 L 277.99937 325.99928 C 282.00902 325.99883 285.39911 323.03041 285.92905 319.05593 L 317.92905 79.055926 C 318.31509 76.156215 317.08708 73.469418 314.99937 71.784441 L 314.99937 47.999285 A 8.0008 8.0008 0 0 0 304.47007 40.409441 L 281.13999 48.186785 L 265.39976 27.198504 A 8.0008 8.0008 0 0 0 260.00718 24.063738 A 8.0008 8.0008 0 0 0 254.00132 25.753191 L 234.99937 40.954363 L 234.99937 39.999285 A 8.0008 8.0008 0 0 0 229.19663 32.307879 L 173.19663 16.307879 A 8.0008 8.0008 0 0 0 164.13999 19.884051 L 156.04038 33.384051 L 145.39976 19.198504 A 8.0008 8.0008 0 0 0 140.75718 16.194598 A 8.0008 8.0008 0 0 0 138.88999 15.999285 z M 79.136084 85.999285 L 300.86265 85.999285 L 270.99546 309.99928 L 109.00327 309.99928 L 79.136084 85.999285 z M 190.04624 130.87038 C 189.22831 130.86838 188.40354 130.92758 187.57749 131.05202 C 182.68759 131.78882 178.39901 134.7116 175.92515 138.99343 L 152.20249 180.08132 L 180.35093 196.33132 L 189.99937 179.62428 L 199.64585 196.33327 L 227.79624 180.07936 L 204.07358 138.99343 C 201.14822 133.93014 195.77168 130.88545 190.04624 130.87038 z M 239.10288 199.66139 L 210.95054 215.9153 L 220.59702 232.62233 L 201.30601 232.62233 L 201.30601 265.12819 L 248.74741 265.12819 C 255.43142 265.12767 261.43376 261.03547 263.87632 254.81374 C 265.68293 250.21018 265.29547 245.03451 262.82358 240.75124 L 239.10288 199.66139 z M 140.89585 199.66335 L 117.17515 240.74928 C 114.27388 245.77763 114.27452 251.97164 117.1771 256.99928 C 120.07943 262.02769 125.44348 265.12626 131.24937 265.12819 L 178.69272 265.12819 L 178.69272 232.62428 L 159.39976 232.62428 L 169.04624 215.9153 L 140.89585 199.66335 z " />
  </g>
  <metadata
     id="metadata134">
    <rdf:RDF>
      <cc:Work
         rdf:about="">
        <cc:license
           rdf:resource="http://scripts.sil.org/OFL" />
      </cc:Work>
      <cc:License
         rdf:about="http://scripts.sil.org/OFL">
        <cc:permits
           rdf:resource="http://scripts.sil.org/pub/OFL/Reproduction" />
        <cc:permits
           rdf:resource="http://scripts.sil.org/pub/OFL/Distribution" />
        <cc:permits
           rdf:resource="http://scripts.sil.org/pub/OFL/Embedding" />
        <cc:permits
           rdf:resource="http://scripts.sil.org/pub/OFL/DerivativeWorks" />
        <cc:requires
           rdf:resource="http://scripts.sil.org/pub/OFL/Notice" />
        <cc:requires
           rdf:resource="http://scripts.sil.org/pub/OFL/Attribution" />
        <cc:requires
           rdf:resource="http://scripts.sil.org/pub/OFL/ShareAlike" />
        <cc:requires
           rdf:resource="http://scripts.sil.org/pub/OFL/DerivativeRenaming" />
        <cc:requires
           rdf:resource="http://scripts.sil.org/pub/OFL/BundlingWhenSelling" />
      </cc:License>
    </rdf:RDF>
  </metadata>
</svg>
