<?xml version="1.0" encoding="UTF-8" standalone="no"?>
<!-- Created with Inkscape (http://www.inkscape.org/) -->

<svg
   width="256"
   height="256"
   viewBox="0 0 256 256"
   version="1.1"
   id="svg5"
   inkscape:version="1.2.2 (732a01da63, 2022-12-09)"
   sodipodi:docname="Thermometer.svg"
   xmlns:inkscape="http://www.inkscape.org/namespaces/inkscape"
   xmlns:sodipodi="http://sodipodi.sourceforge.net/DTD/sodipodi-0.dtd"
   xmlns="http://www.w3.org/2000/svg"
   xmlns:svg="http://www.w3.org/2000/svg"
   xmlns:rdf="http://www.w3.org/1999/02/22-rdf-syntax-ns#"
   xmlns:cc="http://creativecommons.org/ns#">
  <sodipodi:namedview
     id="namedview7"
     pagecolor="#ffffff"
     bordercolor="#000000"
     borderopacity="0.25"
     inkscape:showpageshadow="2"
     inkscape:pageopacity="0.0"
     inkscape:pagecheckerboard="true"
     inkscape:deskcolor="#d1d1d1"
     inkscape:document-units="px"
     showgrid="true"
     showguides="true"
     inkscape:zoom="0.75455248"
     inkscape:cx="-597.70528"
     inkscape:cy="299.51529"
     inkscape:window-width="1920"
     inkscape:window-height="1027"
     inkscape:window-x="-8"
     inkscape:window-y="-8"
     inkscape:window-maximized="1"
     inkscape:current-layer="layer1">
    <inkscape:grid
       type="xygrid"
       id="grid132"
       empspacing="8"
       dotted="true"
       originx="0"
       originy="0" />
    <sodipodi:guide
       position="128,176"
       orientation="1,0"
       id="guide136"
       inkscape:locked="false" />
    <sodipodi:guide
       position="160,128"
       orientation="0,-1"
       id="guide138"
       inkscape:locked="false" />
  </sodipodi:namedview>
  <defs
     id="defs2" />
  <g
     inkscape:label="Layer 1"
     inkscape:groupmode="layer"
     id="layer1">
    <path
       id="path2640"
       style="color:#000000;fill:#000000;stroke-linecap:round;stroke-linejoin:round;-inkscape-stroke:none;paint-order:stroke fill markers"
       d="M 112 2 C 105.95791 2 100.5182 5.0130375 97.654297 9.390625 C 94.790397 13.768213 94 18.86043 94 24 L 94 152 L 94 181.13281 C 82.220306 190.64717 76.993335 203.09339 78.013672 218.39844 A 6.0006 6.0006 0 0 0 78.082031 218.98633 C 80.333069 232.49254 87.606451 242.1179 96.9375 247.6582 C 106.26855 253.19852 117.30002 255 128 255 C 138.69998 255 149.73145 253.19852 159.0625 247.6582 C 168.39355 242.1179 175.66693 232.49254 177.91797 218.98633 A 6.0006 6.0006 0 0 0 177.98633 218.39844 C 179.00681 203.09056 173.77168 190.6699 162 181.13867 L 162 152 L 162 24 C 162 18.86043 161.20961 13.768213 158.3457 9.390625 C 155.48181 5.0130375 150.04209 2 144 2 L 112 2 z M 112 14 L 144 14 C 146.82188 14 147.38265 14.554534 148.30273 15.960938 C 149.22283 17.36734 150 20.275596 150 24 L 150 42 L 120 42 A 6 6 0 0 0 114 48 A 6 6 0 0 0 120 54 L 150 54 L 150 82 L 120 82 A 6 6 0 0 0 114 88 A 6 6 0 0 0 120 94 L 150 94 L 150 122 L 120 122 A 6 6 0 0 0 114 128 A 6 6 0 0 0 120 134 L 150 134 L 150 152 L 150 184 A 6.0006 6.0006 0 0 0 152.50195 188.875 C 163.66339 196.88203 166.83884 203.90671 166.00781 217.29297 C 164.21783 227.59221 159.54029 233.42138 152.9375 237.3418 C 146.26858 241.30146 137.29998 243 128 243 C 118.70002 243 109.73142 241.30146 103.0625 237.3418 C 96.459705 233.42138 91.78217 227.59221 89.992188 217.29297 C 89.161085 203.90565 92.334522 196.85327 103.48828 188.88086 A 6.0006 6.0006 0 0 0 106 184 L 106 152 L 106 24 C 106 20.275596 106.77717 17.36734 107.69727 15.960938 C 108.61735 14.554534 109.17812 14 112 14 z " />
  </g>
  <metadata
     id="metadata134">
    <rdf:RDF>
      <cc:Work
         rdf:about="">
        <cc:license
           rdf:resource="http://scripts.sil.org/OFL" />
      </cc:Work>
      <cc:License
         rdf:about="http://scripts.sil.org/OFL">
        <cc:permits
           rdf:resource="http://scripts.sil.org/pub/OFL/Reproduction" />
        <cc:permits
           rdf:resource="http://scripts.sil.org/pub/OFL/Distribution" />
        <cc:permits
           rdf:resource="http://scripts.sil.org/pub/OFL/Embedding" />
        <cc:permits
           rdf:resource="http://scripts.sil.org/pub/OFL/DerivativeWorks" />
        <cc:requires
           rdf:resource="http://scripts.sil.org/pub/OFL/Notice" />
        <cc:requires
           rdf:resource="http://scripts.sil.org/pub/OFL/Attribution" />
        <cc:requires
           rdf:resource="http://scripts.sil.org/pub/OFL/ShareAlike" />
        <cc:requires
           rdf:resource="http://scripts.sil.org/pub/OFL/DerivativeRenaming" />
        <cc:requires
           rdf:resource="http://scripts.sil.org/pub/OFL/BundlingWhenSelling" />
      </cc:License>
    </rdf:RDF>
  </metadata>
</svg>
