<?xml version="1.0" encoding="UTF-8" standalone="no"?>
<!-- Uploaded to: SVG Repo, www.svgrepo.com, Generator: SVG Repo Mixer Tools -->

<svg
   width="230.00003"
   height="230"
   viewBox="0 0 21.850002 21.85"
   version="1.1"
   enable-background="new 0 0 76.00 76.00"
   xml:space="preserve"
   id="svg1742"
   sodipodi:docname="WaterPump.svg"
   inkscape:version="1.2.2 (732a01da63, 2022-12-09)"
   xmlns:inkscape="http://www.inkscape.org/namespaces/inkscape"
   xmlns:sodipodi="http://sodipodi.sourceforge.net/DTD/sodipodi-0.dtd"
   xmlns="http://www.w3.org/2000/svg"
   xmlns:svg="http://www.w3.org/2000/svg"><defs
   id="defs1746" /><sodipodi:namedview
   id="namedview1744"
   pagecolor="#505050"
   bordercolor="#eeeeee"
   borderopacity="1"
   inkscape:showpageshadow="0"
   inkscape:pageopacity="0"
   inkscape:pagecheckerboard="true"
   inkscape:deskcolor="#505050"
   showgrid="true"
   inkscape:zoom="2.9945972"
   inkscape:cx="41.073971"
   inkscape:cy="91.498115"
   inkscape:window-width="1920"
   inkscape:window-height="1027"
   inkscape:window-x="-8"
   inkscape:window-y="-8"
   inkscape:window-maximized="1"
   inkscape:current-layer="svg1742"><inkscape:grid
     type="xygrid"
     id="grid1867"
     dotted="true"
     empspacing="16"
     originx="-1.2349985"
     originy="-1.2350005" /></sodipodi:namedview>
	<path
   id="path1740"
   style="fill:#000000;fill-opacity:1;stroke:none;stroke-width:1.14;stroke-dasharray:none;stroke-opacity:1"
   d="M 10.925742 0 C 4.8982048 -9.8481951e-08 -9.8481992e-08 4.8982058 0 10.925742 C -5.7930587e-07 16.953279 4.8982045 21.849628 10.925742 21.849628 C 16.95328 21.849628 21.849629 16.953279 21.849628 10.925742 C 21.849628 4.8982059 16.95328 -9.0001988e-16 10.925742 0 z M 10.925742 1.0411035 C 12.114719 1.0411035 13.25408 1.250317 14.309189 1.6339257 C 13.86824 1.8915621 13.447034 2.1715328 13.048027 2.4724121 C 12.129097 3.1651975 11.326974 3.96701 10.661338 4.8479687 C 9.9957678 5.7289272 9.4665302 6.6890513 8.9374217 7.6491698 C 8.2414671 7.2129169 7.5455753 6.776882 6.9195995 6.2241698 C 6.2936236 5.6714575 5.7377365 5.0022185 5.2788085 4.2343651 C 5.0840552 3.9085063 4.9067586 3.5647193 4.7487011 3.2051367 C 6.4400839 1.8508142 8.5869475 1.0411035 10.925742 1.0411035 z M 16.343711 2.6546191 C 19.034149 4.4195083 20.808525 7.4624093 20.808525 10.925742 C 20.808525 11.00343 20.807517 11.080977 20.805742 11.158232 C 20.436931 10.833686 20.05427 10.532825 19.659433 10.257588 C 18.715159 9.5995519 17.70327 9.0857786 16.658027 8.7262694 C 15.612717 8.366762 14.534191 8.1613604 13.455674 7.9558787 C 13.656332 7.1605881 13.856897 6.3652629 14.190254 5.6003612 C 14.523542 4.8354596 14.989566 4.1010253 15.579443 3.428164 C 15.814697 3.1598363 16.070013 2.9015191 16.343711 2.6546191 z M 3.1589355 4.8062206 C 3.2708982 5.3320797 3.4136029 5.8449652 3.5856933 6.341621 C 3.9619375 7.4279259 4.4782793 8.4370168 5.1121874 9.3409861 C 5.7460283 10.245023 6.497465 11.043867 7.2489452 11.842715 C 6.6181966 12.36846 5.9875266 12.894203 5.2673046 13.317441 C 4.5471502 13.740746 3.7374723 14.061715 2.863916 14.260019 C 2.4825451 14.346579 2.088813 14.409486 1.6855078 14.448164 C 1.2690515 13.354428 1.0411034 12.167055 1.0411035 10.925742 C 1.0411035 8.6135006 1.832256 6.4886019 3.1589355 4.8062206 z M 11.100527 8.5770897 C 12.399938 8.5770897 13.453261 9.6282487 13.453261 10.925 C 13.453261 12.22175 12.399938 13.27291 11.100527 13.27291 C 9.8011169 13.27291 8.7477928 12.22175 8.7477928 10.925 C 8.7477928 9.6282487 9.8011169 8.5770897 11.100527 8.5770897 z M 11.100527 9.5833103 C 10.357988 9.5833103 9.7560545 10.183981 9.7560545 10.925 C 9.7560545 11.666019 10.357988 12.266689 11.100527 12.266689 C 11.843066 12.266689 12.445 11.666019 12.445 10.925 C 12.445 10.183981 11.843066 9.5833103 11.100527 9.5833103 z M 16.099902 12.268359 C 16.409142 12.267427 16.719528 12.278267 17.031533 12.308252 C 17.863477 12.388284 18.707306 12.603698 19.530849 12.955625 C 19.853964 13.093703 20.1738 13.253203 20.488642 13.433037 C 19.616307 16.778735 17.038459 19.429609 13.735849 20.404589 C 13.94999 19.921947 14.132589 19.432198 14.283213 18.938398 C 14.618586 17.838809 14.795234 16.719511 14.814804 15.616367 C 14.834433 14.513156 14.697081 13.426164 14.559677 12.339052 C 15.072124 12.304503 15.584502 12.269912 16.099902 12.268359 z M 10.723681 14.741142 C 11.029812 15.502289 11.335812 16.263383 11.516709 17.077734 C 11.697544 17.892077 11.753137 18.759553 11.672197 19.64997 C 11.637854 20.027386 11.578946 20.408994 11.495185 20.792197 C 11.306727 20.802863 11.116908 20.808525 10.925742 20.808525 C 7.5058435 20.808525 4.4955184 19.078699 2.7212304 16.444834 C 3.2680239 16.503601 3.8117753 16.528147 4.3490331 16.518125 C 5.5005544 16.496657 6.6217007 16.318457 7.6790428 15.996181 C 8.7364529 15.673905 9.7301329 15.207577 10.723681 14.741142 z " />
</svg>
