<?xml version="1.0" encoding="UTF-8" standalone="no"?>
<!-- Created with Inkscape (http://www.inkscape.org/) -->

<svg
   width="183"
   height="183"
   viewBox="0 0 183.00001 182.99999"
   version="1.1"
   id="svg5"
   inkscape:version="1.2.2 (732a01da63, 2022-12-09)"
   sodipodi:docname="WaterDrops.svg"
   xml:space="preserve"
   xmlns:inkscape="http://www.inkscape.org/namespaces/inkscape"
   xmlns:sodipodi="http://sodipodi.sourceforge.net/DTD/sodipodi-0.dtd"
   xmlns="http://www.w3.org/2000/svg"
   xmlns:svg="http://www.w3.org/2000/svg"
   xmlns:rdf="http://www.w3.org/1999/02/22-rdf-syntax-ns#"
   xmlns:cc="http://creativecommons.org/ns#"><sodipodi:namedview
     id="namedview7"
     pagecolor="#ffffff"
     bordercolor="#000000"
     borderopacity="0.25"
     inkscape:showpageshadow="2"
     inkscape:pageopacity="0.0"
     inkscape:pagecheckerboard="true"
     inkscape:deskcolor="#d1d1d1"
     inkscape:document-units="px"
     showgrid="true"
     showguides="true"
     inkscape:zoom="1.509105"
     inkscape:cx="-182.55854"
     inkscape:cy="62.288577"
     inkscape:window-width="1920"
     inkscape:window-height="1027"
     inkscape:window-x="-8"
     inkscape:window-y="-8"
     inkscape:window-maximized="1"
     inkscape:current-layer="layer1"><inkscape:grid
       type="xygrid"
       id="grid132"
       empspacing="8"
       dotted="true"
       originx="0"
       originy="0" /><sodipodi:guide
       position="74.190903,103.47599"
       orientation="1,0"
       id="guide136"
       inkscape:locked="false" /><sodipodi:guide
       position="106.1909,55.475999"
       orientation="0,-1"
       id="guide138"
       inkscape:locked="false" /></sodipodi:namedview><defs
     id="defs2" /><g
     inkscape:label="Layer 1"
     inkscape:groupmode="layer"
     id="layer1"
     transform="translate(-53.809097,-0.47600002)"><path
       id="path244-5"
       style="color:#000000;fill:#000000;stroke-linecap:round;stroke-linejoin:round;-inkscape-stroke:none"
       d="M 140.35011 0.78850002 A 2.1516252 2.1516252 0 0 0 138.29152 2.3138906 C 135.04928 12.994658 126.35955 28.48055 118.38332 39.741625 C 114.569 45.126788 111.94969 50.339531 111.07863 55.75725 C 110.20756 61.17497 111.16963 66.728926 114.19777 72.429125 C 118.65799 80.825211 129.1651 88.788501 140.35011 88.7885 C 151.69814 88.7885 162.05481 80.801569 166.50246 72.429125 C 169.16999 67.407667 170.24433 62.504355 169.85597 57.698656 C 169.36258 51.593448 166.58351 45.768091 162.31496 39.741625 C 154.33872 28.480552 145.65094 12.99466 142.40871 2.3138906 A 2.1516252 2.1516252 0 0 0 140.35011 0.78850002 z M 140.35011 8.9799063 C 144.56422 19.71681 151.80512 32.345057 158.80519 42.227953 C 162.82498 47.903199 165.16076 53.020591 165.56691 58.046313 C 165.88661 62.002458 165.05685 65.978073 162.70168 70.411547 C 159.06528 77.25686 149.57654 84.485766 140.35011 84.485766 C 131.32494 84.485766 121.62045 77.233218 117.9966 70.411547 C 115.32295 65.37857 114.60274 60.943487 115.32668 56.440844 C 116.05061 51.9382 118.30305 47.299223 121.89503 42.227953 C 128.8951 32.345058 136.13601 19.716811 140.35011 8.9799063 z M 202.30714 71.161547 A 2.1516252 2.1516252 0 0 0 200.24855 72.688891 C 197.00631 83.369658 188.31852 98.853603 180.3423 110.11467 C 176.52798 115.49984 173.90672 120.71258 173.03566 126.1303 C 172.16459 131.54801 173.12666 137.10198 176.1548 142.80217 C 180.61503 151.19826 191.12214 159.16155 202.30714 159.16155 C 213.65517 159.16155 224.01184 151.17462 228.45949 142.80217 C 231.12702 137.78073 232.20136 132.8774 231.813 128.0717 C 231.31961 121.96649 228.5425 116.14115 224.27394 110.11467 C 216.2977 98.853616 207.60797 83.36966 204.36574 72.688891 A 2.1516252 2.1516252 0 0 0 202.30714 71.161547 z M 202.30714 79.351 C 206.5211 90.088342 213.76169 102.71747 220.76222 112.601 C 224.78201 118.27625 227.11779 123.39363 227.52394 128.41936 C 227.84364 132.37551 227.01584 136.35112 224.66066 140.78459 C 221.02425 147.62991 211.53357 154.85882 202.30714 154.85881 C 193.28197 154.85881 183.57944 147.60627 179.95558 140.78459 C 177.28193 135.75162 176.56172 131.31654 177.28566 126.81389 C 178.0096 122.31126 180.26008 117.67227 183.85207 112.601 C 190.85251 102.71758 198.09316 90.088264 202.30714 79.351 z M 88.307144 95.161547 A 2.1516252 2.1516252 0 0 0 86.24855 96.688891 C 83.006319 107.36965 74.318528 122.85361 66.3423 134.11467 C 62.527982 139.49984 59.906726 144.71257 59.03566 150.1303 C 58.164594 155.54801 59.126712 161.10198 62.1548 166.80217 C 66.615028 175.19826 77.122133 183.16155 88.307144 183.16155 C 99.655174 183.16155 110.01184 175.17462 114.45949 166.80217 C 117.12702 161.78073 118.20136 156.87741 117.813 152.0717 C 117.31961 145.96649 114.5425 140.14115 110.27394 134.11467 C 102.2977 122.8536 93.607969 107.36965 90.365738 96.688891 A 2.1516252 2.1516252 0 0 0 88.307144 95.161547 z M 88.307144 103.351 C 92.521098 114.08834 99.761689 126.71746 106.76222 136.601 C 110.78201 142.27625 113.11779 147.39363 113.52394 152.41936 C 113.84364 156.37552 113.01584 160.35114 110.66066 164.78459 C 107.02425 171.62991 97.533573 178.85881 88.307144 178.85881 C 79.281975 178.85881 69.579438 171.60627 65.955581 164.78459 C 63.281935 159.75161 62.561721 155.31654 63.28566 150.81389 C 64.009599 146.31126 66.260078 141.67227 69.852066 136.601 C 76.852505 126.71759 84.093158 114.08826 88.307144 103.351 z " /></g><metadata
     id="metadata134"><rdf:RDF><cc:Work
         rdf:about=""><cc:license
           rdf:resource="http://scripts.sil.org/OFL" /></cc:Work><cc:License
         rdf:about="http://scripts.sil.org/OFL"><cc:permits
           rdf:resource="http://scripts.sil.org/pub/OFL/Reproduction" /><cc:permits
           rdf:resource="http://scripts.sil.org/pub/OFL/Distribution" /><cc:permits
           rdf:resource="http://scripts.sil.org/pub/OFL/Embedding" /><cc:permits
           rdf:resource="http://scripts.sil.org/pub/OFL/DerivativeWorks" /><cc:requires
           rdf:resource="http://scripts.sil.org/pub/OFL/Notice" /><cc:requires
           rdf:resource="http://scripts.sil.org/pub/OFL/Attribution" /><cc:requires
           rdf:resource="http://scripts.sil.org/pub/OFL/ShareAlike" /><cc:requires
           rdf:resource="http://scripts.sil.org/pub/OFL/DerivativeRenaming" /><cc:requires
           rdf:resource="http://scripts.sil.org/pub/OFL/BundlingWhenSelling" /></cc:License></rdf:RDF></metadata></svg>
