<?xml version="1.0" encoding="UTF-8" standalone="no"?>
<!-- Created with Inkscape (http://www.inkscape.org/) -->

<svg
   width="256"
   height="256"
   viewBox="0 0 256 256"
   version="1.1"
   id="svg5"
   inkscape:version="1.2.2 (732a01da63, 2022-12-09)"
   sodipodi:docname="WaterFlow.svg"
   xmlns:inkscape="http://www.inkscape.org/namespaces/inkscape"
   xmlns:sodipodi="http://sodipodi.sourceforge.net/DTD/sodipodi-0.dtd"
   xmlns="http://www.w3.org/2000/svg"
   xmlns:svg="http://www.w3.org/2000/svg"
   xmlns:rdf="http://www.w3.org/1999/02/22-rdf-syntax-ns#"
   xmlns:cc="http://creativecommons.org/ns#">
  <sodipodi:namedview
     id="namedview7"
     pagecolor="#ffffff"
     bordercolor="#000000"
     borderopacity="0.25"
     inkscape:showpageshadow="2"
     inkscape:pageopacity="0.0"
     inkscape:pagecheckerboard="true"
     inkscape:deskcolor="#d1d1d1"
     inkscape:document-units="px"
     showgrid="true"
     showguides="true"
     inkscape:zoom="1.4142136"
     inkscape:cx="-162.63456"
     inkscape:cy="133.64318"
     inkscape:window-width="1920"
     inkscape:window-height="1027"
     inkscape:window-x="-8"
     inkscape:window-y="-8"
     inkscape:window-maximized="1"
     inkscape:current-layer="layer1">
    <inkscape:grid
       type="xygrid"
       id="grid132"
       empspacing="8"
       dotted="true" />
    <sodipodi:guide
       position="128,176"
       orientation="1,0"
       id="guide136"
       inkscape:locked="false" />
    <sodipodi:guide
       position="160,128"
       orientation="0,-1"
       id="guide138"
       inkscape:locked="false" />
    <sodipodi:guide
       position="64,64"
       orientation="1,0"
       id="guide5543"
       inkscape:locked="false" />
    <sodipodi:guide
       position="192,80"
       orientation="1,0"
       id="guide5545"
       inkscape:locked="false" />
  </sodipodi:namedview>
  <defs
     id="defs2" />
  <g
     inkscape:label="Layer 1"
     inkscape:groupmode="layer"
     id="layer1">
    <path
       id="path6275"
       style="color:#000000;fill:#7f7f7f7f;stroke-linecap:round;stroke-linejoin:round;-inkscape-stroke:none;paint-order:stroke fill markers"
       d="M 37.314453 2.6699219 C 28.513229 2.6699219 20.825692 7.2441857 14.265625 11.275391 C 7.7055572 15.306595 2.6699219 19.328125 2.6699219 19.328125 A 7.0848498 7.0848498 0 0 0 1.5449219 29.283203 A 7.0848498 7.0848498 0 0 0 11.5 30.408203 C 11.5 30.408203 15.945696 26.873632 21.683594 23.347656 C 27.421491 19.821681 34.850099 16.837891 37.314453 16.837891 C 39.778808 16.837891 47.205462 19.821681 52.943359 23.347656 C 58.681258 26.873632 63.126953 30.408203 63.126953 30.408203 C 63.126953 30.408203 68.162588 34.429734 74.722656 38.460938 C 81.282725 42.492142 88.970259 47.068359 97.771484 47.068359 C 106.57271 47.068359 114.26025 42.492142 120.82031 38.460938 C 127.38039 34.429734 132.41602 30.408203 132.41602 30.408203 C 132.41602 30.408203 136.86172 26.873632 142.59961 23.347656 C 148.3375 19.821681 155.76416 16.837891 158.22852 16.837891 C 160.69287 16.837891 168.12148 19.821682 173.85938 23.347656 C 179.59728 26.873632 184.04102 30.408203 184.04102 30.408203 C 184.04102 30.408203 189.07861 34.429734 195.63867 38.460938 C 202.19875 42.492142 209.88432 47.068359 218.68555 47.068359 C 227.48677 47.068359 235.17431 42.492142 241.73438 38.460938 C 248.29445 34.429734 253.33008 30.408203 253.33008 30.408203 A 7.0848498 7.0848498 0 0 0 254.45508 20.453125 A 7.0848498 7.0848498 0 0 0 244.5 19.328125 C 244.5 19.328125 240.0543 22.862696 234.31641 26.388672 C 228.5785 29.914647 221.14989 32.898438 218.68555 32.898438 C 216.22118 32.898438 208.79453 29.914647 203.05664 26.388672 C 197.31875 22.862696 192.87305 19.328125 192.87305 19.328125 C 192.87305 19.328125 187.83742 15.306596 181.27734 11.275391 C 174.71728 7.2441854 167.02974 2.6699219 158.22852 2.6699219 C 149.42728 2.6699219 141.73975 7.2441857 135.17969 11.275391 C 128.61961 15.306595 123.58398 19.328125 123.58398 19.328125 C 123.58398 19.328125 119.13828 22.862696 113.40039 26.388672 C 107.6625 29.914647 100.23584 32.898438 97.771484 32.898438 C 95.307127 32.898438 87.878523 29.914647 82.140625 26.388672 C 76.402727 22.862696 71.958984 19.328125 71.958984 19.328125 C 71.958984 19.328125 66.921397 15.306595 60.361328 11.275391 C 53.80126 7.2441857 46.115677 2.6699219 37.314453 2.6699219 z M 37.314453 54.457031 C 28.513229 54.457031 20.825692 59.033248 14.265625 63.064453 C 7.7055572 67.095658 2.6699219 71.117188 2.6699219 71.117188 A 7.0848498 7.0848498 0 0 0 1.5449219 81.072266 A 7.0848498 7.0848498 0 0 0 11.5 82.197266 C 11.5 82.197266 15.945696 78.662694 21.683594 75.136719 C 27.421491 71.610743 34.850099 68.626953 37.314453 68.626953 C 39.778808 68.626953 47.205462 71.610743 52.943359 75.136719 C 58.681258 78.662694 63.126953 82.197266 63.126953 82.197266 C 63.126953 82.197266 68.162588 86.218795 74.722656 90.25 C 81.282726 94.281205 88.97026 98.855469 97.771484 98.855469 C 106.57271 98.855469 114.26025 94.281205 120.82031 90.25 C 127.38039 86.218795 132.41602 82.197266 132.41602 82.197266 C 132.41602 82.197266 136.86172 78.662694 142.59961 75.136719 C 148.3375 71.610743 155.76416 68.626953 158.22852 68.626953 C 160.69287 68.626953 168.12148 71.610743 173.85938 75.136719 C 179.59728 78.662694 184.04102 82.197266 184.04102 82.197266 C 184.04102 82.197266 189.07861 86.218795 195.63867 90.25 C 202.19875 94.281205 209.88432 98.855469 218.68555 98.855469 C 227.48677 98.855469 235.17431 94.281205 241.73438 90.25 C 248.29445 86.218795 253.33008 82.197266 253.33008 82.197266 A 7.0848498 7.0848498 0 0 0 254.45508 72.242188 A 7.0848498 7.0848498 0 0 0 244.5 71.117188 C 244.5 71.117188 240.0543 74.651759 234.31641 78.177734 C 228.5785 81.703711 221.14989 84.6875 218.68555 84.6875 C 216.22118 84.6875 208.79453 81.70371 203.05664 78.177734 C 197.31875 74.651759 192.87305 71.117188 192.87305 71.117188 C 192.87305 71.117188 187.83742 67.095658 181.27734 63.064453 C 174.71728 59.033248 167.02974 54.457031 158.22852 54.457031 C 149.42728 54.457031 141.73975 59.033248 135.17969 63.064453 C 128.61961 67.095658 123.58398 71.117187 123.58398 71.117188 C 123.58398 71.117188 119.13828 74.651759 113.40039 78.177734 C 107.6625 81.703711 100.23584 84.6875 97.771484 84.6875 C 95.30713 84.6875 87.878523 81.703711 82.140625 78.177734 C 76.402727 74.651759 71.958984 71.117188 71.958984 71.117188 C 71.958984 71.117188 66.921397 67.095658 60.361328 63.064453 C 53.80126 59.033248 46.115677 54.457031 37.314453 54.457031 z M 37.314453 105.80078 C 28.513229 105.80078 20.825692 110.37504 14.265625 114.40625 C 7.7055573 118.43746 2.6699219 122.45898 2.6699219 122.45898 A 7.0848498 7.0848498 0 0 0 1.5449219 132.41602 A 7.0848498 7.0848498 0 0 0 11.5 133.54102 C 11.5 133.54102 15.945696 130.00448 21.683594 126.47852 C 27.421491 122.95254 34.850099 119.9707 37.314453 119.9707 C 39.778808 119.9707 47.205462 122.95254 52.943359 126.47852 C 58.681258 130.00448 63.126953 133.54102 63.126953 133.54102 C 63.126953 133.54102 68.162588 137.56254 74.722656 141.59375 C 81.282725 145.62496 88.970259 150.19922 97.771484 150.19922 C 106.57271 150.19922 114.26025 145.62496 120.82031 141.59375 C 127.38039 137.56254 132.41602 133.54102 132.41602 133.54102 C 132.41602 133.54102 136.86172 130.00448 142.59961 126.47852 C 148.3375 122.95254 155.76416 119.9707 158.22852 119.9707 C 160.69287 119.9707 168.12148 122.95254 173.85938 126.47852 C 179.59728 130.00448 184.04102 133.54102 184.04102 133.54102 C 184.04102 133.54102 189.07861 137.56254 195.63867 141.59375 C 202.19875 145.62496 209.88432 150.19922 218.68555 150.19922 C 227.48677 150.19922 235.17431 145.62496 241.73438 141.59375 C 248.29445 137.56254 253.33008 133.54102 253.33008 133.54102 A 7.0848498 7.0848498 0 0 0 254.45508 123.58398 A 7.0848498 7.0848498 0 0 0 244.5 122.45898 C 244.5 122.45898 240.0543 125.99552 234.31641 129.52148 C 228.5785 133.04746 221.14989 136.0293 218.68555 136.0293 C 216.22118 136.0293 208.79453 133.04746 203.05664 129.52148 C 197.31875 125.99552 192.87305 122.45898 192.87305 122.45898 C 192.87305 122.45898 187.83742 118.43746 181.27734 114.40625 C 174.71728 110.37504 167.02974 105.80078 158.22852 105.80078 C 149.42728 105.80078 141.73975 110.37504 135.17969 114.40625 C 128.61961 118.43746 123.58398 122.45898 123.58398 122.45898 C 123.58398 122.45898 119.13828 125.99552 113.40039 129.52148 C 107.6625 133.04746 100.23584 136.0293 97.771484 136.0293 C 95.307127 136.0293 87.878523 133.04746 82.140625 129.52148 C 76.402727 125.99552 71.958984 122.45898 71.958984 122.45898 C 71.958984 122.45898 66.921397 118.43746 60.361328 114.40625 C 53.80126 110.37504 46.115677 105.80078 37.314453 105.80078 z M 37.314453 157.14453 C 28.51323 157.14453 20.825692 161.71879 14.265625 165.75 C 7.7055576 169.78121 2.6699219 173.80273 2.6699219 173.80273 A 7.0848498 7.0848498 0 0 0 1.5449219 183.75781 A 7.0848498 7.0848498 0 0 0 11.5 184.88281 C 11.5 184.88281 15.945696 181.34823 21.683594 177.82227 C 27.42149 174.29629 34.850101 171.3125 37.314453 171.3125 C 39.778809 171.3125 47.205463 174.29629 52.943359 177.82227 C 58.681257 181.34823 63.126953 184.88281 63.126953 184.88281 C 63.126953 184.88281 68.162587 188.90434 74.722656 192.93555 C 81.282727 196.96675 88.97026 201.54297 97.771484 201.54297 C 106.57271 201.54297 114.26025 196.96675 120.82031 192.93555 C 127.38039 188.90434 132.41602 184.88281 132.41602 184.88281 C 132.41602 184.88281 136.86172 181.34823 142.59961 177.82227 C 148.3375 174.29629 155.76416 171.3125 158.22852 171.3125 C 160.69287 171.3125 168.12148 174.29629 173.85938 177.82227 C 179.59728 181.34823 184.04102 184.88281 184.04102 184.88281 C 184.04102 184.88281 189.07861 188.90434 195.63867 192.93555 C 202.19875 196.96675 209.88432 201.54297 218.68555 201.54297 C 227.48677 201.54297 235.17431 196.96675 241.73438 192.93555 C 248.29445 188.90434 253.33008 184.88281 253.33008 184.88281 A 7.0848498 7.0848498 0 0 0 254.45508 174.92773 A 7.0848498 7.0848498 0 0 0 244.5 173.80273 C 244.5 173.80273 240.0543 177.3373 234.31641 180.86328 C 228.5785 184.38926 221.14989 187.37305 218.68555 187.37305 C 216.22118 187.37305 208.79453 184.38926 203.05664 180.86328 C 197.31875 177.3373 192.87305 173.80273 192.87305 173.80273 C 192.87305 173.80273 187.83742 169.78121 181.27734 165.75 C 174.71728 161.71879 167.02974 157.14453 158.22852 157.14453 C 149.42728 157.14453 141.73975 161.71879 135.17969 165.75 C 128.61961 169.78121 123.58398 173.80273 123.58398 173.80273 C 123.58398 173.80273 119.13828 177.3373 113.40039 180.86328 C 107.6625 184.38926 100.23584 187.37305 97.771484 187.37305 C 95.30713 187.37305 87.878524 184.38926 82.140625 180.86328 C 76.402726 177.3373 71.958984 173.80273 71.958984 173.80273 C 71.958984 173.80273 66.921396 169.78121 60.361328 165.75 C 53.801261 161.71879 46.115677 157.14453 37.314453 157.14453 z M 37.314453 208.93164 C 28.513229 208.93164 20.825692 213.50786 14.265625 217.53906 C 7.7055577 221.57027 2.6699219 225.5918 2.6699219 225.5918 A 7.0848498 7.0848498 0 0 0 1.5449219 235.54688 A 7.0848498 7.0848498 0 0 0 11.5 236.67188 C 11.5 236.67188 15.945696 233.1373 21.683594 229.61133 C 27.42149 226.08535 34.8501 223.10156 37.314453 223.10156 C 39.778809 223.10156 47.205463 226.08535 52.943359 229.61133 C 58.681257 233.1373 63.126953 236.67188 63.126953 236.67188 C 63.126953 236.67188 68.162587 240.6934 74.722656 244.72461 C 81.282727 248.75582 88.97026 253.33008 97.771484 253.33008 C 106.57271 253.33008 114.26025 248.75582 120.82031 244.72461 C 127.38039 240.6934 132.41602 236.67188 132.41602 236.67188 C 132.41602 236.67188 136.86172 233.1373 142.59961 229.61133 C 148.3375 226.08535 155.76416 223.10156 158.22852 223.10156 C 160.69287 223.10156 168.12148 226.08535 173.85938 229.61133 C 179.59728 233.1373 184.04102 236.67188 184.04102 236.67188 C 184.04102 236.67188 189.07861 240.6934 195.63867 244.72461 C 202.19875 248.75582 209.88432 253.33008 218.68555 253.33008 C 227.48677 253.33008 235.17431 248.75582 241.73438 244.72461 C 248.29445 240.6934 253.33008 236.67188 253.33008 236.67188 A 7.0848498 7.0848498 0 0 0 254.45508 226.7168 A 7.0848498 7.0848498 0 0 0 244.5 225.5918 C 244.5 225.5918 240.0543 229.12637 234.31641 232.65234 C 228.5785 236.17832 221.14989 239.16211 218.68555 239.16211 C 216.22118 239.16211 208.79453 236.17832 203.05664 232.65234 C 197.31875 229.12637 192.87305 225.5918 192.87305 225.5918 C 192.87305 225.5918 187.83742 221.57027 181.27734 217.53906 C 174.71728 213.50786 167.02974 208.93164 158.22852 208.93164 C 149.42728 208.93164 141.73975 213.50786 135.17969 217.53906 C 128.61961 221.57027 123.58398 225.5918 123.58398 225.5918 C 123.58398 225.5918 119.13828 229.12637 113.40039 232.65234 C 107.6625 236.17832 100.23584 239.16211 97.771484 239.16211 C 95.30713 239.16211 87.878524 236.17832 82.140625 232.65234 C 76.402726 229.12637 71.958984 225.5918 71.958984 225.5918 C 71.958984 225.5918 66.921396 221.57027 60.361328 217.53906 C 53.801261 213.50786 46.115677 208.93164 37.314453 208.93164 z " />
  </g>
  <metadata
     id="metadata134">
    <rdf:RDF>
      <cc:Work
         rdf:about="">
        <cc:license
           rdf:resource="http://scripts.sil.org/OFL" />
      </cc:Work>
      <cc:License
         rdf:about="http://scripts.sil.org/OFL">
        <cc:permits
           rdf:resource="http://scripts.sil.org/pub/OFL/Reproduction" />
        <cc:permits
           rdf:resource="http://scripts.sil.org/pub/OFL/Distribution" />
        <cc:permits
           rdf:resource="http://scripts.sil.org/pub/OFL/Embedding" />
        <cc:permits
           rdf:resource="http://scripts.sil.org/pub/OFL/DerivativeWorks" />
        <cc:requires
           rdf:resource="http://scripts.sil.org/pub/OFL/Notice" />
        <cc:requires
           rdf:resource="http://scripts.sil.org/pub/OFL/Attribution" />
        <cc:requires
           rdf:resource="http://scripts.sil.org/pub/OFL/ShareAlike" />
        <cc:requires
           rdf:resource="http://scripts.sil.org/pub/OFL/DerivativeRenaming" />
        <cc:requires
           rdf:resource="http://scripts.sil.org/pub/OFL/BundlingWhenSelling" />
      </cc:License>
    </rdf:RDF>
  </metadata>
</svg>
