<?xml version="1.0" encoding="UTF-8" standalone="no"?>
<!-- Created with Inkscape (http://www.inkscape.org/) -->

<svg
   width="183"
   height="183"
   viewBox="0 0 183.00001 182.99999"
   version="1.1"
   id="svg5"
   inkscape:version="1.2.2 (732a01da63, 2022-12-09)"
   sodipodi:docname="WaterDropsFilled.svg"
   xml:space="preserve"
   xmlns:inkscape="http://www.inkscape.org/namespaces/inkscape"
   xmlns:sodipodi="http://sodipodi.sourceforge.net/DTD/sodipodi-0.dtd"
   xmlns="http://www.w3.org/2000/svg"
   xmlns:svg="http://www.w3.org/2000/svg"
   xmlns:rdf="http://www.w3.org/1999/02/22-rdf-syntax-ns#"
   xmlns:cc="http://creativecommons.org/ns#"><sodipodi:namedview
     id="namedview7"
     pagecolor="#ffffff"
     bordercolor="#000000"
     borderopacity="0.25"
     inkscape:showpageshadow="2"
     inkscape:pageopacity="0.0"
     inkscape:pagecheckerboard="true"
     inkscape:deskcolor="#d1d1d1"
     inkscape:document-units="px"
     showgrid="true"
     showguides="true"
     inkscape:zoom="1.509105"
     inkscape:cx="-182.55854"
     inkscape:cy="62.288577"
     inkscape:window-width="1920"
     inkscape:window-height="1027"
     inkscape:window-x="-8"
     inkscape:window-y="-8"
     inkscape:window-maximized="1"
     inkscape:current-layer="layer1"><inkscape:grid
       type="xygrid"
       id="grid132"
       empspacing="8"
       dotted="true"
       originx="0"
       originy="0" /><sodipodi:guide
       position="74.190903,103.47599"
       orientation="1,0"
       id="guide136"
       inkscape:locked="false" /><sodipodi:guide
       position="106.1909,55.475999"
       orientation="0,-1"
       id="guide138"
       inkscape:locked="false" /></sodipodi:namedview><defs
     id="defs2" /><g
     inkscape:label="Layer 1"
     inkscape:groupmode="layer"
     id="layer1"
     transform="translate(-53.809097,-0.47600002)"><path
       id="path26"
       style="color:#000000;fill:#000000;stroke-width:4.30282;stroke-linecap:round;stroke-linejoin:round;-inkscape-stroke:none"
       d="M 140.35011 0.78850002 A 2.1516252 2.1516252 0 0 0 138.29152 2.3138906 C 135.04928 12.994647 126.35954 28.480561 118.38332 39.741625 C 114.569 45.126783 111.94969 50.339536 111.07863 55.75725 C 110.20756 61.174965 111.16963 66.728932 114.19777 72.429125 C 118.65798 80.825203 129.16511 88.788501 140.35011 88.7885 C 151.69813 88.7885 162.05481 80.801561 166.50246 72.429125 C 169.16998 67.407672 170.24433 62.50435 169.85597 57.698656 C 169.36258 51.593454 166.5835 45.768085 162.31496 39.741625 C 154.33872 28.480563 145.65093 12.994649 142.40871 2.3138906 A 2.1516252 2.1516252 0 0 0 140.35011 0.78850002 z M 202.30714 71.161547 A 2.1516252 2.1516252 0 0 0 200.24855 72.688891 C 197.00631 83.369647 188.31851 98.853616 180.3423 110.11467 C 176.52798 115.49984 173.90672 120.71258 173.03566 126.1303 C 172.16459 131.548 173.12666 137.10199 176.1548 142.80217 C 180.61503 151.19825 191.12216 159.16155 202.30714 159.16155 C 213.65516 159.16155 224.01184 151.17461 228.45949 142.80217 C 231.12701 137.78074 232.20136 132.8774 231.813 128.0717 C 231.31961 121.9665 228.5425 116.14115 224.27394 110.11467 C 216.29771 98.853629 207.60796 83.369649 204.36574 72.688891 A 2.1516252 2.1516252 0 0 0 202.30714 71.161547 z M 88.307144 95.161547 A 2.1516252 2.1516252 0 0 0 86.24855 96.688891 C 83.006322 107.36964 74.31852 122.85362 66.3423 134.11467 C 62.527986 139.49984 59.906725 144.71257 59.03566 150.1303 C 58.164594 155.548 59.126715 161.10199 62.1548 166.80217 C 66.615024 175.19825 77.122144 183.16155 88.307144 183.16155 C 99.655163 183.16155 110.01184 175.17461 114.45949 166.80217 C 117.12701 161.78074 118.20136 156.87741 117.813 152.0717 C 117.31961 145.9665 114.5425 140.14115 110.27394 134.11467 C 102.29771 122.85361 93.607965 107.36964 90.365738 96.688891 A 2.1516252 2.1516252 0 0 0 88.307144 95.161547 z " /></g><metadata
     id="metadata134"><rdf:RDF><cc:Work
         rdf:about=""><cc:license
           rdf:resource="http://scripts.sil.org/OFL" /></cc:Work><cc:License
         rdf:about="http://scripts.sil.org/OFL"><cc:permits
           rdf:resource="http://scripts.sil.org/pub/OFL/Reproduction" /><cc:permits
           rdf:resource="http://scripts.sil.org/pub/OFL/Distribution" /><cc:permits
           rdf:resource="http://scripts.sil.org/pub/OFL/Embedding" /><cc:permits
           rdf:resource="http://scripts.sil.org/pub/OFL/DerivativeWorks" /><cc:requires
           rdf:resource="http://scripts.sil.org/pub/OFL/Notice" /><cc:requires
           rdf:resource="http://scripts.sil.org/pub/OFL/Attribution" /><cc:requires
           rdf:resource="http://scripts.sil.org/pub/OFL/ShareAlike" /><cc:requires
           rdf:resource="http://scripts.sil.org/pub/OFL/DerivativeRenaming" /><cc:requires
           rdf:resource="http://scripts.sil.org/pub/OFL/BundlingWhenSelling" /></cc:License></rdf:RDF></metadata></svg>
