<?xml version="1.0" encoding="UTF-8" standalone="no"?>
<!-- Created with Inkscape (http://www.inkscape.org/) -->

<svg
   width="252"
   height="252"
   viewBox="0 0 252 252"
   version="1.1"
   id="svg5"
   inkscape:version="1.2.2 (732a01da63, 2022-12-09)"
   sodipodi:docname="CPUFlow.svg"
   xml:space="preserve"
   xmlns:inkscape="http://www.inkscape.org/namespaces/inkscape"
   xmlns:sodipodi="http://sodipodi.sourceforge.net/DTD/sodipodi-0.dtd"
   xmlns="http://www.w3.org/2000/svg"
   xmlns:svg="http://www.w3.org/2000/svg"
   xmlns:rdf="http://www.w3.org/1999/02/22-rdf-syntax-ns#"
   xmlns:cc="http://creativecommons.org/ns#"><sodipodi:namedview
     id="namedview7"
     pagecolor="#ffffff"
     bordercolor="#000000"
     borderopacity="0.25"
     inkscape:showpageshadow="2"
     inkscape:pageopacity="0.0"
     inkscape:pagecheckerboard="true"
     inkscape:deskcolor="#d1d1d1"
     inkscape:document-units="px"
     showgrid="true"
     showguides="true"
     inkscape:zoom="1.509105"
     inkscape:cx="-44.065854"
     inkscape:cy="234.57612"
     inkscape:window-width="1920"
     inkscape:window-height="1027"
     inkscape:window-x="-8"
     inkscape:window-y="-8"
     inkscape:window-maximized="1"
     inkscape:current-layer="layer1"><inkscape:grid
       type="xygrid"
       id="grid132"
       empspacing="8"
       dotted="true"
       originx="-2"
       originy="-2" /><sodipodi:guide
       position="126,174"
       orientation="1,0"
       id="guide136"
       inkscape:locked="false" /><sodipodi:guide
       position="158,126"
       orientation="0,-1"
       id="guide138"
       inkscape:locked="false" /></sodipodi:namedview><defs
     id="defs2" /><g
     inkscape:label="Layer 1"
     inkscape:groupmode="layer"
     id="layer1"
     transform="translate(-2,-2)"><path
       id="path3222"
       style="color:#000000;fill:#000000;stroke-linecap:round;stroke-linejoin:round;-inkscape-stroke:none;paint-order:stroke fill markers"
       d="M 8 2 A 6.0006 6.0006 0 0 0 2 8 L 2 248 A 6.0006 6.0006 0 0 0 8 254 L 248 254 A 6.0006 6.0006 0 0 0 254 248 L 254 8 A 6.0006 6.0006 0 0 0 248 2 L 8 2 z M 14 14 L 242 14 L 242 242 L 14 242 L 14 14 z M 55.5 34 C 43.692807 34 34 43.692807 34 55.5 L 34 200.5 C 34 212.30719 43.692807 222 55.5 222 L 200.5 222 C 212.30719 222 222 212.30719 222 200.5 L 222 55.5 C 222 43.692807 212.30719 34 200.5 34 L 55.5 34 z M 55.5 46 L 200.5 46 C 205.86677 46 210 50.133227 210 55.5 L 210 200.5 C 210 205.86677 205.86677 210 200.5 210 L 55.5 210 C 50.133227 210 46 205.86677 46 200.5 L 46 55.5 C 46 50.133227 50.133227 46 55.5 46 z M 78.40625 59.460938 C 73.59308 59.460938 69.388319 61.96145 65.800781 64.166016 C 62.213244 66.370581 59.460938 68.570312 59.460938 68.570312 A 3.8745279 3.8745279 0 0 0 58.845703 74.013672 A 3.8745279 3.8745279 0 0 0 64.289062 74.628906 C 64.289062 74.628906 66.719509 72.695846 69.857422 70.767578 C 72.995335 68.83931 77.058556 67.208984 78.40625 67.208984 C 79.753944 67.208984 83.815212 68.83931 86.953125 70.767578 C 90.091039 72.695846 92.523438 74.628906 92.523438 74.628906 C 92.523438 74.628906 95.275743 76.828638 98.863281 79.033203 C 102.45082 81.237769 106.65558 83.740234 111.46875 83.740234 C 116.28192 83.740234 120.48668 81.237769 124.07422 79.033203 C 127.66176 76.828638 130.41406 74.628906 130.41406 74.628906 C 130.41406 74.628906 132.84646 72.695846 135.98438 70.767578 C 139.12229 68.83931 143.18355 67.208984 144.53125 67.208984 C 145.87895 67.208984 149.94217 68.839311 153.08008 70.767578 C 156.218 72.695846 158.64648 74.628906 158.64648 74.628906 C 158.64648 74.628906 161.4027 76.828638 164.99023 79.033203 C 168.57778 81.237769 172.78058 83.740234 177.59375 83.740234 C 182.40692 83.740234 186.61168 81.237769 190.19922 79.033203 C 193.78676 76.828638 196.53906 74.628906 196.53906 74.628906 A 3.8745279 3.8745279 0 0 0 197.1543 69.185547 A 3.8745279 3.8745279 0 0 0 191.71094 68.570312 C 191.71094 68.570312 189.28049 70.503372 186.14258 72.431641 C 183.00466 74.359909 178.94144 75.992187 177.59375 75.992188 C 176.24605 75.992188 172.18479 74.359909 169.04688 72.431641 C 165.90896 70.503372 163.47656 68.570312 163.47656 68.570312 C 163.47656 68.570312 160.72426 66.370581 157.13672 64.166016 C 153.54918 61.96145 149.34442 59.460937 144.53125 59.460938 C 139.71808 59.460938 135.51332 61.96145 131.92578 64.166016 C 128.33824 66.370581 125.58594 68.570312 125.58594 68.570312 C 125.58594 68.570312 123.15354 70.503372 120.01562 72.431641 C 116.87771 74.359909 112.81644 75.992187 111.46875 75.992188 C 110.12105 75.992188 106.05784 74.359909 102.91992 72.431641 C 99.782008 70.503372 97.353516 68.570312 97.353516 68.570312 C 97.353516 68.570312 94.597304 66.370581 91.009766 64.166016 C 87.422228 61.96145 83.21942 59.460937 78.40625 59.460938 z M 78.40625 87.78125 C 73.59308 87.78125 69.388319 90.283716 65.800781 92.488281 C 62.213244 94.692847 59.460938 96.892579 59.460938 96.892578 A 3.8745279 3.8745279 0 0 0 58.845703 102.33594 A 3.8745279 3.8745279 0 0 0 64.289062 102.95117 C 64.289062 102.95117 66.719509 101.01811 69.857422 99.089844 C 72.995335 97.161576 77.058556 95.53125 78.40625 95.53125 C 79.753944 95.53125 83.815212 97.161576 86.953125 99.089844 C 90.091039 101.01811 92.523438 102.95117 92.523438 102.95117 C 92.523438 102.95117 95.275743 105.1509 98.863281 107.35547 C 102.45082 109.56003 106.65558 112.0625 111.46875 112.0625 C 116.28192 112.0625 120.48668 109.56003 124.07422 107.35547 C 127.66176 105.1509 130.41406 102.95117 130.41406 102.95117 C 130.41406 102.95117 132.84646 101.01811 135.98438 99.089844 C 139.12229 97.161576 143.18355 95.53125 144.53125 95.53125 C 145.87895 95.53125 149.94217 97.161576 153.08008 99.089844 C 156.218 101.01811 158.64648 102.95117 158.64648 102.95117 C 158.64648 102.95117 161.4027 105.1509 164.99023 107.35547 C 168.57778 109.56003 172.78058 112.0625 177.59375 112.0625 C 182.40692 112.0625 186.61168 109.56003 190.19922 107.35547 C 193.78676 105.1509 196.53906 102.95117 196.53906 102.95117 A 3.8745279 3.8745279 0 0 0 197.1543 97.507812 A 3.8745279 3.8745279 0 0 0 191.71094 96.892578 C 191.71094 96.892578 189.28049 98.825638 186.14258 100.75391 C 183.00466 102.68217 178.94144 104.3125 177.59375 104.3125 C 176.24605 104.3125 172.18479 102.68217 169.04688 100.75391 C 165.90896 98.825638 163.47656 96.892579 163.47656 96.892578 C 163.47656 96.892578 160.72426 94.692847 157.13672 92.488281 C 153.54918 90.283716 149.34442 87.78125 144.53125 87.78125 C 139.71808 87.78125 135.51332 90.283716 131.92578 92.488281 C 128.33824 94.692847 125.58594 96.892578 125.58594 96.892578 C 125.58594 96.892578 123.15354 98.825638 120.01562 100.75391 C 116.87771 102.68217 112.81644 104.3125 111.46875 104.3125 C 110.12106 104.3125 106.05784 102.68217 102.91992 100.75391 C 99.782008 98.825638 97.353516 96.892579 97.353516 96.892578 C 97.353516 96.892578 94.597304 94.692847 91.009766 92.488281 C 87.422228 90.283716 83.21942 87.78125 78.40625 87.78125 z M 78.40625 115.85938 C 73.59308 115.85938 69.388319 118.36184 65.800781 120.56641 C 62.213244 122.77097 59.460938 124.9707 59.460938 124.9707 A 3.8745279 3.8745279 0 0 0 58.845703 130.41406 A 3.8745279 3.8745279 0 0 0 64.289062 131.0293 C 64.289062 131.0293 66.719509 129.09623 69.857422 127.16797 C 72.995335 125.2397 77.058556 123.60937 78.40625 123.60938 C 79.753944 123.60938 83.815212 125.2397 86.953125 127.16797 C 90.091039 129.09623 92.523438 131.0293 92.523438 131.0293 C 92.523438 131.0293 95.275743 133.22903 98.863281 135.43359 C 102.45082 137.63816 106.65558 140.14062 111.46875 140.14062 C 116.28192 140.14062 120.48668 137.63816 124.07422 135.43359 C 127.66176 133.22903 130.41406 131.0293 130.41406 131.0293 C 130.41406 131.0293 132.84646 129.09623 135.98438 127.16797 C 139.12229 125.2397 143.18355 123.60937 144.53125 123.60938 C 145.87895 123.60938 149.94217 125.2397 153.08008 127.16797 C 156.218 129.09623 158.64648 131.0293 158.64648 131.0293 C 158.64648 131.0293 161.4027 133.22903 164.99023 135.43359 C 168.57778 137.63816 172.78058 140.14062 177.59375 140.14062 C 182.40692 140.14062 186.61168 137.63816 190.19922 135.43359 C 193.78676 133.22903 196.53906 131.0293 196.53906 131.0293 A 3.8745279 3.8745279 0 0 0 197.1543 125.58594 A 3.8745279 3.8745279 0 0 0 191.71094 124.9707 C 191.71094 124.9707 189.28049 126.90377 186.14258 128.83203 C 183.00466 130.7603 178.94144 132.39062 177.59375 132.39062 C 176.24605 132.39062 172.18479 130.7603 169.04688 128.83203 C 165.90896 126.90377 163.47656 124.9707 163.47656 124.9707 C 163.47656 124.9707 160.72426 122.77097 157.13672 120.56641 C 153.54918 118.36184 149.34442 115.85938 144.53125 115.85938 C 139.71808 115.85938 135.51332 118.36184 131.92578 120.56641 C 128.33824 122.77097 125.58594 124.9707 125.58594 124.9707 C 125.58594 124.9707 123.15354 126.90377 120.01562 128.83203 C 116.87771 130.7603 112.81644 132.39062 111.46875 132.39062 C 110.12105 132.39062 106.05784 130.7603 102.91992 128.83203 C 99.782008 126.90377 97.353516 124.9707 97.353516 124.9707 C 97.353516 124.9707 94.597304 122.77097 91.009766 120.56641 C 87.422228 118.36184 83.21942 115.85938 78.40625 115.85938 z M 78.40625 143.9375 C 73.59308 143.9375 69.388319 146.43997 65.800781 148.64453 C 62.213244 150.8491 59.460938 153.04883 59.460938 153.04883 A 3.8745279 3.8745279 0 0 0 58.845703 158.49219 A 3.8745279 3.8745279 0 0 0 64.289062 159.10742 C 64.289062 159.10742 66.719509 157.17436 69.857422 155.24609 C 72.995334 153.31783 77.058557 151.6875 78.40625 151.6875 C 79.753945 151.6875 83.815212 153.31783 86.953125 155.24609 C 90.091038 157.17436 92.523438 159.10742 92.523438 159.10742 C 92.523438 159.10742 95.275743 161.30715 98.863281 163.51172 C 102.45082 165.71628 106.65558 168.21875 111.46875 168.21875 C 116.28192 168.21875 120.48668 165.71628 124.07422 163.51172 C 127.66176 161.30715 130.41406 159.10742 130.41406 159.10742 C 130.41406 159.10742 132.84646 157.17436 135.98438 155.24609 C 139.12229 153.31783 143.18355 151.6875 144.53125 151.6875 C 145.87895 151.6875 149.94217 153.31783 153.08008 155.24609 C 156.218 157.17436 158.64648 159.10742 158.64648 159.10742 C 158.64648 159.10742 161.4027 161.30715 164.99023 163.51172 C 168.57778 165.71628 172.78058 168.21875 177.59375 168.21875 C 182.40692 168.21875 186.61168 165.71628 190.19922 163.51172 C 193.78676 161.30715 196.53906 159.10742 196.53906 159.10742 A 3.8745279 3.8745279 0 0 0 197.1543 153.66406 A 3.8745279 3.8745279 0 0 0 191.71094 153.04883 C 191.71094 153.04883 189.28049 154.98189 186.14258 156.91016 C 183.00466 158.83842 178.94144 160.46875 177.59375 160.46875 C 176.24605 160.46875 172.18479 158.83842 169.04688 156.91016 C 165.90896 154.98189 163.47656 153.04883 163.47656 153.04883 C 163.47656 153.04883 160.72426 150.8491 157.13672 148.64453 C 153.54918 146.43997 149.34442 143.9375 144.53125 143.9375 C 139.71808 143.9375 135.51332 146.43997 131.92578 148.64453 C 128.33824 150.8491 125.58594 153.04883 125.58594 153.04883 C 125.58594 153.04883 123.15354 154.98189 120.01562 156.91016 C 116.87771 158.83842 112.81644 160.46875 111.46875 160.46875 C 110.12106 160.46875 106.05784 158.83842 102.91992 156.91016 C 99.782008 154.98189 97.353516 153.04883 97.353516 153.04883 C 97.353516 153.04883 94.597303 150.8491 91.009766 148.64453 C 87.422228 146.43997 83.21942 143.9375 78.40625 143.9375 z M 78.40625 172.25977 C 73.59308 172.25977 69.388319 174.76223 65.800781 176.9668 C 62.213244 179.17136 59.460938 181.37109 59.460938 181.37109 A 3.8745279 3.8745279 0 0 0 58.845703 186.81445 A 3.8745279 3.8745279 0 0 0 64.289062 187.42969 C 64.289062 187.42969 66.719509 185.49663 69.857422 183.56836 C 72.995334 181.64009 77.058556 180.00781 78.40625 180.00781 C 79.753945 180.00781 83.815212 181.64009 86.953125 183.56836 C 90.091038 185.49663 92.523438 187.42969 92.523438 187.42969 C 92.523438 187.42969 95.275743 189.62942 98.863281 191.83398 C 102.45082 194.03855 106.65558 196.53906 111.46875 196.53906 C 116.28192 196.53906 120.48668 194.03855 124.07422 191.83398 C 127.66176 189.62942 130.41406 187.42969 130.41406 187.42969 C 130.41406 187.42969 132.84646 185.49663 135.98438 183.56836 C 139.12229 181.64009 143.18355 180.00781 144.53125 180.00781 C 145.87895 180.00781 149.94217 181.64009 153.08008 183.56836 C 156.218 185.49663 158.64648 187.42969 158.64648 187.42969 C 158.64648 187.42969 161.4027 189.62942 164.99023 191.83398 C 168.57778 194.03855 172.78058 196.53906 177.59375 196.53906 C 182.40692 196.53906 186.61168 194.03855 190.19922 191.83398 C 193.78676 189.62942 196.53906 187.42969 196.53906 187.42969 A 3.8745279 3.8745279 0 0 0 197.1543 181.98633 A 3.8745279 3.8745279 0 0 0 191.71094 181.37109 C 191.71094 181.37109 189.28049 183.30415 186.14258 185.23242 C 183.00466 187.16069 178.94144 188.79102 177.59375 188.79102 C 176.24605 188.79102 172.18479 187.16069 169.04688 185.23242 C 165.90896 183.30415 163.47656 181.37109 163.47656 181.37109 C 163.47656 181.37109 160.72426 179.17136 157.13672 176.9668 C 153.54918 174.76223 149.34442 172.25977 144.53125 172.25977 C 139.71808 172.25977 135.51332 174.76223 131.92578 176.9668 C 128.33824 179.17136 125.58594 181.37109 125.58594 181.37109 C 125.58594 181.37109 123.15354 183.30415 120.01562 185.23242 C 116.87771 187.16069 112.81644 188.79102 111.46875 188.79102 C 110.12106 188.79102 106.05784 187.16069 102.91992 185.23242 C 99.782008 183.30415 97.353516 181.37109 97.353516 181.37109 C 97.353516 181.37109 94.597303 179.17136 91.009766 176.9668 C 87.422228 174.76223 83.21942 172.25977 78.40625 172.25977 z M 24.234375 213.00977 A 3.0003 3.0003 0 0 0 22.851562 213.22852 A 3.0003 3.0003 0 0 0 21 216 L 21 232 A 3.0003 3.0003 0 0 0 24 235 L 40 235 A 3.0003 3.0003 0 0 0 42.121094 229.87891 L 26.121094 213.87891 A 3.0003 3.0003 0 0 0 24.234375 213.00977 z " /><g
       inkscape:label="Layer 1"
       id="layer1-2"
       transform="matrix(0.54687509,0,0,0.54687509,57.999988,57.999988)" /></g><metadata
     id="metadata134"><rdf:RDF><cc:Work
         rdf:about=""><cc:license
           rdf:resource="http://scripts.sil.org/OFL" /></cc:Work><cc:License
         rdf:about="http://scripts.sil.org/OFL"><cc:permits
           rdf:resource="http://scripts.sil.org/pub/OFL/Reproduction" /><cc:permits
           rdf:resource="http://scripts.sil.org/pub/OFL/Distribution" /><cc:permits
           rdf:resource="http://scripts.sil.org/pub/OFL/Embedding" /><cc:permits
           rdf:resource="http://scripts.sil.org/pub/OFL/DerivativeWorks" /><cc:requires
           rdf:resource="http://scripts.sil.org/pub/OFL/Notice" /><cc:requires
           rdf:resource="http://scripts.sil.org/pub/OFL/Attribution" /><cc:requires
           rdf:resource="http://scripts.sil.org/pub/OFL/ShareAlike" /><cc:requires
           rdf:resource="http://scripts.sil.org/pub/OFL/DerivativeRenaming" /><cc:requires
           rdf:resource="http://scripts.sil.org/pub/OFL/BundlingWhenSelling" /></cc:License></rdf:RDF></metadata></svg>
