<?xml version="1.0" encoding="UTF-8" standalone="no"?>
<!-- Created with Inkscape (http://www.inkscape.org/) -->

<svg
   width="252"
   height="252"
   viewBox="0 0 252 252"
   version="1.1"
   id="svg5"
   inkscape:version="1.2.2 (732a01da63, 2022-12-09)"
   sodipodi:docname="CPUFan.svg"
   xmlns:inkscape="http://www.inkscape.org/namespaces/inkscape"
   xmlns:sodipodi="http://sodipodi.sourceforge.net/DTD/sodipodi-0.dtd"
   xmlns="http://www.w3.org/2000/svg"
   xmlns:svg="http://www.w3.org/2000/svg"
   xmlns:rdf="http://www.w3.org/1999/02/22-rdf-syntax-ns#"
   xmlns:cc="http://creativecommons.org/ns#">
  <sodipodi:namedview
     id="namedview7"
     pagecolor="#ffffff"
     bordercolor="#000000"
     borderopacity="0.25"
     inkscape:showpageshadow="2"
     inkscape:pageopacity="0.0"
     inkscape:pagecheckerboard="true"
     inkscape:deskcolor="#d1d1d1"
     inkscape:document-units="px"
     showgrid="true"
     showguides="true"
     inkscape:zoom="1.509105"
     inkscape:cx="213.70282"
     inkscape:cy="147.10706"
     inkscape:window-width="1920"
     inkscape:window-height="1027"
     inkscape:window-x="-8"
     inkscape:window-y="-8"
     inkscape:window-maximized="1"
     inkscape:current-layer="layer1">
    <inkscape:grid
       type="xygrid"
       id="grid132"
       empspacing="8"
       dotted="true"
       originx="-2"
       originy="-2" />
    <sodipodi:guide
       position="126,174"
       orientation="1,0"
       id="guide136"
       inkscape:locked="false" />
    <sodipodi:guide
       position="158,126"
       orientation="0,-1"
       id="guide138"
       inkscape:locked="false" />
  </sodipodi:namedview>
  <defs
     id="defs2" />
  <g
     inkscape:label="Layer 1"
     inkscape:groupmode="layer"
     id="layer1"
     transform="translate(-2,-2)">
    <path
       id="path3222"
       style="color:#000000;fill:#7f7f7f7f;stroke-linecap:round;stroke-linejoin:round;-inkscape-stroke:none;paint-order:stroke fill markers"
       d="M 8 2 A 6.0006 6.0006 0 0 0 2 8 L 2 248 A 6.0006 6.0006 0 0 0 8 254 L 248 254 A 6.0006 6.0006 0 0 0 254 248 L 254 8 A 6.0006 6.0006 0 0 0 248 2 L 8 2 z M 14 14 L 242 14 L 242 242 L 14 242 L 14 14 z M 55.5 34 C 43.692807 34 34 43.692807 34 55.5 L 34 200.5 C 34 212.30719 43.692807 222 55.5 222 L 200.5 222 C 212.30719 222 222 212.30719 222 200.5 L 222 55.5 C 222 43.692807 212.30719 34 200.5 34 L 55.5 34 z M 55.5 46 L 200.5 46 C 205.86677 46 210 50.133227 210 55.5 L 210 200.5 C 210 205.86677 205.86677 210 200.5 210 L 55.5 210 C 50.133227 210 46 205.86677 46 200.5 L 46 55.5 C 46 50.133227 50.133227 46 55.5 46 z M 141.33984 59.869141 C 135.85191 60.054432 130.94323 62.992178 129.17188 67.787109 C 125.25638 78.35895 122.46003 89.561687 122.33789 100.39062 C 128.21739 99.176014 134.28118 99.905634 139.64648 102.32812 C 147.16575 92.227272 157.55973 83.309044 169.12305 77.273438 C 170.65281 76.474831 172.33537 73.751015 168.97656 71.251953 C 162.3386 66.314558 154.71428 63.069723 146.92578 60.634766 C 145.06284 60.052005 143.16916 59.807377 141.33984 59.869141 z M 101.25781 63.650391 C 100.69683 63.683183 100.05907 63.835557 99.339844 64.146484 C 91.740961 67.428634 85.121346 72.406972 79.113281 77.9375 C 73.374813 83.223422 72.077654 91.646685 76.427734 96.886719 C 83.634227 105.5614 91.930116 113.58601 101.24805 119.10742 C 103.13848 113.4082 106.80347 108.51736 111.58203 105.08203 C 106.59596 93.525331 104.0685 80.058435 104.61914 67.027344 C 104.67862 65.630647 103.68874 63.508292 101.25781 63.650391 z M 182.61328 98.746094 C 181.98879 98.743392 181.35829 98.794515 180.72852 98.902344 C 169.61159 100.80185 158.51463 103.97764 149.07422 109.28516 C 153.06936 113.77247 155.4673 119.39186 156.05469 125.25 C 168.56004 126.70888 181.482 131.25525 192.48828 138.24805 C 193.9445 139.17182 197.14346 139.26978 197.62695 135.10938 C 198.58753 126.89255 197.59125 118.6709 195.80469 110.70508 C 194.25231 103.80221 188.64999 98.772215 182.61328 98.746094 z M 127.99609 107.58984 C 116.72631 107.58984 107.5918 116.73078 107.5918 128 C 107.5918 139.27261 116.72631 148.41016 127.99609 148.41016 C 139.2716 148.41016 148.41211 139.27261 148.41211 128 C 148.41245 116.73078 139.27195 107.58984 127.99609 107.58984 z M 61.771484 117.23242 C 60.320549 117.18266 58.705451 118.03036 58.373047 120.89062 C 57.412813 129.10679 58.408522 137.32943 60.201172 145.29492 C 61.908071 152.91188 68.553547 158.24784 75.271484 157.09766 C 86.388098 155.19781 97.486041 152.02203 106.92578 146.71484 C 102.93064 142.22754 100.53272 136.60813 99.945312 130.75 C 87.43997 129.29043 74.517669 124.74507 63.511719 117.75195 C 63.056654 117.46327 62.431001 117.25504 61.771484 117.23242 z M 154.75195 136.89648 C 152.86149 142.592 149.19653 147.48332 144.41797 150.91797 C 149.40438 162.47499 151.93149 175.94123 151.38086 188.97266 C 151.30766 190.69166 152.82406 193.51178 156.66602 191.85352 C 164.25885 188.57102 170.88507 183.59303 176.88672 178.0625 C 182.62519 172.77658 183.92234 164.35332 179.57227 159.11328 C 172.37182 150.44163 164.06987 142.41487 154.75195 136.89648 z M 116.35938 153.67383 C 108.84652 163.77198 98.452341 172.69217 86.888672 178.73047 C 85.359248 179.52604 83.676693 182.24898 87.035156 184.74805 C 93.673475 189.68543 101.29777 192.92995 109.08594 195.36523 C 116.53772 197.69594 124.47805 194.60612 126.83984 188.21289 C 130.75534 177.64105 133.55169 166.44329 133.67383 155.61133 C 127.79466 156.82594 121.72502 156.09361 116.35938 153.67383 z M 24.234375 213.00977 A 3.0003 3.0003 0 0 0 22.851562 213.22852 A 3.0003 3.0003 0 0 0 21 216 L 21 232 A 3.0003 3.0003 0 0 0 24 235 L 40 235 A 3.0003 3.0003 0 0 0 42.121094 229.87891 L 26.121094 213.87891 A 3.0003 3.0003 0 0 0 24.234375 213.00977 z " />
    <g
       id="path3228" />
  </g>
  <metadata
     id="metadata134">
    <rdf:RDF>
      <cc:Work
         rdf:about="">
        <cc:license
           rdf:resource="http://scripts.sil.org/OFL" />
      </cc:Work>
      <cc:License
         rdf:about="http://scripts.sil.org/OFL">
        <cc:permits
           rdf:resource="http://scripts.sil.org/pub/OFL/Reproduction" />
        <cc:permits
           rdf:resource="http://scripts.sil.org/pub/OFL/Distribution" />
        <cc:permits
           rdf:resource="http://scripts.sil.org/pub/OFL/Embedding" />
        <cc:permits
           rdf:resource="http://scripts.sil.org/pub/OFL/DerivativeWorks" />
        <cc:requires
           rdf:resource="http://scripts.sil.org/pub/OFL/Notice" />
        <cc:requires
           rdf:resource="http://scripts.sil.org/pub/OFL/Attribution" />
        <cc:requires
           rdf:resource="http://scripts.sil.org/pub/OFL/ShareAlike" />
        <cc:requires
           rdf:resource="http://scripts.sil.org/pub/OFL/DerivativeRenaming" />
        <cc:requires
           rdf:resource="http://scripts.sil.org/pub/OFL/BundlingWhenSelling" />
      </cc:License>
    </rdf:RDF>
  </metadata>
</svg>
