<?xml version="1.0" encoding="UTF-8" standalone="no"?>
<!-- Created with Inkscape (http://www.inkscape.org/) -->

<svg
   width="252"
   height="252"
   viewBox="0 0 252 252"
   version="1.1"
   id="svg5"
   inkscape:version="1.2.2 (732a01da63, 2022-12-09)"
   sodipodi:docname="CPULiquidAlt.svg"
   xml:space="preserve"
   xmlns:inkscape="http://www.inkscape.org/namespaces/inkscape"
   xmlns:sodipodi="http://sodipodi.sourceforge.net/DTD/sodipodi-0.dtd"
   xmlns="http://www.w3.org/2000/svg"
   xmlns:svg="http://www.w3.org/2000/svg"
   xmlns:rdf="http://www.w3.org/1999/02/22-rdf-syntax-ns#"
   xmlns:cc="http://creativecommons.org/ns#"><sodipodi:namedview
     id="namedview7"
     pagecolor="#ffffff"
     bordercolor="#000000"
     borderopacity="0.25"
     inkscape:showpageshadow="2"
     inkscape:pageopacity="0.0"
     inkscape:pagecheckerboard="true"
     inkscape:deskcolor="#d1d1d1"
     inkscape:document-units="px"
     showgrid="true"
     showguides="true"
     inkscape:zoom="2.1341968"
     inkscape:cx="29.753582"
     inkscape:cy="166.80748"
     inkscape:window-width="1920"
     inkscape:window-height="1027"
     inkscape:window-x="-8"
     inkscape:window-y="-8"
     inkscape:window-maximized="1"
     inkscape:current-layer="layer1"><inkscape:grid
       type="xygrid"
       id="grid132"
       empspacing="8"
       dotted="true"
       originx="-2"
       originy="-2" /><sodipodi:guide
       position="126,174"
       orientation="1,0"
       id="guide136"
       inkscape:locked="false" /><sodipodi:guide
       position="158,126"
       orientation="0,-1"
       id="guide138"
       inkscape:locked="false" /></sodipodi:namedview><defs
     id="defs2" /><g
     inkscape:label="Layer 1"
     inkscape:groupmode="layer"
     id="layer1"
     transform="translate(-2,-2)"><path
       id="path3222"
       style="color:#000000;fill:#7f7f7f7f;stroke-linecap:round;stroke-linejoin:round;-inkscape-stroke:none;paint-order:stroke fill markers"
       d="M 8 2 A 6.0006 6.0006 0 0 0 2 8 L 2 248 A 6.0006 6.0006 0 0 0 8 254 L 248 254 A 6.0006 6.0006 0 0 0 254 248 L 254 8 A 6.0006 6.0006 0 0 0 248 2 L 8 2 z M 14 14 L 242 14 L 242 242 L 14 242 L 14 14 z M 55.5 34 C 43.692807 34 34 43.692807 34 55.5 L 34 200.5 C 34 212.30719 43.692807 222 55.5 222 L 200.5 222 C 212.30719 222 222 212.30719 222 200.5 L 222 55.5 C 222 43.692807 212.30719 34 200.5 34 L 55.5 34 z M 55.5 46 L 200.5 46 C 205.86677 46 210 50.133227 210 55.5 L 210 200.5 C 210 205.86677 205.86677 210 200.5 210 L 55.5 210 C 50.133227 210 46 205.86677 46 200.5 L 46 55.5 C 46 50.133227 50.133227 46 55.5 46 z M 123.99023 54.275391 A 1.7395732 1.7395732 0 0 0 122.32617 55.509766 C 119.70485 64.145079 112.67919 76.665044 106.23047 85.769531 C 103.14662 90.123392 101.02846 94.338568 100.32422 98.71875 C 99.619966 103.09893 100.39748 107.5887 102.8457 112.19727 C 106.45175 118.98543 114.94724 125.42383 123.99023 125.42383 C 133.16502 125.42383 141.53888 118.96632 145.13477 112.19727 C 147.29144 108.13746 148.15969 104.17248 147.8457 100.28711 C 147.4468 95.351098 145.20109 90.64188 141.75 85.769531 C 135.30127 76.665045 128.27561 64.145081 125.6543 55.509766 A 1.7395732 1.7395732 0 0 0 123.99023 54.275391 z M 174.08203 111.17188 A 1.7395732 1.7395732 0 0 0 172.41797 112.40625 C 169.79664 121.04156 162.77293 133.56153 156.32422 142.66602 C 153.24037 147.01988 151.12026 151.2331 150.41602 155.61328 C 149.71176 159.99346 150.48927 164.48519 152.9375 169.09375 C 156.54356 175.88192 165.03905 182.32031 174.08203 182.32031 C 183.25682 182.32031 191.63067 175.86281 195.22656 169.09375 C 197.38324 165.03396 198.25149 161.06896 197.9375 157.18359 C 197.5386 152.24758 195.29289 147.53838 191.8418 142.66602 C 185.39307 133.56155 178.36741 121.04156 175.74609 112.40625 A 1.7395732 1.7395732 0 0 0 174.08203 111.17188 z M 81.914062 130.57617 A 1.7395732 1.7395732 0 0 0 80.25 131.81055 C 77.628683 140.44585 70.604965 152.96388 64.15625 162.06836 C 61.072405 166.42223 58.952297 170.63739 58.248047 175.01758 C 57.543797 179.39775 58.321345 183.88754 60.769531 188.49609 C 64.375589 195.28426 72.871072 201.72266 81.914062 201.72266 C 91.088852 201.72266 99.462705 195.26515 103.05859 188.49609 C 105.21527 184.4363 106.08352 180.47327 105.76953 176.58789 C 105.37063 171.65188 103.12492 166.94072 99.673828 162.06836 C 93.225103 152.96388 86.199442 140.44585 83.578125 131.81055 A 1.7395732 1.7395732 0 0 0 81.914062 130.57617 z M 24.234375 213.00977 A 3.0003 3.0003 0 0 0 22.851562 213.22852 A 3.0003 3.0003 0 0 0 21 216 L 21 232 A 3.0003 3.0003 0 0 0 24 235 L 40 235 A 3.0003 3.0003 0 0 0 42.121094 229.87891 L 26.121094 213.87891 A 3.0003 3.0003 0 0 0 24.234375 213.00977 z " /><g
       inkscape:label="Layer 1"
       id="layer1-9"
       transform="matrix(0.80849266,0,0,0.80849266,10.51861,53.638504)" /></g><metadata
     id="metadata134"><rdf:RDF><cc:Work
         rdf:about=""><cc:license
           rdf:resource="http://scripts.sil.org/OFL" /></cc:Work><cc:License
         rdf:about="http://scripts.sil.org/OFL"><cc:permits
           rdf:resource="http://scripts.sil.org/pub/OFL/Reproduction" /><cc:permits
           rdf:resource="http://scripts.sil.org/pub/OFL/Distribution" /><cc:permits
           rdf:resource="http://scripts.sil.org/pub/OFL/Embedding" /><cc:permits
           rdf:resource="http://scripts.sil.org/pub/OFL/DerivativeWorks" /><cc:requires
           rdf:resource="http://scripts.sil.org/pub/OFL/Notice" /><cc:requires
           rdf:resource="http://scripts.sil.org/pub/OFL/Attribution" /><cc:requires
           rdf:resource="http://scripts.sil.org/pub/OFL/ShareAlike" /><cc:requires
           rdf:resource="http://scripts.sil.org/pub/OFL/DerivativeRenaming" /><cc:requires
           rdf:resource="http://scripts.sil.org/pub/OFL/BundlingWhenSelling" /></cc:License></rdf:RDF></metadata></svg>
