<?xml version="1.0" encoding="UTF-8" standalone="no"?>
<!-- Created with Inkscape (http://www.inkscape.org/) -->

<svg
   width="252"
   height="252"
   viewBox="0 0 252 252"
   version="1.1"
   id="svg5"
   inkscape:version="1.2.2 (732a01da63, 2022-12-09)"
   sodipodi:docname="CPUTemp.svg"
   xml:space="preserve"
   xmlns:inkscape="http://www.inkscape.org/namespaces/inkscape"
   xmlns:sodipodi="http://sodipodi.sourceforge.net/DTD/sodipodi-0.dtd"
   xmlns="http://www.w3.org/2000/svg"
   xmlns:svg="http://www.w3.org/2000/svg"
   xmlns:rdf="http://www.w3.org/1999/02/22-rdf-syntax-ns#"
   xmlns:cc="http://creativecommons.org/ns#"><sodipodi:namedview
     id="namedview7"
     pagecolor="#ffffff"
     bordercolor="#000000"
     borderopacity="0.25"
     inkscape:showpageshadow="2"
     inkscape:pageopacity="0.0"
     inkscape:pagecheckerboard="true"
     inkscape:deskcolor="#d1d1d1"
     inkscape:document-units="px"
     showgrid="true"
     showguides="true"
     inkscape:zoom="1.509105"
     inkscape:cx="213.70282"
     inkscape:cy="147.10706"
     inkscape:window-width="1920"
     inkscape:window-height="1027"
     inkscape:window-x="-8"
     inkscape:window-y="-8"
     inkscape:window-maximized="1"
     inkscape:current-layer="layer1"><inkscape:grid
       type="xygrid"
       id="grid132"
       empspacing="8"
       dotted="true"
       originx="-2"
       originy="-2" /><sodipodi:guide
       position="126,174"
       orientation="1,0"
       id="guide136"
       inkscape:locked="false" /><sodipodi:guide
       position="158,126"
       orientation="0,-1"
       id="guide138"
       inkscape:locked="false" /></sodipodi:namedview><defs
     id="defs2" /><g
     inkscape:label="Layer 1"
     inkscape:groupmode="layer"
     id="layer1"
     transform="translate(-2,-2)"><path
       id="path3222"
       style="color:#000000;fill:#7f7f7f7f;stroke-linecap:round;stroke-linejoin:round;-inkscape-stroke:none;paint-order:stroke fill markers"
       d="M 8 2 A 6.0006 6.0006 0 0 0 2 8 L 2 248 A 6.0006 6.0006 0 0 0 8 254 L 248 254 A 6.0006 6.0006 0 0 0 254 248 L 254 8 A 6.0006 6.0006 0 0 0 248 2 L 8 2 z M 14 14 L 242 14 L 242 242 L 14 242 L 14 14 z M 55.5 34 C 43.692807 34 34 43.692807 34 55.5 L 34 200.5 C 34 212.30719 43.692807 222 55.5 222 L 200.5 222 C 212.30719 222 222 212.30719 222 200.5 L 222 55.5 C 222 43.692807 212.30719 34 200.5 34 L 55.5 34 z M 55.5 46 L 200.5 46 C 205.86677 46 210 50.133227 210 55.5 L 210 200.5 C 210 205.86677 205.86677 210 200.5 210 L 55.5 210 C 50.133227 210 46 205.86677 46 200.5 L 46 55.5 C 46 50.133227 50.133227 46 55.5 46 z M 118.42188 52.271484 C 114.8048 52.271484 111.54845 54.074692 109.83398 56.695312 C 108.11953 59.315934 107.64648 62.364627 107.64648 65.441406 L 107.64648 142.06836 L 107.64648 159.66016 C 100.67963 165.34362 97.468818 172.70813 98.076172 181.81836 A 3.5922293 3.5922293 0 0 0 98.117188 182.16992 C 99.464755 190.25535 103.81831 196.01731 109.4043 199.33398 C 114.99028 202.65067 121.59452 203.72852 128 203.72852 C 134.40549 203.72852 141.00972 202.65067 146.5957 199.33398 C 152.1817 196.01731 156.53523 190.25535 157.88281 182.16992 A 3.5922293 3.5922293 0 0 0 157.92383 181.81836 C 158.53129 172.70642 155.31575 165.35533 148.35352 159.66211 L 148.35352 142.06836 L 148.35352 65.441406 C 148.35352 62.364627 147.88047 59.315934 146.16602 56.695312 C 144.45155 54.074692 141.1952 52.271484 137.57812 52.271484 L 118.42188 52.271484 z M 118.42188 59.455078 L 137.57812 59.455078 C 139.26743 59.455078 139.60349 59.78697 140.1543 60.628906 C 140.70511 61.470842 141.16992 63.21181 141.16992 65.441406 L 141.16992 76.216797 L 123.21094 76.216797 A 3.5918701 3.5918701 0 0 0 119.61914 79.808594 A 3.5918701 3.5918701 0 0 0 123.21094 83.400391 L 141.16992 83.400391 L 141.16992 100.16211 L 123.21094 100.16211 A 3.5918701 3.5918701 0 0 0 119.61914 103.75391 A 3.5918701 3.5918701 0 0 0 123.21094 107.34766 L 141.16992 107.34766 L 141.16992 124.10938 L 123.21094 124.10938 A 3.5918701 3.5918701 0 0 0 119.61914 127.70117 A 3.5918701 3.5918701 0 0 0 123.21094 131.29297 L 141.16992 131.29297 L 141.16992 142.06836 L 141.16992 161.22461 A 3.5922293 3.5922293 0 0 0 142.66797 164.14258 C 149.35006 168.9362 151.25168 173.14178 150.75391 181.15625 C 149.68229 187.32159 146.88039 190.80936 142.92773 193.15625 C 138.93542 195.52669 133.56739 196.54492 128 196.54492 C 122.43262 196.54492 117.06457 195.52669 113.07227 193.15625 C 109.11961 190.80936 106.31771 187.32159 105.24609 181.15625 C 104.74827 173.14116 106.64868 168.9194 113.32617 164.14648 A 3.5922293 3.5922293 0 0 0 114.83008 161.22461 L 114.83008 142.06836 L 114.83008 65.441406 C 114.83008 63.21181 115.29489 61.470842 115.8457 60.628906 C 116.39651 59.78697 116.73257 59.455078 118.42188 59.455078 z M 24.234375 213.00977 A 3.0003 3.0003 0 0 0 22.851562 213.22852 A 3.0003 3.0003 0 0 0 21 216 L 21 232 A 3.0003 3.0003 0 0 0 24 235 L 40 235 A 3.0003 3.0003 0 0 0 42.121094 229.87891 L 26.121094 213.87891 A 3.0003 3.0003 0 0 0 24.234375 213.00977 z " /><g
       id="path3228" /></g><metadata
     id="metadata134"><rdf:RDF><cc:Work
         rdf:about=""><cc:license
           rdf:resource="http://scripts.sil.org/OFL" /></cc:Work><cc:License
         rdf:about="http://scripts.sil.org/OFL"><cc:permits
           rdf:resource="http://scripts.sil.org/pub/OFL/Reproduction" /><cc:permits
           rdf:resource="http://scripts.sil.org/pub/OFL/Distribution" /><cc:permits
           rdf:resource="http://scripts.sil.org/pub/OFL/Embedding" /><cc:permits
           rdf:resource="http://scripts.sil.org/pub/OFL/DerivativeWorks" /><cc:requires
           rdf:resource="http://scripts.sil.org/pub/OFL/Notice" /><cc:requires
           rdf:resource="http://scripts.sil.org/pub/OFL/Attribution" /><cc:requires
           rdf:resource="http://scripts.sil.org/pub/OFL/ShareAlike" /><cc:requires
           rdf:resource="http://scripts.sil.org/pub/OFL/DerivativeRenaming" /><cc:requires
           rdf:resource="http://scripts.sil.org/pub/OFL/BundlingWhenSelling" /></cc:License></rdf:RDF></metadata></svg>
