<?xml version="1.0" encoding="UTF-8" standalone="no"?>
<!-- Created with Inkscape (http://www.inkscape.org/) -->

<svg
   width="252"
   height="252"
   viewBox="0 0 252 252"
   version="1.1"
   id="svg5"
   inkscape:version="1.2.2 (732a01da63, 2022-12-09)"
   sodipodi:docname="CPUWaterPump.svg"
   xml:space="preserve"
   xmlns:inkscape="http://www.inkscape.org/namespaces/inkscape"
   xmlns:sodipodi="http://sodipodi.sourceforge.net/DTD/sodipodi-0.dtd"
   xmlns="http://www.w3.org/2000/svg"
   xmlns:svg="http://www.w3.org/2000/svg"
   xmlns:rdf="http://www.w3.org/1999/02/22-rdf-syntax-ns#"
   xmlns:cc="http://creativecommons.org/ns#"><sodipodi:namedview
     id="namedview7"
     pagecolor="#ffffff"
     bordercolor="#000000"
     borderopacity="0.25"
     inkscape:showpageshadow="2"
     inkscape:pageopacity="0.0"
     inkscape:pagecheckerboard="true"
     inkscape:deskcolor="#d1d1d1"
     inkscape:document-units="px"
     showgrid="true"
     showguides="true"
     inkscape:zoom="1.0670984"
     inkscape:cx="235.68586"
     inkscape:cy="169.61885"
     inkscape:window-width="1920"
     inkscape:window-height="1027"
     inkscape:window-x="-8"
     inkscape:window-y="-8"
     inkscape:window-maximized="1"
     inkscape:current-layer="layer1"><inkscape:grid
       type="xygrid"
       id="grid132"
       empspacing="8"
       dotted="true"
       originx="-2"
       originy="-2" /><sodipodi:guide
       position="126,174"
       orientation="1,0"
       id="guide136"
       inkscape:locked="false" /><sodipodi:guide
       position="158,126"
       orientation="0,-1"
       id="guide138"
       inkscape:locked="false" /></sodipodi:namedview><defs
     id="defs2" /><g
     inkscape:label="Layer 1"
     inkscape:groupmode="layer"
     id="layer1"
     transform="translate(-2,-2)"><path
       id="path3222"
       style="color:#000000;fill:#000000;stroke-linecap:round;stroke-linejoin:round;-inkscape-stroke:none;paint-order:stroke fill markers"
       d="M 8 2 A 6.0006 6.0006 0 0 0 2 8 L 2 248 A 6.0006 6.0006 0 0 0 8 254 L 248 254 A 6.0006 6.0006 0 0 0 254 248 L 254 8 A 6.0006 6.0006 0 0 0 248 2 L 8 2 z M 14 14 L 242 14 L 242 242 L 14 242 L 14 14 z M 55.5 34 C 43.692807 34 34 43.692807 34 55.5 L 34 200.5 C 34 212.30719 43.692807 222 55.5 222 L 200.5 222 C 212.30719 222 222 212.30719 222 200.5 L 222 55.5 C 222 43.692807 212.30719 34 200.5 34 L 55.5 34 z M 55.5 46 L 200.5 46 C 205.86677 46 210 50.133227 210 55.5 L 210 200.5 C 210 205.86677 205.86677 210 200.5 210 L 55.5 210 C 50.133227 210 46 205.86677 46 200.5 L 46 55.5 C 46 50.133227 50.133227 46 55.5 46 z M 128.00586 58 C 89.385488 57.999999 57.999999 89.385495 58 128.00586 C 57.999996 166.62623 89.385487 197.99805 128.00586 197.99805 C 166.62624 197.99805 197.99805 166.62623 197.99805 128.00586 C 197.99805 89.385495 166.62624 58 128.00586 58 z M 128.00586 64.669922 C 135.62343 64.669922 142.92166 66.011209 149.68164 68.46875 C 146.85691 70.119255 144.1596 71.914326 141.60352 73.841797 C 135.71563 78.280696 130.57549 83.417915 126.31055 89.0625 C 122.04603 94.707085 118.65579 100.85993 115.26562 107.01172 C 110.80642 104.21651 106.34677 101.42031 102.33594 97.878906 C 98.325109 94.337501 94.762765 90.050743 91.822266 85.130859 C 90.574364 83.042886 89.43854 80.84118 88.425781 78.537109 C 99.263097 69.859272 113.0202 64.669922 128.00586 64.669922 z M 162.71875 75.009766 C 179.95745 86.317946 191.32812 105.81503 191.32812 128.00586 C 191.32812 128.50398 191.31999 128.9988 191.30859 129.49414 C 188.94572 127.4149 186.49445 125.48602 183.96484 123.72266 C 177.91458 119.50641 171.42963 116.2156 164.73242 113.91211 C 158.03478 111.60863 151.12526 110.29315 144.21484 108.97656 C 145.50053 103.88088 146.78595 98.783784 148.92188 93.882812 C 151.05736 88.981842 154.04273 84.276083 157.82227 79.964844 C 159.32923 78.246023 160.96559 76.591366 162.71875 75.009766 z M 78.240234 88.792969 C 78.957705 92.163296 79.871666 95.449699 80.974609 98.632812 C 83.385327 105.59312 86.692253 112.05954 90.753906 117.85156 C 94.815129 123.64402 99.63229 128.76239 104.44727 133.88086 C 100.40586 137.24948 96.362741 140.61825 91.748047 143.33008 C 87.133786 146.04233 81.946766 148.09659 76.349609 149.36719 C 73.907584 149.92146 71.387086 150.32636 68.804688 150.57422 C 66.135605 143.56549 64.669921 135.96046 64.669922 128.00586 C 64.669922 113.18991 69.739073 99.572759 78.240234 88.792969 z M 129.125 112.95508 C 137.45074 112.95508 144.19922 119.6913 144.19922 128 C 144.19922 136.3087 137.45074 143.04492 129.125 143.04492 C 120.79926 143.04492 114.04883 136.3087 114.04883 128 C 114.04883 119.6913 120.79926 112.95508 129.125 112.95508 z M 129.125 119.40234 C 124.36731 119.40234 120.50977 123.25205 120.50977 128 C 120.50977 132.74795 124.36731 136.59766 129.125 136.59766 C 133.88269 136.59766 137.73828 132.74795 137.73828 128 C 137.73828 123.25205 133.88269 119.40234 129.125 119.40234 z M 161.1582 136.60742 C 163.1396 136.60145 165.12784 136.67116 167.12695 136.86328 C 172.45749 137.37607 177.86392 138.75486 183.14062 141.00977 C 185.21023 141.89418 187.25874 142.91658 189.27539 144.06836 C 183.68672 165.50466 167.17121 182.48633 146.01172 188.73438 C 147.38297 185.6433 148.55292 182.50624 149.51758 179.34375 C 151.66643 172.29833 152.79844 165.12679 152.92383 158.05859 C 153.0496 150.98997 152.16945 144.02602 151.28906 137.06055 C 154.57247 136.83917 157.85587 136.61737 161.1582 136.60742 z M 126.70898 152.45117 C 128.67046 157.32808 130.63195 162.20406 131.79102 167.42188 C 132.94968 172.63963 133.30572 178.19911 132.78711 183.9043 C 132.56711 186.32199 132.19079 188.76594 131.6543 191.2207 C 130.44638 191.28909 129.23113 191.32812 128.00586 191.32812 C 106.09316 191.32812 86.803918 180.24361 75.435547 163.36719 C 78.938955 163.74371 82.422922 163.9021 85.865234 163.83789 C 93.243402 163.70034 100.42839 162.55711 107.20312 160.49219 C 113.97829 158.42726 120.343 155.43977 126.70898 152.45117 z M 24.234375 213.00977 A 3.0003 3.0003 0 0 0 22.851562 213.22852 A 3.0003 3.0003 0 0 0 21 216 L 21 232 A 3.0003 3.0003 0 0 0 24 235 L 40 235 A 3.0003 3.0003 0 0 0 42.121094 229.87891 L 26.121094 213.87891 A 3.0003 3.0003 0 0 0 24.234375 213.00977 z " /><g
       id="g144"
       transform="matrix(6.4073219,0,0,6.4073219,58.000001,58.000013)" /></g><metadata
     id="metadata134"><rdf:RDF><cc:Work
         rdf:about=""><cc:license
           rdf:resource="http://scripts.sil.org/OFL" /></cc:Work><cc:License
         rdf:about="http://scripts.sil.org/OFL"><cc:permits
           rdf:resource="http://scripts.sil.org/pub/OFL/Reproduction" /><cc:permits
           rdf:resource="http://scripts.sil.org/pub/OFL/Distribution" /><cc:permits
           rdf:resource="http://scripts.sil.org/pub/OFL/Embedding" /><cc:permits
           rdf:resource="http://scripts.sil.org/pub/OFL/DerivativeWorks" /><cc:requires
           rdf:resource="http://scripts.sil.org/pub/OFL/Notice" /><cc:requires
           rdf:resource="http://scripts.sil.org/pub/OFL/Attribution" /><cc:requires
           rdf:resource="http://scripts.sil.org/pub/OFL/ShareAlike" /><cc:requires
           rdf:resource="http://scripts.sil.org/pub/OFL/DerivativeRenaming" /><cc:requires
           rdf:resource="http://scripts.sil.org/pub/OFL/BundlingWhenSelling" /></cc:License></rdf:RDF></metadata></svg>
