<?xml version="1.0" encoding="UTF-8" standalone="no"?>
<!-- Created with Inkscape (http://www.inkscape.org/) -->

<svg
   width="252"
   height="252"
   viewBox="0 0 252 252"
   version="1.1"
   id="svg5"
   inkscape:version="1.2.2 (732a01da63, 2022-12-09)"
   sodipodi:docname="CPU02.svg"
   xml:space="preserve"
   xmlns:inkscape="http://www.inkscape.org/namespaces/inkscape"
   xmlns:sodipodi="http://sodipodi.sourceforge.net/DTD/sodipodi-0.dtd"
   xmlns="http://www.w3.org/2000/svg"
   xmlns:svg="http://www.w3.org/2000/svg"
   xmlns:rdf="http://www.w3.org/1999/02/22-rdf-syntax-ns#"
   xmlns:cc="http://creativecommons.org/ns#"><sodipodi:namedview
     id="namedview7"
     pagecolor="#ffffff"
     bordercolor="#000000"
     borderopacity="0.25"
     inkscape:showpageshadow="2"
     inkscape:pageopacity="0.0"
     inkscape:pagecheckerboard="true"
     inkscape:deskcolor="#d1d1d1"
     inkscape:document-units="px"
     showgrid="true"
     showguides="true"
     inkscape:zoom="1.509105"
     inkscape:cx="-17.560077"
     inkscape:cy="105.36046"
     inkscape:window-width="1920"
     inkscape:window-height="1027"
     inkscape:window-x="-8"
     inkscape:window-y="-8"
     inkscape:window-maximized="1"
     inkscape:current-layer="layer1"><inkscape:grid
       type="xygrid"
       id="grid132"
       empspacing="8"
       dotted="true"
       originx="-2"
       originy="-2" /><sodipodi:guide
       position="126,174"
       orientation="1,0"
       id="guide136"
       inkscape:locked="false" /><sodipodi:guide
       position="158,126"
       orientation="0,-1"
       id="guide138"
       inkscape:locked="false" /></sodipodi:namedview><defs
     id="defs2" /><g
     inkscape:label="Layer 1"
     inkscape:groupmode="layer"
     id="layer1"
     transform="translate(-2,-2)"><path
       id="path3222"
       style="color:#000000;fill:#7f7f7f7f;stroke-linecap:round;stroke-linejoin:round;-inkscape-stroke:none;paint-order:stroke fill markers"
       d="M 8 2 A 6.0006 6.0006 0 0 0 2 8 L 2 248 A 6.0006 6.0006 0 0 0 8 254 L 248 254 A 6.0006 6.0006 0 0 0 254 248 L 254 8 A 6.0006 6.0006 0 0 0 248 2 L 8 2 z M 14 14 L 242 14 L 242 242 L 14 242 L 14 14 z M 55.5 34 C 43.692807 34 34 43.692807 34 55.5 L 34 200.5 C 34 212.30719 43.692807 222 55.5 222 L 200.5 222 C 212.30719 222 222 212.30719 222 200.5 L 222 55.5 C 222 43.692807 212.30719 34 200.5 34 L 55.5 34 z M 55.5 46 L 200.5 46 C 205.86677 46 210 50.133227 210 55.5 L 210 200.5 C 210 205.86677 205.86677 210 200.5 210 L 55.5 210 C 50.133227 210 46 205.86677 46 200.5 L 46 55.5 C 46 50.133227 50.133227 46 55.5 46 z M 128.93359 79.867188 C 122.00029 79.867188 115.86652 81.200531 110.5332 83.867188 C 105.28878 86.444956 101.1111 90.221458 98 95.199219 C 94.8889 100.17698 93.288107 106.08917 93.199219 112.93359 L 112.40039 112.93359 C 112.3115 107.68917 113.77857 103.55541 116.80078 100.5332 C 119.91188 97.51099 123.82211 96 128.5332 96 C 132.62208 96 135.91151 97.155694 138.40039 99.466797 C 140.97815 101.7779 142.26758 104.9336 142.26758 108.93359 C 142.26758 113.02246 140.62286 117.51152 137.33398 122.40039 C 134.13399 127.20037 128.93239 132.75532 121.73242 139.06641 C 114.62134 145.37749 105.20009 152.71087 93.466797 161.06641 L 93.466797 174.5332 L 162.5332 174.5332 L 162.5332 158.5332 L 122.5332 158.5332 C 132.13317 152.48878 139.82185 146.80011 145.59961 141.4668 C 151.46626 136.04459 155.68786 130.6673 158.26562 125.33398 C 160.93228 120.00067 162.26562 114.35592 162.26562 108.40039 C 162.26563 102.62264 160.84443 97.600636 158 93.333984 C 155.24445 89.067333 151.33423 85.7779 146.26758 83.466797 C 141.28982 81.066806 135.51135 79.867188 128.93359 79.867188 z M 24.234375 213.00977 A 3.0003 3.0003 0 0 0 22.851562 213.22852 A 3.0003 3.0003 0 0 0 21 216 L 21 232 A 3.0003 3.0003 0 0 0 24 235 L 40 235 A 3.0003 3.0003 0 0 0 42.121094 229.87891 L 26.121094 213.87891 A 3.0003 3.0003 0 0 0 24.234375 213.00977 z " /><g
       id="path3228" /><g
       aria-label="2"
       id="text3347"
       style="font-weight:600;font-size:133.333px;font-family:'Azeret Mono';-inkscape-font-specification:'Azeret Mono Semi-Bold';text-align:center;text-anchor:middle;stroke-width:6;stroke-linecap:round;stroke-linejoin:round;paint-order:stroke fill markers" /></g><metadata
     id="metadata134"><rdf:RDF><cc:Work
         rdf:about=""><cc:license
           rdf:resource="http://scripts.sil.org/OFL" /></cc:Work><cc:License
         rdf:about="http://scripts.sil.org/OFL"><cc:permits
           rdf:resource="http://scripts.sil.org/pub/OFL/Reproduction" /><cc:permits
           rdf:resource="http://scripts.sil.org/pub/OFL/Distribution" /><cc:permits
           rdf:resource="http://scripts.sil.org/pub/OFL/Embedding" /><cc:permits
           rdf:resource="http://scripts.sil.org/pub/OFL/DerivativeWorks" /><cc:requires
           rdf:resource="http://scripts.sil.org/pub/OFL/Notice" /><cc:requires
           rdf:resource="http://scripts.sil.org/pub/OFL/Attribution" /><cc:requires
           rdf:resource="http://scripts.sil.org/pub/OFL/ShareAlike" /><cc:requires
           rdf:resource="http://scripts.sil.org/pub/OFL/DerivativeRenaming" /><cc:requires
           rdf:resource="http://scripts.sil.org/pub/OFL/BundlingWhenSelling" /></cc:License></rdf:RDF></metadata></svg>
