<?xml version="1.0" encoding="UTF-8" standalone="no"?>
<!-- Created with Inkscape (http://www.inkscape.org/) -->

<svg
   width="252"
   height="252"
   viewBox="0 0 252 252"
   version="1.1"
   id="svg5"
   inkscape:version="1.2.2 (732a01da63, 2022-12-09)"
   sodipodi:docname="CPU06.svg"
   xml:space="preserve"
   xmlns:inkscape="http://www.inkscape.org/namespaces/inkscape"
   xmlns:sodipodi="http://sodipodi.sourceforge.net/DTD/sodipodi-0.dtd"
   xmlns="http://www.w3.org/2000/svg"
   xmlns:svg="http://www.w3.org/2000/svg"
   xmlns:rdf="http://www.w3.org/1999/02/22-rdf-syntax-ns#"
   xmlns:cc="http://creativecommons.org/ns#"><sodipodi:namedview
     id="namedview7"
     pagecolor="#ffffff"
     bordercolor="#000000"
     borderopacity="0.25"
     inkscape:showpageshadow="2"
     inkscape:pageopacity="0.0"
     inkscape:pagecheckerboard="true"
     inkscape:deskcolor="#d1d1d1"
     inkscape:document-units="px"
     showgrid="true"
     showguides="true"
     inkscape:zoom="1.509105"
     inkscape:cx="-17.560077"
     inkscape:cy="105.36046"
     inkscape:window-width="1920"
     inkscape:window-height="1027"
     inkscape:window-x="-8"
     inkscape:window-y="-8"
     inkscape:window-maximized="1"
     inkscape:current-layer="layer1"><inkscape:grid
       type="xygrid"
       id="grid132"
       empspacing="8"
       dotted="true"
       originx="-2"
       originy="-2" /><sodipodi:guide
       position="126,174"
       orientation="1,0"
       id="guide136"
       inkscape:locked="false" /><sodipodi:guide
       position="158,126"
       orientation="0,-1"
       id="guide138"
       inkscape:locked="false" /></sodipodi:namedview><defs
     id="defs2" /><g
     inkscape:label="Layer 1"
     inkscape:groupmode="layer"
     id="layer1"
     transform="translate(-2,-2)"><path
       id="path3222"
       style="color:#000000;fill:#000000;stroke-linecap:round;stroke-linejoin:round;-inkscape-stroke:none;paint-order:stroke fill markers"
       d="M 8 2 A 6.0006 6.0006 0 0 0 2 8 L 2 248 A 6.0006 6.0006 0 0 0 8 254 L 248 254 A 6.0006 6.0006 0 0 0 254 248 L 254 8 A 6.0006 6.0006 0 0 0 248 2 L 8 2 z M 14 14 L 242 14 L 242 242 L 14 242 L 14 14 z M 55.5 34 C 43.692807 34 34 43.692807 34 55.5 L 34 200.5 C 34 212.30719 43.692807 222 55.5 222 L 200.5 222 C 212.30719 222 222 212.30719 222 200.5 L 222 55.5 C 222 43.692807 212.30719 34 200.5 34 L 55.5 34 z M 55.5 46 L 200.5 46 C 205.86677 46 210 50.133227 210 55.5 L 210 200.5 C 210 205.86677 205.86677 210 200.5 210 L 55.5 210 C 50.133227 210 46 205.86677 46 200.5 L 46 55.5 C 46 50.133227 50.133227 46 55.5 46 z M 132.26758 79.867188 C 124.00094 79.867188 116.88913 82.132699 110.93359 86.666016 C 105.06695 91.110445 100.53397 97.244211 97.333984 105.06641 C 94.133996 112.79971 92.533203 121.60017 92.533203 131.4668 C 92.533203 140.62232 93.956347 148.53258 96.800781 155.19922 C 99.645217 161.86587 103.77702 167.02159 109.19922 170.66602 C 114.71031 174.31045 121.37703 176.13281 129.19922 176.13281 C 136.04364 176.13281 142.04368 174.75554 147.19922 172 C 152.44365 169.15557 156.53347 165.28927 159.4668 160.40039 C 162.40012 155.51152 163.86719 149.95462 163.86719 143.73242 C 163.86719 137.33244 162.44405 131.91123 159.59961 127.4668 C 156.75518 122.93348 153.0226 119.51032 148.40039 117.19922 C 143.77818 114.79923 138.8001 113.59961 133.4668 113.59961 C 128.93347 113.59961 125.06718 114.3102 121.86719 115.73242 C 118.75609 117.06575 115.86588 119.06576 113.19922 121.73242 C 113.99922 114.08801 115.95531 107.86639 119.06641 103.06641 C 122.2664 98.266426 126.44407 95.867187 131.59961 95.867188 C 134.71071 95.867188 137.28955 96.755432 139.33398 98.533203 C 141.46731 100.31097 142.80065 102.75608 143.33398 105.86719 L 163.06641 105.86719 C 162.97752 103.55608 162.31085 100.93332 161.06641 98 C 159.91086 94.977788 158.08849 92.08953 155.59961 89.333984 C 153.19962 86.578438 150.04391 84.310974 146.13281 82.533203 C 142.3106 80.755432 137.68978 79.867188 132.26758 79.867188 z M 129.19922 129.4668 C 133.55476 129.4668 137.06576 130.75622 139.73242 133.33398 C 142.48797 135.91176 143.86719 139.5106 143.86719 144.13281 C 143.86719 148.8439 142.48797 152.7102 139.73242 155.73242 C 137.06576 158.66575 133.55476 160.13281 129.19922 160.13281 C 124.39924 160.13281 120.62273 158.1328 117.86719 154.13281 C 115.20053 150.13283 113.55582 144.66573 112.93359 137.73242 C 117.20025 132.22133 122.62147 129.4668 129.19922 129.4668 z M 24.234375 213.00977 A 3.0003 3.0003 0 0 0 22.851562 213.22852 A 3.0003 3.0003 0 0 0 21 216 L 21 232 A 3.0003 3.0003 0 0 0 24 235 L 40 235 A 3.0003 3.0003 0 0 0 42.121094 229.87891 L 26.121094 213.87891 A 3.0003 3.0003 0 0 0 24.234375 213.00977 z " /><g
       id="path3228" /><g
       aria-label="6"
       id="text3347"
       style="font-weight:600;font-size:133.333px;font-family:'Azeret Mono';-inkscape-font-specification:'Azeret Mono Semi-Bold';text-align:center;text-anchor:middle;stroke-width:6;stroke-linecap:round;stroke-linejoin:round;paint-order:stroke fill markers" /></g><metadata
     id="metadata134"><rdf:RDF><cc:Work
         rdf:about=""><cc:license
           rdf:resource="http://scripts.sil.org/OFL" /></cc:Work><cc:License
         rdf:about="http://scripts.sil.org/OFL"><cc:permits
           rdf:resource="http://scripts.sil.org/pub/OFL/Reproduction" /><cc:permits
           rdf:resource="http://scripts.sil.org/pub/OFL/Distribution" /><cc:permits
           rdf:resource="http://scripts.sil.org/pub/OFL/Embedding" /><cc:permits
           rdf:resource="http://scripts.sil.org/pub/OFL/DerivativeWorks" /><cc:requires
           rdf:resource="http://scripts.sil.org/pub/OFL/Notice" /><cc:requires
           rdf:resource="http://scripts.sil.org/pub/OFL/Attribution" /><cc:requires
           rdf:resource="http://scripts.sil.org/pub/OFL/ShareAlike" /><cc:requires
           rdf:resource="http://scripts.sil.org/pub/OFL/DerivativeRenaming" /><cc:requires
           rdf:resource="http://scripts.sil.org/pub/OFL/BundlingWhenSelling" /></cc:License></rdf:RDF></metadata></svg>
