<?xml version="1.0" encoding="UTF-8" standalone="no"?>
<!-- Created with Inkscape (http://www.inkscape.org/) -->

<svg
   width="252"
   height="252"
   viewBox="0 0 252 252"
   version="1.1"
   id="svg5"
   inkscape:version="1.2.2 (732a01da63, 2022-12-09)"
   sodipodi:docname="CPU09.svg"
   xml:space="preserve"
   xmlns:inkscape="http://www.inkscape.org/namespaces/inkscape"
   xmlns:sodipodi="http://sodipodi.sourceforge.net/DTD/sodipodi-0.dtd"
   xmlns="http://www.w3.org/2000/svg"
   xmlns:svg="http://www.w3.org/2000/svg"
   xmlns:rdf="http://www.w3.org/1999/02/22-rdf-syntax-ns#"
   xmlns:cc="http://creativecommons.org/ns#"><sodipodi:namedview
     id="namedview7"
     pagecolor="#ffffff"
     bordercolor="#000000"
     borderopacity="0.25"
     inkscape:showpageshadow="2"
     inkscape:pageopacity="0.0"
     inkscape:pagecheckerboard="true"
     inkscape:deskcolor="#d1d1d1"
     inkscape:document-units="px"
     showgrid="true"
     showguides="true"
     inkscape:zoom="1.509105"
     inkscape:cx="-17.560077"
     inkscape:cy="105.36046"
     inkscape:window-width="1920"
     inkscape:window-height="1027"
     inkscape:window-x="-8"
     inkscape:window-y="-8"
     inkscape:window-maximized="1"
     inkscape:current-layer="layer1"><inkscape:grid
       type="xygrid"
       id="grid132"
       empspacing="8"
       dotted="true"
       originx="-2"
       originy="-2" /><sodipodi:guide
       position="126,174"
       orientation="1,0"
       id="guide136"
       inkscape:locked="false" /><sodipodi:guide
       position="158,126"
       orientation="0,-1"
       id="guide138"
       inkscape:locked="false" /></sodipodi:namedview><defs
     id="defs2" /><g
     inkscape:label="Layer 1"
     inkscape:groupmode="layer"
     id="layer1"
     transform="translate(-2,-2)"><path
       id="path3222"
       style="color:#000000;fill:#7f7f7f7f;stroke-linecap:round;stroke-linejoin:round;-inkscape-stroke:none;paint-order:stroke fill markers"
       d="M 8 2 A 6.0006 6.0006 0 0 0 2 8 L 2 248 A 6.0006 6.0006 0 0 0 8 254 L 248 254 A 6.0006 6.0006 0 0 0 254 248 L 254 8 A 6.0006 6.0006 0 0 0 248 2 L 8 2 z M 14 14 L 242 14 L 242 242 L 14 242 L 14 14 z M 55.5 34 C 43.692807 34 34 43.692807 34 55.5 L 34 200.5 C 34 212.30719 43.692807 222 55.5 222 L 200.5 222 C 212.30719 222 222 212.30719 222 200.5 L 222 55.5 C 222 43.692807 212.30719 34 200.5 34 L 55.5 34 z M 55.5 46 L 200.5 46 C 205.86677 46 210 50.133227 210 55.5 L 210 200.5 C 210 205.86677 205.86677 210 200.5 210 L 55.5 210 C 50.133227 210 46 205.86677 46 200.5 L 46 55.5 C 46 50.133227 50.133227 46 55.5 46 z M 126.80078 79.867188 C 119.95636 79.867188 113.91044 81.288379 108.66602 84.132812 C 103.51048 86.888358 99.46653 90.710738 96.533203 95.599609 C 93.599881 100.48848 92.132812 106.04538 92.132812 112.26758 C 92.132813 118.66756 93.555957 124.1327 96.400391 128.66602 C 99.244826 133.11044 102.97741 136.5336 107.59961 138.93359 C 112.22182 141.2447 117.19989 142.40039 122.5332 142.40039 C 127.06652 142.40039 130.8889 141.73372 134 140.40039 C 137.19998 138.97817 140.13412 136.93424 142.80078 134.26758 C 142.00079 141.912 140.00077 148.13361 136.80078 152.93359 C 133.68968 157.73358 129.55593 160.13281 124.40039 160.13281 C 121.28929 160.13281 118.66653 159.24457 116.5332 157.4668 C 114.48877 155.68903 113.19935 153.24392 112.66602 150.13281 L 92.933594 150.13281 C 93.022482 152.44392 93.64523 155.1106 94.800781 158.13281 C 96.045221 161.06614 97.867587 163.91047 100.26758 166.66602 C 102.75646 169.42156 105.91021 171.68903 109.73242 173.4668 C 113.64352 175.24457 118.31021 176.13281 123.73242 176.13281 C 131.99906 176.13281 139.06695 173.91123 144.93359 169.4668 C 150.88913 164.93348 155.46603 158.79971 158.66602 151.06641 C 161.86601 143.24421 163.4668 134.39983 163.4668 124.5332 C 163.4668 115.37768 162.04366 107.46743 159.19922 100.80078 C 156.35479 94.134141 152.17711 88.978416 146.66602 85.333984 C 141.24381 81.689553 134.62297 79.867188 126.80078 79.867188 z M 126.80078 95.867188 C 131.60076 95.867187 135.33334 97.8672 138 101.86719 C 140.75554 105.86717 142.44419 111.33427 143.06641 118.26758 C 138.79976 123.77867 133.37853 126.5332 126.80078 126.5332 C 122.44524 126.5332 118.88836 125.24379 116.13281 122.66602 C 113.46616 120.08825 112.13281 116.4894 112.13281 111.86719 C 112.13281 107.15609 113.46616 103.33371 116.13281 100.40039 C 118.88836 97.378182 122.44524 95.867187 126.80078 95.867188 z M 24.234375 213.00977 A 3.0003 3.0003 0 0 0 22.851562 213.22852 A 3.0003 3.0003 0 0 0 21 216 L 21 232 A 3.0003 3.0003 0 0 0 24 235 L 40 235 A 3.0003 3.0003 0 0 0 42.121094 229.87891 L 26.121094 213.87891 A 3.0003 3.0003 0 0 0 24.234375 213.00977 z " /><g
       id="path3228" /><g
       aria-label="9"
       id="text3347"
       style="font-weight:600;font-size:133.333px;font-family:'Azeret Mono';-inkscape-font-specification:'Azeret Mono Semi-Bold';text-align:center;text-anchor:middle;stroke-width:6;stroke-linecap:round;stroke-linejoin:round;paint-order:stroke fill markers" /></g><metadata
     id="metadata134"><rdf:RDF><cc:Work
         rdf:about=""><cc:license
           rdf:resource="http://scripts.sil.org/OFL" /></cc:Work><cc:License
         rdf:about="http://scripts.sil.org/OFL"><cc:permits
           rdf:resource="http://scripts.sil.org/pub/OFL/Reproduction" /><cc:permits
           rdf:resource="http://scripts.sil.org/pub/OFL/Distribution" /><cc:permits
           rdf:resource="http://scripts.sil.org/pub/OFL/Embedding" /><cc:permits
           rdf:resource="http://scripts.sil.org/pub/OFL/DerivativeWorks" /><cc:requires
           rdf:resource="http://scripts.sil.org/pub/OFL/Notice" /><cc:requires
           rdf:resource="http://scripts.sil.org/pub/OFL/Attribution" /><cc:requires
           rdf:resource="http://scripts.sil.org/pub/OFL/ShareAlike" /><cc:requires
           rdf:resource="http://scripts.sil.org/pub/OFL/DerivativeRenaming" /><cc:requires
           rdf:resource="http://scripts.sil.org/pub/OFL/BundlingWhenSelling" /></cc:License></rdf:RDF></metadata></svg>
