<?xml version="1.0" encoding="UTF-8" standalone="no"?>
<!-- Created with Inkscape (http://www.inkscape.org/) -->

<svg
   width="252"
   height="252"
   viewBox="0 0 252 252"
   version="1.1"
   id="svg5"
   inkscape:version="1.2.2 (732a01da63, 2022-12-09)"
   sodipodi:docname="CPU08.svg"
   xml:space="preserve"
   xmlns:inkscape="http://www.inkscape.org/namespaces/inkscape"
   xmlns:sodipodi="http://sodipodi.sourceforge.net/DTD/sodipodi-0.dtd"
   xmlns="http://www.w3.org/2000/svg"
   xmlns:svg="http://www.w3.org/2000/svg"
   xmlns:rdf="http://www.w3.org/1999/02/22-rdf-syntax-ns#"
   xmlns:cc="http://creativecommons.org/ns#"><sodipodi:namedview
     id="namedview7"
     pagecolor="#ffffff"
     bordercolor="#000000"
     borderopacity="0.25"
     inkscape:showpageshadow="2"
     inkscape:pageopacity="0.0"
     inkscape:pagecheckerboard="true"
     inkscape:deskcolor="#d1d1d1"
     inkscape:document-units="px"
     showgrid="true"
     showguides="true"
     inkscape:zoom="1.509105"
     inkscape:cx="-17.560077"
     inkscape:cy="105.36046"
     inkscape:window-width="1920"
     inkscape:window-height="1027"
     inkscape:window-x="-8"
     inkscape:window-y="-8"
     inkscape:window-maximized="1"
     inkscape:current-layer="layer1"><inkscape:grid
       type="xygrid"
       id="grid132"
       empspacing="8"
       dotted="true"
       originx="-2"
       originy="-2" /><sodipodi:guide
       position="126,174"
       orientation="1,0"
       id="guide136"
       inkscape:locked="false" /><sodipodi:guide
       position="158,126"
       orientation="0,-1"
       id="guide138"
       inkscape:locked="false" /></sodipodi:namedview><defs
     id="defs2" /><g
     inkscape:label="Layer 1"
     inkscape:groupmode="layer"
     id="layer1"
     transform="translate(-2,-2)"><path
       id="path3222"
       style="color:#000000;fill:#7f7f7f7f;stroke-linecap:round;stroke-linejoin:round;-inkscape-stroke:none;paint-order:stroke fill markers"
       d="M 8 2 A 6.0006 6.0006 0 0 0 2 8 L 2 248 A 6.0006 6.0006 0 0 0 8 254 L 248 254 A 6.0006 6.0006 0 0 0 254 248 L 254 8 A 6.0006 6.0006 0 0 0 248 2 L 8 2 z M 14 14 L 242 14 L 242 242 L 14 242 L 14 14 z M 55.5 34 C 43.692807 34 34 43.692807 34 55.5 L 34 200.5 C 34 212.30719 43.692807 222 55.5 222 L 200.5 222 C 212.30719 222 222 212.30719 222 200.5 L 222 55.5 C 222 43.692807 212.30719 34 200.5 34 L 55.5 34 z M 55.5 46 L 200.5 46 C 205.86677 46 210 50.133227 210 55.5 L 210 200.5 C 210 205.86677 205.86677 210 200.5 210 L 55.5 210 C 50.133227 210 46 205.86677 46 200.5 L 46 55.5 C 46 50.133227 50.133227 46 55.5 46 z M 127.86719 79.867188 C 121.37832 79.867188 115.64378 81.022882 110.66602 83.333984 C 105.77715 85.556199 101.95477 88.66603 99.199219 92.666016 C 96.443673 96.577113 95.066406 101.11204 95.066406 106.26758 C 95.066406 110.88978 96.178176 114.88981 98.400391 118.26758 C 100.6226 121.55645 103.64459 124.22314 107.4668 126.26758 C 103.20015 128.48979 99.776989 131.51177 97.199219 135.33398 C 94.710339 139.15619 93.466797 143.59937 93.466797 148.66602 C 93.466797 153.99933 94.889941 158.75583 97.734375 162.93359 C 100.6677 167.02247 104.71165 170.26602 109.86719 172.66602 C 115.02272 174.97711 121.02277 176.13281 127.86719 176.13281 C 134.71161 176.13281 140.71165 174.97711 145.86719 172.66602 C 151.11162 170.26602 155.15556 166.97854 158 162.80078 C 160.93332 158.62301 162.40039 153.77867 162.40039 148.26758 C 162.40039 143.3787 161.11097 139.0673 158.5332 135.33398 C 156.04432 131.51177 152.66704 128.48979 148.40039 126.26758 C 152.2226 124.22314 155.24459 121.60038 157.4668 118.40039 C 159.68901 115.11151 160.80078 111.15541 160.80078 106.5332 C 160.80078 101.28878 159.37764 96.666002 156.5332 92.666016 C 153.77766 88.66603 149.91136 85.556199 144.93359 83.333984 C 140.04473 81.022882 134.35605 79.867188 127.86719 79.867188 z M 127.86719 95.466797 C 131.6894 95.466797 134.88903 96.578567 137.4668 98.800781 C 140.04456 101.02299 141.33398 103.95517 141.33398 107.59961 C 141.33398 111.15515 140.08849 114.04537 137.59961 116.26758 C 135.11073 118.4898 131.86717 119.68941 127.86719 119.86719 C 123.95609 119.68941 120.75646 118.4898 118.26758 116.26758 C 115.86759 114.04537 114.66602 111.15515 114.66602 107.59961 C 114.66602 103.95517 115.91151 101.02299 118.40039 98.800781 C 120.97815 96.578567 124.13386 95.466797 127.86719 95.466797 z M 127.86719 134.66602 C 132.22273 134.93268 135.73373 136.3119 138.40039 138.80078 C 141.06705 141.28966 142.40039 144.22185 142.40039 147.59961 C 142.40039 151.33293 140.97725 154.35491 138.13281 156.66602 C 135.28838 158.97712 131.86717 160.13281 127.86719 160.13281 C 123.95609 160.13281 120.57686 158.97712 117.73242 156.66602 C 114.88799 154.35491 113.4668 151.37685 113.4668 147.73242 C 113.4668 144.17688 114.80014 141.20077 117.4668 138.80078 C 120.13345 136.3119 123.60054 134.93268 127.86719 134.66602 z M 24.234375 213.00977 A 3.0003 3.0003 0 0 0 22.851562 213.22852 A 3.0003 3.0003 0 0 0 21 216 L 21 232 A 3.0003 3.0003 0 0 0 24 235 L 40 235 A 3.0003 3.0003 0 0 0 42.121094 229.87891 L 26.121094 213.87891 A 3.0003 3.0003 0 0 0 24.234375 213.00977 z " /><g
       id="path3228" /><g
       aria-label="8"
       id="text3347"
       style="font-weight:600;font-size:133.333px;font-family:'Azeret Mono';-inkscape-font-specification:'Azeret Mono Semi-Bold';text-align:center;text-anchor:middle;stroke-width:6;stroke-linecap:round;stroke-linejoin:round;paint-order:stroke fill markers" /></g><metadata
     id="metadata134"><rdf:RDF><cc:Work
         rdf:about=""><cc:license
           rdf:resource="http://scripts.sil.org/OFL" /></cc:Work><cc:License
         rdf:about="http://scripts.sil.org/OFL"><cc:permits
           rdf:resource="http://scripts.sil.org/pub/OFL/Reproduction" /><cc:permits
           rdf:resource="http://scripts.sil.org/pub/OFL/Distribution" /><cc:permits
           rdf:resource="http://scripts.sil.org/pub/OFL/Embedding" /><cc:permits
           rdf:resource="http://scripts.sil.org/pub/OFL/DerivativeWorks" /><cc:requires
           rdf:resource="http://scripts.sil.org/pub/OFL/Notice" /><cc:requires
           rdf:resource="http://scripts.sil.org/pub/OFL/Attribution" /><cc:requires
           rdf:resource="http://scripts.sil.org/pub/OFL/ShareAlike" /><cc:requires
           rdf:resource="http://scripts.sil.org/pub/OFL/DerivativeRenaming" /><cc:requires
           rdf:resource="http://scripts.sil.org/pub/OFL/BundlingWhenSelling" /></cc:License></rdf:RDF></metadata></svg>
