<?xml version="1.0" encoding="UTF-8" standalone="no"?>
<!-- Created with Inkscape (http://www.inkscape.org/) -->

<svg
   width="252"
   height="252"
   viewBox="0 0 252 252"
   version="1.1"
   id="svg5"
   inkscape:version="1.2.2 (732a01da63, 2022-12-09)"
   sodipodi:docname="CPU15.svg"
   xml:space="preserve"
   xmlns:inkscape="http://www.inkscape.org/namespaces/inkscape"
   xmlns:sodipodi="http://sodipodi.sourceforge.net/DTD/sodipodi-0.dtd"
   xmlns="http://www.w3.org/2000/svg"
   xmlns:svg="http://www.w3.org/2000/svg"
   xmlns:rdf="http://www.w3.org/1999/02/22-rdf-syntax-ns#"
   xmlns:cc="http://creativecommons.org/ns#"><sodipodi:namedview
     id="namedview7"
     pagecolor="#ffffff"
     bordercolor="#000000"
     borderopacity="0.25"
     inkscape:showpageshadow="2"
     inkscape:pageopacity="0.0"
     inkscape:pagecheckerboard="true"
     inkscape:deskcolor="#d1d1d1"
     inkscape:document-units="px"
     showgrid="true"
     showguides="true"
     inkscape:zoom="1.509105"
     inkscape:cx="-17.560077"
     inkscape:cy="105.36046"
     inkscape:window-width="1920"
     inkscape:window-height="1027"
     inkscape:window-x="-8"
     inkscape:window-y="-8"
     inkscape:window-maximized="1"
     inkscape:current-layer="layer1"><inkscape:grid
       type="xygrid"
       id="grid132"
       empspacing="8"
       dotted="true"
       originx="-2"
       originy="-2" /><sodipodi:guide
       position="126,174"
       orientation="1,0"
       id="guide136"
       inkscape:locked="false" /><sodipodi:guide
       position="158,126"
       orientation="0,-1"
       id="guide138"
       inkscape:locked="false" /></sodipodi:namedview><defs
     id="defs2" /><g
     inkscape:label="Layer 1"
     inkscape:groupmode="layer"
     id="layer1"
     transform="translate(-2,-2)"><path
       id="path3222"
       style="color:#000000;fill:#000000;stroke-linecap:round;stroke-linejoin:round;-inkscape-stroke:none;paint-order:stroke fill markers"
       d="M 8 2 A 6.0006 6.0006 0 0 0 2 8 L 2 248 A 6.0006 6.0006 0 0 0 8 254 L 248 254 A 6.0006 6.0006 0 0 0 254 248 L 254 8 A 6.0006 6.0006 0 0 0 248 2 L 8 2 z M 14 14 L 242 14 L 242 242 L 14 242 L 14 14 z M 55.5 34 C 43.692807 34 34 43.692807 34 55.5 L 34 200.5 C 34 212.30719 43.692807 222 55.5 222 L 200.5 222 C 212.30719 222 222 212.30719 222 200.5 L 222 55.5 C 222 43.692807 212.30719 34 200.5 34 L 55.5 34 z M 55.5 46 L 200.5 46 C 205.86677 46 210 50.133227 210 55.5 L 210 200.5 C 210 205.86677 205.86677 210 200.5 210 L 55.5 210 C 50.133227 210 46 205.86677 46 200.5 L 46 55.5 C 46 50.133227 50.133227 46 55.5 46 z M 84.267578 81.466797 L 48.533203 106.93359 L 48.533203 129.06641 L 64.533203 116.40039 L 80 103.73438 L 78.933594 123.06641 L 78.933594 158.5332 L 48.533203 158.5332 L 48.533203 174.5332 L 119.73242 174.5332 L 119.73242 158.5332 L 98.267578 158.5332 L 98.267578 81.466797 L 84.267578 81.466797 z M 145.59961 81.466797 L 137.59961 134.40039 L 155.33398 134.40039 C 156.84509 132.08929 159.02275 130.08928 161.86719 128.40039 C 164.71162 126.62262 167.91125 125.73242 171.4668 125.73242 C 175.82234 125.73242 179.33334 127.24537 182 130.26758 C 184.75554 133.2898 186.13281 137.15609 186.13281 141.86719 C 186.13281 147.46716 184.62182 151.91034 181.59961 155.19922 C 178.66629 158.39921 174.71018 160 169.73242 160 C 165.91021 160 162.66666 158.93411 160 156.80078 C 157.42224 154.66746 155.99909 151.6894 155.73242 147.86719 L 136.5332 147.86719 C 136.97764 156.48938 140.17728 163.33374 146.13281 168.40039 C 152.08835 173.46704 159.91075 176 169.59961 176 C 176.88848 176 183.24381 174.62273 188.66602 171.86719 C 194.1771 169.11164 198.44458 165.15554 201.4668 160 C 204.48901 154.75558 206 148.57788 206 141.4668 C 206 135.1557 204.71058 129.60076 202.13281 124.80078 C 199.64393 120.0008 196.17685 116.26627 191.73242 113.59961 C 187.37688 110.93295 182.40076 109.59961 176.80078 109.59961 C 173.24524 109.59961 169.82208 110.3102 166.5332 111.73242 C 163.33321 113.06575 160.57672 114.88811 158.26562 117.19922 L 161.4668 97.466797 L 200.66602 97.466797 L 200.66602 81.466797 L 145.59961 81.466797 z M 24.234375 213.00977 A 3.0003 3.0003 0 0 0 22.851562 213.22852 A 3.0003 3.0003 0 0 0 21 216 L 21 232 A 3.0003 3.0003 0 0 0 24 235 L 40 235 A 3.0003 3.0003 0 0 0 42.121094 229.87891 L 26.121094 213.87891 A 3.0003 3.0003 0 0 0 24.234375 213.00977 z " /><g
       id="path3228" /><g
       aria-label="15"
       id="text3347"
       style="font-weight:600;font-size:133.333px;font-family:'Azeret Mono';-inkscape-font-specification:'Azeret Mono Semi-Bold';text-align:center;text-anchor:middle;stroke-width:6;stroke-linecap:round;stroke-linejoin:round;paint-order:stroke fill markers" /></g><metadata
     id="metadata134"><rdf:RDF><cc:Work
         rdf:about=""><cc:license
           rdf:resource="http://scripts.sil.org/OFL" /></cc:Work><cc:License
         rdf:about="http://scripts.sil.org/OFL"><cc:permits
           rdf:resource="http://scripts.sil.org/pub/OFL/Reproduction" /><cc:permits
           rdf:resource="http://scripts.sil.org/pub/OFL/Distribution" /><cc:permits
           rdf:resource="http://scripts.sil.org/pub/OFL/Embedding" /><cc:permits
           rdf:resource="http://scripts.sil.org/pub/OFL/DerivativeWorks" /><cc:requires
           rdf:resource="http://scripts.sil.org/pub/OFL/Notice" /><cc:requires
           rdf:resource="http://scripts.sil.org/pub/OFL/Attribution" /><cc:requires
           rdf:resource="http://scripts.sil.org/pub/OFL/ShareAlike" /><cc:requires
           rdf:resource="http://scripts.sil.org/pub/OFL/DerivativeRenaming" /><cc:requires
           rdf:resource="http://scripts.sil.org/pub/OFL/BundlingWhenSelling" /></cc:License></rdf:RDF></metadata></svg>
