<?xml version="1.0" encoding="UTF-8" standalone="no"?>
<!-- Created with Inkscape (http://www.inkscape.org/) -->

<svg
   width="252"
   height="252"
   viewBox="0 0 252 252"
   version="1.1"
   id="svg5"
   inkscape:version="1.2.2 (732a01da63, 2022-12-09)"
   sodipodi:docname="CPU13.svg"
   xml:space="preserve"
   xmlns:inkscape="http://www.inkscape.org/namespaces/inkscape"
   xmlns:sodipodi="http://sodipodi.sourceforge.net/DTD/sodipodi-0.dtd"
   xmlns="http://www.w3.org/2000/svg"
   xmlns:svg="http://www.w3.org/2000/svg"
   xmlns:rdf="http://www.w3.org/1999/02/22-rdf-syntax-ns#"
   xmlns:cc="http://creativecommons.org/ns#"><sodipodi:namedview
     id="namedview7"
     pagecolor="#ffffff"
     bordercolor="#000000"
     borderopacity="0.25"
     inkscape:showpageshadow="2"
     inkscape:pageopacity="0.0"
     inkscape:pagecheckerboard="true"
     inkscape:deskcolor="#d1d1d1"
     inkscape:document-units="px"
     showgrid="true"
     showguides="true"
     inkscape:zoom="1.509105"
     inkscape:cx="-17.560077"
     inkscape:cy="105.36046"
     inkscape:window-width="1920"
     inkscape:window-height="1027"
     inkscape:window-x="-8"
     inkscape:window-y="-8"
     inkscape:window-maximized="1"
     inkscape:current-layer="layer1"><inkscape:grid
       type="xygrid"
       id="grid132"
       empspacing="8"
       dotted="true"
       originx="-2"
       originy="-2" /><sodipodi:guide
       position="126,174"
       orientation="1,0"
       id="guide136"
       inkscape:locked="false" /><sodipodi:guide
       position="158,126"
       orientation="0,-1"
       id="guide138"
       inkscape:locked="false" /></sodipodi:namedview><defs
     id="defs2" /><g
     inkscape:label="Layer 1"
     inkscape:groupmode="layer"
     id="layer1"
     transform="translate(-2,-2)"><path
       id="path3222"
       style="color:#000000;fill:#7f7f7f7f;stroke-linecap:round;stroke-linejoin:round;-inkscape-stroke:none;paint-order:stroke fill markers"
       d="M 8 2 A 6.0006 6.0006 0 0 0 2 8 L 2 248 A 6.0006 6.0006 0 0 0 8 254 L 248 254 A 6.0006 6.0006 0 0 0 254 248 L 254 8 A 6.0006 6.0006 0 0 0 248 2 L 8 2 z M 14 14 L 242 14 L 242 242 L 14 242 L 14 14 z M 55.5 34 C 43.692807 34 34 43.692807 34 55.5 L 34 200.5 C 34 212.30719 43.692807 222 55.5 222 L 200.5 222 C 212.30719 222 222 212.30719 222 200.5 L 222 55.5 C 222 43.692807 212.30719 34 200.5 34 L 55.5 34 z M 55.5 46 L 200.5 46 C 205.86677 46 210 50.133227 210 55.5 L 210 200.5 C 210 205.86677 205.86677 210 200.5 210 L 55.5 210 C 50.133227 210 46 205.86677 46 200.5 L 46 55.5 C 46 50.133227 50.133227 46 55.5 46 z M 170.66602 79.867188 C 164.35493 79.867188 158.62233 81.11073 153.4668 83.599609 C 148.31126 86.08849 144.1775 89.645372 141.06641 94.267578 C 138.0442 98.889782 136.48928 104.44473 136.40039 110.93359 L 155.59961 110.93359 C 155.59961 106.31139 156.93295 102.66666 159.59961 100 C 162.35515 97.33334 165.95596 96 170.40039 96 C 173.95593 96 176.8442 96.934121 179.06641 98.800781 C 181.28862 100.57855 182.40039 103.19936 182.40039 106.66602 C 182.40039 110.04378 181.11097 112.93399 178.5332 115.33398 C 176.04433 117.64509 172.62117 118.80078 168.26562 118.80078 L 163.19922 118.80078 L 163.19922 134.66602 L 168 134.66602 C 173.15554 134.66602 177.42302 135.68798 180.80078 137.73242 C 184.26744 139.77686 186 142.97844 186 147.33398 C 186 150.97841 184.57686 153.95452 181.73242 156.26562 C 178.97688 158.57673 175.37802 159.73242 170.93359 159.73242 C 166.04473 159.73242 162.08862 158.17751 159.06641 155.06641 C 156.0442 151.95531 154.623 147.77763 154.80078 142.5332 L 135.59961 142.5332 C 135.24406 149.64429 136.6672 155.73413 139.86719 160.80078 C 143.06718 165.77854 147.37858 169.59897 152.80078 172.26562 C 158.22299 174.84339 164.26695 176.13281 170.93359 176.13281 C 178.13357 176.13281 184.35518 174.93319 189.59961 172.5332 C 194.84404 170.13321 198.88799 166.79985 201.73242 162.5332 C 204.57686 158.26655 206 153.3324 206 147.73242 C 206 142.22133 204.31136 137.42286 200.93359 133.33398 C 197.55583 129.24512 193.06678 126.62235 187.4668 125.4668 C 191.82234 123.95569 195.37727 121.37686 198.13281 117.73242 C 200.88836 113.99911 202.26563 109.64378 202.26562 104.66602 C 202.26563 97.199376 199.42129 91.199333 193.73242 86.666016 C 188.04355 82.132699 180.35487 79.867188 170.66602 79.867188 z M 84.267578 81.466797 L 48.533203 106.93359 L 48.533203 129.06641 L 64.533203 116.40039 L 80 103.73438 L 78.933594 123.06641 L 78.933594 158.5332 L 48.533203 158.5332 L 48.533203 174.5332 L 119.73242 174.5332 L 119.73242 158.5332 L 98.267578 158.5332 L 98.267578 81.466797 L 84.267578 81.466797 z M 24.234375 213.00977 A 3.0003 3.0003 0 0 0 22.851562 213.22852 A 3.0003 3.0003 0 0 0 21 216 L 21 232 A 3.0003 3.0003 0 0 0 24 235 L 40 235 A 3.0003 3.0003 0 0 0 42.121094 229.87891 L 26.121094 213.87891 A 3.0003 3.0003 0 0 0 24.234375 213.00977 z " /><g
       id="path3228" /><g
       aria-label="13"
       id="text3347"
       style="font-weight:600;font-size:133.333px;font-family:'Azeret Mono';-inkscape-font-specification:'Azeret Mono Semi-Bold';text-align:center;text-anchor:middle;stroke-width:6;stroke-linecap:round;stroke-linejoin:round;paint-order:stroke fill markers" /></g><metadata
     id="metadata134"><rdf:RDF><cc:Work
         rdf:about=""><cc:license
           rdf:resource="http://scripts.sil.org/OFL" /></cc:Work><cc:License
         rdf:about="http://scripts.sil.org/OFL"><cc:permits
           rdf:resource="http://scripts.sil.org/pub/OFL/Reproduction" /><cc:permits
           rdf:resource="http://scripts.sil.org/pub/OFL/Distribution" /><cc:permits
           rdf:resource="http://scripts.sil.org/pub/OFL/Embedding" /><cc:permits
           rdf:resource="http://scripts.sil.org/pub/OFL/DerivativeWorks" /><cc:requires
           rdf:resource="http://scripts.sil.org/pub/OFL/Notice" /><cc:requires
           rdf:resource="http://scripts.sil.org/pub/OFL/Attribution" /><cc:requires
           rdf:resource="http://scripts.sil.org/pub/OFL/ShareAlike" /><cc:requires
           rdf:resource="http://scripts.sil.org/pub/OFL/DerivativeRenaming" /><cc:requires
           rdf:resource="http://scripts.sil.org/pub/OFL/BundlingWhenSelling" /></cc:License></rdf:RDF></metadata></svg>
