<?xml version="1.0" encoding="UTF-8" standalone="no"?>
<!-- Created with Inkscape (http://www.inkscape.org/) -->

<svg
   width="252"
   height="252"
   viewBox="0 0 252 252"
   version="1.1"
   id="svg5"
   inkscape:version="1.2.2 (732a01da63, 2022-12-09)"
   sodipodi:docname="CPU19.svg"
   xml:space="preserve"
   xmlns:inkscape="http://www.inkscape.org/namespaces/inkscape"
   xmlns:sodipodi="http://sodipodi.sourceforge.net/DTD/sodipodi-0.dtd"
   xmlns="http://www.w3.org/2000/svg"
   xmlns:svg="http://www.w3.org/2000/svg"
   xmlns:rdf="http://www.w3.org/1999/02/22-rdf-syntax-ns#"
   xmlns:cc="http://creativecommons.org/ns#"><sodipodi:namedview
     id="namedview7"
     pagecolor="#ffffff"
     bordercolor="#000000"
     borderopacity="0.25"
     inkscape:showpageshadow="2"
     inkscape:pageopacity="0.0"
     inkscape:pagecheckerboard="true"
     inkscape:deskcolor="#d1d1d1"
     inkscape:document-units="px"
     showgrid="true"
     showguides="true"
     inkscape:zoom="1.509105"
     inkscape:cx="-17.560077"
     inkscape:cy="105.36046"
     inkscape:window-width="1920"
     inkscape:window-height="1027"
     inkscape:window-x="-8"
     inkscape:window-y="-8"
     inkscape:window-maximized="1"
     inkscape:current-layer="layer1"><inkscape:grid
       type="xygrid"
       id="grid132"
       empspacing="8"
       dotted="true"
       originx="-2"
       originy="-2" /><sodipodi:guide
       position="126,174"
       orientation="1,0"
       id="guide136"
       inkscape:locked="false" /><sodipodi:guide
       position="158,126"
       orientation="0,-1"
       id="guide138"
       inkscape:locked="false" /></sodipodi:namedview><defs
     id="defs2" /><g
     inkscape:label="Layer 1"
     inkscape:groupmode="layer"
     id="layer1"
     transform="translate(-2,-2)"><path
       id="path3222"
       style="color:#000000;fill:#000000;stroke-linecap:round;stroke-linejoin:round;-inkscape-stroke:none;paint-order:stroke fill markers"
       d="M 8 2 A 6.0006 6.0006 0 0 0 2 8 L 2 248 A 6.0006 6.0006 0 0 0 8 254 L 248 254 A 6.0006 6.0006 0 0 0 254 248 L 254 8 A 6.0006 6.0006 0 0 0 248 2 L 8 2 z M 14 14 L 242 14 L 242 242 L 14 242 L 14 14 z M 55.5 34 C 43.692807 34 34 43.692807 34 55.5 L 34 200.5 C 34 212.30719 43.692807 222 55.5 222 L 200.5 222 C 212.30719 222 222 212.30719 222 200.5 L 222 55.5 C 222 43.692807 212.30719 34 200.5 34 L 55.5 34 z M 55.5 46 L 200.5 46 C 205.86677 46 210 50.133227 210 55.5 L 210 200.5 C 210 205.86677 205.86677 210 200.5 210 L 55.5 210 C 50.133227 210 46 205.86677 46 200.5 L 46 55.5 C 46 50.133227 50.133227 46 55.5 46 z M 169.19922 79.867188 C 162.3548 79.867188 156.31083 81.288379 151.06641 84.132812 C 145.91087 86.888358 141.86692 90.710738 138.93359 95.599609 C 136.00027 100.48848 134.5332 106.04538 134.5332 112.26758 C 134.5332 118.66756 135.95634 124.1327 138.80078 128.66602 C 141.64521 133.11044 145.37779 136.5336 150 138.93359 C 154.62221 141.2447 159.60028 142.40039 164.93359 142.40039 C 169.46691 142.40039 173.28929 141.73372 176.40039 140.40039 C 179.60038 138.97817 182.53256 136.93424 185.19922 134.26758 C 184.39922 141.912 182.3992 148.13361 179.19922 152.93359 C 176.08812 157.73358 171.95632 160.13281 166.80078 160.13281 C 163.68968 160.13281 161.06692 159.24457 158.93359 157.4668 C 156.88916 155.68903 155.59974 153.24392 155.06641 150.13281 L 135.33398 150.13281 C 135.42287 152.44392 136.04367 155.1106 137.19922 158.13281 C 138.44366 161.06614 140.26602 163.91047 142.66602 166.66602 C 145.15489 169.42156 148.3106 171.68903 152.13281 173.4668 C 156.04391 175.24457 160.71061 176.13281 166.13281 176.13281 C 174.39945 176.13281 181.46734 173.91123 187.33398 169.4668 C 193.28952 164.93348 197.86642 158.79971 201.06641 151.06641 C 204.26639 143.24421 205.86719 134.39983 205.86719 124.5332 C 205.86719 115.37768 204.44404 107.46743 201.59961 100.80078 C 198.75517 94.134141 194.57749 88.978416 189.06641 85.333984 C 183.6442 81.689553 177.02141 79.867188 169.19922 79.867188 z M 84.267578 81.466797 L 48.533203 106.93359 L 48.533203 129.06641 L 64.533203 116.40039 L 80 103.73438 L 78.933594 123.06641 L 78.933594 158.5332 L 48.533203 158.5332 L 48.533203 174.5332 L 119.73242 174.5332 L 119.73242 158.5332 L 98.267578 158.5332 L 98.267578 81.466797 L 84.267578 81.466797 z M 169.19922 95.867188 C 173.9992 95.867187 177.73373 97.8672 180.40039 101.86719 C 183.15594 105.86717 184.84458 111.33427 185.4668 118.26758 C 181.20014 123.77867 175.77697 126.5332 169.19922 126.5332 C 164.84368 126.5332 161.28875 125.24379 158.5332 122.66602 C 155.86655 120.08825 154.5332 116.4894 154.5332 111.86719 C 154.5332 107.15609 155.86655 103.33371 158.5332 100.40039 C 161.28875 97.378182 164.84368 95.867187 169.19922 95.867188 z M 24.234375 213.00977 A 3.0003 3.0003 0 0 0 22.851562 213.22852 A 3.0003 3.0003 0 0 0 21 216 L 21 232 A 3.0003 3.0003 0 0 0 24 235 L 40 235 A 3.0003 3.0003 0 0 0 42.121094 229.87891 L 26.121094 213.87891 A 3.0003 3.0003 0 0 0 24.234375 213.00977 z " /><g
       id="path3228" /><g
       aria-label="19"
       id="text3347"
       style="font-weight:600;font-size:133.333px;font-family:'Azeret Mono';-inkscape-font-specification:'Azeret Mono Semi-Bold';text-align:center;text-anchor:middle;stroke-width:6;stroke-linecap:round;stroke-linejoin:round;paint-order:stroke fill markers" /></g><metadata
     id="metadata134"><rdf:RDF><cc:Work
         rdf:about=""><cc:license
           rdf:resource="http://scripts.sil.org/OFL" /></cc:Work><cc:License
         rdf:about="http://scripts.sil.org/OFL"><cc:permits
           rdf:resource="http://scripts.sil.org/pub/OFL/Reproduction" /><cc:permits
           rdf:resource="http://scripts.sil.org/pub/OFL/Distribution" /><cc:permits
           rdf:resource="http://scripts.sil.org/pub/OFL/Embedding" /><cc:permits
           rdf:resource="http://scripts.sil.org/pub/OFL/DerivativeWorks" /><cc:requires
           rdf:resource="http://scripts.sil.org/pub/OFL/Notice" /><cc:requires
           rdf:resource="http://scripts.sil.org/pub/OFL/Attribution" /><cc:requires
           rdf:resource="http://scripts.sil.org/pub/OFL/ShareAlike" /><cc:requires
           rdf:resource="http://scripts.sil.org/pub/OFL/DerivativeRenaming" /><cc:requires
           rdf:resource="http://scripts.sil.org/pub/OFL/BundlingWhenSelling" /></cc:License></rdf:RDF></metadata></svg>
