<?xml version="1.0" encoding="UTF-8" standalone="no"?>
<!-- Created with Inkscape (http://www.inkscape.org/) -->

<svg
   width="252"
   height="252"
   viewBox="0 0 252 252"
   version="1.1"
   id="svg5"
   inkscape:version="1.2.2 (732a01da63, 2022-12-09)"
   sodipodi:docname="CPU10.svg"
   xml:space="preserve"
   xmlns:inkscape="http://www.inkscape.org/namespaces/inkscape"
   xmlns:sodipodi="http://sodipodi.sourceforge.net/DTD/sodipodi-0.dtd"
   xmlns="http://www.w3.org/2000/svg"
   xmlns:svg="http://www.w3.org/2000/svg"
   xmlns:rdf="http://www.w3.org/1999/02/22-rdf-syntax-ns#"
   xmlns:cc="http://creativecommons.org/ns#"><sodipodi:namedview
     id="namedview7"
     pagecolor="#ffffff"
     bordercolor="#000000"
     borderopacity="0.25"
     inkscape:showpageshadow="2"
     inkscape:pageopacity="0.0"
     inkscape:pagecheckerboard="true"
     inkscape:deskcolor="#d1d1d1"
     inkscape:document-units="px"
     showgrid="true"
     showguides="true"
     inkscape:zoom="1.509105"
     inkscape:cx="-17.560077"
     inkscape:cy="105.36046"
     inkscape:window-width="1920"
     inkscape:window-height="1027"
     inkscape:window-x="-8"
     inkscape:window-y="-8"
     inkscape:window-maximized="1"
     inkscape:current-layer="layer1"><inkscape:grid
       type="xygrid"
       id="grid132"
       empspacing="8"
       dotted="true"
       originx="-2"
       originy="-2" /><sodipodi:guide
       position="126,174"
       orientation="1,0"
       id="guide136"
       inkscape:locked="false" /><sodipodi:guide
       position="158,126"
       orientation="0,-1"
       id="guide138"
       inkscape:locked="false" /></sodipodi:namedview><defs
     id="defs2" /><g
     inkscape:label="Layer 1"
     inkscape:groupmode="layer"
     id="layer1"
     transform="translate(-2,-2)"><path
       id="path3222"
       style="color:#000000;fill:#7f7f7f7f;stroke-linecap:round;stroke-linejoin:round;-inkscape-stroke:none;paint-order:stroke fill markers"
       d="M 8 2 A 6.0006 6.0006 0 0 0 2 8 L 2 248 A 6.0006 6.0006 0 0 0 8 254 L 248 254 A 6.0006 6.0006 0 0 0 254 248 L 254 8 A 6.0006 6.0006 0 0 0 248 2 L 8 2 z M 14 14 L 242 14 L 242 242 L 14 242 L 14 14 z M 55.5 34 C 43.692807 34 34 43.692807 34 55.5 L 34 200.5 C 34 212.30719 43.692807 222 55.5 222 L 200.5 222 C 212.30719 222 222 212.30719 222 200.5 L 222 55.5 C 222 43.692807 212.30719 34 200.5 34 L 55.5 34 z M 55.5 46 L 200.5 46 C 205.86677 46 210 50.133227 210 55.5 L 210 200.5 C 210 205.86677 205.86677 210 200.5 210 L 55.5 210 C 50.133227 210 46 205.86677 46 200.5 L 46 55.5 C 46 50.133227 50.133227 46 55.5 46 z M 170.40039 79.867188 C 162.66709 79.867188 156.0443 81.867202 150.5332 85.867188 C 145.02212 89.778285 140.75464 95.33323 137.73242 102.5332 C 134.7991 109.73318 133.33398 118.22226 133.33398 128 C 133.33398 137.77774 134.7991 146.26682 137.73242 153.4668 C 140.75464 160.66677 145.02212 166.26564 150.5332 170.26562 C 156.0443 174.17672 162.66709 176.13281 170.40039 176.13281 C 178.1337 176.13281 184.75454 174.17672 190.26562 170.26562 C 195.77672 166.26564 200.00027 160.66677 202.93359 153.4668 C 205.9558 146.26682 207.4668 137.77774 207.4668 128 C 207.4668 118.13337 205.9558 109.60036 202.93359 102.40039 C 200.00027 95.200416 195.77672 89.645472 190.26562 85.734375 C 184.75454 81.823278 178.1337 79.867188 170.40039 79.867188 z M 84.267578 81.466797 L 48.533203 106.93359 L 48.533203 129.06641 L 64.533203 116.40039 L 80 103.73438 L 78.933594 123.06641 L 78.933594 158.5332 L 48.533203 158.5332 L 48.533203 174.5332 L 119.73242 174.5332 L 119.73242 158.5332 L 98.267578 158.5332 L 98.267578 81.466797 L 84.267578 81.466797 z M 170.40039 95.867188 C 176.08926 95.867187 180.35478 98.62172 183.19922 104.13281 C 186.04365 109.55501 187.4668 117.51115 187.4668 128 C 187.4668 138.39996 186.04365 146.35609 183.19922 151.86719 C 180.35478 157.37828 176.08926 160.13281 170.40039 160.13281 C 164.80041 160.13281 160.57686 157.37828 157.73242 151.86719 C 154.88799 146.35609 153.4668 138.39996 153.4668 128 C 153.4668 117.51115 154.88799 109.55501 157.73242 104.13281 C 160.57686 98.62172 164.80041 95.867187 170.40039 95.867188 z M 24.234375 213.00977 A 3.0003 3.0003 0 0 0 22.851562 213.22852 A 3.0003 3.0003 0 0 0 21 216 L 21 232 A 3.0003 3.0003 0 0 0 24 235 L 40 235 A 3.0003 3.0003 0 0 0 42.121094 229.87891 L 26.121094 213.87891 A 3.0003 3.0003 0 0 0 24.234375 213.00977 z " /><g
       id="path3228" /><g
       aria-label="10"
       id="text3347"
       style="font-weight:600;font-size:133.333px;font-family:'Azeret Mono';-inkscape-font-specification:'Azeret Mono Semi-Bold';text-align:center;text-anchor:middle;stroke-width:6;stroke-linecap:round;stroke-linejoin:round;paint-order:stroke fill markers" /></g><metadata
     id="metadata134"><rdf:RDF><cc:Work
         rdf:about=""><cc:license
           rdf:resource="http://scripts.sil.org/OFL" /></cc:Work><cc:License
         rdf:about="http://scripts.sil.org/OFL"><cc:permits
           rdf:resource="http://scripts.sil.org/pub/OFL/Reproduction" /><cc:permits
           rdf:resource="http://scripts.sil.org/pub/OFL/Distribution" /><cc:permits
           rdf:resource="http://scripts.sil.org/pub/OFL/Embedding" /><cc:permits
           rdf:resource="http://scripts.sil.org/pub/OFL/DerivativeWorks" /><cc:requires
           rdf:resource="http://scripts.sil.org/pub/OFL/Notice" /><cc:requires
           rdf:resource="http://scripts.sil.org/pub/OFL/Attribution" /><cc:requires
           rdf:resource="http://scripts.sil.org/pub/OFL/ShareAlike" /><cc:requires
           rdf:resource="http://scripts.sil.org/pub/OFL/DerivativeRenaming" /><cc:requires
           rdf:resource="http://scripts.sil.org/pub/OFL/BundlingWhenSelling" /></cc:License></rdf:RDF></metadata></svg>
