<?xml version="1.0" encoding="UTF-8" standalone="no"?>
<!-- Created with Inkscape (http://www.inkscape.org/) -->

<svg
   width="252"
   height="252"
   viewBox="0 0 252 252"
   version="1.1"
   id="svg5"
   inkscape:version="1.2.2 (732a01da63, 2022-12-09)"
   sodipodi:docname="CPU22.svg"
   xml:space="preserve"
   xmlns:inkscape="http://www.inkscape.org/namespaces/inkscape"
   xmlns:sodipodi="http://sodipodi.sourceforge.net/DTD/sodipodi-0.dtd"
   xmlns="http://www.w3.org/2000/svg"
   xmlns:svg="http://www.w3.org/2000/svg"
   xmlns:rdf="http://www.w3.org/1999/02/22-rdf-syntax-ns#"
   xmlns:cc="http://creativecommons.org/ns#"><sodipodi:namedview
     id="namedview7"
     pagecolor="#ffffff"
     bordercolor="#000000"
     borderopacity="0.25"
     inkscape:showpageshadow="2"
     inkscape:pageopacity="0.0"
     inkscape:pagecheckerboard="true"
     inkscape:deskcolor="#d1d1d1"
     inkscape:document-units="px"
     showgrid="true"
     showguides="true"
     inkscape:zoom="1.509105"
     inkscape:cx="-17.560077"
     inkscape:cy="105.36046"
     inkscape:window-width="1920"
     inkscape:window-height="1027"
     inkscape:window-x="-8"
     inkscape:window-y="-8"
     inkscape:window-maximized="1"
     inkscape:current-layer="layer1"><inkscape:grid
       type="xygrid"
       id="grid132"
       empspacing="8"
       dotted="true"
       originx="-2"
       originy="-2" /><sodipodi:guide
       position="126,174"
       orientation="1,0"
       id="guide136"
       inkscape:locked="false" /><sodipodi:guide
       position="158,126"
       orientation="0,-1"
       id="guide138"
       inkscape:locked="false" /></sodipodi:namedview><defs
     id="defs2" /><g
     inkscape:label="Layer 1"
     inkscape:groupmode="layer"
     id="layer1"
     transform="translate(-2,-2)"><path
       id="path3222"
       style="color:#000000;fill:#000000;stroke-linecap:round;stroke-linejoin:round;-inkscape-stroke:none;paint-order:stroke fill markers"
       d="M 8 2 A 6.0006 6.0006 0 0 0 2 8 L 2 248 A 6.0006 6.0006 0 0 0 8 254 L 248 254 A 6.0006 6.0006 0 0 0 254 248 L 254 8 A 6.0006 6.0006 0 0 0 248 2 L 8 2 z M 14 14 L 242 14 L 242 242 L 14 242 L 14 14 z M 55.5 34 C 43.692807 34 34 43.692807 34 55.5 L 34 200.5 C 34 212.30719 43.692807 222 55.5 222 L 200.5 222 C 212.30719 222 222 212.30719 222 200.5 L 222 55.5 C 222 43.692807 212.30719 34 200.5 34 L 55.5 34 z M 55.5 46 L 200.5 46 C 205.86677 46 210 50.133227 210 55.5 L 210 200.5 C 210 205.86677 205.86677 210 200.5 210 L 55.5 210 C 50.133227 210 46 205.86677 46 200.5 L 46 55.5 C 46 50.133227 50.133227 46 55.5 46 z M 84.666016 79.867188 C 77.732707 79.867188 71.600893 81.200531 66.267578 83.867188 C 61.023152 86.444956 56.845475 90.221458 53.734375 95.199219 C 50.623275 100.17698 49.022482 106.08917 48.933594 112.93359 L 68.132812 112.93359 C 68.043924 107.68917 69.510991 103.55541 72.533203 100.5332 C 75.644303 97.51099 79.556484 96 84.267578 96 C 88.356453 96 91.643933 97.155694 94.132812 99.466797 C 96.710581 101.7779 98 104.9336 98 108.93359 C 98 113.02246 96.355283 117.51152 93.066406 122.40039 C 89.866417 127.20037 84.666772 132.75532 77.466797 139.06641 C 70.355711 145.37749 60.934463 152.71087 49.201172 161.06641 L 49.201172 174.5332 L 118.26758 174.5332 L 118.26758 158.5332 L 78.267578 158.5332 C 87.867545 152.48878 95.556225 146.80011 101.33398 141.4668 C 107.20063 136.04459 111.42223 130.6673 114 125.33398 C 116.66666 120.00067 118 114.35592 118 108.40039 C 118 102.62264 116.57686 97.600636 113.73242 93.333984 C 110.97688 89.067333 107.06665 85.7779 102 83.466797 C 97.02224 81.066806 91.24377 79.867188 84.666016 79.867188 z M 171.33398 79.867188 C 164.40068 79.867188 158.26691 81.200531 152.93359 83.867188 C 147.68917 86.444956 143.51149 90.221458 140.40039 95.199219 C 137.28929 100.17698 135.6885 106.08917 135.59961 112.93359 L 154.80078 112.93359 C 154.71189 107.68917 156.17701 103.55541 159.19922 100.5332 C 162.31032 97.51099 166.2225 96 170.93359 96 C 175.02247 96 178.3119 97.155694 180.80078 99.466797 C 183.37855 101.7779 184.66602 104.9336 184.66602 108.93359 C 184.66602 113.02246 183.0213 117.51152 179.73242 122.40039 C 176.53243 127.20037 171.33279 132.75532 164.13281 139.06641 C 157.02173 145.37749 147.60048 152.71087 135.86719 161.06641 L 135.86719 174.5332 L 204.93359 174.5332 L 204.93359 158.5332 L 164.93359 158.5332 C 174.53356 152.48878 182.22225 146.80011 188 141.4668 C 193.86665 136.04459 198.08824 130.6673 200.66602 125.33398 C 203.33267 120.00067 204.66602 114.35592 204.66602 108.40039 C 204.66602 102.62264 203.24483 97.600636 200.40039 93.333984 C 197.64485 89.067333 193.73266 85.7779 188.66602 83.466797 C 183.68825 81.066806 177.91174 79.867188 171.33398 79.867188 z M 24.234375 213.00977 A 3.0003 3.0003 0 0 0 22.851562 213.22852 A 3.0003 3.0003 0 0 0 21 216 L 21 232 A 3.0003 3.0003 0 0 0 24 235 L 40 235 A 3.0003 3.0003 0 0 0 42.121094 229.87891 L 26.121094 213.87891 A 3.0003 3.0003 0 0 0 24.234375 213.00977 z " /><g
       id="path3228" /><g
       aria-label="22"
       id="text3347"
       style="font-weight:600;font-size:133.333px;font-family:'Azeret Mono';-inkscape-font-specification:'Azeret Mono Semi-Bold';text-align:center;text-anchor:middle;stroke-width:6;stroke-linecap:round;stroke-linejoin:round;paint-order:stroke fill markers" /></g><metadata
     id="metadata134"><rdf:RDF><cc:Work
         rdf:about=""><cc:license
           rdf:resource="http://scripts.sil.org/OFL" /></cc:Work><cc:License
         rdf:about="http://scripts.sil.org/OFL"><cc:permits
           rdf:resource="http://scripts.sil.org/pub/OFL/Reproduction" /><cc:permits
           rdf:resource="http://scripts.sil.org/pub/OFL/Distribution" /><cc:permits
           rdf:resource="http://scripts.sil.org/pub/OFL/Embedding" /><cc:permits
           rdf:resource="http://scripts.sil.org/pub/OFL/DerivativeWorks" /><cc:requires
           rdf:resource="http://scripts.sil.org/pub/OFL/Notice" /><cc:requires
           rdf:resource="http://scripts.sil.org/pub/OFL/Attribution" /><cc:requires
           rdf:resource="http://scripts.sil.org/pub/OFL/ShareAlike" /><cc:requires
           rdf:resource="http://scripts.sil.org/pub/OFL/DerivativeRenaming" /><cc:requires
           rdf:resource="http://scripts.sil.org/pub/OFL/BundlingWhenSelling" /></cc:License></rdf:RDF></metadata></svg>
