<?xml version="1.0" encoding="UTF-8" standalone="no"?>
<!-- Created with Inkscape (http://www.inkscape.org/) -->

<svg
   width="252"
   height="252"
   viewBox="0 0 252 252"
   version="1.1"
   id="svg5"
   inkscape:version="1.2.2 (732a01da63, 2022-12-09)"
   sodipodi:docname="CPU26.svg"
   xml:space="preserve"
   xmlns:inkscape="http://www.inkscape.org/namespaces/inkscape"
   xmlns:sodipodi="http://sodipodi.sourceforge.net/DTD/sodipodi-0.dtd"
   xmlns="http://www.w3.org/2000/svg"
   xmlns:svg="http://www.w3.org/2000/svg"
   xmlns:rdf="http://www.w3.org/1999/02/22-rdf-syntax-ns#"
   xmlns:cc="http://creativecommons.org/ns#"><sodipodi:namedview
     id="namedview7"
     pagecolor="#ffffff"
     bordercolor="#000000"
     borderopacity="0.25"
     inkscape:showpageshadow="2"
     inkscape:pageopacity="0.0"
     inkscape:pagecheckerboard="true"
     inkscape:deskcolor="#d1d1d1"
     inkscape:document-units="px"
     showgrid="true"
     showguides="true"
     inkscape:zoom="1.509105"
     inkscape:cx="-17.560077"
     inkscape:cy="105.36046"
     inkscape:window-width="1920"
     inkscape:window-height="1027"
     inkscape:window-x="-8"
     inkscape:window-y="-8"
     inkscape:window-maximized="1"
     inkscape:current-layer="layer1"><inkscape:grid
       type="xygrid"
       id="grid132"
       empspacing="8"
       dotted="true"
       originx="-2"
       originy="-2" /><sodipodi:guide
       position="126,174"
       orientation="1,0"
       id="guide136"
       inkscape:locked="false" /><sodipodi:guide
       position="158,126"
       orientation="0,-1"
       id="guide138"
       inkscape:locked="false" /></sodipodi:namedview><defs
     id="defs2" /><g
     inkscape:label="Layer 1"
     inkscape:groupmode="layer"
     id="layer1"
     transform="translate(-2,-2)"><path
       id="path3222"
       style="color:#000000;fill:#000000;stroke-linecap:round;stroke-linejoin:round;-inkscape-stroke:none;paint-order:stroke fill markers"
       d="M 8 2 A 6.0006 6.0006 0 0 0 2 8 L 2 248 A 6.0006 6.0006 0 0 0 8 254 L 248 254 A 6.0006 6.0006 0 0 0 254 248 L 254 8 A 6.0006 6.0006 0 0 0 248 2 L 8 2 z M 14 14 L 242 14 L 242 242 L 14 242 L 14 14 z M 55.5 34 C 43.692807 34 34 43.692807 34 55.5 L 34 200.5 C 34 212.30719 43.692807 222 55.5 222 L 200.5 222 C 212.30719 222 222 212.30719 222 200.5 L 222 55.5 C 222 43.692807 212.30719 34 200.5 34 L 55.5 34 z M 55.5 46 L 200.5 46 C 205.86677 46 210 50.133227 210 55.5 L 210 200.5 C 210 205.86677 205.86677 210 200.5 210 L 55.5 210 C 50.133227 210 46 205.86677 46 200.5 L 46 55.5 C 46 50.133227 50.133227 46 55.5 46 z M 84.666016 79.867188 C 77.732707 79.867188 71.600893 81.200531 66.267578 83.867188 C 61.023152 86.444956 56.845475 90.221458 53.734375 95.199219 C 50.623275 100.17698 49.022482 106.08917 48.933594 112.93359 L 68.132812 112.93359 C 68.043924 107.68917 69.510991 103.55541 72.533203 100.5332 C 75.644303 97.51099 79.556484 96 84.267578 96 C 88.356453 96 91.643933 97.155694 94.132812 99.466797 C 96.710581 101.7779 98 104.9336 98 108.93359 C 98 113.02246 96.355283 117.51152 93.066406 122.40039 C 89.866417 127.20037 84.666772 132.75532 77.466797 139.06641 C 70.355711 145.37749 60.934463 152.71087 49.201172 161.06641 L 49.201172 174.5332 L 118.26758 174.5332 L 118.26758 158.5332 L 78.267578 158.5332 C 87.867545 152.48878 95.556225 146.80011 101.33398 141.4668 C 107.20063 136.04459 111.42223 130.6673 114 125.33398 C 116.66666 120.00067 118 114.35592 118 108.40039 C 118 102.62264 116.57686 97.600636 113.73242 93.333984 C 110.97688 89.067333 107.06665 85.7779 102 83.466797 C 97.02224 81.066806 91.24377 79.867188 84.666016 79.867188 z M 174.66602 79.867188 C 166.39938 79.867188 159.28952 82.132699 153.33398 86.666016 C 147.46734 91.110445 142.93241 97.244211 139.73242 105.06641 C 136.53243 112.79971 134.93359 121.60017 134.93359 131.4668 C 134.93359 140.62232 136.35478 148.53258 139.19922 155.19922 C 142.04365 161.86587 146.1774 167.02159 151.59961 170.66602 C 157.1107 174.31045 163.77741 176.13281 171.59961 176.13281 C 178.44403 176.13281 184.44407 174.75554 189.59961 172 C 194.84404 169.15557 198.93387 165.28927 201.86719 160.40039 C 204.80051 155.51152 206.26562 149.95462 206.26562 143.73242 C 206.26562 137.33244 204.84443 131.91123 202 127.4668 C 199.15556 122.93348 195.42298 119.51032 190.80078 117.19922 C 186.17857 114.79923 181.2005 113.59961 175.86719 113.59961 C 171.33387 113.59961 167.46562 114.3102 164.26562 115.73242 C 161.15453 117.06575 158.26627 119.06576 155.59961 121.73242 C 156.3996 114.08801 158.35569 107.86639 161.4668 103.06641 C 164.66679 98.266426 168.84447 95.867187 174 95.867188 C 177.1111 95.867188 179.68798 96.755432 181.73242 98.533203 C 183.86575 100.31097 185.19909 102.75608 185.73242 105.86719 L 205.4668 105.86719 C 205.3779 103.55608 204.71124 100.93332 203.4668 98 C 202.31124 94.977788 200.48888 92.08953 198 89.333984 C 195.60001 86.578438 192.4443 84.310974 188.5332 82.533203 C 184.71099 80.755432 180.08822 79.867188 174.66602 79.867188 z M 171.59961 129.4668 C 175.95515 129.4668 179.46616 130.75622 182.13281 133.33398 C 184.88836 135.91176 186.26562 139.5106 186.26562 144.13281 C 186.26562 148.8439 184.88836 152.7102 182.13281 155.73242 C 179.46616 158.66575 175.95515 160.13281 171.59961 160.13281 C 166.79962 160.13281 163.02117 158.1328 160.26562 154.13281 C 157.59897 150.13283 155.9562 144.66573 155.33398 137.73242 C 159.60063 132.22133 165.02185 129.4668 171.59961 129.4668 z M 24.234375 213.00977 A 3.0003 3.0003 0 0 0 22.851562 213.22852 A 3.0003 3.0003 0 0 0 21 216 L 21 232 A 3.0003 3.0003 0 0 0 24 235 L 40 235 A 3.0003 3.0003 0 0 0 42.121094 229.87891 L 26.121094 213.87891 A 3.0003 3.0003 0 0 0 24.234375 213.00977 z " /><g
       id="path3228" /><g
       aria-label="26"
       id="text3347"
       style="font-weight:600;font-size:133.333px;font-family:'Azeret Mono';-inkscape-font-specification:'Azeret Mono Semi-Bold';text-align:center;text-anchor:middle;stroke-width:6;stroke-linecap:round;stroke-linejoin:round;paint-order:stroke fill markers" /></g><metadata
     id="metadata134"><rdf:RDF><cc:Work
         rdf:about=""><cc:license
           rdf:resource="http://scripts.sil.org/OFL" /></cc:Work><cc:License
         rdf:about="http://scripts.sil.org/OFL"><cc:permits
           rdf:resource="http://scripts.sil.org/pub/OFL/Reproduction" /><cc:permits
           rdf:resource="http://scripts.sil.org/pub/OFL/Distribution" /><cc:permits
           rdf:resource="http://scripts.sil.org/pub/OFL/Embedding" /><cc:permits
           rdf:resource="http://scripts.sil.org/pub/OFL/DerivativeWorks" /><cc:requires
           rdf:resource="http://scripts.sil.org/pub/OFL/Notice" /><cc:requires
           rdf:resource="http://scripts.sil.org/pub/OFL/Attribution" /><cc:requires
           rdf:resource="http://scripts.sil.org/pub/OFL/ShareAlike" /><cc:requires
           rdf:resource="http://scripts.sil.org/pub/OFL/DerivativeRenaming" /><cc:requires
           rdf:resource="http://scripts.sil.org/pub/OFL/BundlingWhenSelling" /></cc:License></rdf:RDF></metadata></svg>
