<?xml version="1.0" encoding="UTF-8" standalone="no"?>
<!-- Created with Inkscape (http://www.inkscape.org/) -->

<svg
   width="252"
   height="252"
   viewBox="0 0 252 252"
   version="1.1"
   id="svg5"
   inkscape:version="1.2.2 (732a01da63, 2022-12-09)"
   sodipodi:docname="CPU32.svg"
   xml:space="preserve"
   xmlns:inkscape="http://www.inkscape.org/namespaces/inkscape"
   xmlns:sodipodi="http://sodipodi.sourceforge.net/DTD/sodipodi-0.dtd"
   xmlns="http://www.w3.org/2000/svg"
   xmlns:svg="http://www.w3.org/2000/svg"
   xmlns:rdf="http://www.w3.org/1999/02/22-rdf-syntax-ns#"
   xmlns:cc="http://creativecommons.org/ns#"><sodipodi:namedview
     id="namedview7"
     pagecolor="#ffffff"
     bordercolor="#000000"
     borderopacity="0.25"
     inkscape:showpageshadow="2"
     inkscape:pageopacity="0.0"
     inkscape:pagecheckerboard="true"
     inkscape:deskcolor="#d1d1d1"
     inkscape:document-units="px"
     showgrid="true"
     showguides="true"
     inkscape:zoom="2"
     inkscape:cx="-40.75"
     inkscape:cy="88.5"
     inkscape:window-width="1920"
     inkscape:window-height="1027"
     inkscape:window-x="-8"
     inkscape:window-y="-8"
     inkscape:window-maximized="1"
     inkscape:current-layer="layer1"><inkscape:grid
       type="xygrid"
       id="grid132"
       empspacing="8"
       dotted="true"
       originx="-2"
       originy="-2" /><sodipodi:guide
       position="126,174"
       orientation="1,0"
       id="guide136"
       inkscape:locked="false" /><sodipodi:guide
       position="158,126"
       orientation="0,-1"
       id="guide138"
       inkscape:locked="false" /></sodipodi:namedview><defs
     id="defs2" /><g
     inkscape:label="Layer 1"
     inkscape:groupmode="layer"
     id="layer1"
     transform="translate(-2,-2)"><path
       id="path3222"
       style="color:#000000;fill:#7f7f7f7f;stroke-linecap:round;stroke-linejoin:round;-inkscape-stroke:none;paint-order:stroke fill markers"
       d="M 8 2 A 6.0006 6.0006 0 0 0 2 8 L 2 248 A 6.0006 6.0006 0 0 0 8 254 L 248 254 A 6.0006 6.0006 0 0 0 254 248 L 254 8 A 6.0006 6.0006 0 0 0 248 2 L 8 2 z M 14 14 L 242 14 L 242 242 L 14 242 L 14 14 z M 55.5 34 C 43.692807 34 34 43.692807 34 55.5 L 34 200.5 C 34 212.30719 43.692807 222 55.5 222 L 200.5 222 C 212.30719 222 222 212.30719 222 200.5 L 222 55.5 C 222 43.692807 212.30719 34 200.5 34 L 55.5 34 z M 55.5 46 L 200.5 46 C 205.86677 46 210 50.133227 210 55.5 L 210 200.5 C 210 205.86677 205.86677 210 200.5 210 L 55.5 210 C 50.133227 210 46 205.86677 46 200.5 L 46 55.5 C 46 50.133227 50.133227 46 55.5 46 z M 83.826172 79.867188 C 77.515083 79.867188 71.78249 81.11073 66.626953 83.599609 C 61.471416 86.08849 57.337663 89.645372 54.226562 94.267578 C 51.204352 98.889782 49.649435 104.44473 49.560547 110.93359 L 68.759766 110.93359 C 68.759766 106.31139 70.093109 102.66666 72.759766 100 C 75.515312 97.33334 79.116118 96 83.560547 96 C 87.11609 96 90.004349 96.934121 92.226562 98.800781 C 94.448777 100.57855 95.560547 103.19936 95.560547 106.66602 C 95.560547 110.04378 94.271128 112.93399 91.693359 115.33398 C 89.20448 117.64509 85.783275 118.80078 81.427734 118.80078 L 76.359375 118.80078 L 76.359375 134.66602 L 81.160156 134.66602 C 86.315694 134.66602 90.583172 135.68798 93.960938 137.73242 C 97.427592 139.77686 99.160156 142.97844 99.160156 147.33398 C 99.160156 150.97841 97.737013 153.95452 94.892578 156.26562 C 92.137032 158.57673 88.538178 159.73242 84.09375 159.73242 C 79.204878 159.73242 75.248774 158.17751 72.226562 155.06641 C 69.204352 151.95531 67.78316 147.77763 67.960938 142.5332 L 48.759766 142.5332 C 48.404211 149.64429 49.827355 155.73413 53.027344 160.80078 C 56.227332 165.77854 60.538734 169.59897 65.960938 172.26562 C 71.38314 174.84339 77.427107 176.13281 84.09375 176.13281 C 91.293724 176.13281 97.51534 174.93319 102.75977 172.5332 C 108.00419 170.13321 112.04815 166.79985 114.89258 162.5332 C 117.73702 158.26655 119.16016 153.3324 119.16016 147.73242 C 119.16016 142.22133 117.47152 137.42286 114.09375 133.33398 C 110.71599 129.24512 106.22693 126.62235 100.62695 125.4668 C 104.9825 123.95569 108.53742 121.37686 111.29297 117.73242 C 114.04851 113.99911 115.42578 109.64378 115.42578 104.66602 C 115.42578 97.199376 112.58145 91.199333 106.89258 86.666016 C 101.20371 82.132699 93.515026 79.867188 83.826172 79.867188 z M 171.16016 79.867188 C 164.22684 79.867188 158.09308 81.200531 152.75977 83.867188 C 147.51534 86.444956 143.33767 90.221458 140.22656 95.199219 C 137.11547 100.17698 135.51467 106.08917 135.42578 112.93359 L 154.62695 112.93359 C 154.53806 107.68917 156.00513 103.55541 159.02734 100.5332 C 162.13845 97.51099 166.04867 96 170.75977 96 C 174.84864 96 178.13808 97.155694 180.62695 99.466797 C 183.20472 101.7779 184.49414 104.9336 184.49414 108.93359 C 184.49414 113.02246 182.84942 117.51152 179.56055 122.40039 C 176.36056 127.20037 171.15896 132.75532 163.95898 139.06641 C 156.8479 145.37749 147.42665 152.71087 135.69336 161.06641 L 135.69336 174.5332 L 204.75977 174.5332 L 204.75977 158.5332 L 164.75977 158.5332 C 174.35974 152.48878 182.04842 146.80011 187.82617 141.4668 C 193.69282 136.04459 197.91442 130.6673 200.49219 125.33398 C 203.15884 120.00067 204.49219 114.35592 204.49219 108.40039 C 204.49219 102.62264 203.071 97.600636 200.22656 93.333984 C 197.47102 89.067333 193.55884 85.7779 188.49219 83.466797 C 183.51443 81.066806 177.73791 79.867188 171.16016 79.867188 z M 24.234375 213.00977 A 3.0003 3.0003 0 0 0 22.851562 213.22852 A 3.0003 3.0003 0 0 0 21 216 L 21 232 A 3.0003 3.0003 0 0 0 24 235 L 40 235 A 3.0003 3.0003 0 0 0 42.121094 229.87891 L 26.121094 213.87891 A 3.0003 3.0003 0 0 0 24.234375 213.00977 z " /><g
       id="path3228" /><g
       aria-label="32"
       id="text3347"
       style="font-weight:600;font-size:133.333px;font-family:'Azeret Mono';-inkscape-font-specification:'Azeret Mono Semi-Bold';text-align:center;text-anchor:middle;stroke-width:6;stroke-linecap:round;stroke-linejoin:round;paint-order:stroke fill markers" /></g><metadata
     id="metadata134"><rdf:RDF><cc:Work
         rdf:about=""><cc:license
           rdf:resource="http://scripts.sil.org/OFL" /></cc:Work><cc:License
         rdf:about="http://scripts.sil.org/OFL"><cc:permits
           rdf:resource="http://scripts.sil.org/pub/OFL/Reproduction" /><cc:permits
           rdf:resource="http://scripts.sil.org/pub/OFL/Distribution" /><cc:permits
           rdf:resource="http://scripts.sil.org/pub/OFL/Embedding" /><cc:permits
           rdf:resource="http://scripts.sil.org/pub/OFL/DerivativeWorks" /><cc:requires
           rdf:resource="http://scripts.sil.org/pub/OFL/Notice" /><cc:requires
           rdf:resource="http://scripts.sil.org/pub/OFL/Attribution" /><cc:requires
           rdf:resource="http://scripts.sil.org/pub/OFL/ShareAlike" /><cc:requires
           rdf:resource="http://scripts.sil.org/pub/OFL/DerivativeRenaming" /><cc:requires
           rdf:resource="http://scripts.sil.org/pub/OFL/BundlingWhenSelling" /></cc:License></rdf:RDF></metadata></svg>
