<?xml version="1.0" encoding="UTF-8" standalone="no"?>
<!-- Created with Inkscape (http://www.inkscape.org/) -->

<svg
   width="246"
   height="246"
   viewBox="0 0 246 246"
   version="1.1"
   id="svg5"
   inkscape:version="1.2.2 (732a01da63, 2022-12-09)"
   sodipodi:docname="DriveLiquidAlt.svg"
   xml:space="preserve"
   xmlns:inkscape="http://www.inkscape.org/namespaces/inkscape"
   xmlns:sodipodi="http://sodipodi.sourceforge.net/DTD/sodipodi-0.dtd"
   xmlns="http://www.w3.org/2000/svg"
   xmlns:svg="http://www.w3.org/2000/svg"
   xmlns:rdf="http://www.w3.org/1999/02/22-rdf-syntax-ns#"
   xmlns:cc="http://creativecommons.org/ns#"><sodipodi:namedview
     id="namedview7"
     pagecolor="#ffffff"
     bordercolor="#000000"
     borderopacity="0.25"
     inkscape:showpageshadow="2"
     inkscape:pageopacity="0.0"
     inkscape:pagecheckerboard="true"
     inkscape:deskcolor="#d1d1d1"
     inkscape:document-units="px"
     showgrid="true"
     showguides="true"
     inkscape:zoom="2"
     inkscape:cx="-48.25"
     inkscape:cy="157"
     inkscape:window-width="1920"
     inkscape:window-height="1027"
     inkscape:window-x="-8"
     inkscape:window-y="-8"
     inkscape:window-maximized="1"
     inkscape:current-layer="layer1"><inkscape:grid
       type="xygrid"
       id="grid132"
       empspacing="8"
       dotted="true"
       originx="-4"
       originy="0" /><sodipodi:guide
       position="122,304"
       orientation="1,0"
       id="guide136"
       inkscape:locked="false" /><sodipodi:guide
       position="130,128"
       orientation="0,-1"
       id="guide138"
       inkscape:locked="false" /></sodipodi:namedview><defs
     id="defs2" /><g
     inkscape:label="Layer 1"
     inkscape:groupmode="layer"
     id="layer1"
     transform="translate(-22,-2)"><path
       id="rect9586"
       style="fill:#7f7f7f7f;stroke:none;stroke-width:6;stroke-linecap:round;paint-order:stroke fill markers;fill-opacity:1"
       d="M 66.5 2 C 54.43344 2 45.820696 12.222929 44.539062 23.310547 L 23.482422 205.48242 C 23.374011 205.99441 23.370549 206.53651 23.298828 207.06055 L 23.039062 209.31055 A 6 6 0 0 0 23.0625 209.39062 C 23.056631 209.59781 23 209.79145 23 210 L 23 226 C 23 238.08419 32.915807 248 45 248 L 245 248 C 257.08419 248 267 238.08419 267 226 L 267 210 C 267 209.86364 266.96148 209.73736 266.95898 209.60156 A 6 6 0 0 0 266.9707 209.40625 L 248.4707 23.40625 C 247.35373 12.176178 238.55974 2 226.5 2 L 66.5 2 z M 66.5 14 L 226.5 14 C 231.61422 14 235.94649 18.73418 236.5293 24.59375 L 252.93555 189.55078 C 250.46383 188.58159 247.80128 188 245 188 L 45 188 C 42.328378 188 39.793894 188.55384 37.417969 189.43945 L 56.460938 24.689453 C 57.151337 18.716702 61.392595 14 66.5 14 z M 140.84766 24.751953 A 1.8017008 1.8017008 0 0 0 139.12305 26.027344 C 136.4081 34.971061 129.13215 47.939493 122.45312 57.369141 C 119.25914 61.878496 117.06533 66.24268 116.33594 70.779297 C 115.60653 75.315914 116.41356 79.967078 118.94922 84.740234 C 122.68406 91.770836 131.4817 98.439454 140.84766 98.439453 C 150.35012 98.439453 159.02178 91.751039 162.74609 84.740234 C 164.97979 80.535433 165.87989 76.430382 165.55469 72.40625 C 165.14154 67.293953 162.81458 62.415502 159.24023 57.369141 C 152.5612 47.939495 145.28525 34.971063 142.57031 26.027344 A 1.8017008 1.8017008 0 0 0 140.84766 24.751953 z M 192.72852 83.679688 A 1.8017008 1.8017008 0 0 0 191.00391 84.958984 C 188.28896 93.902702 181.01496 106.86723 174.33594 116.29688 C 171.14195 120.80624 168.94619 125.17237 168.2168 129.70898 C 167.48739 134.24559 168.29441 138.89482 170.83008 143.66797 C 174.56493 150.69857 183.36257 157.36719 192.72852 157.36719 C 202.23098 157.36719 210.90264 150.67878 214.62695 143.66797 C 216.86065 139.46318 217.76075 135.35812 217.43555 131.33398 C 217.0224 126.22169 214.6974 121.34325 211.12305 116.29688 C 204.44401 106.86724 197.16611 93.902703 194.45117 84.958984 A 1.8017008 1.8017008 0 0 0 192.72852 83.679688 z M 97.267578 103.77539 A 1.8017008 1.8017008 0 0 0 95.544922 105.05469 C 92.829986 113.9984 85.554027 126.9649 78.875 136.39453 C 75.681018 140.90389 73.487214 145.26806 72.757812 149.80469 C 72.028411 154.3413 72.833519 158.99248 75.369141 163.76562 C 79.103986 170.79623 87.901624 177.46484 97.267578 177.46484 C 106.77004 177.46484 115.44366 170.77643 119.16797 163.76562 C 121.40167 159.56084 122.30176 155.45383 121.97656 151.42969 C 121.56341 146.31739 119.23646 141.4409 115.66211 136.39453 C 108.98307 126.96489 101.70712 113.9984 98.992188 105.05469 A 1.8017008 1.8017008 0 0 0 97.267578 103.77539 z M 45 200 L 245 200 C 250.53266 200 254.77247 204.20766 254.93945 209.68945 L 255 210.29883 L 255 226 C 255 231.64377 250.64377 236 245 236 L 45 236 C 39.356228 236 35 231.64377 35 226 L 35 210.35156 L 35.099609 209.48828 C 35.369937 204.11154 39.539305 200 45 200 z M 63.5 206 C 54.636009 206 47.5 211.35201 47.5 218 C 47.5 224.64799 54.636009 230 63.5 230 L 191.5 230 C 200.36399 230 207.5 224.64799 207.5 218 C 207.5 211.35201 200.36399 206 191.5 206 L 63.5 206 z M 230.5 206 A 12 12 0 0 0 218.5 218 A 12 12 0 0 0 230.5 230 A 12 12 0 0 0 242.5 218 A 12 12 0 0 0 230.5 206 z " /><g
       inkscape:label="Layer 1"
       id="layer1-5"
       transform="matrix(0.8373674,0,0,0.8373674,23.322847,24.090736)" /></g><metadata
     id="metadata134"><rdf:RDF><cc:Work
         rdf:about=""><cc:license
           rdf:resource="http://scripts.sil.org/OFL" /></cc:Work><cc:License
         rdf:about="http://scripts.sil.org/OFL"><cc:permits
           rdf:resource="http://scripts.sil.org/pub/OFL/Reproduction" /><cc:permits
           rdf:resource="http://scripts.sil.org/pub/OFL/Distribution" /><cc:permits
           rdf:resource="http://scripts.sil.org/pub/OFL/Embedding" /><cc:permits
           rdf:resource="http://scripts.sil.org/pub/OFL/DerivativeWorks" /><cc:requires
           rdf:resource="http://scripts.sil.org/pub/OFL/Notice" /><cc:requires
           rdf:resource="http://scripts.sil.org/pub/OFL/Attribution" /><cc:requires
           rdf:resource="http://scripts.sil.org/pub/OFL/ShareAlike" /><cc:requires
           rdf:resource="http://scripts.sil.org/pub/OFL/DerivativeRenaming" /><cc:requires
           rdf:resource="http://scripts.sil.org/pub/OFL/BundlingWhenSelling" /></cc:License></rdf:RDF></metadata></svg>
