<?xml version="1.0" encoding="UTF-8" standalone="no"?>
<!-- Created with Inkscape (http://www.inkscape.org/) -->

<svg
   width="246"
   height="246"
   viewBox="0 0 246 246"
   version="1.1"
   id="svg5"
   inkscape:version="1.2.2 (732a01da63, 2022-12-09)"
   sodipodi:docname="DriveFlow.svg"
   xml:space="preserve"
   xmlns:inkscape="http://www.inkscape.org/namespaces/inkscape"
   xmlns:sodipodi="http://sodipodi.sourceforge.net/DTD/sodipodi-0.dtd"
   xmlns="http://www.w3.org/2000/svg"
   xmlns:svg="http://www.w3.org/2000/svg"
   xmlns:rdf="http://www.w3.org/1999/02/22-rdf-syntax-ns#"
   xmlns:cc="http://creativecommons.org/ns#"><sodipodi:namedview
     id="namedview7"
     pagecolor="#ffffff"
     bordercolor="#000000"
     borderopacity="0.25"
     inkscape:showpageshadow="2"
     inkscape:pageopacity="0.0"
     inkscape:pagecheckerboard="true"
     inkscape:deskcolor="#d1d1d1"
     inkscape:document-units="px"
     showgrid="true"
     showguides="true"
     inkscape:zoom="4"
     inkscape:cx="48.125"
     inkscape:cy="96"
     inkscape:window-width="1920"
     inkscape:window-height="1027"
     inkscape:window-x="-8"
     inkscape:window-y="-8"
     inkscape:window-maximized="1"
     inkscape:current-layer="layer1"><inkscape:grid
       type="xygrid"
       id="grid132"
       empspacing="8"
       dotted="true"
       originx="-4"
       originy="0" /><sodipodi:guide
       position="122,304"
       orientation="1,0"
       id="guide136"
       inkscape:locked="false" /><sodipodi:guide
       position="130,128"
       orientation="0,-1"
       id="guide138"
       inkscape:locked="false" /></sodipodi:namedview><defs
     id="defs2" /><g
     inkscape:label="Layer 1"
     inkscape:groupmode="layer"
     id="layer1"
     transform="translate(-22,-2)"><path
       id="rect9586"
       style="fill:#7f7f7f7f;stroke:none;stroke-width:6;stroke-linecap:round;paint-order:stroke fill markers;fill-opacity:1"
       d="M 66.5 2 C 54.43344 2 45.820696 12.222929 44.539062 23.310547 L 23.482422 205.48242 C 23.374011 205.99441 23.370549 206.53651 23.298828 207.06055 L 23.039062 209.31055 A 6 6 0 0 0 23.0625 209.39062 C 23.056631 209.59781 23 209.79145 23 210 L 23 226 C 23 238.08419 32.915807 248 45 248 L 245 248 C 257.08419 248 267 238.08419 267 226 L 267 210 C 267 209.86364 266.96148 209.73736 266.95898 209.60156 A 6 6 0 0 0 266.9707 209.40625 L 248.4707 23.40625 C 247.35373 12.176178 238.55974 2 226.5 2 L 66.5 2 z M 66.5 14 L 226.5 14 C 231.61422 14 235.94649 18.73418 236.5293 24.59375 L 252.93555 189.55078 C 250.46383 188.58159 247.80128 188 245 188 L 45 188 C 42.328378 188 39.793894 188.55384 37.417969 189.43945 L 56.460938 24.689453 C 57.151337 18.716702 61.392595 14 66.5 14 z M 99.65625 40.210938 C 95.255637 40.210938 91.412847 42.498069 88.132812 44.513672 C 84.852778 46.529274 82.333984 48.541016 82.333984 48.541016 A 3.5424255 3.5424255 0 0 0 81.771484 53.517578 A 3.5424255 3.5424255 0 0 0 86.75 54.080078 C 86.75 54.080078 88.972848 52.313769 91.841797 50.550781 C 94.710746 48.787793 98.424073 47.294922 99.65625 47.294922 C 100.88843 47.294922 104.60175 48.787793 107.4707 50.550781 C 110.33965 52.313769 112.5625 54.080078 112.5625 54.080078 C 112.5625 54.080078 115.08129 56.09182 118.36133 58.107422 C 121.64136 60.123025 125.48415 62.410156 129.88477 62.410156 C 134.28538 62.410156 138.13012 60.123025 141.41016 58.107422 C 144.69019 56.09182 147.20898 54.080078 147.20898 54.080078 C 147.20898 54.080078 149.43183 52.313769 152.30078 50.550781 C 155.16973 48.787793 158.88306 47.294922 160.11523 47.294922 C 161.34741 47.294922 165.06074 48.787794 167.92969 50.550781 C 170.79864 52.313769 173.02148 54.080078 173.02148 54.080078 C 173.02148 54.080078 175.54028 56.09182 178.82031 58.107422 C 182.10035 60.123025 185.94313 62.410156 190.34375 62.410156 C 194.74436 62.410156 198.58716 60.123025 201.86719 58.107422 C 205.14722 56.09182 207.66602 54.080078 207.66602 54.080078 A 3.5424255 3.5424255 0 0 0 208.22852 49.103516 A 3.5424255 3.5424255 0 0 0 203.25 48.541016 C 203.25 48.541016 201.02715 50.307324 198.1582 52.070312 C 195.28925 53.833301 191.57592 55.326172 190.34375 55.326172 C 189.11157 55.326172 185.39824 53.833301 182.5293 52.070312 C 179.66035 50.307324 177.4375 48.541016 177.4375 48.541016 C 177.4375 48.541016 174.91871 46.529275 171.63867 44.513672 C 168.35864 42.498069 164.51585 40.210938 160.11523 40.210938 C 155.71462 40.210938 151.86988 42.498069 148.58984 44.513672 C 145.30981 46.529274 142.79102 48.541016 142.79102 48.541016 C 142.79102 48.541016 140.56817 50.307324 137.69922 52.070312 C 134.83027 53.833301 131.11694 55.326172 129.88477 55.326172 C 128.65259 55.326172 124.93926 53.833301 122.07031 52.070312 C 119.20136 50.307324 116.97852 48.541016 116.97852 48.541016 C 116.97852 48.541016 114.45972 46.529274 111.17969 44.513672 C 107.89965 42.498069 104.05686 40.210938 99.65625 40.210938 z M 99.65625 66.105469 C 95.255637 66.105469 91.412847 68.3926 88.132812 70.408203 C 84.852778 72.423806 82.333984 74.435547 82.333984 74.435547 A 3.5424255 3.5424255 0 0 0 81.771484 79.412109 A 3.5424255 3.5424255 0 0 0 86.75 79.974609 C 86.75 79.974609 88.972848 78.208301 91.841797 76.445312 C 94.710746 74.682324 98.424073 73.189453 99.65625 73.189453 C 100.88843 73.189453 104.60175 74.682324 107.4707 76.445312 C 110.33965 78.208301 112.5625 79.974609 112.5625 79.974609 C 112.5625 79.974609 115.08129 81.98635 118.36133 84.001953 C 121.64136 86.017556 125.48415 88.304687 129.88477 88.304688 C 134.28538 88.304688 138.13012 86.017556 141.41016 84.001953 C 144.69019 81.98635 147.20898 79.974609 147.20898 79.974609 C 147.20898 79.974609 149.43183 78.208301 152.30078 76.445312 C 155.16973 74.682324 158.88306 73.189453 160.11523 73.189453 C 161.34741 73.189453 165.06074 74.682324 167.92969 76.445312 C 170.79864 78.208301 173.02148 79.974609 173.02148 79.974609 C 173.02148 79.974609 175.54028 81.98635 178.82031 84.001953 C 182.10035 86.017556 185.94313 88.304687 190.34375 88.304688 C 194.74436 88.304688 198.58716 86.017556 201.86719 84.001953 C 205.14722 81.98635 207.66602 79.974609 207.66602 79.974609 A 3.5424255 3.5424255 0 0 0 208.22852 74.998047 A 3.5424255 3.5424255 0 0 0 203.25 74.435547 C 203.25 74.435547 201.02715 76.201856 198.1582 77.964844 C 195.28925 79.727832 191.57592 81.220703 190.34375 81.220703 C 189.11157 81.220703 185.39824 79.727832 182.5293 77.964844 C 179.66035 76.201856 177.4375 74.435547 177.4375 74.435547 C 177.4375 74.435547 174.91871 72.423806 171.63867 70.408203 C 168.35864 68.3926 164.51585 66.105469 160.11523 66.105469 C 155.71462 66.105469 151.86988 68.3926 148.58984 70.408203 C 145.30981 72.423806 142.79102 74.435547 142.79102 74.435547 C 142.79102 74.435547 140.56817 76.201856 137.69922 77.964844 C 134.83027 79.727832 131.11694 81.220703 129.88477 81.220703 C 128.65259 81.220703 124.93926 79.727832 122.07031 77.964844 C 119.20136 76.201856 116.97852 74.435547 116.97852 74.435547 C 116.97852 74.435547 114.45972 72.423806 111.17969 70.408203 C 107.89965 68.3926 104.05686 66.105469 99.65625 66.105469 z M 99.65625 91.777344 C 95.255637 91.777344 91.412847 94.064475 88.132812 96.080078 C 84.852778 98.095681 82.333984 100.10547 82.333984 100.10547 A 3.5424255 3.5424255 0 0 0 81.771484 105.08398 A 3.5424255 3.5424255 0 0 0 86.75 105.64648 C 86.75 105.64648 88.972848 103.87822 91.841797 102.11523 C 94.710746 100.35225 98.424073 98.861328 99.65625 98.861328 C 100.88843 98.861328 104.60175 100.35225 107.4707 102.11523 C 110.33965 103.87822 112.5625 105.64648 112.5625 105.64648 C 112.5625 105.64648 115.08129 107.65822 118.36133 109.67383 C 121.64136 111.68943 125.48415 113.97656 129.88477 113.97656 C 134.28538 113.97656 138.13012 111.68943 141.41016 109.67383 C 144.69019 107.65822 147.20898 105.64648 147.20898 105.64648 C 147.20898 105.64648 149.43183 103.87822 152.30078 102.11523 C 155.16973 100.35225 158.88306 98.861328 160.11523 98.861328 C 161.34741 98.861328 165.06074 100.35225 167.92969 102.11523 C 170.79864 103.87822 173.02148 105.64648 173.02148 105.64648 C 173.02148 105.64648 175.54028 107.65822 178.82031 109.67383 C 182.10035 111.68943 185.94313 113.97656 190.34375 113.97656 C 194.74436 113.97656 198.58716 111.68943 201.86719 109.67383 C 205.14722 107.65822 207.66602 105.64648 207.66602 105.64648 A 3.5424255 3.5424255 0 0 0 208.22852 100.66797 A 3.5424255 3.5424255 0 0 0 203.25 100.10547 C 203.25 100.10547 201.02715 101.87374 198.1582 103.63672 C 195.28925 105.39971 191.57592 106.89062 190.34375 106.89062 C 189.11157 106.89062 185.39824 105.39971 182.5293 103.63672 C 179.66035 101.87374 177.4375 100.10547 177.4375 100.10547 C 177.4375 100.10547 174.91871 98.095681 171.63867 96.080078 C 168.35864 94.064475 164.51585 91.777344 160.11523 91.777344 C 155.71462 91.777344 151.86988 94.064475 148.58984 96.080078 C 145.30981 98.095681 142.79102 100.10547 142.79102 100.10547 C 142.79102 100.10547 140.56817 101.87374 137.69922 103.63672 C 134.83027 105.39971 131.11694 106.89062 129.88477 106.89062 C 128.65259 106.89062 124.93926 105.39971 122.07031 103.63672 C 119.20136 101.87374 116.97852 100.10547 116.97852 100.10547 C 116.97852 100.10547 114.45972 98.095681 111.17969 96.080078 C 107.89965 94.064475 104.05686 91.777344 99.65625 91.777344 z M 99.65625 117.44922 C 95.255638 117.44922 91.412847 119.73635 88.132812 121.75195 C 84.852778 123.76756 82.333984 125.77734 82.333984 125.77734 A 3.5424255 3.5424255 0 0 0 81.771484 130.75586 A 3.5424255 3.5424255 0 0 0 86.75 131.31836 C 86.75 131.31836 88.972848 129.55009 91.841797 127.78711 C 94.710746 126.02412 98.424074 124.5332 99.65625 124.5332 C 100.88843 124.5332 104.60175 126.02412 107.4707 127.78711 C 110.33965 129.55009 112.5625 131.31836 112.5625 131.31836 C 112.5625 131.31836 115.08129 133.32815 118.36133 135.34375 C 121.64136 137.35935 125.48415 139.64844 129.88477 139.64844 C 134.28538 139.64844 138.13012 137.35935 141.41016 135.34375 C 144.69019 133.32815 147.20898 131.31836 147.20898 131.31836 C 147.20898 131.31836 149.43183 129.55009 152.30078 127.78711 C 155.16973 126.02412 158.88306 124.5332 160.11523 124.5332 C 161.34741 124.5332 165.06074 126.02412 167.92969 127.78711 C 170.79864 129.55009 173.02148 131.31836 173.02148 131.31836 C 173.02148 131.31836 175.54028 133.32815 178.82031 135.34375 C 182.10035 137.35935 185.94313 139.64844 190.34375 139.64844 C 194.74436 139.64844 198.58716 137.35935 201.86719 135.34375 C 205.14722 133.32815 207.66602 131.31836 207.66602 131.31836 A 3.5424255 3.5424255 0 0 0 208.22852 126.33984 A 3.5424255 3.5424255 0 0 0 203.25 125.77734 C 203.25 125.77734 201.02715 127.54561 198.1582 129.30859 C 195.28925 131.07158 191.57592 132.5625 190.34375 132.5625 C 189.11157 132.5625 185.39824 131.07158 182.5293 129.30859 C 179.66035 127.54561 177.4375 125.77734 177.4375 125.77734 C 177.4375 125.77734 174.91871 123.76756 171.63867 121.75195 C 168.35864 119.73635 164.51585 117.44922 160.11523 117.44922 C 155.71462 117.44922 151.86988 119.73635 148.58984 121.75195 C 145.30981 123.76756 142.79102 125.77734 142.79102 125.77734 C 142.79102 125.77734 140.56817 127.54561 137.69922 129.30859 C 134.83027 131.07158 131.11694 132.5625 129.88477 132.5625 C 128.65259 132.5625 124.93926 131.07158 122.07031 129.30859 C 119.20136 127.54561 116.97852 125.77734 116.97852 125.77734 C 116.97852 125.77734 114.45972 123.76756 111.17969 121.75195 C 107.89965 119.73635 104.05686 117.44922 99.65625 117.44922 z M 99.65625 143.3418 C 95.255637 143.3418 91.412847 145.63088 88.132812 147.64648 C 84.852778 149.66209 82.333984 151.67188 82.333984 151.67188 A 3.5424255 3.5424255 0 0 0 81.771484 156.65039 A 3.5424255 3.5424255 0 0 0 86.75 157.21289 C 86.75 157.21289 88.972848 155.44463 91.841797 153.68164 C 94.710746 151.91865 98.424073 150.42773 99.65625 150.42773 C 100.88843 150.42773 104.60175 151.91865 107.4707 153.68164 C 110.33965 155.44463 112.5625 157.21289 112.5625 157.21289 C 112.5625 157.21289 115.08129 159.22268 118.36133 161.23828 C 121.64136 163.25388 125.48415 165.54102 129.88477 165.54102 C 134.28538 165.54102 138.13012 163.25388 141.41016 161.23828 C 144.69019 159.22268 147.20898 157.2129 147.20898 157.21289 C 147.20898 157.21289 149.43183 155.44463 152.30078 153.68164 C 155.16973 151.91865 158.88306 150.42773 160.11523 150.42773 C 161.34741 150.42773 165.06074 151.91865 167.92969 153.68164 C 170.79864 155.44463 173.02148 157.21289 173.02148 157.21289 C 173.02148 157.21289 175.54028 159.22268 178.82031 161.23828 C 182.10035 163.25388 185.94313 165.54102 190.34375 165.54102 C 194.74436 165.54102 198.58716 163.25388 201.86719 161.23828 C 205.14722 159.22268 207.66602 157.2129 207.66602 157.21289 A 3.5424255 3.5424255 0 0 0 208.22852 152.23438 A 3.5424255 3.5424255 0 0 0 203.25 151.67188 C 203.25 151.67188 201.02715 153.44014 198.1582 155.20312 C 195.28925 156.96611 191.57592 158.45703 190.34375 158.45703 C 189.11157 158.45703 185.39824 156.96611 182.5293 155.20312 C 179.66035 153.44014 177.4375 151.67188 177.4375 151.67188 C 177.4375 151.67188 174.91871 149.66209 171.63867 147.64648 C 168.35864 145.63088 164.51585 143.3418 160.11523 143.3418 C 155.71462 143.3418 151.86988 145.63088 148.58984 147.64648 C 145.30981 149.66209 142.79102 151.67188 142.79102 151.67188 C 142.79102 151.67188 140.56817 153.44014 137.69922 155.20312 C 134.83027 156.96611 131.11694 158.45703 129.88477 158.45703 C 128.65259 158.45703 124.93926 156.96611 122.07031 155.20312 C 119.20136 153.44014 116.97852 151.67188 116.97852 151.67188 C 116.97852 151.67188 114.45972 149.66209 111.17969 147.64648 C 107.89965 145.63088 104.05686 143.3418 99.65625 143.3418 z M 45 200 L 245 200 C 250.53266 200 254.77247 204.20766 254.93945 209.68945 L 255 210.29883 L 255 226 C 255 231.64377 250.64377 236 245 236 L 45 236 C 39.356228 236 35 231.64377 35 226 L 35 210.35156 L 35.099609 209.48828 C 35.369937 204.11154 39.539305 200 45 200 z M 63.5 206 C 54.636009 206 47.5 211.35201 47.5 218 C 47.5 224.64799 54.636009 230 63.5 230 L 191.5 230 C 200.36399 230 207.5 224.64799 207.5 218 C 207.5 211.35201 200.36399 206 191.5 206 L 63.5 206 z M 230.5 206 A 12 12 0 0 0 218.5 218 A 12 12 0 0 0 230.5 230 A 12 12 0 0 0 242.5 218 A 12 12 0 0 0 230.5 206 z " /><g
       inkscape:label="Layer 1"
       id="layer1-9"
       transform="matrix(0.50000009,0,0,0.50000009,80.999988,38.876913)" /></g><metadata
     id="metadata134"><rdf:RDF><cc:Work
         rdf:about=""><cc:license
           rdf:resource="http://scripts.sil.org/OFL" /></cc:Work><cc:License
         rdf:about="http://scripts.sil.org/OFL"><cc:permits
           rdf:resource="http://scripts.sil.org/pub/OFL/Reproduction" /><cc:permits
           rdf:resource="http://scripts.sil.org/pub/OFL/Distribution" /><cc:permits
           rdf:resource="http://scripts.sil.org/pub/OFL/Embedding" /><cc:permits
           rdf:resource="http://scripts.sil.org/pub/OFL/DerivativeWorks" /><cc:requires
           rdf:resource="http://scripts.sil.org/pub/OFL/Notice" /><cc:requires
           rdf:resource="http://scripts.sil.org/pub/OFL/Attribution" /><cc:requires
           rdf:resource="http://scripts.sil.org/pub/OFL/ShareAlike" /><cc:requires
           rdf:resource="http://scripts.sil.org/pub/OFL/DerivativeRenaming" /><cc:requires
           rdf:resource="http://scripts.sil.org/pub/OFL/BundlingWhenSelling" /></cc:License></rdf:RDF></metadata></svg>
