<?xml version="1.0" encoding="UTF-8" standalone="no"?>
<!-- Created with Inkscape (http://www.inkscape.org/) -->

<svg
   width="183"
   height="183"
   viewBox="0 0 183 183"
   version="1.1"
   id="svg5"
   inkscape:version="1.2.2 (732a01da63, 2022-12-09)"
   sodipodi:docname="M.2_Small_SSDTemp.svg"
   xml:space="preserve"
   xmlns:inkscape="http://www.inkscape.org/namespaces/inkscape"
   xmlns:sodipodi="http://sodipodi.sourceforge.net/DTD/sodipodi-0.dtd"
   xmlns="http://www.w3.org/2000/svg"
   xmlns:svg="http://www.w3.org/2000/svg"
   xmlns:rdf="http://www.w3.org/1999/02/22-rdf-syntax-ns#"
   xmlns:cc="http://creativecommons.org/ns#"><sodipodi:namedview
     id="namedview7"
     pagecolor="#ffffff"
     bordercolor="#000000"
     borderopacity="0.25"
     inkscape:showpageshadow="2"
     inkscape:pageopacity="0.0"
     inkscape:pagecheckerboard="true"
     inkscape:deskcolor="#d1d1d1"
     inkscape:document-units="px"
     showgrid="true"
     showguides="true"
     inkscape:zoom="2.1341967"
     inkscape:cx="123.93422"
     inkscape:cy="114.32873"
     inkscape:window-width="1920"
     inkscape:window-height="1027"
     inkscape:window-x="-8"
     inkscape:window-y="-8"
     inkscape:window-maximized="1"
     inkscape:current-layer="layer1"><inkscape:grid
       type="xygrid"
       id="grid132"
       empspacing="8"
       dotted="true"
       originx="-66"
       originy="-66" /><sodipodi:guide
       position="62,169"
       orientation="1,0"
       id="guide136"
       inkscape:locked="false" /><sodipodi:guide
       position="94,121"
       orientation="0,-1"
       id="guide138"
       inkscape:locked="false" /></sodipodi:namedview><defs
     id="defs2" /><g
     inkscape:label="Layer 1"
     inkscape:groupmode="layer"
     id="layer1"
     transform="translate(-66,-66)"><path
       id="path20"
       style="color:#7f7f7f7f;fill:#7f7f7f7f;stroke-linecap:round;stroke-linejoin:round;-inkscape-stroke:none;paint-order:stroke fill markers"
       d="m 101.5,66 c -3.313568,3.31e-4 -5.999669,2.686432 -6,6 v 160 c 0.08056,2.47113 1.668551,4.63989 4,5.46289 V 247 c 1.1e-4,1.10452 0.89548,1.99989 2,2 h 8 8 c 1.10452,-1.1e-4 1.99989,-0.89548 2,-2 v -9 h 12 v 9 c 1.1e-4,1.10452 0.89548,1.99989 2,2 h 8 8 8 8 8 8 8 8 8 8 c 1.10452,-1.1e-4 1.99989,-0.89548 2,-2 v -9.53711 c 2.33145,-0.823 3.91944,-2.99176 4,-5.46289 V 72 c -3.3e-4,-3.313568 -2.68643,-5.999669 -6,-6 h -44 c -3.31357,3.31e-4 -5.99967,2.686432 -6,6 v 10 h -12 V 72 c -3.3e-4,-3.313568 -2.68643,-5.999669 -6,-6 z m 6,12 h 32 v 10 c 3.3e-4,3.313568 2.68643,5.999669 6,6 h 24 c 3.31357,-3.31e-4 5.99967,-2.686432 6,-6 V 78 h 32 v 148 h -100 z m 42.01758,16.390625 c -3.01435,0 -5.72747,1.503562 -7.15625,3.6875 -1.42877,2.183935 -1.82422,4.723025 -1.82422,7.287105 v 63.85938 14.5332 c -5.87678,4.74663 -8.48364,10.95625 -7.97461,18.5918 a 2.9936467,2.9936467 0 0 0 0.0332,0.29297 c 1.12303,6.73812 4.75302,11.54067 9.40821,14.30469 4.65514,2.764 10.15798,3.6621 15.49609,3.66211 5.33812,0 10.84093,-0.89811 15.49609,-3.66211 4.65519,-2.76402 8.28519,-7.56657 9.40821,-14.30469 a 2.9936467,2.9936467 0 0 0 0.0332,-0.29297 c 0.50909,-7.63696 -2.10183,-13.83285 -7.97461,-18.58789 v -14.53711 -63.85938 c 0,-2.56408 -0.39544,-5.10317 -1.82422,-7.287105 -1.42879,-2.183938 -4.14191,-3.6875 -7.15625,-3.6875 z m 0,5.986325 h 15.96484 c 1.40781,0 1.68747,0.27688 2.14649,0.97852 0.45903,0.70164 0.84765,2.15169 0.84765,4.00976 v 8.98047 h -14.96679 a 2.9933474,2.9933474 0 0 0 -2.99415,2.99414 2.9933474,2.9933474 0 0 0 2.99415,2.99219 h 14.96679 v 13.96875 h -14.96679 a 2.9933474,2.9933474 0 0 0 -2.99415,2.99414 2.9933474,2.9933474 0 0 0 2.99415,2.99414 h 14.96679 v 13.96875 h -14.96679 a 2.9933474,2.9933474 0 0 0 -2.99415,2.99219 2.9933474,2.9933474 0 0 0 2.99415,2.99414 h 14.96679 v 8.98047 15.96289 a 2.9936467,2.9936467 0 0 0 1.24805,2.43359 c 5.56834,3.99464 7.15092,7.49946 6.73633,14.17774 -0.89301,5.1382 -3.22547,8.04609 -6.51953,10.00195 -3.32707,1.97544 -7.80172,2.82227 -12.44141,2.82227 -4.63967,0 -9.11435,-0.84683 -12.44141,-2.82227 -3.29407,-1.95586 -5.62652,-4.86375 -6.51953,-10.00195 -0.41462,-6.67881 1.16792,-10.19842 6.73242,-14.17578 a 2.9936467,2.9936467 0 0 0 1.25196,-2.43555 v -15.96289 -63.85938 c 0,-1.85807 0.38862,-3.30812 0.84765,-4.00976 0.45902,-0.70164 0.73868,-0.97852 2.14649,-0.97852 z M 103.5,238 h 4 v 7 h -4 z m 8,0 h 4 v 7 h -4 z m 24,0 h 4 v 7 h -4 z m 8,0 h 4 v 7 h -4 z m 8,0 h 4 v 7 h -4 z m 8,0 h 4 v 7 h -4 z m 8,0 h 4 v 7 h -4 z m 8,0 h 4 v 7 h -4 z m 8,0 h 4 v 7 h -4 z m 8,0 h 4 v 7 h -4 z m 8,0 h 4 v 7 h -4 z m 8,0 h 4 v 7 h -4 z" /></g><metadata
     id="metadata134"><rdf:RDF><cc:Work
         rdf:about=""><cc:license
           rdf:resource="http://scripts.sil.org/OFL" /></cc:Work><cc:License
         rdf:about="http://scripts.sil.org/OFL"><cc:permits
           rdf:resource="http://scripts.sil.org/pub/OFL/Reproduction" /><cc:permits
           rdf:resource="http://scripts.sil.org/pub/OFL/Distribution" /><cc:permits
           rdf:resource="http://scripts.sil.org/pub/OFL/Embedding" /><cc:permits
           rdf:resource="http://scripts.sil.org/pub/OFL/DerivativeWorks" /><cc:requires
           rdf:resource="http://scripts.sil.org/pub/OFL/Notice" /><cc:requires
           rdf:resource="http://scripts.sil.org/pub/OFL/Attribution" /><cc:requires
           rdf:resource="http://scripts.sil.org/pub/OFL/ShareAlike" /><cc:requires
           rdf:resource="http://scripts.sil.org/pub/OFL/DerivativeRenaming" /><cc:requires
           rdf:resource="http://scripts.sil.org/pub/OFL/BundlingWhenSelling" /></cc:License></rdf:RDF></metadata></svg>
