<?xml version="1.0" encoding="UTF-8" standalone="no"?>
<!-- Created with Inkscape (http://www.inkscape.org/) -->

<svg
   width="253"
   height="253"
   viewBox="0 0 253 253"
   version="1.1"
   id="svg5"
   inkscape:version="1.2.2 (732a01da63, 2022-12-09)"
   sodipodi:docname="M.2_SSD.svg"
   xmlns:inkscape="http://www.inkscape.org/namespaces/inkscape"
   xmlns:sodipodi="http://sodipodi.sourceforge.net/DTD/sodipodi-0.dtd"
   xmlns="http://www.w3.org/2000/svg"
   xmlns:svg="http://www.w3.org/2000/svg"
   xmlns:rdf="http://www.w3.org/1999/02/22-rdf-syntax-ns#"
   xmlns:cc="http://creativecommons.org/ns#">
  <sodipodi:namedview
     id="namedview7"
     pagecolor="#ffffff"
     bordercolor="#000000"
     borderopacity="0.25"
     inkscape:showpageshadow="2"
     inkscape:pageopacity="0.0"
     inkscape:pagecheckerboard="true"
     inkscape:deskcolor="#d1d1d1"
     inkscape:document-units="px"
     showgrid="true"
     showguides="true"
     inkscape:zoom="3.0182099"
     inkscape:cx="18.388383"
     inkscape:cy="103.37253"
     inkscape:window-width="1920"
     inkscape:window-height="1027"
     inkscape:window-x="-8"
     inkscape:window-y="-8"
     inkscape:window-maximized="1"
     inkscape:current-layer="layer1">
    <inkscape:grid
       type="xygrid"
       id="grid132"
       empspacing="8"
       dotted="true"
       originx="-66"
       originy="-2" />
    <sodipodi:guide
       position="62,175"
       orientation="1,0"
       id="guide136"
       inkscape:locked="false" />
    <sodipodi:guide
       position="94,127"
       orientation="0,-1"
       id="guide138"
       inkscape:locked="false" />
  </sodipodi:namedview>
  <defs
     id="defs2" />
  <g
     inkscape:label="Layer 1"
     inkscape:groupmode="layer"
     id="layer1"
     transform="translate(-66,-2)">
    <path
       id="path14"
       style="color:#7f7f7f7f;fill:#7f7f7f7f;stroke-linecap:round;stroke-linejoin:round;-inkscape-stroke:none;paint-order:stroke fill markers"
       d="m 136.5,2 a 6.0006,6.0006 0 0 0 -6,6 v 230 a 6.0006,6.0006 0 0 0 4,5.46289 V 253 a 2.0002,2.0002 0 0 0 2,2 h 8 8 a 2.0002,2.0002 0 0 0 2,-2 v -9 h 12 v 9 a 2.0002,2.0002 0 0 0 2,2 h 8 8 8 8 8 8 8 8 8 8 a 2.0002,2.0002 0 0 0 2,-2 v -9.53711 A 6.0006,6.0006 0 0 0 254.5,238 V 8 a 6.0006,6.0006 0 0 0 -6,-6 h -44 a 6.0006,6.0006 0 0 0 -6,6 v 10 h -12 V 8 a 6.0006,6.0006 0 0 0 -6,-6 z m 6,12 h 32 v 10 a 6.0006,6.0006 0 0 0 6,6 h 24 a 6.0006,6.0006 0 0 0 6,-6 V 14 h 32 v 218 h -100 z m 26,25.949219 A 6.0506052,6.0506052 0 0 0 162.44922,46 V 78 A 6.0506052,6.0506052 0 0 0 168.5,84.050781 h 48 A 6.0506052,6.0506052 0 0 0 222.55078,78 V 46 A 6.0506052,6.0506052 0 0 0 216.5,39.949219 Z m 6.05078,12.101562 h 35.89844 V 71.949219 H 174.55078 Z M 168.5,92.949219 A 6.0506052,6.0506052 0 0 0 162.44922,99 v 32 a 6.0506052,6.0506052 0 0 0 6.05078,6.05078 h 48 A 6.0506052,6.0506052 0 0 0 222.55078,131 V 99 A 6.0506052,6.0506052 0 0 0 216.5,92.949219 Z m 6.05078,12.101561 h 35.89844 v 19.89844 H 174.55078 Z M 160.5,145.94922 A 6.0506052,6.0506052 0 0 0 154.44922,152 v 64 a 6.0506052,6.0506052 0 0 0 6.05078,6.05078 h 64 A 6.0506052,6.0506052 0 0 0 230.55078,216 V 152 A 6.0506052,6.0506052 0 0 0 224.5,145.94922 Z m 6.05078,12.10156 h 51.89844 v 51.89844 H 166.55078 Z M 138.5,244 h 4 v 7 h -4 z m 8,0 h 4 v 7 h -4 z m 24,0 h 4 v 7 h -4 z m 8,0 h 4 v 7 h -4 z m 8,0 h 4 v 7 h -4 z m 8,0 h 4 v 7 h -4 z m 8,0 h 4 v 7 h -4 z m 8,0 h 4 v 7 h -4 z m 8,0 h 4 v 7 h -4 z m 8,0 h 4 v 7 h -4 z m 8,0 h 4 v 7 h -4 z m 8,0 h 4 v 7 h -4 z" />
  </g>
  <metadata
     id="metadata134">
    <rdf:RDF>
      <cc:Work
         rdf:about="">
        <cc:license
           rdf:resource="http://scripts.sil.org/OFL" />
      </cc:Work>
      <cc:License
         rdf:about="http://scripts.sil.org/OFL">
        <cc:permits
           rdf:resource="http://scripts.sil.org/pub/OFL/Reproduction" />
        <cc:permits
           rdf:resource="http://scripts.sil.org/pub/OFL/Distribution" />
        <cc:permits
           rdf:resource="http://scripts.sil.org/pub/OFL/Embedding" />
        <cc:permits
           rdf:resource="http://scripts.sil.org/pub/OFL/DerivativeWorks" />
        <cc:requires
           rdf:resource="http://scripts.sil.org/pub/OFL/Notice" />
        <cc:requires
           rdf:resource="http://scripts.sil.org/pub/OFL/Attribution" />
        <cc:requires
           rdf:resource="http://scripts.sil.org/pub/OFL/ShareAlike" />
        <cc:requires
           rdf:resource="http://scripts.sil.org/pub/OFL/DerivativeRenaming" />
        <cc:requires
           rdf:resource="http://scripts.sil.org/pub/OFL/BundlingWhenSelling" />
      </cc:License>
    </rdf:RDF>
  </metadata>
</svg>
