<?xml version="1.0" encoding="UTF-8" standalone="no"?>
<!-- Created with Inkscape (http://www.inkscape.org/) -->

<svg
   width="253"
   height="253"
   viewBox="0 0 253 253"
   version="1.1"
   id="svg5"
   inkscape:version="1.2.2 (732a01da63, 2022-12-09)"
   sodipodi:docname="M.2_SSDPower.svg"
   xml:space="preserve"
   xmlns:inkscape="http://www.inkscape.org/namespaces/inkscape"
   xmlns:sodipodi="http://sodipodi.sourceforge.net/DTD/sodipodi-0.dtd"
   xmlns="http://www.w3.org/2000/svg"
   xmlns:svg="http://www.w3.org/2000/svg"
   xmlns:rdf="http://www.w3.org/1999/02/22-rdf-syntax-ns#"
   xmlns:cc="http://creativecommons.org/ns#"><sodipodi:namedview
     id="namedview7"
     pagecolor="#ffffff"
     bordercolor="#000000"
     borderopacity="0.25"
     inkscape:showpageshadow="2"
     inkscape:pageopacity="0.0"
     inkscape:pagecheckerboard="true"
     inkscape:deskcolor="#d1d1d1"
     inkscape:document-units="px"
     showgrid="true"
     showguides="true"
     inkscape:zoom="2.1341967"
     inkscape:cx="21.319497"
     inkscape:cy="122.76282"
     inkscape:window-width="1920"
     inkscape:window-height="1027"
     inkscape:window-x="-8"
     inkscape:window-y="-8"
     inkscape:window-maximized="1"
     inkscape:current-layer="layer1"><inkscape:grid
       type="xygrid"
       id="grid132"
       empspacing="8"
       dotted="true"
       originx="-66"
       originy="-2" /><sodipodi:guide
       position="62,175"
       orientation="1,0"
       id="guide136"
       inkscape:locked="false" /><sodipodi:guide
       position="94,127"
       orientation="0,-1"
       id="guide138"
       inkscape:locked="false" /></sodipodi:namedview><defs
     id="defs2" /><g
     inkscape:label="Layer 1"
     inkscape:groupmode="layer"
     id="layer1"
     transform="translate(-66,-2)"><path
       id="path20"
       style="color:#7f7f7f7f;fill:#7f7f7f7f;stroke-linecap:round;stroke-linejoin:round;-inkscape-stroke:none;paint-order:stroke fill markers"
       d="m 136.5,2 c -3.31357,3.313e-4 -5.99967,2.686432 -6,6 v 230 c 0.0806,2.47113 1.66855,4.63989 4,5.46289 V 253 c 1.1e-4,1.10452 0.89548,1.99989 2,2 h 8 8 c 1.10452,-1.1e-4 1.99989,-0.89548 2,-2 v -9 h 12 v 9 c 1.1e-4,1.10452 0.89548,1.99989 2,2 h 8 8 8 8 8 8 8 8 8 8 c 1.10452,-1.1e-4 1.99989,-0.89548 2,-2 v -9.53711 c 2.33145,-0.823 3.91944,-2.99176 4,-5.46289 V 8 c -3.3e-4,-3.313568 -2.68643,-5.9996687 -6,-6 h -44 c -3.31357,3.313e-4 -5.99967,2.686432 -6,6 v 10 h -12 V 8 c -3.3e-4,-3.313568 -2.68643,-5.9996687 -6,-6 z m 6,12 h 32 v 10 c 3.3e-4,3.313568 2.68643,5.999669 6,6 h 24 c 3.31357,-3.31e-4 5.99967,-2.686432 6,-6 V 14 h 32 v 218 h -100 z M 182,46.003906 c -1.8615,2.21e-4 -3.53073,1.145489 -4.19922,2.882813 l -29.99609,77.990231 c -1.13325,2.94705 1.04179,6.11463 4.19922,6.11524 h 24.65039 l -12.58594,72.72265 c -0.82543,4.78238 5.45979,7.30258 8.16797,3.27539 l 64.49219,-95.98828 c 2.00708,-2.98906 -0.13398,-7.00707 -3.73438,-7.00781 l -26.34961,0.002 21.5293,-53.824215 c 1.18063,-2.955494 -0.99711,-6.167879 -4.17969,-6.167969 z M 138.5,244 h 4 v 7 h -4 z m 8,0 h 4 v 7 h -4 z m 24,0 h 4 v 7 h -4 z m 8,0 h 4 v 7 h -4 z m 8,0 h 4 v 7 h -4 z m 8,0 h 4 v 7 h -4 z m 8,0 h 4 v 7 h -4 z m 8,0 h 4 v 7 h -4 z m 8,0 h 4 v 7 h -4 z m 8,0 h 4 v 7 h -4 z m 8,0 h 4 v 7 h -4 z m 8,0 h 4 v 7 h -4 z" /></g><metadata
     id="metadata134"><rdf:RDF><cc:Work
         rdf:about=""><cc:license
           rdf:resource="http://scripts.sil.org/OFL" /></cc:Work><cc:License
         rdf:about="http://scripts.sil.org/OFL"><cc:permits
           rdf:resource="http://scripts.sil.org/pub/OFL/Reproduction" /><cc:permits
           rdf:resource="http://scripts.sil.org/pub/OFL/Distribution" /><cc:permits
           rdf:resource="http://scripts.sil.org/pub/OFL/Embedding" /><cc:permits
           rdf:resource="http://scripts.sil.org/pub/OFL/DerivativeWorks" /><cc:requires
           rdf:resource="http://scripts.sil.org/pub/OFL/Notice" /><cc:requires
           rdf:resource="http://scripts.sil.org/pub/OFL/Attribution" /><cc:requires
           rdf:resource="http://scripts.sil.org/pub/OFL/ShareAlike" /><cc:requires
           rdf:resource="http://scripts.sil.org/pub/OFL/DerivativeRenaming" /><cc:requires
           rdf:resource="http://scripts.sil.org/pub/OFL/BundlingWhenSelling" /></cc:License></rdf:RDF></metadata></svg>
