<?xml version="1.0" encoding="UTF-8" standalone="no"?>
<!-- Created with Inkscape (http://www.inkscape.org/) -->

<svg
   width="253"
   height="253"
   viewBox="0 0 253 253"
   version="1.1"
   id="svg5"
   inkscape:version="1.2.2 (732a01da63, 2022-12-09)"
   sodipodi:docname="M.2_SSDWaterPump.svg"
   xml:space="preserve"
   xmlns:inkscape="http://www.inkscape.org/namespaces/inkscape"
   xmlns:sodipodi="http://sodipodi.sourceforge.net/DTD/sodipodi-0.dtd"
   xmlns="http://www.w3.org/2000/svg"
   xmlns:svg="http://www.w3.org/2000/svg"
   xmlns:rdf="http://www.w3.org/1999/02/22-rdf-syntax-ns#"
   xmlns:cc="http://creativecommons.org/ns#"><sodipodi:namedview
     id="namedview7"
     pagecolor="#ffffff"
     bordercolor="#000000"
     borderopacity="0.25"
     inkscape:showpageshadow="2"
     inkscape:pageopacity="0.0"
     inkscape:pagecheckerboard="true"
     inkscape:deskcolor="#d1d1d1"
     inkscape:document-units="px"
     showgrid="true"
     showguides="true"
     inkscape:zoom="2.1341967"
     inkscape:cx="9.1369273"
     inkscape:cy="123.23138"
     inkscape:window-width="1920"
     inkscape:window-height="1027"
     inkscape:window-x="-8"
     inkscape:window-y="-8"
     inkscape:window-maximized="1"
     inkscape:current-layer="layer1"><inkscape:grid
       type="xygrid"
       id="grid132"
       empspacing="8"
       dotted="true"
       originx="-66"
       originy="-2" /><sodipodi:guide
       position="62,175"
       orientation="1,0"
       id="guide136"
       inkscape:locked="false" /><sodipodi:guide
       position="94,127"
       orientation="0,-1"
       id="guide138"
       inkscape:locked="false" /></sodipodi:namedview><defs
     id="defs2" /><g
     inkscape:label="Layer 1"
     inkscape:groupmode="layer"
     id="layer1"
     transform="translate(-66,-2)"><path
       id="path21"
       style="color:#7f7f7f7f;fill:#7f7f7f7f;stroke-linecap:round;stroke-linejoin:round;-inkscape-stroke:none;paint-order:stroke fill markers"
       d="m 136.5,2 c -3.31357,3.313e-4 -5.99967,2.686432 -6,6 v 230 c 0.0806,2.47113 1.66855,4.63989 4,5.46289 V 253 c 1.1e-4,1.10452 0.89548,1.99989 2,2 h 8 8 c 1.10452,-1.1e-4 1.99989,-0.89548 2,-2 v -9 h 12 v 9 c 1.1e-4,1.10452 0.89548,1.99989 2,2 h 8 8 8 8 8 8 8 8 8 8 c 1.10452,-1.1e-4 1.99989,-0.89548 2,-2 v -9.53711 c 2.33145,-0.823 3.91944,-2.99176 4,-5.46289 V 8 c -3.3e-4,-3.313568 -2.68643,-5.9996687 -6,-6 h -44 c -3.31357,3.313e-4 -5.99967,2.686432 -6,6 v 10 h -12 V 8 c -3.3e-4,-3.313568 -2.68643,-5.9996687 -6,-6 z m 6,12 h 32 v 10 c 3.3e-4,3.313568 2.68643,5.999669 6,6 h 24 c 3.31357,-3.31e-4 5.99967,-2.686432 6,-6 V 14 h 32 v 218 h -100 z m 50.00391,69.5 C 167.67613,83.5 147.5,103.67613 147.5,128.50391 147.5,153.33168 167.67612,173.5 192.50391,173.5 217.33169,173.5 237.5,153.33168 237.5,128.50391 237.5,103.67613 217.33169,83.5 192.50391,83.5 Z m 0,4.289062 c 4.89746,0 9.59144,0.861298 13.9375,2.441407 -1.81629,1.061219 -3.55179,2.213785 -5.19532,3.453125 -3.78513,2.853625 -7.09023,6.156435 -9.83203,9.785156 -2.74151,3.62872 -4.92018,7.58428 -7.09961,11.53906 -2.86667,-1.79696 -5.73407,-3.59248 -8.3125,-5.86914 -2.57843,-2.27666 -4.86746,-5.03443 -6.75781,-8.19726 -0.80221,-1.342239 -1.53253,-2.757142 -2.18359,-4.238285 6.9669,-5.578535 15.80973,-8.914063 25.44336,-8.914063 z m 22.3164,6.644532 c 11.08208,7.269676 18.39063,19.804636 18.39063,34.070316 0,0.32001 -0.003,0.63882 -0.01,0.95703 -1.51915,-1.33682 -3.09631,-2.57527 -4.72265,-3.70899 -3.88953,-2.71048 -8.05787,-4.82775 -12.36329,-6.30859 -4.30568,-1.48084 -8.74697,-2.32548 -13.18945,-3.17188 0.82652,-3.27583 1.65228,-6.55244 3.02539,-9.70312 1.37284,-3.15067 3.29098,-6.17571 5.72071,-8.947266 0.96902,-1.105258 2.02105,-2.170506 3.14843,-3.1875 z m -54.30859,8.863286 c 0.46118,2.16604 1.04896,4.27846 1.75781,6.32421 1.54978,4.47455 3.676,8.63197 6.28711,12.35547 2.61082,3.72378 5.70734,7.01418 8.80274,10.30469 -2.5981,2.16558 -5.19548,4.33087 -8.16211,6.07422 -2.96636,1.74362 -6.30217,3.06599 -9.9004,3.88281 -1.57088,0.35656 -3.19227,0.61608 -4.85351,0.77539 -1.71541,-4.50515 -2.6543,-9.39672 -2.6543,-14.50976 0,-9.52425 3.25799,-18.27721 8.72266,-25.20703 z m 32.71289,15.5332 c 5.35234,0 9.68945,4.32853 9.68945,9.66992 0,5.34139 -4.33711,9.67188 -9.68945,9.67188 -5.35235,0 -9.69141,-4.33049 -9.69141,-9.67188 0,-5.34139 4.33906,-9.66992 9.69141,-9.66992 z m 0,4.14453 c -3.05857,0 -5.53906,2.47309 -5.53906,5.52539 0,3.05231 2.48049,5.52734 5.53906,5.52734 3.05857,0 5.53711,-2.47503 5.53711,-5.52734 0,-3.0523 -2.47854,-5.52539 -5.53711,-5.52539 z m 20.5918,11.05859 c 1.27378,-0.004 2.55273,0.0426 3.83789,0.16602 3.42683,0.32966 6.90271,1.21641 10.29492,2.66601 1.33094,0.56875 2.64845,1.22605 3.94531,1.9668 -3.59321,13.78112 -14.21277,24.69884 -27.81641,28.71485 0.88206,-1.98803 1.63542,-4.00508 2.25586,-6.03907 1.38142,-4.52926 2.10885,-9.13968 2.18946,-13.68359 0.0808,-4.54419 -0.48481,-9.02017 -1.05078,-13.49805 2.11078,-0.14232 4.22079,-0.28657 6.34375,-0.29297 z m -22.14453,10.18555 c 1.26096,3.13521 2.52051,6.27064 3.26562,9.625 0.74488,3.35433 0.97403,6.92803 0.64062,10.5957 -0.14145,1.5546 -0.38349,3.12664 -0.72851,4.70508 -0.77627,0.0439 -1.55828,0.0664 -2.3457,0.0664 -14.08677,0 -26.48653,-7.12557 -33.79493,-17.97461 2.25228,0.24207 4.49209,0.34401 6.70508,0.30273 4.74319,-0.0884 9.36154,-0.82292 13.7168,-2.15039 4.35554,-1.32747 8.44853,-3.24865 12.54102,-5.16992 z M 138.5,244 h 4 v 7 h -4 z m 8,0 h 4 v 7 h -4 z m 24,0 h 4 v 7 h -4 z m 8,0 h 4 v 7 h -4 z m 8,0 h 4 v 7 h -4 z m 8,0 h 4 v 7 h -4 z m 8,0 h 4 v 7 h -4 z m 8,0 h 4 v 7 h -4 z m 8,0 h 4 v 7 h -4 z m 8,0 h 4 v 7 h -4 z m 8,0 h 4 v 7 h -4 z m 8,0 h 4 v 7 h -4 z" /></g><metadata
     id="metadata134"><rdf:RDF><cc:Work
         rdf:about=""><cc:license
           rdf:resource="http://scripts.sil.org/OFL" /></cc:Work><cc:License
         rdf:about="http://scripts.sil.org/OFL"><cc:permits
           rdf:resource="http://scripts.sil.org/pub/OFL/Reproduction" /><cc:permits
           rdf:resource="http://scripts.sil.org/pub/OFL/Distribution" /><cc:permits
           rdf:resource="http://scripts.sil.org/pub/OFL/Embedding" /><cc:permits
           rdf:resource="http://scripts.sil.org/pub/OFL/DerivativeWorks" /><cc:requires
           rdf:resource="http://scripts.sil.org/pub/OFL/Notice" /><cc:requires
           rdf:resource="http://scripts.sil.org/pub/OFL/Attribution" /><cc:requires
           rdf:resource="http://scripts.sil.org/pub/OFL/ShareAlike" /><cc:requires
           rdf:resource="http://scripts.sil.org/pub/OFL/DerivativeRenaming" /><cc:requires
           rdf:resource="http://scripts.sil.org/pub/OFL/BundlingWhenSelling" /></cc:License></rdf:RDF></metadata><style
     type="text/css"
     id="style5151">
	.st0{fill:#7f7f7f7f;}
</style></svg>
