<?xml version="1.0" encoding="UTF-8" standalone="no"?>
<!-- Created with Inkscape (http://www.inkscape.org/) -->

<svg
   width="183"
   height="183"
   viewBox="0 0 183 183"
   version="1.1"
   id="svg5"
   inkscape:version="1.2.2 (732a01da63, 2022-12-09)"
   sodipodi:docname="M.2_Small_SSDFlow.svg"
   xml:space="preserve"
   xmlns:inkscape="http://www.inkscape.org/namespaces/inkscape"
   xmlns:sodipodi="http://sodipodi.sourceforge.net/DTD/sodipodi-0.dtd"
   xmlns="http://www.w3.org/2000/svg"
   xmlns:svg="http://www.w3.org/2000/svg"
   xmlns:rdf="http://www.w3.org/1999/02/22-rdf-syntax-ns#"
   xmlns:cc="http://creativecommons.org/ns#"><sodipodi:namedview
     id="namedview7"
     pagecolor="#ffffff"
     bordercolor="#000000"
     borderopacity="0.25"
     inkscape:showpageshadow="2"
     inkscape:pageopacity="0.0"
     inkscape:pagecheckerboard="true"
     inkscape:deskcolor="#d1d1d1"
     inkscape:document-units="px"
     showgrid="true"
     showguides="true"
     inkscape:zoom="2.1341967"
     inkscape:cx="123.93422"
     inkscape:cy="114.32873"
     inkscape:window-width="1920"
     inkscape:window-height="1027"
     inkscape:window-x="-8"
     inkscape:window-y="-8"
     inkscape:window-maximized="1"
     inkscape:current-layer="layer1"><inkscape:grid
       type="xygrid"
       id="grid132"
       empspacing="8"
       dotted="true"
       originx="-66"
       originy="-66" /><sodipodi:guide
       position="62,169"
       orientation="1,0"
       id="guide136"
       inkscape:locked="false" /><sodipodi:guide
       position="94,121"
       orientation="0,-1"
       id="guide138"
       inkscape:locked="false" /></sodipodi:namedview><defs
     id="defs2" /><g
     inkscape:label="Layer 1"
     inkscape:groupmode="layer"
     id="layer1"
     transform="translate(-66,-66)"><path
       id="path22"
       style="color:#7f7f7f7f;fill:#7f7f7f7f;stroke-linecap:round;stroke-linejoin:round;-inkscape-stroke:none;paint-order:stroke fill markers"
       d="m 101.5,66 c -3.313568,3.31e-4 -5.999669,2.686432 -6,6 v 160 c 0.08056,2.47113 1.668551,4.63989 4,5.46289 V 247 c 1.1e-4,1.10452 0.89548,1.99989 2,2 h 8 8 c 1.10452,-1.1e-4 1.99989,-0.89548 2,-2 v -9 h 12 v 9 c 1.1e-4,1.10452 0.89548,1.99989 2,2 h 8 8 8 8 8 8 8 8 8 8 c 1.10452,-1.1e-4 1.99989,-0.89548 2,-2 v -9.53711 c 2.33145,-0.823 3.91944,-2.99176 4,-5.46289 V 72 c -3.3e-4,-3.313568 -2.68643,-5.999669 -6,-6 h -44 c -3.31357,3.31e-4 -5.99967,2.686432 -6,6 v 10 h -12 V 72 c -3.3e-4,-3.313568 -2.68643,-5.999669 -6,-6 z m 6,12 h 32 v 10 c 3.3e-4,3.313568 2.68643,5.999669 6,6 h 24 c 3.31357,-3.31e-4 5.99967,-2.686432 6,-6 V 78 h 32 v 148 h -100 z m 18.11914,35.43945 c -3.09418,0 -5.79724,1.60819 -8.10351,3.02539 -2.30628,1.41723 -4.07618,2.83008 -4.07618,2.83008 a 2.4907714,2.4907714 0 0 0 -0.39648,3.5 2.4907714,2.4907714 0 0 0 3.5,0.39453 c 0,0 1.56284,-1.24087 3.58008,-2.48047 2.01723,-1.2396 4.62971,-2.28906 5.49609,-2.28906 0.86638,0 3.47691,1.04946 5.49414,2.28906 2.01724,1.2396 3.58008,2.48047 3.58008,2.48047 0,0 1.76989,1.4148 4.07617,2.83203 2.30628,1.41721 5.00934,3.0254 8.10352,3.0254 3.09418,0 5.79723,-1.60819 8.10351,-3.0254 2.30628,-1.41723 4.07617,-2.83203 4.07617,-2.83203 0,0 1.56285,-1.24087 3.58008,-2.48047 2.01724,-1.2396 4.62776,-2.28906 5.49414,-2.28906 0.86638,0 3.47887,1.04946 5.4961,2.28906 2.01722,1.2396 3.57812,2.48047 3.57812,2.48047 0,0 1.77185,1.4148 4.07813,2.83203 2.30626,1.41721 5.00737,3.0254 8.10156,3.0254 3.09419,0 5.79724,-1.60819 8.10352,-3.0254 2.30626,-1.41723 4.07617,-2.83203 4.07617,-2.83203 a 2.4907714,2.4907714 0 0 0 0.39648,-3.49804 2.4907714,2.4907714 0 0 0 -3.5,-0.39649 c 0,0 -1.56284,1.24283 -3.58008,2.48242 -2.01722,1.23962 -4.62972,2.28907 -5.49609,2.28907 -0.86638,0 -3.47691,-1.04945 -5.49414,-2.28907 -2.01722,-1.23959 -3.58008,-2.48242 -3.58008,-2.48242 0,0 -1.76988,-1.41285 -4.07617,-2.83008 -2.30626,-1.41721 -5.00933,-3.02539 -8.10352,-3.02539 -3.09418,0 -5.79724,1.60819 -8.10351,3.02539 -2.30628,1.41723 -4.07617,2.83008 -4.07617,2.83008 0,0 -1.56285,1.24283 -3.58008,2.48242 -2.01723,1.23962 -4.62776,2.28907 -5.49414,2.28907 -0.86637,0 -3.47886,-1.04945 -5.4961,-2.28907 -2.01721,-1.23959 -3.57812,-2.48242 -3.57812,-2.48242 0,0 -1.77186,-1.41285 -4.07813,-2.83008 -2.30627,-1.4172 -5.00738,-3.02539 -8.10156,-3.02539 z m 0,18.20508 c -3.09418,0 -5.79724,1.61012 -8.10351,3.02735 -2.30628,1.41721 -4.07618,2.83007 -4.07618,2.83007 a 2.4907714,2.4907714 0 0 0 -0.39648,3.5 2.4907714,2.4907714 0 0 0 3.5,0.39453 c 0,0 1.56284,-1.24087 3.58008,-2.48046 2.01723,-1.2396 4.62971,-2.28907 5.49609,-2.28907 0.86638,0 3.47691,1.04947 5.49414,2.28907 2.01724,1.23959 3.58008,2.48046 3.58008,2.48046 0,0 1.76989,1.41482 4.07617,2.83204 2.30628,1.41721 5.00934,3.02539 8.10352,3.02539 3.09418,0 5.79723,-1.60817 8.10351,-3.02539 2.30628,-1.41721 4.07617,-2.83204 4.07617,-2.83204 0,0 1.56285,-1.24087 3.58008,-2.48046 2.01724,-1.2396 4.62776,-2.28907 5.49414,-2.28907 0.86638,0 3.47887,1.04947 5.4961,2.28907 2.01722,1.23959 3.57812,2.48046 3.57812,2.48046 0,0 1.77185,1.41482 4.07813,2.83204 2.30626,1.41721 5.00737,3.02539 8.10156,3.02539 3.09419,0 5.79724,-1.60817 8.10352,-3.02539 2.30626,-1.41721 4.07617,-2.83204 4.07617,-2.83204 a 2.4907714,2.4907714 0 0 0 0.39648,-3.49804 2.4907714,2.4907714 0 0 0 -3.5,-0.39649 c 0,0 -1.56284,1.24283 -3.58008,2.48243 -2.01722,1.23959 -4.62972,2.28906 -5.49609,2.28906 -0.86638,0 -3.47691,-1.04947 -5.49414,-2.28906 -2.01722,-1.2396 -3.58008,-2.48243 -3.58008,-2.48243 0,0 -1.76988,-1.41286 -4.07617,-2.83007 -2.30626,-1.41723 -5.00933,-3.02735 -8.10352,-3.02735 -3.09418,0 -5.79724,1.61012 -8.10351,3.02735 -2.30628,1.41721 -4.07617,2.83007 -4.07617,2.83007 0,0 -1.56285,1.24283 -3.58008,2.48243 -2.01723,1.23959 -4.62776,2.28906 -5.49414,2.28906 -0.86637,0 -3.47886,-1.04947 -5.4961,-2.28906 -2.01721,-1.2396 -3.57812,-2.48243 -3.57812,-2.48243 0,0 -1.77186,-1.41286 -4.07813,-2.83007 -2.30627,-1.41723 -5.00738,-3.02735 -8.10156,-3.02735 z m 0,18.05078 c -3.09418,0 -5.79724,1.60816 -8.10351,3.02539 -2.30628,1.41721 -4.07618,2.83203 -4.07618,2.83203 a 2.4907714,2.4907714 0 0 0 -0.39648,3.5 2.4907714,2.4907714 0 0 0 3.5,0.39454 c 0,0 1.56284,-1.24283 3.58008,-2.48243 2.01723,-1.2396 4.62971,-2.28711 5.49609,-2.28711 0.86638,0 3.47691,1.04751 5.49414,2.28711 2.01724,1.2396 3.58008,2.48243 3.58008,2.48243 0,0 1.76989,1.41481 4.07617,2.83203 2.30628,1.41724 5.00934,3.02539 8.10352,3.02539 3.09418,0 5.79723,-1.60814 8.10351,-3.02539 2.30628,-1.41722 4.07617,-2.83203 4.07617,-2.83203 0,0 1.56285,-1.24283 3.58008,-2.48243 2.01724,-1.2396 4.62776,-2.28711 5.49414,-2.28711 0.86638,0 3.47887,1.04751 5.4961,2.28711 2.01722,1.2396 3.57812,2.48243 3.57812,2.48243 0,0 1.77185,1.41481 4.07813,2.83203 2.30626,1.41724 5.00737,3.02539 8.10156,3.02539 3.09419,0 5.79724,-1.60814 8.10352,-3.02539 2.30626,-1.41722 4.07617,-2.83203 4.07617,-2.83203 a 2.4907714,2.4907714 0 0 0 0.39648,-3.5 2.4907714,2.4907714 0 0 0 -3.5,-0.39454 c 0,0 -1.56284,1.24284 -3.58008,2.48243 -2.01722,1.23959 -4.62972,2.28711 -5.49609,2.28711 -0.86638,0 -3.47691,-1.04751 -5.49414,-2.28711 -2.01722,-1.23959 -3.58008,-2.48243 -3.58008,-2.48243 0,0 -1.76988,-1.41482 -4.07617,-2.83203 -2.30626,-1.41723 -5.00933,-3.02539 -8.10352,-3.02539 -3.09418,0 -5.79724,1.60816 -8.10351,3.02539 -2.30628,1.41721 -4.07617,2.83203 -4.07617,2.83203 0,0 -1.56285,1.24284 -3.58008,2.48243 -2.01723,1.23959 -4.62776,2.28711 -5.49414,2.28711 -0.86637,0 -3.47886,-1.04751 -5.4961,-2.28711 -2.01721,-1.23959 -3.57812,-2.48243 -3.57812,-2.48243 0,0 -1.77186,-1.41482 -4.07813,-2.83203 -2.30627,-1.41723 -5.00738,-3.02539 -8.10156,-3.02539 z m 0,18.05078 c -3.09418,0 -5.79724,1.60818 -8.10351,3.02539 -2.30628,1.41723 -4.07618,2.83204 -4.07618,2.83204 a 2.4907714,2.4907714 0 0 0 -0.39648,3.49804 2.4907714,2.4907714 0 0 0 3.5,0.39649 c 0,0 1.56284,-1.24284 3.58008,-2.48243 2.01723,-1.2396 4.62971,-2.28906 5.49609,-2.28906 0.86638,0 3.47691,1.04946 5.49414,2.28906 2.01724,1.23959 3.58008,2.48243 3.58008,2.48243 0,0 1.76989,1.41286 4.07617,2.83007 2.30628,1.41722 5.00934,3.02735 8.10352,3.02735 3.09418,0 5.79723,-1.61013 8.10351,-3.02735 2.30628,-1.4172 4.07617,-2.83007 4.07617,-2.83007 0,0 1.56285,-1.24284 3.58008,-2.48243 2.01724,-1.2396 4.62776,-2.28906 5.49414,-2.28906 0.86638,0 3.47887,1.04946 5.4961,2.28906 2.01722,1.23959 3.57812,2.48243 3.57812,2.48243 0,0 1.77185,1.41286 4.07813,2.83007 2.30626,1.41722 5.00737,3.02735 8.10156,3.02735 3.09419,0 5.79724,-1.61013 8.10352,-3.02735 2.30626,-1.4172 4.07617,-2.83007 4.07617,-2.83007 a 2.4907714,2.4907714 0 0 0 0.39648,-3.5 2.4907714,2.4907714 0 0 0 -3.5,-0.39453 c 0,0 -1.56284,1.24087 -3.58008,2.48046 -2.01722,1.23961 -4.62972,2.28907 -5.49609,2.28907 -0.86638,0 -3.47691,-1.04946 -5.49414,-2.28907 -2.01722,-1.23959 -3.58008,-2.48046 -3.58008,-2.48046 0,0 -1.76988,-1.41481 -4.07617,-2.83204 -2.30626,-1.41721 -5.00933,-3.02539 -8.10352,-3.02539 -3.09418,0 -5.79724,1.60818 -8.10351,3.02539 -2.30628,1.41723 -4.07617,2.83204 -4.07617,2.83204 0,0 -1.56285,1.24087 -3.58008,2.48046 -2.01723,1.23961 -4.62776,2.28907 -5.49414,2.28907 -0.86637,0 -3.47886,-1.04946 -5.4961,-2.28907 -2.01721,-1.23959 -3.57812,-2.48046 -3.57812,-2.48046 0,0 -1.77186,-1.41481 -4.07813,-2.83204 -2.30627,-1.41721 -5.00738,-3.02539 -8.10156,-3.02539 z m 0,18.20703 c -3.09418,0 -5.79724,1.60817 -8.10351,3.0254 -2.30628,1.41722 -4.07618,2.83203 -4.07618,2.83203 a 2.4907714,2.4907714 0 0 0 -0.39648,3.49804 2.4907714,2.4907714 0 0 0 3.5,0.39649 c 0,0 1.56284,-1.24281 3.58008,-2.48242 2.01723,-1.23959 4.62971,-2.28907 5.49609,-2.28907 0.86638,0 3.47691,1.04948 5.49414,2.28907 2.01724,1.23961 3.58008,2.48242 3.58008,2.48242 0,0 1.76989,1.41285 4.07617,2.83008 2.30628,1.41722 5.00934,3.02539 8.10352,3.02539 3.09418,0 5.79723,-1.60816 8.10351,-3.02539 2.30628,-1.41722 4.07617,-2.83008 4.07617,-2.83008 0,0 1.56285,-1.24281 3.58008,-2.48242 2.01724,-1.23959 4.62776,-2.28907 5.49414,-2.28907 0.86638,0 3.47887,1.04948 5.4961,2.28907 2.01722,1.23961 3.57812,2.48242 3.57812,2.48242 0,0 1.77185,1.41285 4.07813,2.83008 2.30626,1.41722 5.00737,3.02539 8.10156,3.02539 3.09419,0 5.79724,-1.60816 8.10352,-3.02539 2.30626,-1.41722 4.07617,-2.83008 4.07617,-2.83008 a 2.4907714,2.4907714 0 0 0 0.39648,-3.5 2.4907714,2.4907714 0 0 0 -3.5,-0.39453 c 0,0 -1.56284,1.24087 -3.58008,2.48047 -2.01722,1.23959 -4.62972,2.28906 -5.49609,2.28906 -0.86638,0 -3.47691,-1.04947 -5.49414,-2.28906 -2.01722,-1.2396 -3.58008,-2.48047 -3.58008,-2.48047 0,0 -1.76988,-1.41481 -4.07617,-2.83203 -2.30626,-1.41723 -5.00933,-3.0254 -8.10352,-3.0254 -3.09418,0 -5.79724,1.60817 -8.10351,3.0254 -2.30628,1.41722 -4.07617,2.83203 -4.07617,2.83203 0,0 -1.56285,1.24087 -3.58008,2.48047 -2.01723,1.23959 -4.62776,2.28906 -5.49414,2.28906 -0.86637,0 -3.47886,-1.04947 -5.4961,-2.28906 -2.01721,-1.2396 -3.57812,-2.48047 -3.57812,-2.48047 0,0 -1.77186,-1.41481 -4.07813,-2.83203 -2.30627,-1.41723 -5.00738,-3.0254 -8.10156,-3.0254 z M 103.5,238 h 4 v 7 h -4 z m 8,0 h 4 v 7 h -4 z m 24,0 h 4 v 7 h -4 z m 8,0 h 4 v 7 h -4 z m 8,0 h 4 v 7 h -4 z m 8,0 h 4 v 7 h -4 z m 8,0 h 4 v 7 h -4 z m 8,0 h 4 v 7 h -4 z m 8,0 h 4 v 7 h -4 z m 8,0 h 4 v 7 h -4 z m 8,0 h 4 v 7 h -4 z m 8,0 h 4 v 7 h -4 z" /></g><metadata
     id="metadata134"><rdf:RDF><cc:Work
         rdf:about=""><cc:license
           rdf:resource="http://scripts.sil.org/OFL" /></cc:Work><cc:License
         rdf:about="http://scripts.sil.org/OFL"><cc:permits
           rdf:resource="http://scripts.sil.org/pub/OFL/Reproduction" /><cc:permits
           rdf:resource="http://scripts.sil.org/pub/OFL/Distribution" /><cc:permits
           rdf:resource="http://scripts.sil.org/pub/OFL/Embedding" /><cc:permits
           rdf:resource="http://scripts.sil.org/pub/OFL/DerivativeWorks" /><cc:requires
           rdf:resource="http://scripts.sil.org/pub/OFL/Notice" /><cc:requires
           rdf:resource="http://scripts.sil.org/pub/OFL/Attribution" /><cc:requires
           rdf:resource="http://scripts.sil.org/pub/OFL/ShareAlike" /><cc:requires
           rdf:resource="http://scripts.sil.org/pub/OFL/DerivativeRenaming" /><cc:requires
           rdf:resource="http://scripts.sil.org/pub/OFL/BundlingWhenSelling" /></cc:License></rdf:RDF></metadata><style
     type="text/css"
     id="style5151">
	.st0{fill:#7f7f7f7f;}
</style><style
     type="text/css"
     id="style5151-4">
	.st0{fill:#7f7f7f7f;}
</style></svg>
