<?xml version="1.0" encoding="UTF-8" standalone="no"?>
<!-- Created with Inkscape (http://www.inkscape.org/) -->

<svg
   width="253"
   height="253"
   viewBox="0 0 253 253"
   version="1.1"
   id="svg5"
   inkscape:version="1.2.2 (732a01da63, 2022-12-09)"
   sodipodi:docname="M.2_SSDTemp.svg"
   xml:space="preserve"
   xmlns:inkscape="http://www.inkscape.org/namespaces/inkscape"
   xmlns:sodipodi="http://sodipodi.sourceforge.net/DTD/sodipodi-0.dtd"
   xmlns="http://www.w3.org/2000/svg"
   xmlns:svg="http://www.w3.org/2000/svg"
   xmlns:rdf="http://www.w3.org/1999/02/22-rdf-syntax-ns#"
   xmlns:cc="http://creativecommons.org/ns#"><sodipodi:namedview
     id="namedview7"
     pagecolor="#ffffff"
     bordercolor="#000000"
     borderopacity="0.25"
     inkscape:showpageshadow="2"
     inkscape:pageopacity="0.0"
     inkscape:pagecheckerboard="true"
     inkscape:deskcolor="#d1d1d1"
     inkscape:document-units="px"
     showgrid="true"
     showguides="true"
     inkscape:zoom="2.1341967"
     inkscape:cx="21.319497"
     inkscape:cy="122.76282"
     inkscape:window-width="1920"
     inkscape:window-height="1027"
     inkscape:window-x="-8"
     inkscape:window-y="-8"
     inkscape:window-maximized="1"
     inkscape:current-layer="layer1"><inkscape:grid
       type="xygrid"
       id="grid132"
       empspacing="8"
       dotted="true"
       originx="-66"
       originy="-2" /><sodipodi:guide
       position="62,175"
       orientation="1,0"
       id="guide136"
       inkscape:locked="false" /><sodipodi:guide
       position="94,127"
       orientation="0,-1"
       id="guide138"
       inkscape:locked="false" /></sodipodi:namedview><defs
     id="defs2" /><g
     inkscape:label="Layer 1"
     inkscape:groupmode="layer"
     id="layer1"
     transform="translate(-66,-2)"><path
       id="path20"
       style="color:#7f7f7f7f;fill:#7f7f7f7f;stroke-linecap:round;stroke-linejoin:round;-inkscape-stroke:none;paint-order:stroke fill markers"
       d="m 136.5,2 c -3.31357,3.313e-4 -5.99967,2.686432 -6,6 v 230 c 0.0806,2.47113 1.66855,4.63989 4,5.46289 V 253 c 1.1e-4,1.10452 0.89548,1.99989 2,2 h 8 8 c 1.10452,-1.1e-4 1.99989,-0.89548 2,-2 v -9 h 12 v 9 c 1.1e-4,1.10452 0.89548,1.99989 2,2 h 8 8 8 8 8 8 8 8 8 8 c 1.10452,-1.1e-4 1.99989,-0.89548 2,-2 v -9.53711 c 2.33145,-0.823 3.91944,-2.99176 4,-5.46289 V 8 c -3.3e-4,-3.313568 -2.68643,-5.9996687 -6,-6 h -44 c -3.31357,3.313e-4 -5.99967,2.686432 -6,6 v 10 h -12 V 8 c -3.3e-4,-3.313568 -2.68643,-5.9996687 -6,-6 z m 6,12 h 32 v 10 c 3.3e-4,3.313568 2.68643,5.999669 6,6 h 24 c 3.31357,-3.31e-4 5.99967,-2.686432 6,-6 V 14 h 32 v 218 h -100 z m 38.82422,26.146484 c -4.22009,0 -8.01924,2.104596 -10.01953,5.16211 -2.00028,3.057515 -2.55274,6.613406 -2.55274,10.203125 v 89.402341 20.34766 c -8.22749,6.64528 -11.87671,15.33756 -11.16406,26.02734 a 4.191107,4.191107 0 0 0 0.0469,0.41016 c 1.57223,9.43337 6.65268,16.15774 13.16992,20.02734 6.51721,3.86962 14.22194,5.12696 21.69531,5.12696 7.47337,0 15.17807,-1.25734 21.69531,-5.12696 6.51726,-3.8696 11.59769,-10.59397 13.16992,-20.02734 a 4.191107,4.191107 0 0 0 0.0469,-0.41016 c 0.71273,-10.69175 -2.94216,-19.36637 -11.16406,-26.02344 V 144.91406 55.511719 c 0,-3.589719 -0.55245,-7.14561 -2.55274,-10.203125 -2.00028,-3.057514 -5.79944,-5.16211 -10.01953,-5.16211 z m 0,8.38086 h 22.35156 c 1.97094,0 2.36129,0.386841 3.00391,1.36914 0.64265,0.982298 1.18554,3.013934 1.18554,5.615235 v 12.572265 h -20.95312 a 4.1906879,4.1906879 0 0 0 -4.18945,4.191407 4.1906879,4.1906879 0 0 0 4.18945,4.189453 h 20.95312 v 19.55664 h -20.95312 a 4.1906879,4.1906879 0 0 0 -4.18945,4.191406 4.1906879,4.1906879 0 0 0 4.18945,4.19141 h 20.95312 v 19.55664 h -20.95312 a 4.1906879,4.1906879 0 0 0 -4.18945,4.18945 4.1906879,4.1906879 0 0 0 4.18945,4.19141 h 20.95312 v 12.57226 22.34961 a 4.191107,4.191107 0 0 0 1.74805,3.4043 c 7.79568,5.59248 10.01402,10.50002 9.4336,19.84961 -1.25021,7.19348 -4.51721,11.26374 -9.12891,14.00195 -4.65789,2.76561 -10.92242,3.95313 -17.41797,3.95313 -6.49554,0 -12.76008,-1.18752 -17.41797,-3.95313 -4.6117,-2.73821 -7.8787,-6.80847 -9.12891,-14.00195 -0.58047,-9.35033 1.63547,-14.27544 9.42579,-19.84375 a 4.191107,4.191107 0 0 0 1.75586,-3.41016 V 144.91406 55.511719 c 0,-2.601301 0.5429,-4.632937 1.18554,-5.615235 0.64263,-0.982299 1.03297,-1.369139 3.00391,-1.36914 z M 138.5,244 h 4 v 7 h -4 z m 8,0 h 4 v 7 h -4 z m 24,0 h 4 v 7 h -4 z m 8,0 h 4 v 7 h -4 z m 8,0 h 4 v 7 h -4 z m 8,0 h 4 v 7 h -4 z m 8,0 h 4 v 7 h -4 z m 8,0 h 4 v 7 h -4 z m 8,0 h 4 v 7 h -4 z m 8,0 h 4 v 7 h -4 z m 8,0 h 4 v 7 h -4 z m 8,0 h 4 v 7 h -4 z" /></g><metadata
     id="metadata134"><rdf:RDF><cc:Work
         rdf:about=""><cc:license
           rdf:resource="http://scripts.sil.org/OFL" /></cc:Work><cc:License
         rdf:about="http://scripts.sil.org/OFL"><cc:permits
           rdf:resource="http://scripts.sil.org/pub/OFL/Reproduction" /><cc:permits
           rdf:resource="http://scripts.sil.org/pub/OFL/Distribution" /><cc:permits
           rdf:resource="http://scripts.sil.org/pub/OFL/Embedding" /><cc:permits
           rdf:resource="http://scripts.sil.org/pub/OFL/DerivativeWorks" /><cc:requires
           rdf:resource="http://scripts.sil.org/pub/OFL/Notice" /><cc:requires
           rdf:resource="http://scripts.sil.org/pub/OFL/Attribution" /><cc:requires
           rdf:resource="http://scripts.sil.org/pub/OFL/ShareAlike" /><cc:requires
           rdf:resource="http://scripts.sil.org/pub/OFL/DerivativeRenaming" /><cc:requires
           rdf:resource="http://scripts.sil.org/pub/OFL/BundlingWhenSelling" /></cc:License></rdf:RDF></metadata></svg>
