<?xml version="1.0" encoding="UTF-8" standalone="no"?>
<!-- Created with Inkscape (http://www.inkscape.org/) -->

<svg
   width="183"
   height="183"
   viewBox="0 0 183 183"
   version="1.1"
   id="svg5"
   inkscape:version="1.2.2 (732a01da63, 2022-12-09)"
   sodipodi:docname="M.2_Small_SSDHotspot.svg"
   xml:space="preserve"
   xmlns:inkscape="http://www.inkscape.org/namespaces/inkscape"
   xmlns:sodipodi="http://sodipodi.sourceforge.net/DTD/sodipodi-0.dtd"
   xmlns="http://www.w3.org/2000/svg"
   xmlns:svg="http://www.w3.org/2000/svg"
   xmlns:rdf="http://www.w3.org/1999/02/22-rdf-syntax-ns#"
   xmlns:cc="http://creativecommons.org/ns#"><sodipodi:namedview
     id="namedview7"
     pagecolor="#ffffff"
     bordercolor="#000000"
     borderopacity="0.25"
     inkscape:showpageshadow="2"
     inkscape:pageopacity="0.0"
     inkscape:pagecheckerboard="true"
     inkscape:deskcolor="#d1d1d1"
     inkscape:document-units="px"
     showgrid="true"
     showguides="true"
     inkscape:zoom="2.1341967"
     inkscape:cx="123.93422"
     inkscape:cy="114.32873"
     inkscape:window-width="1920"
     inkscape:window-height="1027"
     inkscape:window-x="-8"
     inkscape:window-y="-8"
     inkscape:window-maximized="1"
     inkscape:current-layer="layer1"><inkscape:grid
       type="xygrid"
       id="grid132"
       empspacing="8"
       dotted="true"
       originx="-66"
       originy="-66" /><sodipodi:guide
       position="62,169"
       orientation="1,0"
       id="guide136"
       inkscape:locked="false" /><sodipodi:guide
       position="94,121"
       orientation="0,-1"
       id="guide138"
       inkscape:locked="false" /></sodipodi:namedview><defs
     id="defs2" /><g
     inkscape:label="Layer 1"
     inkscape:groupmode="layer"
     id="layer1"
     transform="translate(-66,-66)"><path
       id="path21"
       style="color:#7f7f7f7f;fill:#7f7f7f7f;stroke-linecap:round;stroke-linejoin:round;-inkscape-stroke:none;paint-order:stroke fill markers"
       d="m 101.5,66 c -3.313568,3.31e-4 -5.999669,2.686432 -6,6 v 160 c 0.08056,2.47113 1.668551,4.63989 4,5.46289 V 247 c 1.1e-4,1.10452 0.89548,1.99989 2,2 h 8 8 c 1.10452,-1.1e-4 1.99989,-0.89548 2,-2 v -9 h 12 v 9 c 1.1e-4,1.10452 0.89548,1.99989 2,2 h 8 8 8 8 8 8 8 8 8 8 c 1.10452,-1.1e-4 1.99989,-0.89548 2,-2 v -9.53711 c 2.33145,-0.823 3.91944,-2.99176 4,-5.46289 V 72 c -3.3e-4,-3.313568 -2.68643,-5.999669 -6,-6 h -44 c -3.31357,3.31e-4 -5.99967,2.686432 -6,6 v 10 h -12 V 72 c -3.3e-4,-3.313568 -2.68643,-5.999669 -6,-6 z m 6,12 h 32 v 10 c 3.3e-4,3.313568 2.68643,5.999669 6,6 h 24 c 3.31357,-3.31e-4 5.99967,-2.686432 6,-6 V 78 h 32 v 148 h -100 z m 43.63477,19.507812 c -0.72811,-0.04312 -1.43168,0.553176 -1.3711,1.388672 0.53602,7.398406 0.0493,28.602256 -18.55273,53.933596 -16.86658,23.49762 -10.33088,41.54394 -8.01172,46.43164 4.43402,9.36348 10.62003,14.86261 16.66016,18.07422 1.17202,0.62307 2.40702,-0.72701 1.68945,-1.84375 -3.89487,-6.06189 -7.5813,-16.26165 -1.70508,-29.39844 9.79932,-21.90681 15.76172,-33.25391 15.76172,-33.25391 0,0 3.17009,13.24065 11.76758,25.01368 8.27458,11.33072 12.80546,25.58168 5.5039,37.45312 -0.68522,1.11419 0.52312,2.4298 1.6875,1.83398 9.03823,-4.62341 19.17457,-13.89828 20.31836,-32.35351 0.42172,-5.63938 -0.21045,-13.53502 -3.37304,-23.49805 -4.06642,-12.62724 -9.06656,-18.51851 -11.95899,-21.04883 -0.8652,-0.75697 -2.20964,-0.0868 -2.13867,1.06055 0.84285,13.62478 -4.28365,17.08291 -7.20117,9.29102 -1.16517,-3.11221 -1.84375,-8.49542 -1.84375,-15.05078 0,-10.91351 -3.16588,-22.14815 -10.14649,-31.27735 -1.81529,-2.37405 -3.93996,-4.59262 -6.37695,-6.484373 -0.22056,-0.171256 -0.46629,-0.257111 -0.70898,-0.271485 z M 103.5,238 h 4 v 7 h -4 z m 8,0 h 4 v 7 h -4 z m 24,0 h 4 v 7 h -4 z m 8,0 h 4 v 7 h -4 z m 8,0 h 4 v 7 h -4 z m 8,0 h 4 v 7 h -4 z m 8,0 h 4 v 7 h -4 z m 8,0 h 4 v 7 h -4 z m 8,0 h 4 v 7 h -4 z m 8,0 h 4 v 7 h -4 z m 8,0 h 4 v 7 h -4 z m 8,0 h 4 v 7 h -4 z" /></g><metadata
     id="metadata134"><rdf:RDF><cc:Work
         rdf:about=""><cc:license
           rdf:resource="http://scripts.sil.org/OFL" /></cc:Work><cc:License
         rdf:about="http://scripts.sil.org/OFL"><cc:permits
           rdf:resource="http://scripts.sil.org/pub/OFL/Reproduction" /><cc:permits
           rdf:resource="http://scripts.sil.org/pub/OFL/Distribution" /><cc:permits
           rdf:resource="http://scripts.sil.org/pub/OFL/Embedding" /><cc:permits
           rdf:resource="http://scripts.sil.org/pub/OFL/DerivativeWorks" /><cc:requires
           rdf:resource="http://scripts.sil.org/pub/OFL/Notice" /><cc:requires
           rdf:resource="http://scripts.sil.org/pub/OFL/Attribution" /><cc:requires
           rdf:resource="http://scripts.sil.org/pub/OFL/ShareAlike" /><cc:requires
           rdf:resource="http://scripts.sil.org/pub/OFL/DerivativeRenaming" /><cc:requires
           rdf:resource="http://scripts.sil.org/pub/OFL/BundlingWhenSelling" /></cc:License></rdf:RDF></metadata></svg>
