<?xml version="1.0" encoding="UTF-8" standalone="no"?>
<!-- Created with Inkscape (http://www.inkscape.org/) -->

<svg
   width="183"
   height="183"
   viewBox="0 0 183 183"
   version="1.1"
   id="svg5"
   inkscape:version="1.2.2 (732a01da63, 2022-12-09)"
   sodipodi:docname="M.2_Small_SSDFan.svg"
   xml:space="preserve"
   xmlns:inkscape="http://www.inkscape.org/namespaces/inkscape"
   xmlns:sodipodi="http://sodipodi.sourceforge.net/DTD/sodipodi-0.dtd"
   xmlns="http://www.w3.org/2000/svg"
   xmlns:svg="http://www.w3.org/2000/svg"
   xmlns:rdf="http://www.w3.org/1999/02/22-rdf-syntax-ns#"
   xmlns:cc="http://creativecommons.org/ns#"><sodipodi:namedview
     id="namedview7"
     pagecolor="#ffffff"
     bordercolor="#000000"
     borderopacity="0.25"
     inkscape:showpageshadow="2"
     inkscape:pageopacity="0.0"
     inkscape:pagecheckerboard="true"
     inkscape:deskcolor="#d1d1d1"
     inkscape:document-units="px"
     showgrid="true"
     showguides="true"
     inkscape:zoom="2.1341967"
     inkscape:cx="36.313429"
     inkscape:cy="95.117756"
     inkscape:window-width="1920"
     inkscape:window-height="1027"
     inkscape:window-x="-8"
     inkscape:window-y="-8"
     inkscape:window-maximized="1"
     inkscape:current-layer="layer1"><inkscape:grid
       type="xygrid"
       id="grid132"
       empspacing="8"
       dotted="true"
       originx="0"
       originy="0" /><sodipodi:guide
       position="88,231"
       orientation="1,0"
       id="guide136"
       inkscape:locked="false" /><sodipodi:guide
       position="224,95"
       orientation="0,-1"
       id="guide138"
       inkscape:locked="false" /></sodipodi:namedview><defs
     id="defs2" /><g
     inkscape:label="Layer 1"
     inkscape:groupmode="layer"
     id="layer1"
     transform="translate(-66,-66)"><path
       id="path22"
       style="color:#7f7f7f7f;fill:#7f7f7f7f;stroke-linecap:round;stroke-linejoin:round;-inkscape-stroke:none;paint-order:stroke fill markers"
       d="m 101.5,66 c -3.313568,3.31e-4 -5.999669,2.686432 -6,6 v 160 c 0.08056,2.47113 1.668551,4.63989 4,5.46289 V 247 c 1.1e-4,1.10452 0.89548,1.99989 2,2 h 8 8 c 1.10452,-1.1e-4 1.99989,-0.89548 2,-2 v -9 h 12 v 9 c 1.1e-4,1.10452 0.89548,1.99989 2,2 h 8 8 8 8 8 8 8 8 8 8 c 1.10452,-1.1e-4 1.99989,-0.89548 2,-2 v -9.53711 c 2.33145,-0.823 3.91944,-2.99176 4,-5.46289 V 72 c -3.3e-4,-3.313568 -2.68643,-5.999669 -6,-6 h -44 c -3.31357,3.31e-4 -5.99967,2.686432 -6,6 v 10 h -12 V 72 c -3.3e-4,-3.313568 -2.68643,-5.999669 -6,-6 z m 6,12 h 32 v 10 c 3.3e-4,3.313568 2.68643,5.999669 6,6 h 24 c 3.31357,-3.31e-4 5.99967,-2.686432 6,-6 V 78 h 32 v 148 h -100 z m 59.05273,33.26953 c -3.72395,0.12573 -7.05583,2.1174 -8.25781,5.37109 -2.65695,7.17375 -4.55384,14.77486 -4.63672,22.12305 3.98966,-0.8242 8.1034,-0.32741 11.74414,1.31641 5.10236,-6.85414 12.15542,-12.90832 20.00196,-17.00391 1.03805,-0.54191 2.17957,-2.38819 -0.0996,-4.08398 -4.50434,-3.35037 -9.67589,-5.55279 -14.96094,-7.20508 -1.26414,-0.39544 -2.5497,-0.55949 -3.79102,-0.51758 z m -26.83398,2.56641 c -0.46176,-0.0394 -1.01529,0.0546 -1.66602,0.33594 -5.15638,2.22717 -9.64967,5.60261 -13.72656,9.35546 -3.89396,3.58688 -4.77215,9.30365 -1.82031,12.85938 4.89012,5.88639 10.51892,11.33145 16.8418,15.07812 1.2828,-3.86733 3.76911,-7.18646 7.01172,-9.51757 -3.38341,-7.84203 -5.09631,-16.9778 -4.72266,-25.82032 0.0373,-0.87485 -0.53269,-2.17275 -1.91797,-2.29101 z m 54.41602,23.82422 c -0.28371,0.0151 -0.56862,0.045 -0.85352,0.0937 -7.54363,1.28895 -15.07448,3.44535 -21.48047,7.04687 2.71098,3.04496 4.33773,6.85687 4.73633,10.83203 8.48576,0.98996 17.25412,4.07522 24.72266,8.82031 0.98814,0.62686 3.15824,0.69421 3.48632,-2.1289 0.65182,-5.57571 -0.024,-11.15517 -1.23632,-16.56055 -1.08973,-4.8456 -5.11943,-8.32996 -9.375,-8.10351 z m -36.63672,5.99023 c -7.64735,0 -13.84375,6.20264 -13.84375,13.84961 0,7.64926 6.1964,13.84961 13.84375,13.84961 7.65124,0 13.85351,-6.20035 13.85351,-13.84961 2.3e-4,-7.64697 -6.20205,-13.84961 -13.85351,-13.84961 z m -45.20703,6.54883 c -0.90622,0.0756 -1.83401,0.71212 -2.03907,2.47656 -0.65158,5.57525 0.0277,11.1554 1.24414,16.56055 1.15826,5.16865 5.66601,8.78828 10.22461,8.00781 7.54341,-1.28918 15.07494,-3.44363 21.48047,-7.04492 -2.71098,-3.04496 -4.33968,-6.85883 -4.73828,-10.83399 -8.48576,-0.99041 -17.25239,-4.07498 -24.7207,-8.82031 -0.37056,-0.23507 -0.90744,-0.39108 -1.45117,-0.3457 z m 63.36132,13.33594 c -1.2828,3.86481 -3.76911,7.18497 -7.01172,9.51562 3.38364,7.84226 5.09826,16.97952 4.72461,25.82227 -0.0497,1.16647 0.98085,3.08034 3.58789,1.95507 5.15227,-2.22739 9.64817,-5.60456 13.72071,-9.35742 3.89396,-3.58687 4.7741,-9.30364 1.82226,-12.85937 -4.88599,-5.88433 -10.52087,-11.33156 -16.84375,-15.07617 z m -26.05078,11.38476 c -5.098,6.85231 -12.15128,12.90649 -19.99804,17.00391 -1.03783,0.53985 -2.17935,2.38624 0.0996,4.08203 4.50457,3.35037 9.67807,5.55451 14.9629,7.20703 5.05656,1.58155 10.44423,-0.5172 12.04687,-4.85547 2.65695,-7.17374 4.55579,-14.77279 4.63867,-22.12304 -3.98943,0.8242 -8.10902,0.32753 -11.75,-1.31446 z M 103.5,238 h 4 v 7 h -4 z m 8,0 h 4 v 7 h -4 z m 24,0 h 4 v 7 h -4 z m 8,0 h 4 v 7 h -4 z m 8,0 h 4 v 7 h -4 z m 8,0 h 4 v 7 h -4 z m 8,0 h 4 v 7 h -4 z m 8,0 h 4 v 7 h -4 z m 8,0 h 4 v 7 h -4 z m 8,0 h 4 v 7 h -4 z m 8,0 h 4 v 7 h -4 z m 8,0 h 4 v 7 h -4 z" /></g><metadata
     id="metadata134"><rdf:RDF><cc:Work
         rdf:about=""><cc:license
           rdf:resource="http://scripts.sil.org/OFL" /></cc:Work><cc:License
         rdf:about="http://scripts.sil.org/OFL"><cc:permits
           rdf:resource="http://scripts.sil.org/pub/OFL/Reproduction" /><cc:permits
           rdf:resource="http://scripts.sil.org/pub/OFL/Distribution" /><cc:permits
           rdf:resource="http://scripts.sil.org/pub/OFL/Embedding" /><cc:permits
           rdf:resource="http://scripts.sil.org/pub/OFL/DerivativeWorks" /><cc:requires
           rdf:resource="http://scripts.sil.org/pub/OFL/Notice" /><cc:requires
           rdf:resource="http://scripts.sil.org/pub/OFL/Attribution" /><cc:requires
           rdf:resource="http://scripts.sil.org/pub/OFL/ShareAlike" /><cc:requires
           rdf:resource="http://scripts.sil.org/pub/OFL/DerivativeRenaming" /><cc:requires
           rdf:resource="http://scripts.sil.org/pub/OFL/BundlingWhenSelling" /></cc:License></rdf:RDF></metadata><style
     type="text/css"
     id="style5151">
	.st0{fill:#7f7f7f7f;}
</style></svg>
