<?xml version="1.0" encoding="UTF-8" standalone="no"?>
<!-- Created with Inkscape (http://www.inkscape.org/) -->

<svg
   width="183"
   height="183"
   viewBox="0 0 183 183"
   version="1.1"
   id="svg5"
   inkscape:version="1.2.2 (732a01da63, 2022-12-09)"
   sodipodi:docname="M.2_Small_SSDPower.svg"
   xml:space="preserve"
   xmlns:inkscape="http://www.inkscape.org/namespaces/inkscape"
   xmlns:sodipodi="http://sodipodi.sourceforge.net/DTD/sodipodi-0.dtd"
   xmlns="http://www.w3.org/2000/svg"
   xmlns:svg="http://www.w3.org/2000/svg"
   xmlns:rdf="http://www.w3.org/1999/02/22-rdf-syntax-ns#"
   xmlns:cc="http://creativecommons.org/ns#"><sodipodi:namedview
     id="namedview7"
     pagecolor="#ffffff"
     bordercolor="#000000"
     borderopacity="0.25"
     inkscape:showpageshadow="2"
     inkscape:pageopacity="0.0"
     inkscape:pagecheckerboard="true"
     inkscape:deskcolor="#d1d1d1"
     inkscape:document-units="px"
     showgrid="true"
     showguides="true"
     inkscape:zoom="2.1341967"
     inkscape:cx="123.93422"
     inkscape:cy="114.32873"
     inkscape:window-width="1920"
     inkscape:window-height="1027"
     inkscape:window-x="-8"
     inkscape:window-y="-8"
     inkscape:window-maximized="1"
     inkscape:current-layer="layer1"><inkscape:grid
       type="xygrid"
       id="grid132"
       empspacing="8"
       dotted="true"
       originx="-66"
       originy="-66" /><sodipodi:guide
       position="62,169"
       orientation="1,0"
       id="guide136"
       inkscape:locked="false" /><sodipodi:guide
       position="94,121"
       orientation="0,-1"
       id="guide138"
       inkscape:locked="false" /></sodipodi:namedview><defs
     id="defs2" /><g
     inkscape:label="Layer 1"
     inkscape:groupmode="layer"
     id="layer1"
     transform="translate(-66,-66)"><path
       id="path20"
       style="color:#7f7f7f7f;fill:#7f7f7f7f;stroke-linecap:round;stroke-linejoin:round;-inkscape-stroke:none;paint-order:stroke fill markers"
       d="m 101.5,66 c -3.313568,3.31e-4 -5.999669,2.686432 -6,6 v 160 c 0.08056,2.47113 1.668551,4.63989 4,5.46289 V 247 c 1.1e-4,1.10452 0.89548,1.99989 2,2 h 8 8 c 1.10452,-1.1e-4 1.99989,-0.89548 2,-2 v -9 h 12 v 9 c 1.1e-4,1.10452 0.89548,1.99989 2,2 h 8 8 8 8 8 8 8 8 8 8 c 1.10452,-1.1e-4 1.99989,-0.89548 2,-2 v -9.53711 c 2.33145,-0.823 3.91944,-2.99176 4,-5.46289 V 72 c -3.3e-4,-3.313568 -2.68643,-5.999669 -6,-6 h -44 c -3.31357,3.31e-4 -5.99967,2.686432 -6,6 v 10 h -12 V 72 c -3.3e-4,-3.313568 -2.68643,-5.999669 -6,-6 z m 6,12 h 32 v 10 c 3.3e-4,3.313568 2.68643,5.999669 6,6 h 24 c 3.31357,-3.31e-4 5.99967,-2.686432 6,-6 V 78 h 32 v 148 h -100 z m 43,24.50195 c -1.241,1.4e-4 -2.35318,0.76367 -2.79883,1.92188 l -19.99804,51.99414 c -0.7555,1.9647 0.69387,4.07576 2.79882,4.07617 h 16.43555 l -8.39258,48.48242 c -0.55029,3.18827 3.63986,4.86839 5.44531,2.1836 l 42.9961,-63.99219 c 1.33806,-1.99271 -0.09,-4.67139 -2.49024,-4.67188 l -17.5664,0.002 14.35156,-35.88282 c 0.78708,-1.97032 -0.66345,-4.11126 -2.78516,-4.11132 z M 103.5,238 h 4 v 7 h -4 z m 8,0 h 4 v 7 h -4 z m 24,0 h 4 v 7 h -4 z m 8,0 h 4 v 7 h -4 z m 8,0 h 4 v 7 h -4 z m 8,0 h 4 v 7 h -4 z m 8,0 h 4 v 7 h -4 z m 8,0 h 4 v 7 h -4 z m 8,0 h 4 v 7 h -4 z m 8,0 h 4 v 7 h -4 z m 8,0 h 4 v 7 h -4 z m 8,0 h 4 v 7 h -4 z" /></g><metadata
     id="metadata134"><rdf:RDF><cc:Work
         rdf:about=""><cc:license
           rdf:resource="http://scripts.sil.org/OFL" /></cc:Work><cc:License
         rdf:about="http://scripts.sil.org/OFL"><cc:permits
           rdf:resource="http://scripts.sil.org/pub/OFL/Reproduction" /><cc:permits
           rdf:resource="http://scripts.sil.org/pub/OFL/Distribution" /><cc:permits
           rdf:resource="http://scripts.sil.org/pub/OFL/Embedding" /><cc:permits
           rdf:resource="http://scripts.sil.org/pub/OFL/DerivativeWorks" /><cc:requires
           rdf:resource="http://scripts.sil.org/pub/OFL/Notice" /><cc:requires
           rdf:resource="http://scripts.sil.org/pub/OFL/Attribution" /><cc:requires
           rdf:resource="http://scripts.sil.org/pub/OFL/ShareAlike" /><cc:requires
           rdf:resource="http://scripts.sil.org/pub/OFL/DerivativeRenaming" /><cc:requires
           rdf:resource="http://scripts.sil.org/pub/OFL/BundlingWhenSelling" /></cc:License></rdf:RDF></metadata></svg>
