<?xml version="1.0" encoding="UTF-8" standalone="no"?>
<!-- Created with Inkscape (http://www.inkscape.org/) -->

<svg
   width="246"
   height="246"
   viewBox="0 0 246 246"
   version="1.1"
   id="svg5"
   inkscape:version="1.2.2 (732a01da63, 2022-12-09)"
   sodipodi:docname="DriveHotspot.svg"
   xml:space="preserve"
   xmlns:inkscape="http://www.inkscape.org/namespaces/inkscape"
   xmlns:sodipodi="http://sodipodi.sourceforge.net/DTD/sodipodi-0.dtd"
   xmlns="http://www.w3.org/2000/svg"
   xmlns:svg="http://www.w3.org/2000/svg"
   xmlns:rdf="http://www.w3.org/1999/02/22-rdf-syntax-ns#"
   xmlns:cc="http://creativecommons.org/ns#"><sodipodi:namedview
     id="namedview7"
     pagecolor="#ffffff"
     bordercolor="#000000"
     borderopacity="0.25"
     inkscape:showpageshadow="2"
     inkscape:pageopacity="0.0"
     inkscape:pagecheckerboard="true"
     inkscape:deskcolor="#d1d1d1"
     inkscape:document-units="px"
     showgrid="true"
     showguides="true"
     inkscape:zoom="2.8284271"
     inkscape:cx="117.73328"
     inkscape:cy="105.00536"
     inkscape:window-width="1920"
     inkscape:window-height="1027"
     inkscape:window-x="-8"
     inkscape:window-y="-8"
     inkscape:window-maximized="1"
     inkscape:current-layer="layer1"><inkscape:grid
       type="xygrid"
       id="grid132"
       empspacing="8"
       dotted="true"
       originx="-4"
       originy="0" /><sodipodi:guide
       position="122,304"
       orientation="1,0"
       id="guide136"
       inkscape:locked="false" /><sodipodi:guide
       position="130,128"
       orientation="0,-1"
       id="guide138"
       inkscape:locked="false" /></sodipodi:namedview><defs
     id="defs2" /><g
     inkscape:label="Layer 1"
     inkscape:groupmode="layer"
     id="layer1"
     transform="translate(-22,-2)"><path
       id="rect9586"
       style="fill:#000000;stroke:none;stroke-width:6;stroke-linecap:round;paint-order:stroke fill markers;fill-opacity:1"
       d="M 66.5 2 C 54.43344 2 45.820696 12.222929 44.539062 23.310547 L 23.482422 205.48242 C 23.374011 205.99441 23.370549 206.53651 23.298828 207.06055 L 23.039062 209.31055 A 6 6 0 0 0 23.0625 209.39062 C 23.056631 209.59781 23 209.79145 23 210 L 23 226 C 23 238.08419 32.915807 248 45 248 L 245 248 C 257.08419 248 267 238.08419 267 226 L 267 210 C 267 209.86364 266.96148 209.73736 266.95898 209.60156 A 6 6 0 0 0 266.9707 209.40625 L 248.4707 23.40625 C 247.35373 12.176178 238.55974 2 226.5 2 L 66.5 2 z M 66.5 14 L 226.5 14 C 231.61422 14 235.94649 18.73418 236.5293 24.59375 L 252.93555 189.55078 C 250.46383 188.58159 247.80128 188 245 188 L 45 188 C 42.328378 188 39.793894 188.55384 37.417969 189.43945 L 56.460938 24.689453 C 57.151337 18.716702 61.392595 14 66.5 14 z M 135.40234 26.271484 C 134.30446 26.217835 133.24264 26.960483 133.33398 28 C 134.14223 37.205028 133.41084 63.586492 105.36133 95.103516 C 79.928722 124.33904 89.78231 146.79182 93.279297 152.87305 C 99.965226 164.52301 109.29267 171.36352 118.40039 175.35938 C 120.16766 176.13459 122.03122 174.45584 120.94922 173.06641 C 115.07627 165.52426 109.51443 152.83296 118.375 136.48828 C 133.15109 109.23202 142.14258 95.115234 142.14258 95.115234 C 142.14258 95.115234 146.92478 111.59039 159.88867 126.23828 C 172.36566 140.33586 179.19534 158.0656 168.18555 172.83594 C 167.15233 174.2222 168.97473 175.8585 170.73047 175.11719 C 184.35893 169.36478 199.64445 157.82511 201.36914 134.86328 C 202.00504 127.84681 201.05198 118.02481 196.2832 105.62891 C 190.15158 89.918205 182.61336 82.58569 178.25195 79.4375 C 176.94735 78.495678 174.91837 79.330321 175.02539 80.757812 C 176.2963 97.709641 168.56721 102.01296 164.16797 92.318359 C 162.41105 88.446179 161.38672 81.747916 161.38672 73.591797 C 161.38672 60.013308 156.61178 46.036196 146.08594 34.677734 C 143.34872 31.723959 140.14536 28.963077 136.4707 26.609375 C 136.13812 26.3963 135.7683 26.289368 135.40234 26.271484 z M 45 200 L 245 200 C 250.53266 200 254.77247 204.20766 254.93945 209.68945 L 255 210.29883 L 255 226 C 255 231.64377 250.64377 236 245 236 L 45 236 C 39.356228 236 35 231.64377 35 226 L 35 210.35156 L 35.099609 209.48828 C 35.369937 204.11154 39.539305 200 45 200 z M 63.5 206 C 54.636009 206 47.5 211.35201 47.5 218 C 47.5 224.64799 54.636009 230 63.5 230 L 191.5 230 C 200.36399 230 207.5 224.64799 207.5 218 C 207.5 211.35201 200.36399 206 191.5 206 L 63.5 206 z M 230.5 206 A 12 12 0 0 0 218.5 218 A 12 12 0 0 0 230.5 230 A 12 12 0 0 0 242.5 218 A 12 12 0 0 0 230.5 206 z " /><g
       style="fill:#000000"
       id="g142"
       transform="matrix(0.92384305,0,0,0.76229214,54.537436,26.269463)"><g
         id="g4"
         transform="matrix(0.31999871,0,0,0.31999871,3.9541991e-4,4.2412699e-4)">
	
</g></g></g><metadata
     id="metadata134"><rdf:RDF><cc:Work
         rdf:about=""><cc:license
           rdf:resource="http://scripts.sil.org/OFL" /></cc:Work><cc:License
         rdf:about="http://scripts.sil.org/OFL"><cc:permits
           rdf:resource="http://scripts.sil.org/pub/OFL/Reproduction" /><cc:permits
           rdf:resource="http://scripts.sil.org/pub/OFL/Distribution" /><cc:permits
           rdf:resource="http://scripts.sil.org/pub/OFL/Embedding" /><cc:permits
           rdf:resource="http://scripts.sil.org/pub/OFL/DerivativeWorks" /><cc:requires
           rdf:resource="http://scripts.sil.org/pub/OFL/Notice" /><cc:requires
           rdf:resource="http://scripts.sil.org/pub/OFL/Attribution" /><cc:requires
           rdf:resource="http://scripts.sil.org/pub/OFL/ShareAlike" /><cc:requires
           rdf:resource="http://scripts.sil.org/pub/OFL/DerivativeRenaming" /><cc:requires
           rdf:resource="http://scripts.sil.org/pub/OFL/BundlingWhenSelling" /></cc:License></rdf:RDF></metadata></svg>
