<?xml version="1.0" encoding="UTF-8" standalone="no"?>
<!-- Created with Inkscape (http://www.inkscape.org/) -->

<svg
   width="246"
   height="246"
   viewBox="0 0 246 246"
   version="1.1"
   id="svg5"
   inkscape:version="1.2.2 (732a01da63, 2022-12-09)"
   sodipodi:docname="DriveWaterPump.svg"
   xml:space="preserve"
   xmlns:inkscape="http://www.inkscape.org/namespaces/inkscape"
   xmlns:sodipodi="http://sodipodi.sourceforge.net/DTD/sodipodi-0.dtd"
   xmlns="http://www.w3.org/2000/svg"
   xmlns:svg="http://www.w3.org/2000/svg"
   xmlns:rdf="http://www.w3.org/1999/02/22-rdf-syntax-ns#"
   xmlns:cc="http://creativecommons.org/ns#"><sodipodi:namedview
     id="namedview7"
     pagecolor="#ffffff"
     bordercolor="#000000"
     borderopacity="0.25"
     inkscape:showpageshadow="2"
     inkscape:pageopacity="0.0"
     inkscape:pagecheckerboard="true"
     inkscape:deskcolor="#d1d1d1"
     inkscape:document-units="px"
     showgrid="true"
     showguides="true"
     inkscape:zoom="0.70710678"
     inkscape:cx="-563.5641"
     inkscape:cy="323.85491"
     inkscape:window-width="1920"
     inkscape:window-height="1027"
     inkscape:window-x="-8"
     inkscape:window-y="-8"
     inkscape:window-maximized="1"
     inkscape:current-layer="layer1"><inkscape:grid
       type="xygrid"
       id="grid132"
       empspacing="8"
       dotted="true"
       originx="-4"
       originy="0" /><sodipodi:guide
       position="122,225"
       orientation="1,0"
       id="guide136"
       inkscape:locked="false" /><sodipodi:guide
       position="130,128"
       orientation="0,-1"
       id="guide138"
       inkscape:locked="false" /></sodipodi:namedview><defs
     id="defs2" /><g
     inkscape:label="Layer 1"
     inkscape:groupmode="layer"
     id="layer1"
     transform="translate(-22,-2)"><path
       id="rect9586"
       style="fill:#000000;stroke:none;stroke-width:6;stroke-linecap:round;paint-order:stroke fill markers;fill-opacity:1"
       d="M 66.5 2 C 54.43344 2 45.820696 12.222929 44.539062 23.310547 L 23.482422 205.48242 C 23.374011 205.99441 23.370549 206.53651 23.298828 207.06055 L 23.039062 209.31055 A 6 6 0 0 0 23.0625 209.39062 C 23.056631 209.59781 23 209.79145 23 210 L 23 226 C 23 238.08419 32.915807 248 45 248 L 245 248 C 257.08419 248 267 238.08419 267 226 L 267 210 C 267 209.86364 266.96148 209.73736 266.95898 209.60156 A 6 6 0 0 0 266.9707 209.40625 L 248.4707 23.40625 C 247.35373 12.176178 238.55974 2 226.5 2 L 66.5 2 z M 66.5 14 L 226.5 14 C 231.61422 14 235.94649 18.73418 236.5293 24.59375 L 252.93555 189.55078 C 250.46383 188.58159 247.80128 188 245 188 L 45 188 C 42.328378 188 39.793894 188.55384 37.417969 189.43945 L 56.460938 24.689453 C 57.151337 18.716702 61.392595 14 66.5 14 z M 145.00586 21.191406 C 100.86829 21.191406 64.999999 57.057753 65 101.19531 C 64.999996 145.33288 100.86829 181.1875 145.00586 181.1875 C 189.14343 181.1875 224.99805 145.33288 224.99805 101.19531 C 224.99805 57.057754 189.14343 21.191406 145.00586 21.191406 z M 145.00586 28.8125 C 153.71147 28.8125 162.05373 30.347742 169.7793 33.15625 C 166.55141 35.042376 163.46585 37.092332 160.54492 39.294922 C 153.81592 44.367949 147.94258 50.240451 143.06836 56.691406 C 138.19462 63.14236 134.31979 70.17251 130.44531 77.203125 C 125.34908 74.008596 120.25373 70.814898 115.66992 66.767578 C 111.08612 62.720258 107.01487 57.81999 103.6543 52.197266 C 102.22821 49.811163 100.92887 47.29515 99.771484 44.662109 C 112.15712 34.744171 127.879 28.8125 145.00586 28.8125 z M 184.67969 40.630859 C 204.38057 53.554579 217.375 75.834736 217.375 101.19531 C 217.375 101.76384 217.36455 102.33113 217.35156 102.89648 C 214.65165 100.52078 211.84935 98.317584 208.95898 96.302734 C 202.04439 91.484167 194.63442 87.722405 186.98047 85.089844 C 179.32603 82.457296 171.42886 80.95389 163.53125 79.449219 C 165.0006 73.625581 166.4691 67.802282 168.91016 62.201172 C 171.35071 56.600062 174.76452 51.220099 179.08398 46.292969 C 180.80626 44.328565 182.67604 42.438433 184.67969 40.630859 z M 88.132812 56.382812 C 88.952748 60.234276 89.995458 63.991367 91.255859 67.628906 C 94.010965 75.583541 97.791705 82.972343 102.43359 89.591797 C 107.07499 96.211743 112.5792 102.06047 118.08203 107.91016 C 113.46328 111.76001 108.84425 115.60975 103.57031 118.70898 C 98.296871 121.8087 92.367454 124.15922 85.970703 125.61133 C 83.179539 126.24484 80.299277 126.70502 77.347656 126.98828 C 74.297726 118.97881 72.623046 110.28559 72.623047 101.19531 C 72.623047 84.262453 78.41684 68.702693 88.132812 56.382812 z M 146.28516 83.996094 C 155.80029 83.996094 163.51367 91.695747 163.51367 101.19141 C 163.51367 110.68706 155.80029 118.38477 146.28516 118.38477 C 136.77003 118.38477 129.05664 110.68706 129.05664 101.19141 C 129.05664 91.695747 136.77003 83.996094 146.28516 83.996094 z M 146.28516 91.365234 C 140.8478 91.365234 136.44141 95.765179 136.44141 101.19141 C 136.44141 106.61763 140.8478 111.01562 146.28516 111.01562 C 151.72251 111.01562 156.13086 106.61763 156.13086 101.19141 C 156.13086 95.765179 151.72251 91.365234 146.28516 91.365234 z M 182.89453 111.02734 C 185.15899 111.02052 187.43014 111.10074 189.71484 111.32031 C 195.80688 111.90636 201.98706 113.48351 208.01758 116.06055 C 210.38333 117.07152 212.72605 118.23803 215.03125 119.55469 C 208.64383 144.05336 189.76665 163.46137 165.58398 170.60156 C 167.15126 167.0687 168.48927 163.48363 169.5918 159.86914 C 172.04762 151.81723 173.34107 143.62091 173.48438 135.54297 C 173.62811 127.46454 172.6214 119.50547 171.61523 111.54492 C 175.3677 111.29192 179.12044 111.03872 182.89453 111.02734 z M 143.52539 129.13477 C 145.76708 134.70838 148.00739 140.28093 149.33203 146.24414 C 150.65622 152.20729 151.0634 158.55986 150.4707 165.08008 C 150.21926 167.84328 149.78896 170.63778 149.17578 173.44336 C 147.79547 173.52149 146.40601 173.56445 145.00586 173.56445 C 119.96251 173.56445 97.918151 160.89706 84.925781 141.60938 C 88.930068 142.03978 92.911251 142.21988 96.845703 142.14648 C 105.27789 141.98928 113.48987 140.68609 121.23242 138.32617 C 128.97547 135.96625 136.24998 132.5503 143.52539 129.13477 z M 45 200 L 245 200 C 250.53266 200 254.77247 204.20766 254.93945 209.68945 L 255 210.29883 L 255 226 C 255 231.64377 250.64377 236 245 236 L 45 236 C 39.356228 236 35 231.64377 35 226 L 35 210.35156 L 35.099609 209.48828 C 35.369937 204.11154 39.539305 200 45 200 z M 63.5 206 C 54.636009 206 47.5 211.35201 47.5 218 C 47.5 224.64799 54.636009 230 63.5 230 L 191.5 230 C 200.36399 230 207.5 224.64799 207.5 218 C 207.5 211.35201 200.36399 206 191.5 206 L 63.5 206 z M 230.5 206 A 12 12 0 0 0 218.5 218 A 12 12 0 0 0 230.5 230 A 12 12 0 0 0 242.5 218 A 12 12 0 0 0 230.5 206 z " /><g
       id="g247"
       transform="matrix(7.3226536,0,0,7.3226536,65.000001,21.190464)" /></g><metadata
     id="metadata134"><rdf:RDF><cc:Work
         rdf:about=""><cc:license
           rdf:resource="http://scripts.sil.org/OFL" /></cc:Work><cc:License
         rdf:about="http://scripts.sil.org/OFL"><cc:permits
           rdf:resource="http://scripts.sil.org/pub/OFL/Reproduction" /><cc:permits
           rdf:resource="http://scripts.sil.org/pub/OFL/Distribution" /><cc:permits
           rdf:resource="http://scripts.sil.org/pub/OFL/Embedding" /><cc:permits
           rdf:resource="http://scripts.sil.org/pub/OFL/DerivativeWorks" /><cc:requires
           rdf:resource="http://scripts.sil.org/pub/OFL/Notice" /><cc:requires
           rdf:resource="http://scripts.sil.org/pub/OFL/Attribution" /><cc:requires
           rdf:resource="http://scripts.sil.org/pub/OFL/ShareAlike" /><cc:requires
           rdf:resource="http://scripts.sil.org/pub/OFL/DerivativeRenaming" /><cc:requires
           rdf:resource="http://scripts.sil.org/pub/OFL/BundlingWhenSelling" /></cc:License></rdf:RDF></metadata></svg>
