<?xml version="1.0" encoding="UTF-8" standalone="no"?>
<!-- Created with Inkscape (http://www.inkscape.org/) -->

<svg
   width="246"
   height="246"
   viewBox="0 0 246 246"
   version="1.1"
   id="svg5"
   inkscape:version="1.2.2 (732a01da63, 2022-12-09)"
   sodipodi:docname="DriveTemp.svg"
   xml:space="preserve"
   xmlns:inkscape="http://www.inkscape.org/namespaces/inkscape"
   xmlns:sodipodi="http://sodipodi.sourceforge.net/DTD/sodipodi-0.dtd"
   xmlns="http://www.w3.org/2000/svg"
   xmlns:svg="http://www.w3.org/2000/svg"
   xmlns:rdf="http://www.w3.org/1999/02/22-rdf-syntax-ns#"
   xmlns:cc="http://creativecommons.org/ns#"><sodipodi:namedview
     id="namedview7"
     pagecolor="#ffffff"
     bordercolor="#000000"
     borderopacity="0.25"
     inkscape:showpageshadow="2"
     inkscape:pageopacity="0.0"
     inkscape:pagecheckerboard="true"
     inkscape:deskcolor="#d1d1d1"
     inkscape:document-units="px"
     showgrid="true"
     showguides="true"
     inkscape:zoom="1.4142136"
     inkscape:cx="-12.727922"
     inkscape:cy="143.54268"
     inkscape:window-width="1920"
     inkscape:window-height="1027"
     inkscape:window-x="-8"
     inkscape:window-y="-8"
     inkscape:window-maximized="1"
     inkscape:current-layer="layer1"><inkscape:grid
       type="xygrid"
       id="grid132"
       empspacing="8"
       dotted="true"
       originx="0"
       originy="0" /><sodipodi:guide
       position="123,252"
       orientation="1,0"
       id="guide136"
       inkscape:locked="false" /><sodipodi:guide
       position="130,128"
       orientation="0,-1"
       id="guide138"
       inkscape:locked="false" /></sodipodi:namedview><defs
     id="defs2" /><g
     inkscape:label="Layer 1"
     inkscape:groupmode="layer"
     id="layer1"
     transform="translate(-22,-2)"><path
       id="rect9586"
       style="fill:#7f7f7f7f;stroke:none;stroke-width:6;stroke-linecap:round;paint-order:stroke fill markers;fill-opacity:1"
       d="M 66.5 2 C 54.43344 2 45.820696 12.222929 44.539062 23.310547 L 23.482422 205.48242 C 23.374011 205.99441 23.370549 206.53651 23.298828 207.06055 L 23.039062 209.31055 A 6 6 0 0 0 23.0625 209.39062 C 23.056631 209.59781 23 209.79145 23 210 L 23 226 C 23 238.08419 32.915807 248 45 248 L 245 248 C 257.08419 248 267 238.08419 267 226 L 267 210 C 267 209.86364 266.96148 209.73736 266.95898 209.60156 A 6 6 0 0 0 266.9707 209.40625 L 248.4707 23.40625 C 247.35373 12.176178 238.55974 2 226.5 2 L 66.5 2 z M 66.5 14 L 226.5 14 C 231.61422 14 235.94649 18.73418 236.5293 24.59375 L 252.93555 189.55078 C 250.46383 188.58159 247.80128 188 245 188 L 45 188 C 42.328378 188 39.793894 188.55384 37.417969 189.43945 L 56.460938 24.689453 C 57.151337 18.716702 61.392595 14 66.5 14 z M 135.42188 25.134766 C 131.80481 25.134766 128.54844 26.93797 126.83398 29.558594 C 125.11954 32.179217 124.64648 35.227914 124.64648 38.304688 L 124.64648 114.93164 L 124.64648 132.52344 C 117.67962 138.2069 114.46883 145.57142 115.07617 154.68164 A 3.5922293 3.5922293 0 0 0 115.11719 155.0332 C 116.46476 163.11864 120.8183 168.88058 126.4043 172.19727 C 131.99028 175.51394 138.59452 176.5918 145 176.5918 C 151.40549 176.5918 158.00972 175.51394 163.5957 172.19727 C 169.1817 168.88058 173.53524 163.11864 174.88281 155.0332 A 3.5922293 3.5922293 0 0 0 174.92383 154.68164 C 175.5313 145.5697 172.31576 138.2186 165.35352 132.52539 L 165.35352 114.93164 L 165.35352 38.304688 C 165.35352 35.22791 164.88047 32.179215 163.16602 29.558594 C 161.45155 26.937971 158.1952 25.134766 154.57812 25.134766 L 135.42188 25.134766 z M 135.42188 32.318359 L 154.57812 32.318359 C 156.26744 32.318359 156.60348 32.650252 157.1543 33.492188 C 157.70511 34.334124 158.16992 36.075093 158.16992 38.304688 L 158.16992 49.080078 L 140.21094 49.080078 A 3.5918701 3.5918701 0 0 0 136.61914 52.671875 A 3.5918701 3.5918701 0 0 0 140.21094 56.263672 L 158.16992 56.263672 L 158.16992 73.025391 L 140.21094 73.025391 A 3.5918701 3.5918701 0 0 0 136.61914 76.617188 A 3.5918701 3.5918701 0 0 0 140.21094 80.210938 L 158.16992 80.210938 L 158.16992 96.972656 L 140.21094 96.972656 A 3.5918701 3.5918701 0 0 0 136.61914 100.56445 A 3.5918701 3.5918701 0 0 0 140.21094 104.15625 L 158.16992 104.15625 L 158.16992 114.93164 L 158.16992 134.08789 A 3.5922293 3.5922293 0 0 0 159.66797 137.00586 C 166.35007 141.79947 168.25169 146.00506 167.75391 154.01953 C 166.68229 160.18488 163.88039 163.67264 159.92773 166.01953 C 155.93542 168.38997 150.56739 169.4082 145 169.4082 C 139.43262 169.4082 134.06458 168.38997 130.07227 166.01953 C 126.11961 163.67264 123.31771 160.18488 122.24609 154.01953 C 121.74827 146.00444 123.64866 141.78267 130.32617 137.00977 A 3.5922293 3.5922293 0 0 0 131.83008 134.08789 L 131.83008 114.93164 L 131.83008 38.304688 C 131.83008 36.075088 132.29489 34.334123 132.8457 33.492188 C 133.39651 32.650253 133.73258 32.318359 135.42188 32.318359 z M 45 200 L 245 200 C 250.53266 200 254.77247 204.20766 254.93945 209.68945 L 255 210.29883 L 255 226 C 255 231.64377 250.64377 236 245 236 L 45 236 C 39.356228 236 35 231.64377 35 226 L 35 210.35156 L 35.099609 209.48828 C 35.369937 204.11154 39.539305 200 45 200 z M 63.5 206 C 54.636009 206 47.5 211.35201 47.5 218 C 47.5 224.64799 54.636009 230 63.5 230 L 191.5 230 C 200.36399 230 207.5 224.64799 207.5 218 C 207.5 211.35201 200.36399 206 191.5 206 L 63.5 206 z M 230.5 206 A 12 12 0 0 0 218.5 218 A 12 12 0 0 0 230.5 230 A 12 12 0 0 0 242.5 218 A 12 12 0 0 0 230.5 206 z " /></g><metadata
     id="metadata134"><rdf:RDF><cc:Work
         rdf:about=""><cc:license
           rdf:resource="http://scripts.sil.org/OFL" /></cc:Work><cc:License
         rdf:about="http://scripts.sil.org/OFL"><cc:permits
           rdf:resource="http://scripts.sil.org/pub/OFL/Reproduction" /><cc:permits
           rdf:resource="http://scripts.sil.org/pub/OFL/Distribution" /><cc:permits
           rdf:resource="http://scripts.sil.org/pub/OFL/Embedding" /><cc:permits
           rdf:resource="http://scripts.sil.org/pub/OFL/DerivativeWorks" /><cc:requires
           rdf:resource="http://scripts.sil.org/pub/OFL/Notice" /><cc:requires
           rdf:resource="http://scripts.sil.org/pub/OFL/Attribution" /><cc:requires
           rdf:resource="http://scripts.sil.org/pub/OFL/ShareAlike" /><cc:requires
           rdf:resource="http://scripts.sil.org/pub/OFL/DerivativeRenaming" /><cc:requires
           rdf:resource="http://scripts.sil.org/pub/OFL/BundlingWhenSelling" /></cc:License></rdf:RDF></metadata></svg>
