<?xml version="1.0" encoding="UTF-8" standalone="no"?>
<!-- Created with Inkscape (http://www.inkscape.org/) -->

<svg
   width="246"
   height="246"
   viewBox="0 0 246 246"
   version="1.1"
   id="svg5"
   inkscape:version="1.2.2 (732a01da63, 2022-12-09)"
   sodipodi:docname="DriveFan.svg"
   xml:space="preserve"
   xmlns:inkscape="http://www.inkscape.org/namespaces/inkscape"
   xmlns:sodipodi="http://sodipodi.sourceforge.net/DTD/sodipodi-0.dtd"
   xmlns="http://www.w3.org/2000/svg"
   xmlns:svg="http://www.w3.org/2000/svg"
   xmlns:rdf="http://www.w3.org/1999/02/22-rdf-syntax-ns#"
   xmlns:cc="http://creativecommons.org/ns#"><sodipodi:namedview
     id="namedview7"
     pagecolor="#ffffff"
     bordercolor="#000000"
     borderopacity="0.25"
     inkscape:showpageshadow="2"
     inkscape:pageopacity="0.0"
     inkscape:pagecheckerboard="true"
     inkscape:deskcolor="#d1d1d1"
     inkscape:document-units="px"
     showgrid="true"
     showguides="true"
     inkscape:zoom="2"
     inkscape:cx="104"
     inkscape:cy="87.5"
     inkscape:window-width="1920"
     inkscape:window-height="1027"
     inkscape:window-x="-8"
     inkscape:window-y="-8"
     inkscape:window-maximized="1"
     inkscape:current-layer="layer1"><inkscape:grid
       type="xygrid"
       id="grid132"
       empspacing="8"
       dotted="true"
       originx="0"
       originy="0" /><sodipodi:guide
       position="123,254"
       orientation="1,0"
       id="guide136"
       inkscape:locked="false" /><sodipodi:guide
       position="130,128"
       orientation="0,-1"
       id="guide138"
       inkscape:locked="false" /></sodipodi:namedview><defs
     id="defs2" /><g
     inkscape:label="Layer 1"
     inkscape:groupmode="layer"
     id="layer1"
     transform="translate(-22,-2)"><path
       id="rect9586"
       style="fill:#7f7f7f7f;stroke:none;stroke-width:6;stroke-linecap:round;paint-order:stroke fill markers;fill-opacity:1"
       d="M 66.5 2 C 54.43344 2 45.820696 12.222929 44.539062 23.310547 L 23.482422 205.48242 C 23.374011 205.99441 23.370549 206.53651 23.298828 207.06055 L 23.039062 209.31055 A 6 6 0 0 0 23.0625 209.39062 C 23.056631 209.59781 23 209.79145 23 210 L 23 226 C 23 238.08419 32.915807 248 45 248 L 245 248 C 257.08419 248 267 238.08419 267 226 L 267 210 C 267 209.86364 266.96148 209.73736 266.95898 209.60156 A 6 6 0 0 0 266.9707 209.40625 L 248.4707 23.40625 C 247.35373 12.176178 238.55974 2 226.5 2 L 66.5 2 z M 66.5 14 L 226.5 14 C 231.61422 14 235.94649 18.73418 236.5293 24.59375 L 252.93555 189.55078 C 250.46383 188.58159 247.80128 188 245 188 L 45 188 C 42.328378 188 39.793894 188.55384 37.417969 189.43945 L 56.460938 24.689453 C 57.151337 18.716702 61.392595 14 66.5 14 z M 158.33984 33.234375 C 152.85191 33.419666 147.94322 36.357413 146.17188 41.152344 C 142.25636 51.724187 139.46003 62.926925 139.33789 73.755859 C 145.2174 72.541248 151.28117 73.270885 156.64648 75.693359 C 164.16575 65.592517 174.55972 56.674278 186.12305 50.638672 C 187.65281 49.840065 189.33537 47.116252 185.97656 44.617188 C 179.33858 39.679793 171.71429 36.434958 163.92578 34 C 162.06283 33.41724 160.16916 33.172611 158.33984 33.234375 z M 118.79297 37.021484 C 118.11248 36.96339 117.29881 37.097148 116.33984 37.511719 C 108.74095 40.793868 102.12134 45.772203 96.113281 51.302734 C 90.374804 56.588655 89.077653 65.011918 93.427734 70.251953 C 100.63423 78.926639 108.93011 86.951236 118.24805 92.472656 C 120.13849 86.77343 123.80345 81.882591 128.58203 78.447266 C 123.59595 66.890577 121.06851 53.423672 121.61914 40.392578 C 121.67405 39.103319 120.83444 37.195768 118.79297 37.021484 z M 198.98633 72.126953 C 198.56824 72.149201 198.14837 72.195693 197.72852 72.267578 C 186.61157 74.167095 175.51463 77.342877 166.07422 82.650391 C 170.06936 87.137705 172.46728 92.757097 173.05469 98.615234 C 185.56003 100.07412 198.482 104.62049 209.48828 111.61328 C 210.94449 112.53706 214.14346 112.63499 214.62695 108.47461 C 215.58753 100.25776 214.59121 92.036138 212.80469 84.070312 C 211.19878 76.92941 205.25771 71.79324 198.98633 72.126953 z M 144.99609 80.955078 C 133.7263 80.955078 124.5918 90.096003 124.5918 101.36523 C 124.5918 112.63784 133.7263 121.77539 144.99609 121.77539 C 156.27162 121.77539 165.41211 112.63784 165.41211 101.36523 C 165.41245 90.096003 156.27196 80.955078 144.99609 80.955078 z M 78.373047 90.607422 C 77.037564 90.718883 75.67523 91.655621 75.373047 94.255859 C 74.41281 102.47203 75.408573 110.69467 77.201172 118.66016 C 78.908072 126.27712 85.553539 131.61306 92.271484 130.46289 C 103.38809 128.56304 114.48604 125.38725 123.92578 120.08008 C 119.93064 115.59276 117.53272 109.97337 116.94531 104.11523 C 104.43997 102.65568 91.517662 98.110312 80.511719 91.117188 C 79.965639 90.77077 79.174336 90.540545 78.373047 90.607422 z M 171.75195 110.26172 C 169.86151 115.95723 166.19655 120.84855 161.41797 124.2832 C 166.40438 135.84023 168.93149 149.30646 168.38086 162.33789 C 168.30764 164.0569 169.82406 166.87703 173.66602 165.21875 C 181.25883 161.93626 187.88507 156.95826 193.88672 151.42773 C 199.62519 146.14181 200.92235 137.71855 196.57227 132.47852 C 189.37184 123.80687 181.06989 115.7801 171.75195 110.26172 z M 133.35938 127.03906 C 125.84652 137.13721 115.45233 146.0574 103.88867 152.0957 C 102.35924 152.89127 100.67669 155.61422 104.03516 158.11328 C 110.67347 163.05068 118.29777 166.29517 126.08594 168.73047 C 133.53772 171.06117 141.47805 167.97137 143.83984 161.57812 C 147.75535 151.00628 150.55169 139.80853 150.67383 128.97656 C 144.79466 130.19117 138.72503 129.45884 133.35938 127.03906 z M 45 200 L 245 200 C 250.53266 200 254.77247 204.20766 254.93945 209.68945 L 255 210.29883 L 255 226 C 255 231.64377 250.64377 236 245 236 L 45 236 C 39.356228 236 35 231.64377 35 226 L 35 210.35156 L 35.099609 209.48828 C 35.369937 204.11154 39.539305 200 45 200 z M 63.5 206 C 54.636009 206 47.5 211.35201 47.5 218 C 47.5 224.64799 54.636009 230 63.5 230 L 191.5 230 C 200.36399 230 207.5 224.64799 207.5 218 C 207.5 211.35201 200.36399 206 191.5 206 L 63.5 206 z M 230.5 206 A 12 12 0 0 0 218.5 218 A 12 12 0 0 0 230.5 230 A 12 12 0 0 0 242.5 218 A 12 12 0 0 0 230.5 206 z " /><g
       id="g5169"
       transform="matrix(0.33739896,0,0,0.33739236,58.213554,12.721519)">
	
	
	
	
	
	
	
	
</g></g><metadata
     id="metadata134"><rdf:RDF><cc:Work
         rdf:about=""><cc:license
           rdf:resource="http://scripts.sil.org/OFL" /></cc:Work><cc:License
         rdf:about="http://scripts.sil.org/OFL"><cc:permits
           rdf:resource="http://scripts.sil.org/pub/OFL/Reproduction" /><cc:permits
           rdf:resource="http://scripts.sil.org/pub/OFL/Distribution" /><cc:permits
           rdf:resource="http://scripts.sil.org/pub/OFL/Embedding" /><cc:permits
           rdf:resource="http://scripts.sil.org/pub/OFL/DerivativeWorks" /><cc:requires
           rdf:resource="http://scripts.sil.org/pub/OFL/Notice" /><cc:requires
           rdf:resource="http://scripts.sil.org/pub/OFL/Attribution" /><cc:requires
           rdf:resource="http://scripts.sil.org/pub/OFL/ShareAlike" /><cc:requires
           rdf:resource="http://scripts.sil.org/pub/OFL/DerivativeRenaming" /><cc:requires
           rdf:resource="http://scripts.sil.org/pub/OFL/BundlingWhenSelling" /></cc:License></rdf:RDF></metadata><style
     type="text/css"
     id="style5151">
	.st0{fill:#7f7f7f7f;}
</style></svg>
