<?xml version="1.0" encoding="UTF-8" standalone="no"?>
<!-- Created with Inkscape (http://www.inkscape.org/) -->

<svg
   width="232"
   height="232"
   viewBox="0 0 232 232"
   version="1.1"
   id="svg5"
   inkscape:version="1.2.2 (732a01da63, 2022-12-09)"
   sodipodi:docname="RAM.svg"
   xmlns:inkscape="http://www.inkscape.org/namespaces/inkscape"
   xmlns:sodipodi="http://sodipodi.sourceforge.net/DTD/sodipodi-0.dtd"
   xmlns="http://www.w3.org/2000/svg"
   xmlns:svg="http://www.w3.org/2000/svg"
   xmlns:rdf="http://www.w3.org/1999/02/22-rdf-syntax-ns#"
   xmlns:cc="http://creativecommons.org/ns#">
  <sodipodi:namedview
     id="namedview7"
     pagecolor="#ffffff"
     bordercolor="#000000"
     borderopacity="0.25"
     inkscape:showpageshadow="2"
     inkscape:pageopacity="0.0"
     inkscape:pagecheckerboard="true"
     inkscape:deskcolor="#d1d1d1"
     inkscape:document-units="px"
     showgrid="true"
     showguides="true"
     inkscape:zoom="3.0182099"
     inkscape:cx="102.37857"
     inkscape:cy="110.99294"
     inkscape:window-width="1920"
     inkscape:window-height="1027"
     inkscape:window-x="-8"
     inkscape:window-y="-8"
     inkscape:window-maximized="1"
     inkscape:current-layer="layer1">
    <inkscape:grid
       type="xygrid"
       id="grid132"
       empspacing="8"
       dotted="true"
       originx="-10"
       originy="-18" />
    <sodipodi:guide
       position="118,170"
       orientation="1,0"
       id="guide136"
       inkscape:locked="false" />
    <sodipodi:guide
       position="150,122"
       orientation="0,-1"
       id="guide138"
       inkscape:locked="false" />
  </sodipodi:namedview>
  <defs
     id="defs2" />
  <g
     inkscape:label="Layer 1"
     inkscape:groupmode="layer"
     id="layer1"
     transform="translate(-10,-18)">
    <path
       id="path14"
       style="color:#000000;fill:#000000;stroke-linecap:round;stroke-linejoin:round;-inkscape-stroke:none"
       d="M 16 24 A 6.0006 6.0006 0 0 0 10 30 L 10 238 A 6.0006 6.0006 0 0 0 16 244 L 40 244 A 6.0006 6.0006 0 0 0 46 238 L 46 236 L 50 236 L 50 238 A 6.0006 6.0006 0 0 0 56 244 L 96 244 A 6.0006 6.0006 0 0 0 102 238 L 102 232 L 112 232 A 2.0002 2.0002 0 0 0 114 230 L 114 222 L 114 214 L 114 206 L 114 198 L 114 190 L 114 182 L 114 174 L 114 166 L 114 158 L 114 150 L 114 142 A 2.0002 2.0002 0 0 0 112 140 L 102 140 L 102 128 L 112 128 A 2.0002 2.0002 0 0 0 114 126 L 114 118 L 114 110 L 114 102 L 114 94 L 114 86 L 114 78 L 114 70 L 114 62 L 114 54 L 114 46 L 114 38 A 2.0002 2.0002 0 0 0 112 36 L 102 36 L 102 30 A 6.0006 6.0006 0 0 0 96 24 L 56 24 A 6.0006 6.0006 0 0 0 50 30 L 50 32 L 46 32 L 46 30 A 6.0006 6.0006 0 0 0 40 24 L 16 24 z M 144 24 A 6.0006 6.0006 0 0 0 138 30 L 138 238 A 6.0006 6.0006 0 0 0 144 244 L 168 244 A 6.0006 6.0006 0 0 0 174 238 L 174 236 L 178 236 L 178 238 A 6.0006 6.0006 0 0 0 184 244 L 224 244 A 6.0006 6.0006 0 0 0 230 238 L 230 232 L 240 232 A 2.0002 2.0002 0 0 0 242 230 L 242 222 L 242 214 L 242 206 L 242 198 L 242 190 L 242 182 L 242 174 L 242 166 L 242 158 L 242 150 L 242 142 A 2.0002 2.0002 0 0 0 240 140 L 230 140 L 230 128 L 240 128 A 2.0002 2.0002 0 0 0 242 126 L 242 118 L 242 110 L 242 102 L 242 94 L 242 86 L 242 78 L 242 70 L 242 62 L 242 54 L 242 46 L 242 38 A 2.0002 2.0002 0 0 0 240 36 L 230 36 L 230 30 A 6.0006 6.0006 0 0 0 224 24 L 184 24 A 6.0006 6.0006 0 0 0 178 30 L 178 32 L 174 32 L 174 30 A 6.0006 6.0006 0 0 0 168 24 L 144 24 z M 22 36 L 34 36 L 34 38 A 6.0006 6.0006 0 0 0 40 44 L 56 44 A 6.0006 6.0006 0 0 0 62 38 L 62 36 L 90 36 L 90 232 L 62 232 L 62 230 A 6.0006 6.0006 0 0 0 56 224 L 40 224 A 6.0006 6.0006 0 0 0 34 230 L 34 232 L 22 232 L 22 36 z M 150 36 L 162 36 L 162 38 A 6.0006 6.0006 0 0 0 168 44 L 184 44 A 6.0006 6.0006 0 0 0 190 38 L 190 36 L 218 36 L 218 232 L 190 232 L 190 230 A 6.0006 6.0006 0 0 0 184 224 L 168 224 A 6.0006 6.0006 0 0 0 162 230 L 162 232 L 150 232 L 150 36 z M 102 40 L 110 40 L 110 44 L 102 44 L 102 40 z M 230 40 L 238 40 L 238 44 L 230 44 L 230 40 z M 102 48 L 110 48 L 110 52 L 102 52 L 102 48 z M 230 48 L 238 48 L 238 52 L 230 52 L 230 48 z M 40 52 A 2.0002 2.0002 0 0 0 38 54 L 38 86 A 2.0002 2.0002 0 0 0 40 88 L 72 88 A 2.0002 2.0002 0 0 0 74 86 L 74 54 A 2.0002 2.0002 0 0 0 72 52 L 40 52 z M 168 52 A 2.0002 2.0002 0 0 0 166 54 L 166 86 A 2.0002 2.0002 0 0 0 168 88 L 200 88 A 2.0002 2.0002 0 0 0 202 86 L 202 54 A 2.0002 2.0002 0 0 0 200 52 L 168 52 z M 42 56 L 70 56 L 70 84 L 42 84 L 42 56 z M 102 56 L 110 56 L 110 60 L 102 60 L 102 56 z M 170 56 L 198 56 L 198 84 L 170 84 L 170 56 z M 230 56 L 238 56 L 238 60 L 230 60 L 230 56 z M 102 64 L 110 64 L 110 68 L 102 68 L 102 64 z M 230 64 L 238 64 L 238 68 L 230 68 L 230 64 z M 102 72 L 110 72 L 110 76 L 102 76 L 102 72 z M 230 72 L 238 72 L 238 76 L 230 76 L 230 72 z M 102 80 L 110 80 L 110 84 L 102 84 L 102 80 z M 230 80 L 238 80 L 238 84 L 230 84 L 230 80 z M 102 88 L 110 88 L 110 92 L 102 92 L 102 88 z M 230 88 L 238 88 L 238 92 L 230 92 L 230 88 z M 40 92 A 2.0002 2.0002 0 0 0 38 94 L 38 126 A 2.0002 2.0002 0 0 0 40 128 L 72 128 A 2.0002 2.0002 0 0 0 74 126 L 74 94 A 2.0002 2.0002 0 0 0 72 92 L 40 92 z M 168 92 A 2.0002 2.0002 0 0 0 166 94 L 166 126 A 2.0002 2.0002 0 0 0 168 128 L 200 128 A 2.0002 2.0002 0 0 0 202 126 L 202 94 A 2.0002 2.0002 0 0 0 200 92 L 168 92 z M 42 96 L 70 96 L 70 124 L 42 124 L 42 96 z M 102 96 L 110 96 L 110 100 L 102 100 L 102 96 z M 170 96 L 198 96 L 198 124 L 170 124 L 170 96 z M 230 96 L 238 96 L 238 100 L 230 100 L 230 96 z M 102 104 L 110 104 L 110 108 L 102 108 L 102 104 z M 230 104 L 238 104 L 238 108 L 230 108 L 230 104 z M 102 112 L 110 112 L 110 116 L 102 116 L 102 112 z M 230 112 L 238 112 L 238 116 L 230 116 L 230 112 z M 102 120 L 110 120 L 110 124 L 102 124 L 102 120 z M 230 120 L 238 120 L 238 124 L 230 124 L 230 120 z M 40 140 A 2.0002 2.0002 0 0 0 38 142 L 38 174 A 2.0002 2.0002 0 0 0 40 176 L 72 176 A 2.0002 2.0002 0 0 0 74 174 L 74 142 A 2.0002 2.0002 0 0 0 72 140 L 40 140 z M 168 140 A 2.0002 2.0002 0 0 0 166 142 L 166 174 A 2.0002 2.0002 0 0 0 168 176 L 200 176 A 2.0002 2.0002 0 0 0 202 174 L 202 142 A 2.0002 2.0002 0 0 0 200 140 L 168 140 z M 42 144 L 70 144 L 70 172 L 42 172 L 42 144 z M 102 144 L 110 144 L 110 148 L 102 148 L 102 144 z M 170 144 L 198 144 L 198 172 L 170 172 L 170 144 z M 230 144 L 238 144 L 238 148 L 230 148 L 230 144 z M 102 152 L 110 152 L 110 156 L 102 156 L 102 152 z M 230 152 L 238 152 L 238 156 L 230 156 L 230 152 z M 102 160 L 110 160 L 110 164 L 102 164 L 102 160 z M 230 160 L 238 160 L 238 164 L 230 164 L 230 160 z M 102 168 L 110 168 L 110 172 L 102 172 L 102 168 z M 230 168 L 238 168 L 238 172 L 230 172 L 230 168 z M 102 176 L 110 176 L 110 180 L 102 180 L 102 176 z M 230 176 L 238 176 L 238 180 L 230 180 L 230 176 z M 40 180 A 2.0002 2.0002 0 0 0 38 182 L 38 214 A 2.0002 2.0002 0 0 0 40 216 L 72 216 A 2.0002 2.0002 0 0 0 74 214 L 74 182 A 2.0002 2.0002 0 0 0 72 180 L 40 180 z M 168 180 A 2.0002 2.0002 0 0 0 166 182 L 166 214 A 2.0002 2.0002 0 0 0 168 216 L 200 216 A 2.0002 2.0002 0 0 0 202 214 L 202 182 A 2.0002 2.0002 0 0 0 200 180 L 168 180 z M 42 184 L 70 184 L 70 212 L 42 212 L 42 184 z M 102 184 L 110 184 L 110 188 L 102 188 L 102 184 z M 170 184 L 198 184 L 198 212 L 170 212 L 170 184 z M 230 184 L 238 184 L 238 188 L 230 188 L 230 184 z M 102 192 L 110 192 L 110 196 L 102 196 L 102 192 z M 230 192 L 238 192 L 238 196 L 230 196 L 230 192 z M 102 200 L 110 200 L 110 204 L 102 204 L 102 200 z M 230 200 L 238 200 L 238 204 L 230 204 L 230 200 z M 102 208 L 110 208 L 110 212 L 102 212 L 102 208 z M 230 208 L 238 208 L 238 212 L 230 212 L 230 208 z M 102 216 L 110 216 L 110 220 L 102 220 L 102 216 z M 230 216 L 238 216 L 238 220 L 230 220 L 230 216 z M 102 224 L 110 224 L 110 228 L 102 228 L 102 224 z M 230 224 L 238 224 L 238 228 L 230 228 L 230 224 z " />
  </g>
  <metadata
     id="metadata134">
    <rdf:RDF>
      <cc:Work
         rdf:about="">
        <cc:license
           rdf:resource="http://scripts.sil.org/OFL" />
      </cc:Work>
      <cc:License
         rdf:about="http://scripts.sil.org/OFL">
        <cc:permits
           rdf:resource="http://scripts.sil.org/pub/OFL/Reproduction" />
        <cc:permits
           rdf:resource="http://scripts.sil.org/pub/OFL/Distribution" />
        <cc:permits
           rdf:resource="http://scripts.sil.org/pub/OFL/Embedding" />
        <cc:permits
           rdf:resource="http://scripts.sil.org/pub/OFL/DerivativeWorks" />
        <cc:requires
           rdf:resource="http://scripts.sil.org/pub/OFL/Notice" />
        <cc:requires
           rdf:resource="http://scripts.sil.org/pub/OFL/Attribution" />
        <cc:requires
           rdf:resource="http://scripts.sil.org/pub/OFL/ShareAlike" />
        <cc:requires
           rdf:resource="http://scripts.sil.org/pub/OFL/DerivativeRenaming" />
        <cc:requires
           rdf:resource="http://scripts.sil.org/pub/OFL/BundlingWhenSelling" />
      </cc:License>
    </rdf:RDF>
  </metadata>
</svg>
