<?xml version="1.0" encoding="UTF-8" standalone="no"?>
<!-- Created with Inkscape (http://www.inkscape.org/) -->

<svg
   width="232"
   height="232"
   viewBox="0 0 232 232"
   version="1.1"
   id="svg5"
   inkscape:version="1.2.2 (732a01da63, 2022-12-09)"
   sodipodi:docname="RAMFlow.svg"
   xml:space="preserve"
   xmlns:inkscape="http://www.inkscape.org/namespaces/inkscape"
   xmlns:sodipodi="http://sodipodi.sourceforge.net/DTD/sodipodi-0.dtd"
   xmlns="http://www.w3.org/2000/svg"
   xmlns:svg="http://www.w3.org/2000/svg"
   xmlns:rdf="http://www.w3.org/1999/02/22-rdf-syntax-ns#"
   xmlns:cc="http://creativecommons.org/ns#"><sodipodi:namedview
     id="namedview7"
     pagecolor="#ffffff"
     bordercolor="#000000"
     borderopacity="0.25"
     inkscape:showpageshadow="2"
     inkscape:pageopacity="0.0"
     inkscape:pagecheckerboard="true"
     inkscape:deskcolor="#d1d1d1"
     inkscape:document-units="px"
     showgrid="true"
     showguides="true"
     inkscape:zoom="1.509105"
     inkscape:cx="-2.3192555"
     inkscape:cy="135.84211"
     inkscape:window-width="1920"
     inkscape:window-height="1027"
     inkscape:window-x="-8"
     inkscape:window-y="-8"
     inkscape:window-maximized="1"
     inkscape:current-layer="layer1"><inkscape:grid
       type="xygrid"
       id="grid132"
       empspacing="8"
       dotted="true"
       originx="-10"
       originy="-18" /><sodipodi:guide
       position="118,170"
       orientation="1,0"
       id="guide136"
       inkscape:locked="false" /><sodipodi:guide
       position="150,122"
       orientation="0,-1"
       id="guide138"
       inkscape:locked="false" /></sodipodi:namedview><defs
     id="defs2" /><g
     inkscape:label="Layer 1"
     inkscape:groupmode="layer"
     id="layer1"
     transform="translate(-10,-18)"><path
       id="path20"
       style="color:#000000;fill:#7f7f7f7f;stroke-linecap:round;stroke-linejoin:round;-inkscape-stroke:none"
       d="M 16 24 C 12.686432 24.000331 10.000331 26.686432 10 30 L 10 238 C 10.000331 241.31357 12.686432 243.99967 16 244 L 40 244 C 43.313568 243.99967 45.999669 241.31357 46 238 L 46 236 L 50 236 L 50 238 C 50.000331 241.31357 52.686432 243.99967 56 244 L 96 244 C 99.313568 243.99967 101.99967 241.31357 102 238 L 102 232 L 112 232 C 113.10452 231.99989 113.99989 231.10452 114 230 L 114 222 L 114 214 L 114 206 L 114 198 L 114 190 L 114 182 L 114 174 L 114 166 L 114 158 L 114 150 L 114 142 C 113.99989 140.89548 113.10452 140.00011 112 140 L 102 140 L 102 128 L 112 128 C 113.10452 127.99989 113.99989 127.10452 114 126 L 114 118 L 114 110 L 114 102 L 114 94 L 114 86 L 114 78 L 114 70 L 114 62 L 114 54 L 114 46 L 114 38 C 113.99989 36.895477 113.10452 36.00011 112 36 L 102 36 L 102 30 C 101.99967 26.686432 99.313568 24.000331 96 24 L 56 24 C 52.686432 24.000331 50.000331 26.686432 50 30 L 50 32 L 46 32 L 46 30 C 45.999669 26.686432 43.313568 24.000331 40 24 L 16 24 z M 22 36 L 34 36 L 34 38 C 34.000331 41.313568 36.686432 43.999669 40 44 L 56 44 C 59.313568 43.999669 61.999669 41.313568 62 38 L 62 36 L 90 36 L 90 232 L 62 232 L 62 230 C 61.999669 226.68643 59.313568 224.00033 56 224 L 40 224 C 36.686432 224.00033 34.000331 226.68643 34 230 L 34 232 L 22 232 L 22 36 z M 102 40 L 110 40 L 110 44 L 102 44 L 102 40 z M 102 48 L 110 48 L 110 52 L 102 52 L 102 48 z M 40 52 C 38.895477 52.00011 38.00011 52.895477 38 54 L 38 86 C 38.00011 87.104523 38.895477 87.99989 40 88 L 72 88 C 73.104523 87.99989 73.99989 87.104523 74 86 L 74 54 C 73.99989 52.895477 73.104523 52.00011 72 52 L 40 52 z M 42 56 L 70 56 L 70 84 L 42 84 L 42 56 z M 102 56 L 110 56 L 110 60 L 102 60 L 102 56 z M 102 64 L 110 64 L 110 68 L 102 68 L 102 64 z M 102 72 L 110 72 L 110 76 L 102 76 L 102 72 z M 139.49023 75.251953 C 135.36466 75.251953 131.76253 77.395528 128.6875 79.285156 C 125.61246 81.174784 123.25195 83.060547 123.25195 83.060547 A 3.3210286 3.3210286 0 0 0 122.72461 87.726562 A 3.3210286 3.3210286 0 0 0 127.39062 88.253906 C 127.39062 88.253906 129.47443 86.596162 132.16406 84.943359 C 134.8537 83.290558 138.33507 81.892578 139.49023 81.892578 C 140.6454 81.892578 144.12676 83.290558 146.81641 84.943359 C 149.50604 86.596162 151.58984 88.253906 151.58984 88.253906 C 151.58984 88.253906 153.95035 90.139669 157.02539 92.029297 C 160.10043 93.918925 163.70449 96.0625 167.83008 96.0625 C 171.95565 96.0625 175.55974 93.918925 178.63477 92.029297 C 181.70981 90.139669 184.07031 88.253906 184.07031 88.253906 C 184.07031 88.253906 186.15411 86.596162 188.84375 84.943359 C 191.53339 83.290558 195.01474 81.892578 196.16992 81.892578 C 197.32508 81.892578 200.80645 83.290558 203.49609 84.943359 C 206.18573 86.596162 208.26953 88.253906 208.26953 88.253906 C 208.26953 88.253906 210.63006 90.139669 213.70508 92.029297 C 216.78012 93.918925 220.38419 96.0625 224.50977 96.0625 C 228.63533 96.0625 232.23747 93.918925 235.3125 92.029297 C 238.38754 90.139669 240.74805 88.253906 240.74805 88.253906 A 3.3210286 3.3210286 0 0 0 241.27539 83.587891 A 3.3210286 3.3210286 0 0 0 236.60938 83.060547 C 236.60938 83.060547 234.52558 84.716338 231.83594 86.369141 C 229.14629 88.021942 225.66492 89.421875 224.50977 89.421875 C 223.35459 89.421875 219.87323 88.021942 217.18359 86.369141 C 214.49396 84.716338 212.41016 83.060547 212.41016 83.060547 C 212.41016 83.060547 210.04965 81.174785 206.97461 79.285156 C 203.89958 77.395527 200.29549 75.251953 196.16992 75.251953 C 192.04434 75.251953 188.44027 77.395528 185.36523 79.285156 C 182.2902 81.174784 179.92969 83.060547 179.92969 83.060547 C 179.92969 83.060547 177.84589 84.716338 175.15625 86.369141 C 172.46661 88.021942 168.98524 89.421875 167.83008 89.421875 C 166.67491 89.421875 163.19354 88.021942 160.50391 86.369141 C 157.81427 84.716338 155.73047 83.060547 155.73047 83.060547 C 155.73047 83.060547 153.36996 81.174784 150.29492 79.285156 C 147.21989 77.395528 143.61581 75.251953 139.49023 75.251953 z M 102 80 L 110 80 L 110 84 L 102 84 L 102 80 z M 102 88 L 110 88 L 110 92 L 102 92 L 102 88 z M 40 92 C 38.895477 92.00011 38.00011 92.895477 38 94 L 38 126 C 38.00011 127.10452 38.895477 127.99989 40 128 L 72 128 C 73.104523 127.99989 73.99989 127.10452 74 126 L 74 94 C 73.99989 92.895477 73.104523 92.00011 72 92 L 40 92 z M 42 96 L 70 96 L 70 124 L 42 124 L 42 96 z M 102 96 L 110 96 L 110 100 L 102 100 L 102 96 z M 139.49023 99.527344 C 135.36466 99.527344 131.76253 101.67091 128.6875 103.56055 C 125.61246 105.45016 123.25195 107.33594 123.25195 107.33594 A 3.3210286 3.3210286 0 0 0 122.72461 112.00195 A 3.3210286 3.3210286 0 0 0 127.39062 112.5293 C 127.39062 112.5293 129.47443 110.8735 132.16406 109.2207 C 134.8537 107.5679 138.33507 106.16797 139.49023 106.16797 C 140.6454 106.16797 144.12676 107.5679 146.81641 109.2207 C 149.50604 110.8735 151.58984 112.5293 151.58984 112.5293 C 151.58984 112.5293 153.95035 114.41507 157.02539 116.30469 C 160.10043 118.19433 163.70449 120.33789 167.83008 120.33789 C 171.95565 120.33789 175.55974 118.19433 178.63477 116.30469 C 181.70981 114.41507 184.07031 112.5293 184.07031 112.5293 C 184.07031 112.5293 186.15411 110.8735 188.84375 109.2207 C 191.53339 107.5679 195.01474 106.16797 196.16992 106.16797 C 197.32508 106.16797 200.80645 107.5679 203.49609 109.2207 C 206.18573 110.8735 208.26953 112.5293 208.26953 112.5293 C 208.26953 112.5293 210.63006 114.41507 213.70508 116.30469 C 216.78012 118.19433 220.38419 120.33789 224.50977 120.33789 C 228.63533 120.33789 232.23747 118.19433 235.3125 116.30469 C 238.38754 114.41507 240.74805 112.5293 240.74805 112.5293 A 3.3210286 3.3210286 0 0 0 241.27539 107.86328 A 3.3210286 3.3210286 0 0 0 236.60938 107.33594 C 236.60938 107.33594 234.52558 108.99369 231.83594 110.64648 C 229.14629 112.29928 225.66492 113.69727 224.50977 113.69727 C 223.35459 113.69727 219.87323 112.29928 217.18359 110.64648 C 214.49396 108.99369 212.41016 107.33594 212.41016 107.33594 C 212.41016 107.33594 210.04965 105.45016 206.97461 103.56055 C 203.89958 101.67091 200.29549 99.527344 196.16992 99.527344 C 192.04434 99.527344 188.44027 101.67091 185.36523 103.56055 C 182.2902 105.45016 179.92969 107.33594 179.92969 107.33594 C 179.92969 107.33594 177.84589 108.99369 175.15625 110.64648 C 172.46661 112.29928 168.98524 113.69727 167.83008 113.69727 C 166.67491 113.69727 163.19354 112.29928 160.50391 110.64648 C 157.81427 108.99369 155.73047 107.33594 155.73047 107.33594 C 155.73047 107.33594 153.36996 105.45016 150.29492 103.56055 C 147.21989 101.67091 143.61581 99.527344 139.49023 99.527344 z M 102 104 L 110 104 L 110 108 L 102 108 L 102 104 z M 102 112 L 110 112 L 110 116 L 102 116 L 102 112 z M 102 120 L 110 120 L 110 124 L 102 124 L 102 120 z M 139.49023 123.59375 C 135.36466 123.59375 131.76253 125.73733 128.6875 127.62695 C 125.61246 129.51658 123.25195 131.40234 123.25195 131.40234 A 3.3210286 3.3210286 0 0 0 122.72461 136.07031 A 3.3210286 3.3210286 0 0 0 127.39062 136.59766 C 127.39062 136.59766 129.47443 134.9399 132.16406 133.28711 C 134.8537 131.63431 138.33507 130.23633 139.49023 130.23633 C 140.6454 130.23633 144.12676 131.63431 146.81641 133.28711 C 149.50604 134.9399 151.58984 136.59766 151.58984 136.59766 C 151.58984 136.59766 153.95035 138.48341 157.02539 140.37305 C 160.10043 142.26266 163.70449 144.40625 167.83008 144.40625 C 171.95565 144.40625 175.55974 142.26266 178.63477 140.37305 C 181.70981 138.48341 184.07031 136.59766 184.07031 136.59766 C 184.07031 136.59766 186.15411 134.9399 188.84375 133.28711 C 191.53339 131.63431 195.01474 130.23633 196.16992 130.23633 C 197.32508 130.23633 200.80645 131.63431 203.49609 133.28711 C 206.18573 134.9399 208.26953 136.59766 208.26953 136.59766 C 208.26953 136.59766 210.63006 138.48341 213.70508 140.37305 C 216.78012 142.26266 220.38419 144.40625 224.50977 144.40625 C 228.63533 144.40625 232.23747 142.26266 235.3125 140.37305 C 238.38754 138.48341 240.74805 136.59766 240.74805 136.59766 A 3.3210286 3.3210286 0 0 0 241.27539 131.92969 A 3.3210286 3.3210286 0 0 0 236.60938 131.40234 C 236.60938 131.40234 234.52558 133.06009 231.83594 134.71289 C 229.14629 136.36569 225.66492 137.76367 224.50977 137.76367 C 223.35459 137.76367 219.87323 136.36569 217.18359 134.71289 C 214.49396 133.06009 212.41016 131.40234 212.41016 131.40234 C 212.41016 131.40234 210.04965 129.51658 206.97461 127.62695 C 203.89958 125.73733 200.29549 123.59375 196.16992 123.59375 C 192.04434 123.59375 188.44027 125.73733 185.36523 127.62695 C 182.2902 129.51658 179.92969 131.40234 179.92969 131.40234 C 179.92969 131.40234 177.84589 133.06009 175.15625 134.71289 C 172.46661 136.36569 168.98524 137.76367 167.83008 137.76367 C 166.67491 137.76367 163.19354 136.36569 160.50391 134.71289 C 157.81427 133.06009 155.73047 131.40234 155.73047 131.40234 C 155.73047 131.40234 153.36996 129.51658 150.29492 127.62695 C 147.21989 125.73733 143.61581 123.59375 139.49023 123.59375 z M 40 140 C 38.895477 140.00011 38.00011 140.89548 38 142 L 38 174 C 38.00011 175.10452 38.895477 175.99989 40 176 L 72 176 C 73.104523 175.99989 73.99989 175.10452 74 174 L 74 142 C 73.99989 140.89548 73.104523 140.00011 72 140 L 40 140 z M 42 144 L 70 144 L 70 172 L 42 172 L 42 144 z M 102 144 L 110 144 L 110 148 L 102 148 L 102 144 z M 139.49023 147.66211 C 135.36466 147.66211 131.76253 149.80568 128.6875 151.69531 C 125.61246 153.58495 123.25195 155.4707 123.25195 155.4707 A 3.3210286 3.3210286 0 0 0 122.72461 160.13672 A 3.3210286 3.3210286 0 0 0 127.39062 160.66406 C 127.39062 160.66406 129.47443 159.00631 132.16406 157.35352 C 134.8537 155.70071 138.33507 154.30273 139.49023 154.30273 C 140.6454 154.30273 144.12676 155.70071 146.81641 157.35352 C 149.50604 159.00631 151.58984 160.66406 151.58984 160.66406 C 151.58984 160.66406 153.95035 162.54983 157.02539 164.43945 C 160.10043 166.32907 163.70449 168.47266 167.83008 168.47266 C 171.95565 168.47266 175.55974 166.32907 178.63477 164.43945 C 181.70981 162.54983 184.07031 160.66406 184.07031 160.66406 C 184.07031 160.66406 186.15411 159.00631 188.84375 157.35352 C 191.53339 155.70071 195.01474 154.30273 196.16992 154.30273 C 197.32508 154.30273 200.80645 155.70071 203.49609 157.35352 C 206.18573 159.00631 208.26953 160.66406 208.26953 160.66406 C 208.26953 160.66406 210.63006 162.54983 213.70508 164.43945 C 216.78012 166.32907 220.38419 168.47266 224.50977 168.47266 C 228.63533 168.47266 232.23747 166.32907 235.3125 164.43945 C 238.38754 162.54983 240.74805 160.66406 240.74805 160.66406 A 3.3210286 3.3210286 0 0 0 241.27539 155.99805 A 3.3210286 3.3210286 0 0 0 236.60938 155.4707 C 236.60938 155.4707 234.52558 157.1265 231.83594 158.7793 C 229.14629 160.43211 225.66492 161.83203 224.50977 161.83203 C 223.35459 161.83203 219.87323 160.43211 217.18359 158.7793 C 214.49396 157.1265 212.41016 155.4707 212.41016 155.4707 C 212.41016 155.4707 210.04965 153.58495 206.97461 151.69531 C 203.89958 149.80568 200.29549 147.66211 196.16992 147.66211 C 192.04434 147.66211 188.44027 149.80568 185.36523 151.69531 C 182.2902 153.58495 179.92969 155.4707 179.92969 155.4707 C 179.92969 155.4707 177.84589 157.1265 175.15625 158.7793 C 172.46661 160.43211 168.98524 161.83203 167.83008 161.83203 C 166.67491 161.83203 163.19354 160.43211 160.50391 158.7793 C 157.81427 157.1265 155.73047 155.4707 155.73047 155.4707 C 155.73047 155.4707 153.36996 153.58495 150.29492 151.69531 C 147.21989 149.80568 143.61581 147.66211 139.49023 147.66211 z M 102 152 L 110 152 L 110 156 L 102 156 L 102 152 z M 102 160 L 110 160 L 110 164 L 102 164 L 102 160 z M 102 168 L 110 168 L 110 172 L 102 172 L 102 168 z M 139.49023 171.9375 C 135.36466 171.9375 131.76253 174.08108 128.6875 175.9707 C 125.61246 177.86033 123.25195 179.74609 123.25195 179.74609 A 3.3210286 3.3210286 0 0 0 122.72461 184.41211 A 3.3210286 3.3210286 0 0 0 127.39062 184.93945 C 127.39062 184.93945 129.47443 183.28366 132.16406 181.63086 C 134.8537 179.97804 138.33507 178.57812 139.49023 178.57812 C 140.6454 178.57812 144.12676 179.97804 146.81641 181.63086 C 149.50604 183.28366 151.58984 184.93945 151.58984 184.93945 C 151.58984 184.93945 153.95035 186.82521 157.02539 188.71484 C 160.10043 190.60447 163.70449 192.74805 167.83008 192.74805 C 171.95565 192.74805 175.55974 190.60447 178.63477 188.71484 C 181.70981 186.82521 184.07031 184.93945 184.07031 184.93945 C 184.07031 184.93945 186.15411 183.28366 188.84375 181.63086 C 191.53339 179.97804 195.01474 178.57812 196.16992 178.57812 C 197.32508 178.57812 200.80645 179.97804 203.49609 181.63086 C 206.18573 183.28366 208.26953 184.93945 208.26953 184.93945 C 208.26953 184.93945 210.63006 186.82521 213.70508 188.71484 C 216.78012 190.60447 220.38419 192.74805 224.50977 192.74805 C 228.63533 192.74805 232.23747 190.60447 235.3125 188.71484 C 238.38754 186.82521 240.74805 184.93945 240.74805 184.93945 A 3.3210286 3.3210286 0 0 0 241.27539 180.27344 A 3.3210286 3.3210286 0 0 0 236.60938 179.74609 C 236.60938 179.74609 234.52558 181.40384 231.83594 183.05664 C 229.14629 184.70945 225.66492 186.10742 224.50977 186.10742 C 223.35459 186.10742 219.87323 184.70945 217.18359 183.05664 C 214.49396 181.40384 212.41016 179.74609 212.41016 179.74609 C 212.41016 179.74609 210.04965 177.86033 206.97461 175.9707 C 203.89958 174.08108 200.29549 171.9375 196.16992 171.9375 C 192.04434 171.9375 188.44027 174.08108 185.36523 175.9707 C 182.2902 177.86033 179.92969 179.74609 179.92969 179.74609 C 179.92969 179.74609 177.84589 181.40384 175.15625 183.05664 C 172.46661 184.70945 168.98524 186.10742 167.83008 186.10742 C 166.67491 186.10742 163.19354 184.70945 160.50391 183.05664 C 157.81427 181.40384 155.73047 179.74609 155.73047 179.74609 C 155.73047 179.74609 153.36996 177.86033 150.29492 175.9707 C 147.21989 174.08108 143.61581 171.9375 139.49023 171.9375 z M 102 176 L 110 176 L 110 180 L 102 180 L 102 176 z M 40 180 C 38.895477 180.00011 38.00011 180.89548 38 182 L 38 214 C 38.00011 215.10452 38.895477 215.99989 40 216 L 72 216 C 73.104523 215.99989 73.99989 215.10452 74 214 L 74 182 C 73.99989 180.89548 73.104523 180.00011 72 180 L 40 180 z M 42 184 L 70 184 L 70 212 L 42 212 L 42 184 z M 102 184 L 110 184 L 110 188 L 102 188 L 102 184 z M 102 192 L 110 192 L 110 196 L 102 196 L 102 192 z M 102 200 L 110 200 L 110 204 L 102 204 L 102 200 z M 102 208 L 110 208 L 110 212 L 102 212 L 102 208 z M 102 216 L 110 216 L 110 220 L 102 220 L 102 216 z M 102 224 L 110 224 L 110 228 L 102 228 L 102 224 z " /></g><metadata
     id="metadata134"><rdf:RDF><cc:Work
         rdf:about=""><cc:license
           rdf:resource="http://scripts.sil.org/OFL" /></cc:Work><cc:License
         rdf:about="http://scripts.sil.org/OFL"><cc:permits
           rdf:resource="http://scripts.sil.org/pub/OFL/Reproduction" /><cc:permits
           rdf:resource="http://scripts.sil.org/pub/OFL/Distribution" /><cc:permits
           rdf:resource="http://scripts.sil.org/pub/OFL/Embedding" /><cc:permits
           rdf:resource="http://scripts.sil.org/pub/OFL/DerivativeWorks" /><cc:requires
           rdf:resource="http://scripts.sil.org/pub/OFL/Notice" /><cc:requires
           rdf:resource="http://scripts.sil.org/pub/OFL/Attribution" /><cc:requires
           rdf:resource="http://scripts.sil.org/pub/OFL/ShareAlike" /><cc:requires
           rdf:resource="http://scripts.sil.org/pub/OFL/DerivativeRenaming" /><cc:requires
           rdf:resource="http://scripts.sil.org/pub/OFL/BundlingWhenSelling" /></cc:License></rdf:RDF></metadata></svg>
