<?xml version="1.0" encoding="UTF-8" standalone="no"?>
<!-- Created with Inkscape (http://www.inkscape.org/) -->

<svg
   width="232"
   height="232"
   viewBox="0 0 232 232"
   version="1.1"
   id="svg5"
   inkscape:version="1.2.2 (732a01da63, 2022-12-09)"
   sodipodi:docname="RAMFan.svg"
   xml:space="preserve"
   xmlns:inkscape="http://www.inkscape.org/namespaces/inkscape"
   xmlns:sodipodi="http://sodipodi.sourceforge.net/DTD/sodipodi-0.dtd"
   xmlns="http://www.w3.org/2000/svg"
   xmlns:svg="http://www.w3.org/2000/svg"
   xmlns:rdf="http://www.w3.org/1999/02/22-rdf-syntax-ns#"
   xmlns:cc="http://creativecommons.org/ns#"><sodipodi:namedview
     id="namedview7"
     pagecolor="#ffffff"
     bordercolor="#000000"
     borderopacity="0.25"
     inkscape:showpageshadow="2"
     inkscape:pageopacity="0.0"
     inkscape:pagecheckerboard="true"
     inkscape:deskcolor="#d1d1d1"
     inkscape:document-units="px"
     showgrid="true"
     showguides="true"
     inkscape:zoom="0.75455248"
     inkscape:cx="-163.67317"
     inkscape:cy="173.61284"
     inkscape:window-width="1920"
     inkscape:window-height="1027"
     inkscape:window-x="-8"
     inkscape:window-y="-8"
     inkscape:window-maximized="1"
     inkscape:current-layer="layer1"><inkscape:grid
       type="xygrid"
       id="grid132"
       empspacing="8"
       dotted="true"
       originx="-10"
       originy="-18" /><sodipodi:guide
       position="118,170"
       orientation="1,0"
       id="guide136"
       inkscape:locked="false" /><sodipodi:guide
       position="150,122"
       orientation="0,-1"
       id="guide138"
       inkscape:locked="false" /></sodipodi:namedview><defs
     id="defs2" /><g
     inkscape:label="Layer 1"
     inkscape:groupmode="layer"
     id="layer1"
     transform="translate(-10,-18)"><path
       id="path22"
       style="color:#000000;fill:#000000;stroke-linecap:round;stroke-linejoin:round;-inkscape-stroke:none"
       d="M 16 24 C 12.686432 24.000331 10.000331 26.686432 10 30 L 10 238 C 10.000331 241.31357 12.686432 243.99967 16 244 L 40 244 C 43.313568 243.99967 45.999669 241.31357 46 238 L 46 236 L 50 236 L 50 238 C 50.000331 241.31357 52.686432 243.99967 56 244 L 96 244 C 99.313568 243.99967 101.99967 241.31357 102 238 L 102 232 L 112 232 C 113.10452 231.99989 113.99989 231.10452 114 230 L 114 222 L 114 214 L 114 206 L 114 198 L 114 190 L 114 182 L 114 174 L 114 166 L 114 158 L 114 150 L 114 142 C 113.99989 140.89548 113.10452 140.00011 112 140 L 102 140 L 102 128 L 112 128 C 113.10452 127.99989 113.99989 127.10452 114 126 L 114 118 L 114 110 L 114 102 L 114 94 L 114 86 L 114 78 L 114 70 L 114 62 L 114 54 L 114 46 L 114 38 C 113.99989 36.895477 113.10452 36.00011 112 36 L 102 36 L 102 30 C 101.99967 26.686432 99.313568 24.000331 96 24 L 56 24 C 52.686432 24.000331 50.000331 26.686432 50 30 L 50 32 L 46 32 L 46 30 C 45.999669 26.686432 43.313568 24.000331 40 24 L 16 24 z M 22 36 L 34 36 L 34 38 C 34.000331 41.313568 36.686432 43.999669 40 44 L 56 44 C 59.313568 43.999669 61.999669 41.313568 62 38 L 62 36 L 90 36 L 90 232 L 62 232 L 62 230 C 61.999669 226.68643 59.313568 224.00033 56 224 L 40 224 C 36.686432 224.00033 34.000331 226.68643 34 230 L 34 232 L 22 232 L 22 36 z M 102 40 L 110 40 L 110 44 L 102 44 L 102 40 z M 102 48 L 110 48 L 110 52 L 102 52 L 102 48 z M 40 52 C 38.895477 52.00011 38.00011 52.895477 38 54 L 38 86 C 38.00011 87.104523 38.895477 87.99989 40 88 L 72 88 C 73.104523 87.99989 73.99989 87.104523 74 86 L 74 54 C 73.99989 52.895477 73.104523 52.00011 72 52 L 40 52 z M 42 56 L 70 56 L 70 84 L 42 84 L 42 56 z M 102 56 L 110 56 L 110 60 L 102 60 L 102 56 z M 102 64 L 110 64 L 110 68 L 102 68 L 102 64 z M 102 72 L 110 72 L 110 76 L 102 76 L 102 72 z M 193.71875 75.945312 C 189.04236 76.103204 184.85901 78.605536 183.34961 82.691406 C 180.01311 91.699914 177.63142 101.24508 177.52734 110.47266 C 182.53741 109.43766 187.70348 110.06075 192.27539 112.125 C 198.68273 103.51784 207.5392 95.916514 217.39258 90.773438 C 218.69613 90.092926 220.12969 87.774042 217.26758 85.644531 C 211.6112 81.437264 205.11528 78.670587 198.47852 76.595703 C 196.89106 76.09912 195.27755 75.892682 193.71875 75.945312 z M 160.02148 79.169922 C 159.44162 79.120418 158.74685 79.236579 157.92969 79.589844 C 151.4545 82.386638 145.81296 86.627152 140.69336 91.339844 C 135.80347 95.844099 134.69945 103.02313 138.40625 107.48828 C 144.54707 114.88018 151.61661 121.71695 159.55664 126.42188 C 161.16753 121.56543 164.28939 117.39802 168.36133 114.4707 C 164.11258 104.62299 161.96048 93.149012 162.42969 82.044922 C 162.47648 80.946315 161.76107 79.318433 160.02148 79.169922 z M 102 80 L 110 80 L 110 84 L 102 84 L 102 80 z M 102 88 L 110 88 L 110 92 L 102 92 L 102 88 z M 40 92 C 38.895477 92.00011 38.00011 92.895477 38 94 L 38 126 C 38.00011 127.10452 38.895477 127.99989 40 128 L 72 128 C 73.104523 127.99989 73.99989 127.10452 74 126 L 74 94 C 73.99989 92.895477 73.104523 92.00011 72 92 L 40 92 z M 42 96 L 70 96 L 70 124 L 42 124 L 42 96 z M 102 96 L 110 96 L 110 100 L 102 100 L 102 96 z M 102 104 L 110 104 L 110 108 L 102 108 L 102 104 z M 228.35547 109.08594 C 227.9992 109.10488 227.64097 109.14382 227.2832 109.20508 C 217.8102 110.8237 208.35298 113.53008 200.30859 118.05273 C 203.71294 121.87648 205.75727 126.6644 206.25781 131.65625 C 216.9139 132.8994 227.92403 136.77371 237.30273 142.73242 C 238.54361 143.5196 241.26965 143.60375 241.68164 140.05859 C 242.50017 133.05683 241.65125 126.04958 240.12891 119.26172 C 238.76047 113.17679 233.69946 108.80157 228.35547 109.08594 z M 102 112 L 110 112 L 110 116 L 102 116 L 102 112 z M 182.34961 116.60938 C 172.74636 116.60938 164.96289 124.39723 164.96289 134 C 164.96289 143.60564 172.74636 151.39258 182.34961 151.39258 C 191.95774 151.39258 199.74609 143.60564 199.74609 134 C 199.74638 124.39723 191.95803 116.60937 182.34961 116.60938 z M 102 120 L 110 120 L 110 124 L 102 124 L 102 120 z M 125.57812 124.83203 C 124.44013 124.92701 123.27703 125.72569 123.01953 127.94141 C 122.20129 134.94259 123.05256 141.95071 124.58008 148.73828 C 126.03457 155.22887 131.69541 159.77501 137.41992 158.79492 C 146.89264 157.17601 156.35072 154.46963 164.39453 149.94727 C 160.99018 146.12353 158.94586 141.3356 158.44531 136.34375 C 147.78923 135.10003 136.77881 131.22658 127.40039 125.26758 C 126.93506 124.97239 126.26092 124.77504 125.57812 124.83203 z M 40 140 C 38.895477 140.00011 38.00011 140.89548 38 142 L 38 174 C 38.00011 175.10452 38.895477 175.99989 40 176 L 72 176 C 73.104523 175.99989 73.99989 175.10452 74 174 L 74 142 C 73.99989 140.89548 73.104523 140.00011 72 140 L 40 140 z M 205.14648 141.58008 C 203.53559 146.43336 200.41373 150.60255 196.3418 153.5293 C 200.59084 163.3773 202.74265 174.8507 202.27344 185.95508 C 202.21105 187.41989 203.50548 189.82322 206.7793 188.41016 C 213.24931 185.61307 218.89563 181.37285 224.00977 176.66016 C 228.89965 172.1559 230.00368 164.97687 226.29688 160.51172 C 220.16123 153.12241 213.08651 146.28242 205.14648 141.58008 z M 42 144 L 70 144 L 70 172 L 42 172 L 42 144 z M 102 144 L 110 144 L 110 148 L 102 148 L 102 144 z M 102 152 L 110 152 L 110 156 L 102 156 L 102 152 z M 172.43359 155.87695 C 166.03172 164.48181 157.17397 172.08314 147.32031 177.22852 C 146.01705 177.90644 144.58349 180.22596 147.44531 182.35547 C 153.10197 186.56273 159.5979 189.32913 166.23438 191.4043 C 172.58421 193.39034 179.35074 190.75642 181.36328 185.30859 C 184.69977 176.30009 187.08342 166.75751 187.1875 157.52734 C 182.17773 158.56234 177.00579 157.9389 172.43359 155.87695 z M 102 160 L 110 160 L 110 164 L 102 164 L 102 160 z M 102 168 L 110 168 L 110 172 L 102 172 L 102 168 z M 102 176 L 110 176 L 110 180 L 102 180 L 102 176 z M 40 180 C 38.895477 180.00011 38.00011 180.89548 38 182 L 38 214 C 38.00011 215.10452 38.895477 215.99989 40 216 L 72 216 C 73.104523 215.99989 73.99989 215.10452 74 214 L 74 182 C 73.99989 180.89548 73.104523 180.00011 72 180 L 40 180 z M 42 184 L 70 184 L 70 212 L 42 212 L 42 184 z M 102 184 L 110 184 L 110 188 L 102 188 L 102 184 z M 102 192 L 110 192 L 110 196 L 102 196 L 102 192 z M 102 200 L 110 200 L 110 204 L 102 204 L 102 200 z M 102 208 L 110 208 L 110 212 L 102 212 L 102 208 z M 102 216 L 110 216 L 110 220 L 102 220 L 102 216 z M 102 224 L 110 224 L 110 228 L 102 228 L 102 224 z " /><g
       id="g5169"
       transform="matrix(0.28750562,0,0,0.2875,108.39919,58.464058)">
	
	
	
	
	
	
	
	
</g></g><metadata
     id="metadata134"><rdf:RDF><cc:Work
         rdf:about=""><cc:license
           rdf:resource="http://scripts.sil.org/OFL" /></cc:Work><cc:License
         rdf:about="http://scripts.sil.org/OFL"><cc:permits
           rdf:resource="http://scripts.sil.org/pub/OFL/Reproduction" /><cc:permits
           rdf:resource="http://scripts.sil.org/pub/OFL/Distribution" /><cc:permits
           rdf:resource="http://scripts.sil.org/pub/OFL/Embedding" /><cc:permits
           rdf:resource="http://scripts.sil.org/pub/OFL/DerivativeWorks" /><cc:requires
           rdf:resource="http://scripts.sil.org/pub/OFL/Notice" /><cc:requires
           rdf:resource="http://scripts.sil.org/pub/OFL/Attribution" /><cc:requires
           rdf:resource="http://scripts.sil.org/pub/OFL/ShareAlike" /><cc:requires
           rdf:resource="http://scripts.sil.org/pub/OFL/DerivativeRenaming" /><cc:requires
           rdf:resource="http://scripts.sil.org/pub/OFL/BundlingWhenSelling" /></cc:License></rdf:RDF></metadata><style
     type="text/css"
     id="style5151">
	.st0{fill:#000000;}
</style></svg>
