<?xml version="1.0" encoding="UTF-8" standalone="no"?>
<!-- Created with Inkscape (http://www.inkscape.org/) -->

<svg
   width="217.30327"
   height="217.30327"
   viewBox="0 0 217.30327 217.30327"
   version="1.1"
   id="svg5"
   inkscape:version="1.2.2 (732a01da63, 2022-12-09)"
   sodipodi:docname="RAMSingleAlt.svg"
   xmlns:inkscape="http://www.inkscape.org/namespaces/inkscape"
   xmlns:sodipodi="http://sodipodi.sourceforge.net/DTD/sodipodi-0.dtd"
   xmlns="http://www.w3.org/2000/svg"
   xmlns:svg="http://www.w3.org/2000/svg"
   xmlns:rdf="http://www.w3.org/1999/02/22-rdf-syntax-ns#"
   xmlns:cc="http://creativecommons.org/ns#">
  <sodipodi:namedview
     id="namedview7"
     pagecolor="#ffffff"
     bordercolor="#000000"
     borderopacity="0.25"
     inkscape:showpageshadow="2"
     inkscape:pageopacity="0.0"
     inkscape:pagecheckerboard="true"
     inkscape:deskcolor="#d1d1d1"
     inkscape:document-units="px"
     showgrid="true"
     showguides="true"
     inkscape:zoom="3.0182099"
     inkscape:cx="98.402699"
     inkscape:cy="107.01708"
     inkscape:window-width="1920"
     inkscape:window-height="1027"
     inkscape:window-x="-8"
     inkscape:window-y="-8"
     inkscape:window-maximized="1"
     inkscape:current-layer="layer1">
    <inkscape:grid
       type="xygrid"
       id="grid132"
       empspacing="8"
       dotted="true"
       originx="-13.934232"
       originy="-21.934232" />
    <sodipodi:guide
       position="114.06577,159.2375"
       orientation="1,0"
       id="guide136"
       inkscape:locked="false" />
    <sodipodi:guide
       position="146.06577,111.2375"
       orientation="0,-1"
       id="guide138"
       inkscape:locked="false" />
  </sodipodi:namedview>
  <defs
     id="defs2" />
  <g
     inkscape:label="Layer 1"
     inkscape:groupmode="layer"
     id="layer1"
     transform="translate(-13.934231,-21.934231)">
    <path
       id="path14"
       style="color:#000000;fill:#000000;stroke-linecap:round;stroke-linejoin:round;-inkscape-stroke:none"
       d="M 167.01236 21.934231 A 6.0006 6.0006 0 0 0 162.77017 23.692044 L 15.692044 170.77017 A 6.0006 6.0006 0 0 0 15.692044 179.25454 L 32.662747 196.22525 A 6.0006 6.0006 0 0 0 41.147122 196.22525 L 42.561184 194.81118 L 45.391262 197.64126 L 43.9772 199.05532 A 6.0006 6.0006 0 0 0 43.9772 207.5397 L 72.260403 235.82486 A 6.0006 6.0006 0 0 0 80.746731 235.82486 L 84.988918 231.58267 L 92.059231 238.65298 A 2.0002 2.0002 0 0 0 94.887356 238.65298 L 100.54556 232.99478 L 106.20181 227.33853 L 111.85806 221.68228 L 117.51626 216.02407 L 123.17251 210.36782 L 128.82876 204.71157 L 134.48501 199.05532 L 140.14322 193.39712 L 145.79947 187.74087 L 151.45572 182.08462 L 157.11392 176.42642 A 2.0002 2.0002 0 0 0 157.11392 173.59829 L 150.04361 166.52798 L 158.52798 158.04361 L 165.59829 165.11392 A 2.0002 2.0002 0 0 0 168.42642 165.11392 L 174.08462 159.45572 L 179.74087 153.79947 L 185.39712 148.14322 L 191.05532 142.48501 L 196.71157 136.82876 L 202.36782 131.17251 L 208.02407 125.51626 L 213.68228 119.85806 L 219.33853 114.20181 L 224.99478 108.54556 L 230.65298 102.88736 A 2.0002 2.0002 0 0 0 230.65298 100.05923 L 223.58267 92.988918 L 227.82486 88.746731 A 6.0006 6.0006 0 0 0 227.82486 80.260403 L 199.5397 51.9772 A 6.0006 6.0006 0 0 0 191.05532 51.9772 L 189.64126 53.391262 L 186.81118 50.561184 L 188.22525 49.147122 A 6.0006 6.0006 0 0 0 188.22525 40.662747 L 171.25454 23.692044 A 6.0006 6.0006 0 0 0 167.01236 21.934231 z M 167.01236 36.418606 L 175.49868 44.904934 L 174.08462 46.318997 A 6.0006 6.0006 0 0 0 174.08462 54.805325 L 185.39712 66.117825 A 6.0006 6.0006 0 0 0 193.88345 66.117825 L 195.29751 64.703762 L 215.09634 84.50259 L 76.50259 223.09634 L 56.703762 203.29751 L 58.117825 201.88345 A 6.0006 6.0006 0 0 0 58.117825 193.39712 L 46.805325 182.08462 A 6.0006 6.0006 0 0 0 38.318997 182.08462 L 36.904934 183.49868 L 28.420559 175.01236 L 167.01236 36.418606 z M 166.49478 59.943997 A 2.0002 2.0002 0 0 0 165.59829 60.461575 L 142.97134 83.088528 A 2.0002 2.0002 0 0 0 142.97134 85.916653 L 165.59829 108.54556 A 2.0002 2.0002 0 0 0 168.42642 108.54556 L 191.05532 85.916653 A 2.0002 2.0002 0 0 0 191.05532 83.088528 L 168.42642 60.461575 A 2.0002 2.0002 0 0 0 166.49478 59.943997 z M 167.01236 64.703762 L 186.81118 84.50259 L 167.01236 104.30142 L 147.21353 84.50259 L 167.01236 64.703762 z M 138.21157 88.229153 A 2.0002 2.0002 0 0 0 137.31509 88.746731 L 114.68618 111.37368 A 2.0002 2.0002 0 0 0 114.68618 114.20181 L 137.31509 136.82876 A 2.0002 2.0002 0 0 0 140.14322 136.82876 L 162.77017 114.20181 A 2.0002 2.0002 0 0 0 162.77017 111.37368 L 140.14322 88.746731 A 2.0002 2.0002 0 0 0 138.21157 88.229153 z M 138.72915 92.988918 L 158.52798 112.78775 L 138.72915 132.58657 L 118.93032 112.78775 L 138.72915 92.988918 z M 220.75454 95.817043 L 226.40884 101.47329 L 223.58072 104.30142 L 217.92642 98.645168 L 220.75454 95.817043 z M 215.09634 101.47525 L 220.75259 107.1315 L 217.92447 109.95962 L 212.26822 104.30337 L 215.09634 101.47525 z M 209.44009 107.1315 L 215.09634 112.78775 L 212.26822 115.61587 L 206.61197 109.95962 L 209.44009 107.1315 z M 203.78384 112.78775 L 209.44009 118.444 L 206.61001 121.27212 L 200.95376 115.61782 L 203.78384 112.78775 z M 198.12564 118.44595 L 203.78189 124.1022 L 200.95376 126.93032 L 195.29751 121.27407 L 198.12564 118.44595 z M 104.27017 122.16861 A 2.0002 2.0002 0 0 0 103.37368 122.68618 L 80.746731 145.31509 A 2.0002 2.0002 0 0 0 80.746731 148.14322 L 103.37368 170.77017 A 2.0002 2.0002 0 0 0 106.20181 170.77017 L 128.82876 148.14322 A 2.0002 2.0002 0 0 0 128.82876 145.31509 L 106.20181 122.68618 A 2.0002 2.0002 0 0 0 104.27017 122.16861 z M 192.46939 124.1022 L 198.12564 129.75845 L 195.29751 132.58657 L 189.64126 126.93032 L 192.46939 124.1022 z M 104.78775 126.93032 L 124.58657 146.72915 L 104.78775 166.52798 L 84.988918 146.72915 L 104.78775 126.93032 z M 186.81314 129.75845 L 192.46939 135.4147 L 189.64126 138.24282 L 183.98501 132.58657 L 186.81314 129.75845 z M 181.15689 135.4147 L 186.81118 141.07095 L 183.98306 143.90103 L 178.32681 138.24478 L 181.15689 135.4147 z M 175.49868 141.0729 L 181.15493 146.72915 L 178.32681 149.55728 L 172.67056 143.90103 L 175.49868 141.0729 z M 169.84243 146.72915 L 175.49868 152.3854 L 172.67056 155.21353 L 167.01431 149.55728 L 169.84243 146.72915 z M 75.985012 150.45376 A 2.0002 2.0002 0 0 0 75.088528 150.97134 L 52.461575 173.59829 A 2.0002 2.0002 0 0 0 52.461575 176.42642 L 75.088528 199.05532 A 2.0002 2.0002 0 0 0 77.916653 199.05532 L 100.54556 176.42642 A 2.0002 2.0002 0 0 0 100.54556 173.59829 L 77.916653 150.97134 A 2.0002 2.0002 0 0 0 75.985012 150.45376 z M 164.18423 152.38736 L 169.84048 158.04165 L 167.01236 160.86978 L 161.35611 155.21548 L 164.18423 152.38736 z M 76.50259 155.21353 L 96.301418 175.01236 L 76.50259 194.81118 L 56.703762 175.01236 L 76.50259 155.21353 z M 147.21548 169.35611 L 152.86978 175.01236 L 150.04165 177.84048 L 144.38736 172.18423 L 147.21548 169.35611 z M 141.55728 175.01431 L 147.21353 180.67056 L 144.3854 183.49868 L 138.72915 177.84243 L 141.55728 175.01431 z M 135.90103 180.67056 L 141.55728 186.32681 L 138.72915 189.15493 L 133.0729 183.49868 L 135.90103 180.67056 z M 130.24478 186.32681 L 135.90103 191.98306 L 133.07095 194.81118 L 127.4147 189.15689 L 130.24478 186.32681 z M 124.58657 191.98501 L 130.24282 197.64126 L 127.4147 200.46939 L 121.75845 194.81314 L 124.58657 191.98501 z M 118.93032 197.64126 L 124.58657 203.29751 L 121.75845 206.12564 L 116.1022 200.46939 L 118.93032 197.64126 z M 113.27407 203.29751 L 118.93032 208.95376 L 116.10025 211.78189 L 110.44595 206.12564 L 113.27407 203.29751 z M 107.61782 208.95376 L 113.27212 214.61001 L 110.444 217.44009 L 104.78775 211.78384 L 107.61782 208.95376 z M 101.95962 214.61197 L 107.61587 220.26822 L 104.78775 223.09634 L 99.131497 217.44009 L 101.95962 214.61197 z M 96.303372 220.26822 L 101.95962 225.92447 L 99.131497 228.75259 L 93.475247 223.09634 L 96.303372 220.26822 z M 90.645168 225.92642 L 96.301418 231.58072 L 93.473293 234.40884 L 87.817043 228.75454 L 90.645168 225.92642 z " />
  </g>
  <metadata
     id="metadata134">
    <rdf:RDF>
      <cc:Work
         rdf:about="">
        <cc:license
           rdf:resource="http://scripts.sil.org/OFL" />
      </cc:Work>
      <cc:License
         rdf:about="http://scripts.sil.org/OFL">
        <cc:permits
           rdf:resource="http://scripts.sil.org/pub/OFL/Reproduction" />
        <cc:permits
           rdf:resource="http://scripts.sil.org/pub/OFL/Distribution" />
        <cc:permits
           rdf:resource="http://scripts.sil.org/pub/OFL/Embedding" />
        <cc:permits
           rdf:resource="http://scripts.sil.org/pub/OFL/DerivativeWorks" />
        <cc:requires
           rdf:resource="http://scripts.sil.org/pub/OFL/Notice" />
        <cc:requires
           rdf:resource="http://scripts.sil.org/pub/OFL/Attribution" />
        <cc:requires
           rdf:resource="http://scripts.sil.org/pub/OFL/ShareAlike" />
        <cc:requires
           rdf:resource="http://scripts.sil.org/pub/OFL/DerivativeRenaming" />
        <cc:requires
           rdf:resource="http://scripts.sil.org/pub/OFL/BundlingWhenSelling" />
      </cc:License>
    </rdf:RDF>
  </metadata>
</svg>
