<?xml version="1.0" encoding="UTF-8" standalone="no"?>
<!-- Created with Inkscape (http://www.inkscape.org/) -->

<svg
   width="220"
   height="220"
   viewBox="0 0 220 220"
   version="1.1"
   id="svg5"
   inkscape:version="1.2.2 (732a01da63, 2022-12-09)"
   sodipodi:docname="RAMSingle.svg"
   xml:space="preserve"
   xmlns:inkscape="http://www.inkscape.org/namespaces/inkscape"
   xmlns:sodipodi="http://sodipodi.sourceforge.net/DTD/sodipodi-0.dtd"
   xmlns="http://www.w3.org/2000/svg"
   xmlns:svg="http://www.w3.org/2000/svg"
   xmlns:rdf="http://www.w3.org/1999/02/22-rdf-syntax-ns#"
   xmlns:cc="http://creativecommons.org/ns#"><sodipodi:namedview
     id="namedview7"
     pagecolor="#ffffff"
     bordercolor="#000000"
     borderopacity="0.25"
     inkscape:showpageshadow="2"
     inkscape:pageopacity="0.0"
     inkscape:pagecheckerboard="true"
     inkscape:deskcolor="#d1d1d1"
     inkscape:document-units="px"
     showgrid="true"
     showguides="true"
     inkscape:zoom="1.509105"
     inkscape:cx="-134.18549"
     inkscape:cy="127.22773"
     inkscape:window-width="1920"
     inkscape:window-height="1027"
     inkscape:window-x="-8"
     inkscape:window-y="-8"
     inkscape:window-maximized="1"
     inkscape:current-layer="layer1"><inkscape:grid
       type="xygrid"
       id="grid132"
       empspacing="8"
       dotted="true"
       originx="0"
       originy="0" /><sodipodi:guide
       position="54,164"
       orientation="1,0"
       id="guide136"
       inkscape:locked="false" /><sodipodi:guide
       position="86,116"
       orientation="0,-1"
       id="guide138"
       inkscape:locked="false" /></sodipodi:namedview><defs
     id="defs2" /><g
     inkscape:label="Layer 1"
     inkscape:groupmode="layer"
     id="layer1"
     transform="translate(-74,-24)"><path
       id="path14"
       style="color:#000000;fill:#000000;stroke-linecap:round;stroke-linejoin:round;-inkscape-stroke:none"
       d="M 138 24 C 134.68643 24.000331 132.00033 26.686432 132 30 L 132 238 C 132.00033 241.31357 134.68643 243.99967 138 244 L 162 244 C 165.31357 243.99967 167.99967 241.31357 168 238 L 168 236 L 172 236 L 172 238 C 172.00033 241.31357 174.68643 243.99967 178 244 L 218 244 C 221.31357 243.99967 223.99967 241.31357 224 238 L 224 232 L 234 232 C 235.10452 231.99989 235.99989 231.10452 236 230 L 236 222 L 236 214 L 236 206 L 236 198 L 236 190 L 236 182 L 236 174 L 236 166 L 236 158 L 236 150 L 236 142 C 235.99989 140.89548 235.10452 140.00011 234 140 L 224 140 L 224 128 L 234 128 C 235.10452 127.99989 235.99989 127.10452 236 126 L 236 118 L 236 110 L 236 102 L 236 94 L 236 86 L 236 78 L 236 70 L 236 62 L 236 54 L 236 46 L 236 38 C 235.99989 36.895477 235.10452 36.00011 234 36 L 224 36 L 224 30 C 223.99967 26.686432 221.31357 24.000331 218 24 L 178 24 C 174.68643 24.000331 172.00033 26.686432 172 30 L 172 32 L 168 32 L 168 30 C 167.99967 26.686432 165.31357 24.000331 162 24 L 138 24 z M 144 36 L 156 36 L 156 38 C 156.00033 41.313568 158.68643 43.999669 162 44 L 178 44 C 181.31357 43.999669 183.99967 41.313568 184 38 L 184 36 L 212 36 L 212 232 L 184 232 L 184 230 C 183.99967 226.68643 181.31357 224.00033 178 224 L 162 224 C 158.68643 224.00033 156.00033 226.68643 156 230 L 156 232 L 144 232 L 144 36 z M 224 40 L 232 40 L 232 44 L 224 44 L 224 40 z M 224 48 L 232 48 L 232 52 L 224 52 L 224 48 z M 162 52 C 160.89548 52.00011 160.00011 52.895477 160 54 L 160 86 C 160.00011 87.104523 160.89548 87.99989 162 88 L 194 88 C 195.10452 87.99989 195.99989 87.104523 196 86 L 196 54 C 195.99989 52.895477 195.10452 52.00011 194 52 L 162 52 z M 164 56 L 192 56 L 192 84 L 164 84 L 164 56 z M 224 56 L 232 56 L 232 60 L 224 60 L 224 56 z M 224 64 L 232 64 L 232 68 L 224 68 L 224 64 z M 224 72 L 232 72 L 232 76 L 224 76 L 224 72 z M 224 80 L 232 80 L 232 84 L 224 84 L 224 80 z M 224 88 L 232 88 L 232 92 L 224 92 L 224 88 z M 162 92 C 160.89548 92.00011 160.00011 92.895477 160 94 L 160 126 C 160.00011 127.10452 160.89548 127.99989 162 128 L 194 128 C 195.10452 127.99989 195.99989 127.10452 196 126 L 196 94 C 195.99989 92.895477 195.10452 92.00011 194 92 L 162 92 z M 164 96 L 192 96 L 192 124 L 164 124 L 164 96 z M 224 96 L 232 96 L 232 100 L 224 100 L 224 96 z M 224 104 L 232 104 L 232 108 L 224 108 L 224 104 z M 224 112 L 232 112 L 232 116 L 224 116 L 224 112 z M 224 120 L 232 120 L 232 124 L 224 124 L 224 120 z M 162 140 C 160.89548 140.00011 160.00011 140.89548 160 142 L 160 174 C 160.00011 175.10452 160.89548 175.99989 162 176 L 194 176 C 195.10452 175.99989 195.99989 175.10452 196 174 L 196 142 C 195.99989 140.89548 195.10452 140.00011 194 140 L 162 140 z M 164 144 L 192 144 L 192 172 L 164 172 L 164 144 z M 224 144 L 232 144 L 232 148 L 224 148 L 224 144 z M 224 152 L 232 152 L 232 156 L 224 156 L 224 152 z M 224 160 L 232 160 L 232 164 L 224 164 L 224 160 z M 224 168 L 232 168 L 232 172 L 224 172 L 224 168 z M 224 176 L 232 176 L 232 180 L 224 180 L 224 176 z M 162 180 C 160.89548 180.00011 160.00011 180.89548 160 182 L 160 214 C 160.00011 215.10452 160.89548 215.99989 162 216 L 194 216 C 195.10452 215.99989 195.99989 215.10452 196 214 L 196 182 C 195.99989 180.89548 195.10452 180.00011 194 180 L 162 180 z M 164 184 L 192 184 L 192 212 L 164 212 L 164 184 z M 224 184 L 232 184 L 232 188 L 224 188 L 224 184 z M 224 192 L 232 192 L 232 196 L 224 196 L 224 192 z M 224 200 L 232 200 L 232 204 L 224 204 L 224 200 z M 224 208 L 232 208 L 232 212 L 224 212 L 224 208 z M 224 216 L 232 216 L 232 220 L 224 220 L 224 216 z M 224 224 L 232 224 L 232 228 L 224 228 L 224 224 z " /></g><metadata
     id="metadata134"><rdf:RDF><cc:Work
         rdf:about=""><cc:license
           rdf:resource="http://scripts.sil.org/OFL" /></cc:Work><cc:License
         rdf:about="http://scripts.sil.org/OFL"><cc:permits
           rdf:resource="http://scripts.sil.org/pub/OFL/Reproduction" /><cc:permits
           rdf:resource="http://scripts.sil.org/pub/OFL/Distribution" /><cc:permits
           rdf:resource="http://scripts.sil.org/pub/OFL/Embedding" /><cc:permits
           rdf:resource="http://scripts.sil.org/pub/OFL/DerivativeWorks" /><cc:requires
           rdf:resource="http://scripts.sil.org/pub/OFL/Notice" /><cc:requires
           rdf:resource="http://scripts.sil.org/pub/OFL/Attribution" /><cc:requires
           rdf:resource="http://scripts.sil.org/pub/OFL/ShareAlike" /><cc:requires
           rdf:resource="http://scripts.sil.org/pub/OFL/DerivativeRenaming" /><cc:requires
           rdf:resource="http://scripts.sil.org/pub/OFL/BundlingWhenSelling" /></cc:License></rdf:RDF></metadata></svg>
