<?xml version="1.0" encoding="UTF-8" standalone="no"?>
<!-- Created with Inkscape (http://www.inkscape.org/) -->

<svg
   width="232"
   height="232"
   viewBox="0 0 232 232"
   version="1.1"
   id="svg5"
   inkscape:version="1.2.2 (732a01da63, 2022-12-09)"
   sodipodi:docname="RAMVolts.svg"
   xml:space="preserve"
   xmlns:inkscape="http://www.inkscape.org/namespaces/inkscape"
   xmlns:sodipodi="http://sodipodi.sourceforge.net/DTD/sodipodi-0.dtd"
   xmlns="http://www.w3.org/2000/svg"
   xmlns:svg="http://www.w3.org/2000/svg"
   xmlns:rdf="http://www.w3.org/1999/02/22-rdf-syntax-ns#"
   xmlns:cc="http://creativecommons.org/ns#"><sodipodi:namedview
     id="namedview7"
     pagecolor="#ffffff"
     bordercolor="#000000"
     borderopacity="0.25"
     inkscape:showpageshadow="2"
     inkscape:pageopacity="0.0"
     inkscape:pagecheckerboard="true"
     inkscape:deskcolor="#d1d1d1"
     inkscape:document-units="px"
     showgrid="true"
     showguides="true"
     inkscape:zoom="2.1341968"
     inkscape:cx="176.41298"
     inkscape:cy="80.123821"
     inkscape:window-width="1920"
     inkscape:window-height="1027"
     inkscape:window-x="-8"
     inkscape:window-y="-8"
     inkscape:window-maximized="1"
     inkscape:current-layer="layer1"><inkscape:grid
       type="xygrid"
       id="grid132"
       empspacing="8"
       dotted="true"
       originx="-10"
       originy="-18" /><sodipodi:guide
       position="118,170"
       orientation="1,0"
       id="guide136"
       inkscape:locked="false" /><sodipodi:guide
       position="150,122"
       orientation="0,-1"
       id="guide138"
       inkscape:locked="false" /></sodipodi:namedview><defs
     id="defs2" /><g
     inkscape:label="Layer 1"
     inkscape:groupmode="layer"
     id="layer1"
     transform="translate(-10,-18)"><path
       id="path20"
       style="color:#000000;fill:#7f7f7f7f;stroke-linecap:round;stroke-linejoin:round;-inkscape-stroke:none"
       d="M 16 24 C 12.686432 24.000331 10.000331 26.686432 10 30 L 10 238 C 10.000331 241.31357 12.686432 243.99967 16 244 L 40 244 C 43.313568 243.99967 45.999669 241.31357 46 238 L 46 236 L 50 236 L 50 238 C 50.000331 241.31357 52.686432 243.99967 56 244 L 96 244 C 99.313568 243.99967 101.99967 241.31357 102 238 L 102 232 L 112 232 C 113.10452 231.99989 113.99989 231.10452 114 230 L 114 222 L 114 214 L 114 206 L 114 198 L 114 190 L 114 182 L 114 174 L 114 166 L 114 158 L 114 150 L 114 142 C 113.99989 140.89548 113.10452 140.00011 112 140 L 102 140 L 102 128 L 112 128 C 113.10452 127.99989 113.99989 127.10452 114 126 L 114 118 L 114 110 L 114 102 L 114 94 L 114 86 L 114 78 L 114 70 L 114 62 L 114 54 L 114 46 L 114 38 C 113.99989 36.895477 113.10452 36.00011 112 36 L 102 36 L 102 30 C 101.99967 26.686432 99.313568 24.000331 96 24 L 56 24 C 52.686432 24.000331 50.000331 26.686432 50 30 L 50 32 L 46 32 L 46 30 C 45.999669 26.686432 43.313568 24.000331 40 24 L 16 24 z M 22 36 L 34 36 L 34 38 C 34.000331 41.313568 36.686432 43.999669 40 44 L 56 44 C 59.313568 43.999669 61.999669 41.313568 62 38 L 62 36 L 90 36 L 90 232 L 62 232 L 62 230 C 61.999669 226.68643 59.313568 224.00033 56 224 L 40 224 C 36.686432 224.00033 34.000331 226.68643 34 230 L 34 232 L 22 232 L 22 36 z M 102 40 L 110 40 L 110 44 L 102 44 L 102 40 z M 102 48 L 110 48 L 110 52 L 102 52 L 102 48 z M 131.1543 49.466797 A 3.9936694 3.9936694 0 0 0 127.16016 53.460938 A 3.9936694 3.9936694 0 0 0 131.1543 57.455078 L 237.65234 57.455078 A 3.9936694 3.9936694 0 0 0 241.64453 53.460938 A 3.9936694 3.9936694 0 0 0 237.65234 49.466797 L 131.1543 49.466797 z M 40 52 C 38.895477 52.00011 38.00011 52.895477 38 54 L 38 86 C 38.00011 87.104523 38.895477 87.99989 40 88 L 72 88 C 73.104523 87.99989 73.99989 87.104523 74 86 L 74 54 C 73.99989 52.895477 73.104523 52.00011 72 52 L 40 52 z M 42 56 L 70 56 L 70 84 L 42 84 L 42 56 z M 102 56 L 110 56 L 110 60 L 102 60 L 102 56 z M 102 64 L 110 64 L 110 68 L 102 68 L 102 64 z M 131.1543 65.441406 A 3.9936694 3.9936694 0 0 0 127.16016 69.435547 A 3.9936694 3.9936694 0 0 0 131.1543 73.429688 L 152.45312 73.429688 A 3.9936694 3.9936694 0 0 0 156.44727 69.435547 A 3.9936694 3.9936694 0 0 0 152.45312 65.441406 L 131.1543 65.441406 z M 173.75195 65.441406 A 3.9936694 3.9936694 0 0 0 169.75977 69.435547 A 3.9936694 3.9936694 0 0 0 173.75195 73.429688 L 195.05273 73.429688 A 3.9936694 3.9936694 0 0 0 199.04688 69.435547 A 3.9936694 3.9936694 0 0 0 195.05273 65.441406 L 173.75195 65.441406 z M 216.35156 65.441406 A 3.9936694 3.9936694 0 0 0 212.35742 69.435547 A 3.9936694 3.9936694 0 0 0 216.35156 73.429688 L 237.65234 73.429688 A 3.9936694 3.9936694 0 0 0 241.64453 69.435547 A 3.9936694 3.9936694 0 0 0 237.65234 65.441406 L 216.35156 65.441406 z M 102 72 L 110 72 L 110 76 L 102 76 L 102 72 z M 102 80 L 110 80 L 110 84 L 102 84 L 102 80 z M 127 82.251953 L 169.56445 218.5332 L 199.43555 218.5332 L 242 82.251953 L 220.91406 82.251953 L 192.01758 171.86914 L 184.79297 201.1543 L 177.37305 171.67383 L 148.67188 82.251953 L 127 82.251953 z M 102 88 L 110 88 L 110 92 L 102 92 L 102 88 z M 40 92 C 38.895477 92.00011 38.00011 92.895477 38 94 L 38 126 C 38.00011 127.10452 38.895477 127.99989 40 128 L 72 128 C 73.104523 127.99989 73.99989 127.10452 74 126 L 74 94 C 73.99989 92.895477 73.104523 92.00011 72 92 L 40 92 z M 42 96 L 70 96 L 70 124 L 42 124 L 42 96 z M 102 96 L 110 96 L 110 100 L 102 100 L 102 96 z M 102 104 L 110 104 L 110 108 L 102 108 L 102 104 z M 102 112 L 110 112 L 110 116 L 102 116 L 102 112 z M 102 120 L 110 120 L 110 124 L 102 124 L 102 120 z M 40 140 C 38.895477 140.00011 38.00011 140.89548 38 142 L 38 174 C 38.00011 175.10452 38.895477 175.99989 40 176 L 72 176 C 73.104523 175.99989 73.99989 175.10452 74 174 L 74 142 C 73.99989 140.89548 73.104523 140.00011 72 140 L 40 140 z M 42 144 L 70 144 L 70 172 L 42 172 L 42 144 z M 102 144 L 110 144 L 110 148 L 102 148 L 102 144 z M 102 152 L 110 152 L 110 156 L 102 156 L 102 152 z M 102 160 L 110 160 L 110 164 L 102 164 L 102 160 z M 102 168 L 110 168 L 110 172 L 102 172 L 102 168 z M 102 176 L 110 176 L 110 180 L 102 180 L 102 176 z M 40 180 C 38.895477 180.00011 38.00011 180.89548 38 182 L 38 214 C 38.00011 215.10452 38.895477 215.99989 40 216 L 72 216 C 73.104523 215.99989 73.99989 215.10452 74 214 L 74 182 C 73.99989 180.89548 73.104523 180.00011 72 180 L 40 180 z M 42 184 L 70 184 L 70 212 L 42 212 L 42 184 z M 102 184 L 110 184 L 110 188 L 102 188 L 102 184 z M 102 192 L 110 192 L 110 196 L 102 196 L 102 192 z M 102 200 L 110 200 L 110 204 L 102 204 L 102 200 z M 102 208 L 110 208 L 110 212 L 102 212 L 102 208 z M 102 216 L 110 216 L 110 220 L 102 220 L 102 216 z M 102 224 L 110 224 L 110 228 L 102 228 L 102 224 z " /></g><metadata
     id="metadata134"><rdf:RDF><cc:Work
         rdf:about=""><cc:license
           rdf:resource="http://scripts.sil.org/OFL" /></cc:Work><cc:License
         rdf:about="http://scripts.sil.org/OFL"><cc:permits
           rdf:resource="http://scripts.sil.org/pub/OFL/Reproduction" /><cc:permits
           rdf:resource="http://scripts.sil.org/pub/OFL/Distribution" /><cc:permits
           rdf:resource="http://scripts.sil.org/pub/OFL/Embedding" /><cc:permits
           rdf:resource="http://scripts.sil.org/pub/OFL/DerivativeWorks" /><cc:requires
           rdf:resource="http://scripts.sil.org/pub/OFL/Notice" /><cc:requires
           rdf:resource="http://scripts.sil.org/pub/OFL/Attribution" /><cc:requires
           rdf:resource="http://scripts.sil.org/pub/OFL/ShareAlike" /><cc:requires
           rdf:resource="http://scripts.sil.org/pub/OFL/DerivativeRenaming" /><cc:requires
           rdf:resource="http://scripts.sil.org/pub/OFL/BundlingWhenSelling" /></cc:License></rdf:RDF></metadata></svg>
