<?xml version="1.0" encoding="UTF-8" standalone="no"?>
<!-- Created with Inkscape (http://www.inkscape.org/) -->

<svg
   width="232"
   height="232"
   viewBox="0 0 232 232"
   version="1.1"
   id="svg5"
   inkscape:version="1.2.2 (732a01da63, 2022-12-09)"
   sodipodi:docname="RAMWaterPump.svg"
   xml:space="preserve"
   xmlns:inkscape="http://www.inkscape.org/namespaces/inkscape"
   xmlns:sodipodi="http://sodipodi.sourceforge.net/DTD/sodipodi-0.dtd"
   xmlns="http://www.w3.org/2000/svg"
   xmlns:svg="http://www.w3.org/2000/svg"
   xmlns:rdf="http://www.w3.org/1999/02/22-rdf-syntax-ns#"
   xmlns:cc="http://creativecommons.org/ns#"><sodipodi:namedview
     id="namedview7"
     pagecolor="#ffffff"
     bordercolor="#000000"
     borderopacity="0.25"
     inkscape:showpageshadow="2"
     inkscape:pageopacity="0.0"
     inkscape:pagecheckerboard="true"
     inkscape:deskcolor="#d1d1d1"
     inkscape:document-units="px"
     showgrid="true"
     showguides="true"
     inkscape:zoom="1.509105"
     inkscape:cx="252.79885"
     inkscape:cy="-52.34891"
     inkscape:window-width="1920"
     inkscape:window-height="1027"
     inkscape:window-x="-8"
     inkscape:window-y="-8"
     inkscape:window-maximized="1"
     inkscape:current-layer="layer1"><inkscape:grid
       type="xygrid"
       id="grid132"
       empspacing="8"
       dotted="true"
       originx="-10"
       originy="-18" /><sodipodi:guide
       position="118,170"
       orientation="1,0"
       id="guide136"
       inkscape:locked="false" /><sodipodi:guide
       position="150,122"
       orientation="0,-1"
       id="guide138"
       inkscape:locked="false" /></sodipodi:namedview><defs
     id="defs2" /><g
     inkscape:label="Layer 1"
     inkscape:groupmode="layer"
     id="layer1"
     transform="translate(-10,-18)"><path
       id="path20"
       style="color:#000000;fill:#7f7f7f7f;stroke-linecap:round;stroke-linejoin:round;-inkscape-stroke:none"
       d="M 16 24 C 12.686432 24.000331 10.000331 26.686432 10 30 L 10 238 C 10.000331 241.31357 12.686432 243.99967 16 244 L 40 244 C 43.313568 243.99967 45.999669 241.31357 46 238 L 46 236 L 50 236 L 50 238 C 50.000331 241.31357 52.686432 243.99967 56 244 L 96 244 C 99.313568 243.99967 101.99967 241.31357 102 238 L 102 232 L 112 232 C 113.10452 231.99989 113.99989 231.10452 114 230 L 114 222 L 114 214 L 114 206 L 114 198 L 114 190 L 114 182 L 114 174 L 114 166 L 114 158 L 114 150 L 114 142 C 113.99989 140.89548 113.10452 140.00011 112 140 L 102 140 L 102 128 L 112 128 C 113.10452 127.99989 113.99989 127.10452 114 126 L 114 118 L 114 110 L 114 102 L 114 94 L 114 86 L 114 78 L 114 70 L 114 62 L 114 54 L 114 46 L 114 38 C 113.99989 36.895477 113.10452 36.00011 112 36 L 102 36 L 102 30 C 101.99967 26.686432 99.313568 24.000331 96 24 L 56 24 C 52.686432 24.000331 50.000331 26.686432 50 30 L 50 32 L 46 32 L 46 30 C 45.999669 26.686432 43.313568 24.000331 40 24 L 16 24 z M 22 36 L 34 36 L 34 38 C 34.000331 41.313568 36.686432 43.999669 40 44 L 56 44 C 59.313568 43.999669 61.999669 41.313568 62 38 L 62 36 L 90 36 L 90 232 L 62 232 L 62 230 C 61.999669 226.68643 59.313568 224.00033 56 224 L 40 224 C 36.686432 224.00033 34.000331 226.68643 34 230 L 34 232 L 22 232 L 22 36 z M 102 40 L 110 40 L 110 44 L 102 44 L 102 40 z M 102 48 L 110 48 L 110 52 L 102 52 L 102 48 z M 40 52 C 38.895477 52.00011 38.00011 52.895477 38 54 L 38 86 C 38.00011 87.104523 38.895477 87.99989 40 88 L 72 88 C 73.104523 87.99989 73.99989 87.104523 74 86 L 74 54 C 73.99989 52.895477 73.104523 52.00011 72 52 L 40 52 z M 42 56 L 70 56 L 70 84 L 42 84 L 42 56 z M 102 56 L 110 56 L 110 60 L 102 60 L 102 56 z M 102 64 L 110 64 L 110 68 L 102 68 L 102 64 z M 102 72 L 110 72 L 110 76 L 102 76 L 102 72 z M 182.00586 74 C 148.90215 74 122 100.90216 122 134.00586 C 121.99999 167.10957 148.90215 194 182.00586 194 C 215.10958 194 242.00001 167.10957 242 134.00586 C 242 100.90216 215.10958 74.000001 182.00586 74 z M 182.00586 79.71875 C 188.53581 79.71875 194.79315 80.867799 200.58789 82.974609 C 198.16616 84.389569 195.85153 85.925673 193.66016 87.578125 C 188.61332 91.382958 184.20846 95.786707 180.55273 100.625 C 176.89738 105.4633 173.99185 110.73672 171.08594 116.00977 C 167.2637 113.61384 163.44182 111.21914 160.00391 108.18359 C 156.566 105.14806 153.51266 101.47296 150.99219 97.255859 C 149.92259 95.466213 148.94814 93.578372 148.08008 91.603516 C 157.36929 84.165473 169.16102 79.71875 182.00586 79.71875 z M 102 80 L 110 80 L 110 84 L 102 84 L 102 80 z M 102 88 L 110 88 L 110 92 L 102 92 L 102 88 z M 211.76172 88.580078 C 226.5378 98.272987 236.28125 114.98497 236.28125 134.00586 C 236.28125 134.43254 236.27788 134.85696 236.26758 135.28125 C 234.24204 133.49881 232.13917 131.84758 229.9707 130.33594 C 224.78468 126.72196 219.22688 123.90024 213.48633 121.92578 C 207.74541 119.95135 201.82369 118.82383 195.90039 117.69531 C 197.00242 113.32751 198.10277 108.95871 199.93359 104.75781 C 201.76403 100.55691 204.32481 96.523531 207.56445 92.828125 C 208.85648 91.354449 210.25854 89.936074 211.76172 88.580078 z M 40 92 C 38.895477 92.00011 38.00011 92.895477 38 94 L 38 126 C 38.00011 127.10452 38.895477 127.99989 40 128 L 72 128 C 73.104523 127.99989 73.99989 127.10452 74 126 L 74 94 C 73.99989 92.895477 73.104523 92.00011 72 92 L 40 92 z M 42 96 L 70 96 L 70 124 L 42 124 L 42 96 z M 102 96 L 110 96 L 110 100 L 102 100 L 102 96 z M 139.34961 100.39648 C 139.96452 103.28454 140.74823 106.10045 141.69336 108.82812 C 143.75972 114.7942 146.59471 120.33612 150.07617 125.30078 C 153.55728 130.26583 157.6853 134.65369 161.8125 139.04102 C 158.34837 141.92845 154.88325 144.81617 150.92773 147.14062 C 146.9726 149.46544 142.52616 151.22731 137.72852 152.31641 C 135.63401 152.79181 133.47279 153.13719 131.25781 153.34961 C 128.9706 147.34273 127.71875 140.82325 127.71875 134.00586 C 127.71875 121.30685 132.06338 109.63626 139.34961 100.39648 z M 102 104 L 110 104 L 110 108 L 102 108 L 102 104 z M 102 112 L 110 112 L 110 116 L 102 116 L 102 112 z M 102 120 L 110 120 L 110 124 L 102 124 L 102 120 z M 182.96484 121.10547 C 190.10131 121.10547 195.88672 126.88009 195.88672 134.00195 C 195.88672 141.12381 190.10131 146.89648 182.96484 146.89648 C 175.82838 146.89648 170.04297 141.12381 170.04297 134.00195 C 170.04297 126.88009 175.82838 121.10547 182.96484 121.10547 z M 182.96484 126.63281 C 178.88676 126.63281 175.58203 129.93222 175.58203 134.00195 C 175.58203 138.07169 178.88676 141.36914 182.96484 141.36914 C 187.04292 141.36914 190.34961 138.07169 190.34961 134.00195 C 190.34961 129.93222 187.04292 126.63281 182.96484 126.63281 z M 40 140 C 38.895477 140.00011 38.00011 140.89548 38 142 L 38 174 C 38.00011 175.10452 38.895477 175.99989 40 176 L 72 176 C 73.104523 175.99989 73.99989 175.10452 74 174 L 74 142 C 73.99989 140.89548 73.104523 140.00011 72 140 L 40 140 z M 210.42188 141.37891 C 212.12023 141.37391 213.82549 141.43297 215.53906 141.59766 C 220.10816 142.03721 224.74266 143.22149 229.26562 145.1543 C 231.0402 145.91263 232.79625 146.78773 234.52539 147.77539 C 229.73446 166.15022 215.57568 180.70979 197.4375 186.06445 C 198.61357 183.41375 199.61807 180.7237 200.44531 178.01172 C 202.28721 171.97268 203.25579 165.82418 203.36328 159.76562 C 203.47108 153.7067 202.71752 147.73808 201.96289 141.76758 C 204.77729 141.57784 207.59125 141.38744 210.42188 141.37891 z M 42 144 L 70 144 L 70 172 L 42 172 L 42 144 z M 102 144 L 110 144 L 110 148 L 102 148 L 102 144 z M 102 152 L 110 152 L 110 156 L 102 156 L 102 152 z M 180.89453 154.95898 C 182.57583 159.13926 184.25649 163.32049 185.25 167.79297 C 186.24315 172.2654 186.55 177.02968 186.10547 181.91992 C 185.91686 183.99272 185.59283 186.08877 185.13281 188.19336 C 184.09779 188.25186 183.05577 188.28125 182.00586 188.28125 C 163.22352 188.28125 146.68984 178.7818 136.94531 164.31641 C 139.94834 164.63916 142.9341 164.77379 145.88477 164.71875 C 152.20901 164.60085 158.36681 163.62152 164.17383 161.85156 C 169.9812 160.08159 175.43789 157.52068 180.89453 154.95898 z M 102 160 L 110 160 L 110 164 L 102 164 L 102 160 z M 102 168 L 110 168 L 110 172 L 102 172 L 102 168 z M 102 176 L 110 176 L 110 180 L 102 180 L 102 176 z M 40 180 C 38.895477 180.00011 38.00011 180.89548 38 182 L 38 214 C 38.00011 215.10452 38.895477 215.99989 40 216 L 72 216 C 73.104523 215.99989 73.99989 215.10452 74 214 L 74 182 C 73.99989 180.89548 73.104523 180.00011 72 180 L 40 180 z M 42 184 L 70 184 L 70 212 L 42 212 L 42 184 z M 102 184 L 110 184 L 110 188 L 102 188 L 102 184 z M 102 192 L 110 192 L 110 196 L 102 196 L 102 192 z M 102 200 L 110 200 L 110 204 L 102 204 L 102 200 z M 102 208 L 110 208 L 110 212 L 102 212 L 102 208 z M 102 216 L 110 216 L 110 220 L 102 220 L 102 216 z M 102 224 L 110 224 L 110 228 L 102 228 L 102 224 z " /></g><metadata
     id="metadata134"><rdf:RDF><cc:Work
         rdf:about=""><cc:license
           rdf:resource="http://scripts.sil.org/OFL" /></cc:Work><cc:License
         rdf:about="http://scripts.sil.org/OFL"><cc:permits
           rdf:resource="http://scripts.sil.org/pub/OFL/Reproduction" /><cc:permits
           rdf:resource="http://scripts.sil.org/pub/OFL/Distribution" /><cc:permits
           rdf:resource="http://scripts.sil.org/pub/OFL/Embedding" /><cc:permits
           rdf:resource="http://scripts.sil.org/pub/OFL/DerivativeWorks" /><cc:requires
           rdf:resource="http://scripts.sil.org/pub/OFL/Notice" /><cc:requires
           rdf:resource="http://scripts.sil.org/pub/OFL/Attribution" /><cc:requires
           rdf:resource="http://scripts.sil.org/pub/OFL/ShareAlike" /><cc:requires
           rdf:resource="http://scripts.sil.org/pub/OFL/DerivativeRenaming" /><cc:requires
           rdf:resource="http://scripts.sil.org/pub/OFL/BundlingWhenSelling" /></cc:License></rdf:RDF></metadata></svg>
