<?xml version="1.0" encoding="UTF-8" standalone="no"?>
<!-- Created with Inkscape (http://www.inkscape.org/) -->

<svg
   width="246"
   height="246"
   viewBox="0 0 246 246"
   version="1.1"
   id="svg5"
   inkscape:version="1.2.2 (732a01da63, 2022-12-09)"
   sodipodi:docname="DriveP.svg"
   xmlns:inkscape="http://www.inkscape.org/namespaces/inkscape"
   xmlns:sodipodi="http://sodipodi.sourceforge.net/DTD/sodipodi-0.dtd"
   xmlns="http://www.w3.org/2000/svg"
   xmlns:svg="http://www.w3.org/2000/svg"
   xmlns:rdf="http://www.w3.org/1999/02/22-rdf-syntax-ns#"
   xmlns:cc="http://creativecommons.org/ns#">
  <sodipodi:namedview
     id="namedview7"
     pagecolor="#ffffff"
     bordercolor="#000000"
     borderopacity="0.25"
     inkscape:showpageshadow="2"
     inkscape:pageopacity="0.0"
     inkscape:pagecheckerboard="true"
     inkscape:deskcolor="#d1d1d1"
     inkscape:document-units="px"
     showgrid="true"
     showguides="true"
     inkscape:zoom="2.8284271"
     inkscape:cx="24.395184"
     inkscape:cy="91.923882"
     inkscape:window-width="1920"
     inkscape:window-height="1027"
     inkscape:window-x="-8"
     inkscape:window-y="-8"
     inkscape:window-maximized="1"
     inkscape:current-layer="layer1">
    <inkscape:grid
       type="xygrid"
       id="grid132"
       empspacing="8"
       dotted="true"
       originx="0"
       originy="0" />
    <sodipodi:guide
       position="123,252"
       orientation="1,0"
       id="guide136"
       inkscape:locked="false" />
    <sodipodi:guide
       position="130,128"
       orientation="0,-1"
       id="guide138"
       inkscape:locked="false" />
  </sodipodi:namedview>
  <defs
     id="defs2" />
  <g
     inkscape:label="Layer 1"
     inkscape:groupmode="layer"
     id="layer1"
     transform="translate(-22,-2)">
    <path
       id="rect9586"
       style="fill:#7f7f7f7f;stroke:none;stroke-width:6;stroke-linecap:round;paint-order:stroke fill markers;fill-opacity:1"
       d="M 66.5 2 C 54.43344 2 45.820696 12.222929 44.539062 23.310547 L 23.482422 205.48242 C 23.374011 205.99441 23.370549 206.53651 23.298828 207.06055 L 23.039062 209.31055 A 6 6 0 0 0 23.0625 209.39062 C 23.056631 209.59781 23 209.79145 23 210 L 23 226 C 23 238.08419 32.915807 248 45 248 L 245 248 C 257.08419 248 267 238.08419 267 226 L 267 210 C 267 209.86364 266.96148 209.73736 266.95898 209.60156 A 6 6 0 0 0 266.9707 209.40625 L 248.4707 23.40625 C 247.35373 12.176178 238.55974 2 226.5 2 L 66.5 2 z M 66.5 14 L 226.5 14 C 231.61422 14 235.94649 18.73418 236.5293 24.59375 L 252.93555 189.55078 C 250.46383 188.58159 247.80128 188 245 188 L 45 188 C 42.328378 188 39.793894 188.55384 37.417969 189.43945 L 56.460938 24.689453 C 57.151337 18.716702 61.392595 14 66.5 14 z M 98.152344 34 L 98.152344 168.01562 L 118.50391 168.01562 L 118.50391 119.05664 L 147.88086 119.05664 C 157.86485 119.05664 166.56819 117.26368 173.99219 113.67969 C 181.41618 110.09569 187.17549 105.10312 191.27148 98.703125 C 195.49548 92.303131 197.60742 84.752819 197.60742 76.048828 C 197.60742 67.600837 195.62425 60.240744 191.65625 53.96875 C 187.68825 47.568756 182.05576 42.63959 174.75977 39.183594 C 167.59177 35.727597 159.20741 34 149.60742 34 L 98.152344 34 z M 118.50391 51.279297 L 149.60742 51.279297 C 157.67141 51.279297 164.136 53.583411 169 58.191406 C 173.864 62.671402 176.29688 68.624836 176.29688 76.048828 C 176.29688 83.72882 173.67182 89.93588 168.42383 94.671875 C 163.17583 99.407873 156.26349 101.77539 147.6875 101.77539 L 118.50391 101.77539 L 118.50391 51.279297 z M 45 200 L 245 200 C 250.53266 200 254.77247 204.20766 254.93945 209.68945 L 255 210.29883 L 255 226 C 255 231.64377 250.64377 236 245 236 L 45 236 C 39.356228 236 35 231.64377 35 226 L 35 210.35156 L 35.099609 209.48828 C 35.369937 204.11154 39.539305 200 45 200 z M 63.5 206 C 54.636009 206 47.5 211.35201 47.5 218 C 47.5 224.64799 54.636009 230 63.5 230 L 191.5 230 C 200.36399 230 207.5 224.64799 207.5 218 C 207.5 211.35201 200.36399 206 191.5 206 L 63.5 206 z M 230.5 206 A 12 12 0 0 0 218.5 218 A 12 12 0 0 0 230.5 230 A 12 12 0 0 0 242.5 218 A 12 12 0 0 0 230.5 206 z " />
    <g
       aria-label="P"
       id="text189"
       style="font-size:192px;font-family:'Azeret Mono';-inkscape-font-specification:'Azeret Mono';text-align:center;text-anchor:middle;stroke-width:6;stroke-linecap:round;stroke-linejoin:round;paint-order:stroke fill markers" />
  </g>
  <metadata
     id="metadata134">
    <rdf:RDF>
      <cc:Work
         rdf:about="">
        <cc:license
           rdf:resource="http://scripts.sil.org/OFL" />
      </cc:Work>
      <cc:License
         rdf:about="http://scripts.sil.org/OFL">
        <cc:permits
           rdf:resource="http://scripts.sil.org/pub/OFL/Reproduction" />
        <cc:permits
           rdf:resource="http://scripts.sil.org/pub/OFL/Distribution" />
        <cc:permits
           rdf:resource="http://scripts.sil.org/pub/OFL/Embedding" />
        <cc:permits
           rdf:resource="http://scripts.sil.org/pub/OFL/DerivativeWorks" />
        <cc:requires
           rdf:resource="http://scripts.sil.org/pub/OFL/Notice" />
        <cc:requires
           rdf:resource="http://scripts.sil.org/pub/OFL/Attribution" />
        <cc:requires
           rdf:resource="http://scripts.sil.org/pub/OFL/ShareAlike" />
        <cc:requires
           rdf:resource="http://scripts.sil.org/pub/OFL/DerivativeRenaming" />
        <cc:requires
           rdf:resource="http://scripts.sil.org/pub/OFL/BundlingWhenSelling" />
      </cc:License>
    </rdf:RDF>
  </metadata>
</svg>
