<?xml version="1.0" encoding="UTF-8" standalone="no"?>
<!-- Created with Inkscape (http://www.inkscape.org/) -->

<svg
   width="246"
   height="246"
   viewBox="0 0 246 246"
   version="1.1"
   id="svg5"
   inkscape:version="1.2.2 (732a01da63, 2022-12-09)"
   sodipodi:docname="DriveC.svg"
   xmlns:inkscape="http://www.inkscape.org/namespaces/inkscape"
   xmlns:sodipodi="http://sodipodi.sourceforge.net/DTD/sodipodi-0.dtd"
   xmlns="http://www.w3.org/2000/svg"
   xmlns:svg="http://www.w3.org/2000/svg"
   xmlns:rdf="http://www.w3.org/1999/02/22-rdf-syntax-ns#"
   xmlns:cc="http://creativecommons.org/ns#">
  <sodipodi:namedview
     id="namedview7"
     pagecolor="#ffffff"
     bordercolor="#000000"
     borderopacity="0.25"
     inkscape:showpageshadow="2"
     inkscape:pageopacity="0.0"
     inkscape:pagecheckerboard="true"
     inkscape:deskcolor="#d1d1d1"
     inkscape:document-units="px"
     showgrid="true"
     showguides="true"
     inkscape:zoom="2.8284271"
     inkscape:cx="24.395184"
     inkscape:cy="91.923882"
     inkscape:window-width="1920"
     inkscape:window-height="1027"
     inkscape:window-x="-8"
     inkscape:window-y="-8"
     inkscape:window-maximized="1"
     inkscape:current-layer="layer1">
    <inkscape:grid
       type="xygrid"
       id="grid132"
       empspacing="8"
       dotted="true"
       originx="0"
       originy="0" />
    <sodipodi:guide
       position="123,252"
       orientation="1,0"
       id="guide136"
       inkscape:locked="false" />
    <sodipodi:guide
       position="130,128"
       orientation="0,-1"
       id="guide138"
       inkscape:locked="false" />
  </sodipodi:namedview>
  <defs
     id="defs2" />
  <g
     inkscape:label="Layer 1"
     inkscape:groupmode="layer"
     id="layer1"
     transform="translate(-22,-2)">
    <path
       id="rect9586"
       style="fill:#7f7f7f7f;stroke:none;stroke-width:6;stroke-linecap:round;paint-order:stroke fill markers;fill-opacity:1"
       d="M 66.5 2 C 54.43344 2 45.820696 12.222929 44.539062 23.310547 L 23.482422 205.48242 C 23.374011 205.99441 23.370549 206.53651 23.298828 207.06055 L 23.039062 209.31055 A 6 6 0 0 0 23.0625 209.39062 C 23.056631 209.59781 23 209.79145 23 210 L 23 226 C 23 238.08419 32.915807 248 45 248 L 245 248 C 257.08419 248 267 238.08419 267 226 L 267 210 C 267 209.86364 266.96148 209.73736 266.95898 209.60156 A 6 6 0 0 0 266.9707 209.40625 L 248.4707 23.40625 C 247.35373 12.176178 238.55974 2 226.5 2 L 66.5 2 z M 66.5 14 L 226.5 14 C 231.61422 14 235.94649 18.73418 236.5293 24.59375 L 252.93555 189.55078 C 250.46383 188.58159 247.80128 188 245 188 L 45 188 C 42.328378 188 39.793894 188.55384 37.417969 189.43945 L 56.460938 24.689453 C 57.151337 18.716702 61.392595 14 66.5 14 z M 148.07227 31.695312 C 136.29628 31.695312 126.05555 34.575943 117.35156 40.335938 C 108.64757 45.967932 101.864 53.967948 97 64.335938 C 92.136005 74.575927 89.703125 86.736418 89.703125 100.81641 C 89.703125 114.51239 92.007239 126.60753 96.615234 137.10352 C 101.22323 147.47151 107.81659 155.60029 116.39258 161.48828 C 125.09657 167.37628 135.4007 170.32031 147.30469 170.32031 C 157.67268 170.32031 166.69696 168.40054 174.37695 164.56055 C 182.18495 160.59255 188.392 155.08882 193 148.04883 C 197.608 141.00884 200.35986 132.68788 201.25586 123.08789 L 178.79297 123.08789 C 178.02497 132.30388 174.75999 139.60057 169 144.97656 C 163.36801 150.35256 156.13668 153.03906 147.30469 153.03906 C 140.26469 153.03906 133.99228 150.99248 128.48828 146.89648 C 123.11229 142.67249 118.82304 136.65565 115.62305 128.84766 C 112.55105 121.03966 111.01563 111.7598 111.01562 101.00781 C 111.01563 90.255821 112.55105 81.039367 115.62305 73.359375 C 118.69504 65.551383 122.98429 59.536496 128.48828 55.3125 C 134.12028 51.088504 140.58487 48.976562 147.88086 48.976562 C 156.32885 48.976563 163.23924 51.599661 168.61523 56.847656 C 173.99123 61.967651 177.1928 68.816587 178.2168 77.392578 L 200.48828 77.392578 C 199.72028 67.920588 196.90306 59.791806 192.03906 53.007812 C 187.30307 46.095819 181.09601 40.847668 173.41602 37.263672 C 165.86402 33.551676 157.41626 31.695312 148.07227 31.695312 z M 45 200 L 245 200 C 250.53266 200 254.77247 204.20766 254.93945 209.68945 L 255 210.29883 L 255 226 C 255 231.64377 250.64377 236 245 236 L 45 236 C 39.356228 236 35 231.64377 35 226 L 35 210.35156 L 35.099609 209.48828 C 35.369937 204.11154 39.539305 200 45 200 z M 63.5 206 C 54.636009 206 47.5 211.35201 47.5 218 C 47.5 224.64799 54.636009 230 63.5 230 L 191.5 230 C 200.36399 230 207.5 224.64799 207.5 218 C 207.5 211.35201 200.36399 206 191.5 206 L 63.5 206 z M 230.5 206 A 12 12 0 0 0 218.5 218 A 12 12 0 0 0 230.5 230 A 12 12 0 0 0 242.5 218 A 12 12 0 0 0 230.5 206 z " />
    <g
       aria-label="C"
       id="text189"
       style="font-size:192px;font-family:'Azeret Mono';-inkscape-font-specification:'Azeret Mono';text-align:center;text-anchor:middle;stroke-width:6;stroke-linecap:round;stroke-linejoin:round;paint-order:stroke fill markers" />
  </g>
  <metadata
     id="metadata134">
    <rdf:RDF>
      <cc:Work
         rdf:about="">
        <cc:license
           rdf:resource="http://scripts.sil.org/OFL" />
      </cc:Work>
      <cc:License
         rdf:about="http://scripts.sil.org/OFL">
        <cc:permits
           rdf:resource="http://scripts.sil.org/pub/OFL/Reproduction" />
        <cc:permits
           rdf:resource="http://scripts.sil.org/pub/OFL/Distribution" />
        <cc:permits
           rdf:resource="http://scripts.sil.org/pub/OFL/Embedding" />
        <cc:permits
           rdf:resource="http://scripts.sil.org/pub/OFL/DerivativeWorks" />
        <cc:requires
           rdf:resource="http://scripts.sil.org/pub/OFL/Notice" />
        <cc:requires
           rdf:resource="http://scripts.sil.org/pub/OFL/Attribution" />
        <cc:requires
           rdf:resource="http://scripts.sil.org/pub/OFL/ShareAlike" />
        <cc:requires
           rdf:resource="http://scripts.sil.org/pub/OFL/DerivativeRenaming" />
        <cc:requires
           rdf:resource="http://scripts.sil.org/pub/OFL/BundlingWhenSelling" />
      </cc:License>
    </rdf:RDF>
  </metadata>
</svg>
