<?xml version="1.0" encoding="UTF-8" standalone="no"?>
<!-- Created with Inkscape (http://www.inkscape.org/) -->

<svg
   width="246"
   height="246"
   viewBox="0 0 246 246"
   version="1.1"
   id="svg5"
   inkscape:version="1.2.2 (732a01da63, 2022-12-09)"
   sodipodi:docname="DriveS.svg"
   xmlns:inkscape="http://www.inkscape.org/namespaces/inkscape"
   xmlns:sodipodi="http://sodipodi.sourceforge.net/DTD/sodipodi-0.dtd"
   xmlns="http://www.w3.org/2000/svg"
   xmlns:svg="http://www.w3.org/2000/svg"
   xmlns:rdf="http://www.w3.org/1999/02/22-rdf-syntax-ns#"
   xmlns:cc="http://creativecommons.org/ns#">
  <sodipodi:namedview
     id="namedview7"
     pagecolor="#ffffff"
     bordercolor="#000000"
     borderopacity="0.25"
     inkscape:showpageshadow="2"
     inkscape:pageopacity="0.0"
     inkscape:pagecheckerboard="true"
     inkscape:deskcolor="#d1d1d1"
     inkscape:document-units="px"
     showgrid="true"
     showguides="true"
     inkscape:zoom="2.8284271"
     inkscape:cx="24.395184"
     inkscape:cy="91.923882"
     inkscape:window-width="1920"
     inkscape:window-height="1027"
     inkscape:window-x="-8"
     inkscape:window-y="-8"
     inkscape:window-maximized="1"
     inkscape:current-layer="layer1">
    <inkscape:grid
       type="xygrid"
       id="grid132"
       empspacing="8"
       dotted="true"
       originx="0"
       originy="0" />
    <sodipodi:guide
       position="123,252"
       orientation="1,0"
       id="guide136"
       inkscape:locked="false" />
    <sodipodi:guide
       position="130,128"
       orientation="0,-1"
       id="guide138"
       inkscape:locked="false" />
  </sodipodi:namedview>
  <defs
     id="defs2" />
  <g
     inkscape:label="Layer 1"
     inkscape:groupmode="layer"
     id="layer1"
     transform="translate(-22,-2)">
    <path
       id="rect9586"
       style="fill:#000000;stroke:none;stroke-width:6;stroke-linecap:round;paint-order:stroke fill markers;fill-opacity:1"
       d="M 66.5 2 C 54.43344 2 45.820696 12.222929 44.539062 23.310547 L 23.482422 205.48242 C 23.374011 205.99441 23.370549 206.53651 23.298828 207.06055 L 23.039062 209.31055 A 6 6 0 0 0 23.0625 209.39062 C 23.056631 209.59781 23 209.79145 23 210 L 23 226 C 23 238.08419 32.915807 248 45 248 L 245 248 C 257.08419 248 267 238.08419 267 226 L 267 210 C 267 209.86364 266.96148 209.73736 266.95898 209.60156 A 6 6 0 0 0 266.9707 209.40625 L 248.4707 23.40625 C 247.35373 12.176178 238.55974 2 226.5 2 L 66.5 2 z M 66.5 14 L 226.5 14 C 231.61422 14 235.94649 18.73418 236.5293 24.59375 L 252.93555 189.55078 C 250.46383 188.58159 247.80128 188 245 188 L 45 188 C 42.328378 188 39.793894 188.55384 37.417969 189.43945 L 56.460938 24.689453 C 57.151337 18.716702 61.392595 14 66.5 14 z M 144.61523 31.695312 C 135.14324 31.695312 126.88765 33.359503 119.84766 36.6875 C 112.93566 39.887497 107.49534 44.368912 103.52734 50.128906 C 99.687345 55.760901 97.767578 62.223539 97.767578 69.519531 C 97.767578 76.431524 99.112781 82.127426 101.80078 86.607422 C 104.61678 91.087417 108.26415 94.671378 112.74414 97.359375 C 117.35214 100.04737 122.34471 102.28808 127.7207 104.08008 C 133.0967 105.74408 138.47166 107.2795 143.84766 108.6875 C 149.35165 110.0955 154.34422 111.69628 158.82422 113.48828 C 163.43221 115.28028 167.07958 117.58439 169.76758 120.40039 C 172.58358 123.21639 173.99219 126.92716 173.99219 131.53516 C 173.99219 138.44715 171.43249 143.76066 166.3125 147.47266 C 161.3205 151.18465 154.79251 153.03906 146.72852 153.03906 C 137.00053 153.03906 129.38485 150.22379 123.88086 144.5918 C 118.50486 138.9598 115.81641 130.83297 115.81641 120.20898 L 95.65625 120.20898 C 95.65625 136.20897 100.26448 148.55968 109.48047 157.26367 C 118.82446 165.96766 131.30394 170.32031 146.91992 170.32031 C 156.13591 170.32031 164.3281 168.71953 171.49609 165.51953 C 178.79209 162.31953 184.55139 157.84007 188.77539 152.08008 C 193.12739 146.19208 195.30469 139.27974 195.30469 131.34375 C 195.30469 124.04776 193.89608 118.03287 191.08008 113.29688 C 188.39208 108.43288 184.74471 104.52798 180.13672 101.58398 C 175.65672 98.639985 170.66415 96.335873 165.16016 94.671875 C 159.78416 92.879877 154.40724 91.344452 149.03125 90.064453 C 143.65526 88.656455 138.66464 87.184436 134.05664 85.648438 C 129.57665 83.984439 125.92733 81.872497 123.11133 79.3125 C 120.42333 76.752503 119.08008 73.295355 119.08008 68.943359 C 119.08008 62.799366 121.4476 57.935559 126.18359 54.351562 C 130.91959 50.767566 137.06324 48.976563 144.61523 48.976562 C 152.42323 48.976562 159.07999 51.215317 164.58398 55.695312 C 170.21598 60.047308 173.16002 66.000742 173.41602 73.552734 L 193.76758 73.552734 C 193.63958 64.848743 191.33546 57.423291 186.85547 51.279297 C 182.50347 45.007303 176.6154 40.208856 169.19141 36.880859 C 161.89541 33.424863 153.70323 31.695312 144.61523 31.695312 z M 45 200 L 245 200 C 250.53266 200 254.77247 204.20766 254.93945 209.68945 L 255 210.29883 L 255 226 C 255 231.64377 250.64377 236 245 236 L 45 236 C 39.356228 236 35 231.64377 35 226 L 35 210.35156 L 35.099609 209.48828 C 35.369937 204.11154 39.539305 200 45 200 z M 63.5 206 C 54.636009 206 47.5 211.35201 47.5 218 C 47.5 224.64799 54.636009 230 63.5 230 L 191.5 230 C 200.36399 230 207.5 224.64799 207.5 218 C 207.5 211.35201 200.36399 206 191.5 206 L 63.5 206 z M 230.5 206 A 12 12 0 0 0 218.5 218 A 12 12 0 0 0 230.5 230 A 12 12 0 0 0 242.5 218 A 12 12 0 0 0 230.5 206 z " />
    <g
       aria-label="S"
       id="text189"
       style="font-size:192px;font-family:'Azeret Mono';-inkscape-font-specification:'Azeret Mono';text-align:center;text-anchor:middle;stroke-width:6;stroke-linecap:round;stroke-linejoin:round;paint-order:stroke fill markers" />
  </g>
  <metadata
     id="metadata134">
    <rdf:RDF>
      <cc:Work
         rdf:about="">
        <cc:license
           rdf:resource="http://scripts.sil.org/OFL" />
      </cc:Work>
      <cc:License
         rdf:about="http://scripts.sil.org/OFL">
        <cc:permits
           rdf:resource="http://scripts.sil.org/pub/OFL/Reproduction" />
        <cc:permits
           rdf:resource="http://scripts.sil.org/pub/OFL/Distribution" />
        <cc:permits
           rdf:resource="http://scripts.sil.org/pub/OFL/Embedding" />
        <cc:permits
           rdf:resource="http://scripts.sil.org/pub/OFL/DerivativeWorks" />
        <cc:requires
           rdf:resource="http://scripts.sil.org/pub/OFL/Notice" />
        <cc:requires
           rdf:resource="http://scripts.sil.org/pub/OFL/Attribution" />
        <cc:requires
           rdf:resource="http://scripts.sil.org/pub/OFL/ShareAlike" />
        <cc:requires
           rdf:resource="http://scripts.sil.org/pub/OFL/DerivativeRenaming" />
        <cc:requires
           rdf:resource="http://scripts.sil.org/pub/OFL/BundlingWhenSelling" />
      </cc:License>
    </rdf:RDF>
  </metadata>
</svg>
