<?xml version="1.0" encoding="UTF-8" standalone="no"?>
<!-- Created with Inkscape (http://www.inkscape.org/) -->

<svg
   width="256"
   height="256"
   viewBox="0 0 256 256"
   version="1.1"
   id="svg5"
   inkscape:version="1.2.2 (732a01da63, 2022-12-09)"
   sodipodi:docname="Graph.svg"
   xmlns:inkscape="http://www.inkscape.org/namespaces/inkscape"
   xmlns:sodipodi="http://sodipodi.sourceforge.net/DTD/sodipodi-0.dtd"
   xmlns="http://www.w3.org/2000/svg"
   xmlns:svg="http://www.w3.org/2000/svg"
   xmlns:rdf="http://www.w3.org/1999/02/22-rdf-syntax-ns#"
   xmlns:cc="http://creativecommons.org/ns#">
  <sodipodi:namedview
     id="namedview7"
     pagecolor="#ffffff"
     bordercolor="#000000"
     borderopacity="0.25"
     inkscape:showpageshadow="2"
     inkscape:pageopacity="0.0"
     inkscape:pagecheckerboard="true"
     inkscape:deskcolor="#d1d1d1"
     inkscape:document-units="px"
     showgrid="true"
     showguides="true"
     inkscape:zoom="2.1341968"
     inkscape:cx="30.924984"
     inkscape:cy="111.04881"
     inkscape:window-width="1920"
     inkscape:window-height="1027"
     inkscape:window-x="-8"
     inkscape:window-y="-8"
     inkscape:window-maximized="1"
     inkscape:current-layer="layer1">
    <inkscape:grid
       type="xygrid"
       id="grid132"
       empspacing="8"
       dotted="true" />
    <sodipodi:guide
       position="128,176"
       orientation="1,0"
       id="guide136"
       inkscape:locked="false" />
    <sodipodi:guide
       position="160,128"
       orientation="0,-1"
       id="guide138"
       inkscape:locked="false" />
  </sodipodi:namedview>
  <defs
     id="defs2" />
  <g
     inkscape:label="Layer 1"
     inkscape:groupmode="layer"
     id="layer1">
    <path
       id="rect958"
       style="color:#000000;fill:#7f7f7f7f;stroke-linecap:round;stroke-linejoin:round;-inkscape-stroke:none;paint-order:stroke fill markers"
       d="M 24 0 C 10.842404 0 0 10.842404 0 24 L 0 232 C 0 245.1576 10.842404 256 24 256 L 232 256 C 245.1576 256 256 245.1576 256 232 L 256 24 C 256 10.842404 245.1576 0 232 0 L 24 0 z M 24 16 L 232 16 C 236.57037 16 240 19.429632 240 24 L 240 232 C 240 236.57037 236.57037 240 232 240 L 24 240 C 19.429632 240 16 236.57037 16 232 L 16 24 C 16 19.429632 19.429632 16 24 16 z M 86.978516 26.089844 A 6.0006 6.0006 0 0 0 82.308594 30.103516 L 51.675781 122 L 24 122 A 6 6 0 0 0 18 128 A 6 6 0 0 0 24 134 L 56 134 A 6.0006 6.0006 0 0 0 61.691406 129.89648 L 88.623047 49.099609 L 122.46094 130.30859 L 162.46094 226.30859 A 6.0006 6.0006 0 0 0 173.69141 225.89648 L 204.32422 134 L 232 134 A 6 6 0 0 0 238 128 A 6 6 0 0 0 232 122 L 200 122 A 6.0006 6.0006 0 0 0 194.30859 126.10352 L 167.37695 206.90039 L 133.53906 125.69141 L 93.539062 29.691406 A 6.0006 6.0006 0 0 0 90.15625 26.402344 A 6.0006 6.0006 0 0 0 86.978516 26.089844 z " />
  </g>
  <metadata
     id="metadata134">
    <rdf:RDF>
      <cc:Work
         rdf:about="">
        <cc:license
           rdf:resource="http://scripts.sil.org/OFL" />
      </cc:Work>
      <cc:License
         rdf:about="http://scripts.sil.org/OFL">
        <cc:permits
           rdf:resource="http://scripts.sil.org/pub/OFL/Reproduction" />
        <cc:permits
           rdf:resource="http://scripts.sil.org/pub/OFL/Distribution" />
        <cc:permits
           rdf:resource="http://scripts.sil.org/pub/OFL/Embedding" />
        <cc:permits
           rdf:resource="http://scripts.sil.org/pub/OFL/DerivativeWorks" />
        <cc:requires
           rdf:resource="http://scripts.sil.org/pub/OFL/Notice" />
        <cc:requires
           rdf:resource="http://scripts.sil.org/pub/OFL/Attribution" />
        <cc:requires
           rdf:resource="http://scripts.sil.org/pub/OFL/ShareAlike" />
        <cc:requires
           rdf:resource="http://scripts.sil.org/pub/OFL/DerivativeRenaming" />
        <cc:requires
           rdf:resource="http://scripts.sil.org/pub/OFL/BundlingWhenSelling" />
      </cc:License>
    </rdf:RDF>
  </metadata>
</svg>
