<?xml version="1.0" encoding="UTF-8" standalone="no"?>
<!-- Created with Inkscape (http://www.inkscape.org/) -->

<svg
   width="236"
   height="236"
   viewBox="0 0 236 236"
   version="1.1"
   id="svg5"
   inkscape:version="1.2.2 (732a01da63, 2022-12-09)"
   sodipodi:docname="MoboWaterPump.svg"
   xml:space="preserve"
   xmlns:inkscape="http://www.inkscape.org/namespaces/inkscape"
   xmlns:sodipodi="http://sodipodi.sourceforge.net/DTD/sodipodi-0.dtd"
   xmlns="http://www.w3.org/2000/svg"
   xmlns:svg="http://www.w3.org/2000/svg"
   xmlns:rdf="http://www.w3.org/1999/02/22-rdf-syntax-ns#"
   xmlns:cc="http://creativecommons.org/ns#"><sodipodi:namedview
     id="namedview7"
     pagecolor="#ffffff"
     bordercolor="#000000"
     borderopacity="0.25"
     inkscape:showpageshadow="2"
     inkscape:pageopacity="0.0"
     inkscape:pagecheckerboard="true"
     inkscape:deskcolor="#d1d1d1"
     inkscape:document-units="px"
     showgrid="true"
     showguides="true"
     inkscape:zoom="2.1341966"
     inkscape:cx="-59.74145"
     inkscape:cy="139.16244"
     inkscape:window-width="1920"
     inkscape:window-height="1027"
     inkscape:window-x="-8"
     inkscape:window-y="-8"
     inkscape:window-maximized="1"
     inkscape:current-layer="layer1"><inkscape:grid
       type="xygrid"
       id="grid132"
       empspacing="8"
       dotted="true"
       originx="-18"
       originy="-10" /><sodipodi:guide
       position="142,118"
       orientation="0,-1"
       id="guide138"
       inkscape:locked="false" /><sodipodi:guide
       position="126,150"
       orientation="1,0"
       id="guide890"
       inkscape:locked="false" /></sodipodi:namedview><defs
     id="defs2" /><g
     inkscape:label="Layer 1"
     inkscape:groupmode="layer"
     id="layer1"
     transform="translate(-18,-10)"><path
       id="rect1519"
       style="color:#000000;fill:#7f7f7f7f;stroke-linecap:round;stroke-linejoin:round;-inkscape-stroke:none;paint-order:stroke fill markers"
       d="M 63.5 10 C 56.792317 10 50.773706 13.133001 46.820312 18 L 32 18 A 6.0006 6.0006 0 0 0 26 24 L 26 120 A 6.0006 6.0006 0 0 0 32 126 L 42 126 L 42 224.5 C 42 236.30719 51.692807 246 63.5 246 L 224.5 246 C 236.30719 246 246 236.30719 246 224.5 L 246 31.5 C 246 19.692807 236.30719 10 224.5 10 L 63.5 10 z M 63.5 22 L 224.5 22 C 229.86677 22 234 26.133227 234 31.5 L 234 224.5 C 234 229.86677 229.86677 234 224.5 234 L 63.5 234 C 58.133227 234 54 229.86677 54 224.5 L 54 120 L 54 31.5 C 54 26.133227 58.133227 22 63.5 22 z M 38 30 L 42.076172 30 C 42.041163 30.497656 42 30.99398 42 31.5 L 42 114 L 38 114 L 38 30 z M 144.19531 48 C 100.05775 47.999999 64.191406 83.8683 64.191406 128.00586 C 64.191402 172.14342 100.05774 207.99805 144.19531 207.99805 C 188.33289 207.99805 224.18751 172.14342 224.1875 128.00586 C 224.1875 83.868301 188.33289 48 144.19531 48 z M 144.19531 55.623047 C 152.90216 55.623047 161.24618 57.155577 168.97266 59.964844 C 165.74353 61.851517 162.65829 63.902104 159.73633 66.105469 C 153.00732 71.178496 147.13399 77.049045 142.25977 83.5 C 137.38603 89.950954 133.5112 96.983057 129.63672 104.01367 C 124.54048 100.81914 119.44513 97.623492 114.86133 93.576172 C 110.27752 89.528852 106.20627 84.628583 102.8457 79.005859 C 101.41962 76.619752 100.12027 74.103749 98.962891 71.470703 C 111.34845 61.552987 127.06867 55.623047 144.19531 55.623047 z M 183.86914 67.439453 C 203.57064 80.363065 216.56445 102.64481 216.56445 128.00586 C 216.56445 128.57432 216.55595 129.13978 216.54297 129.70508 C 213.84289 127.32919 211.04096 125.12631 208.15039 123.11133 C 201.2358 118.29276 193.82583 114.53295 186.17188 111.90039 C 178.51743 109.26784 170.62027 107.76248 162.72266 106.25781 C 164.19201 100.43417 165.66051 94.610876 168.10156 89.009766 C 170.54212 83.408656 173.95397 78.030646 178.27344 73.103516 C 179.99587 71.138928 181.86528 69.24718 183.86914 67.439453 z M 87.322266 83.193359 C 88.14215 87.044262 89.187039 90.800466 90.447266 94.4375 C 93.202372 102.39213 96.983111 109.78094 101.625 116.40039 C 106.2664 123.02034 111.76866 128.87102 117.27148 134.7207 C 112.65273 138.57056 108.0337 142.4203 102.75977 145.51953 C 97.486325 148.61924 91.55886 150.96781 85.162109 152.41992 C 82.371437 153.05332 79.490139 153.51555 76.539062 153.79883 C 73.488826 145.78901 71.812499 137.09661 71.8125 128.00586 C 71.8125 111.07394 77.607273 95.512914 87.322266 83.193359 z M 145.47656 110.80664 C 154.9917 110.80664 162.70508 118.50434 162.70508 128 C 162.70508 137.49566 154.9917 145.19336 145.47656 145.19336 C 135.96143 145.19336 128.24805 137.49566 128.24805 128 C 128.24805 118.50434 135.96143 110.80664 145.47656 110.80664 z M 145.47656 118.17578 C 140.0392 118.17578 135.63086 122.57377 135.63086 128 C 135.63086 133.42623 140.0392 137.82422 145.47656 137.82422 C 150.91392 137.82422 155.32031 133.42623 155.32031 128 C 155.32031 122.57377 150.91392 118.17578 145.47656 118.17578 z M 182.08398 137.83594 C 184.34844 137.82911 186.62155 137.90934 188.90625 138.12891 C 194.99829 138.71495 201.17846 140.2921 207.20898 142.86914 C 209.57437 143.87995 211.91585 145.04688 214.2207 146.36328 C 207.83386 170.86238 188.95803 190.26948 164.77539 197.41016 C 166.34235 193.87783 167.67889 190.29166 168.78125 186.67773 C 171.23708 178.62583 172.53052 170.43146 172.67383 162.35352 C 172.81756 154.27508 171.81085 146.31406 170.80469 138.35352 C 174.55715 138.10052 178.30989 137.84731 182.08398 137.83594 z M 142.7168 155.94336 C 144.95849 161.51697 147.19879 167.09148 148.52344 173.05469 C 149.84763 179.01784 150.2548 185.37041 149.66211 191.89062 C 149.41067 194.65382 148.98037 197.44639 148.36719 200.25195 C 146.98686 200.33009 145.59548 200.375 144.19531 200.375 C 119.15292 200.375 97.111707 187.70636 84.119141 168.41992 C 88.122129 168.85002 92.10392 169.0304 96.037109 168.95703 C 104.4693 168.79983 112.67932 167.49468 120.42188 165.13477 C 128.16492 162.77485 135.44139 159.3589 142.7168 155.94336 z " /><g
       id="g304"
       transform="matrix(7.3226536,0,0,7.3226536,64.190464,48.000015)" /></g><metadata
     id="metadata134"><rdf:RDF><cc:Work
         rdf:about=""><cc:license
           rdf:resource="http://scripts.sil.org/OFL" /></cc:Work><cc:License
         rdf:about="http://scripts.sil.org/OFL"><cc:permits
           rdf:resource="http://scripts.sil.org/pub/OFL/Reproduction" /><cc:permits
           rdf:resource="http://scripts.sil.org/pub/OFL/Distribution" /><cc:permits
           rdf:resource="http://scripts.sil.org/pub/OFL/Embedding" /><cc:permits
           rdf:resource="http://scripts.sil.org/pub/OFL/DerivativeWorks" /><cc:requires
           rdf:resource="http://scripts.sil.org/pub/OFL/Notice" /><cc:requires
           rdf:resource="http://scripts.sil.org/pub/OFL/Attribution" /><cc:requires
           rdf:resource="http://scripts.sil.org/pub/OFL/ShareAlike" /><cc:requires
           rdf:resource="http://scripts.sil.org/pub/OFL/DerivativeRenaming" /><cc:requires
           rdf:resource="http://scripts.sil.org/pub/OFL/BundlingWhenSelling" /></cc:License></rdf:RDF></metadata></svg>
