<?xml version="1.0" encoding="UTF-8" standalone="no"?>
<!-- Created with Inkscape (http://www.inkscape.org/) -->

<svg
   width="236"
   height="236"
   viewBox="0 0 236 236"
   version="1.1"
   id="svg5"
   inkscape:version="1.2.2 (732a01da63, 2022-12-09)"
   sodipodi:docname="MoboLiquidAlt.svg"
   xml:space="preserve"
   xmlns:inkscape="http://www.inkscape.org/namespaces/inkscape"
   xmlns:sodipodi="http://sodipodi.sourceforge.net/DTD/sodipodi-0.dtd"
   xmlns="http://www.w3.org/2000/svg"
   xmlns:svg="http://www.w3.org/2000/svg"
   xmlns:rdf="http://www.w3.org/1999/02/22-rdf-syntax-ns#"
   xmlns:cc="http://creativecommons.org/ns#"><sodipodi:namedview
     id="namedview7"
     pagecolor="#ffffff"
     bordercolor="#000000"
     borderopacity="0.25"
     inkscape:showpageshadow="2"
     inkscape:pageopacity="0.0"
     inkscape:pagecheckerboard="true"
     inkscape:deskcolor="#d1d1d1"
     inkscape:document-units="px"
     showgrid="true"
     showguides="true"
     inkscape:zoom="3.0182098"
     inkscape:cx="70.737296"
     inkscape:cy="120.93261"
     inkscape:window-width="1920"
     inkscape:window-height="1027"
     inkscape:window-x="-8"
     inkscape:window-y="-8"
     inkscape:window-maximized="1"
     inkscape:current-layer="layer1"><inkscape:grid
       type="xygrid"
       id="grid132"
       empspacing="8"
       dotted="true"
       originx="-18"
       originy="-10" /><sodipodi:guide
       position="142,118"
       orientation="0,-1"
       id="guide138"
       inkscape:locked="false" /><sodipodi:guide
       position="126,150"
       orientation="1,0"
       id="guide890"
       inkscape:locked="false" /></sodipodi:namedview><defs
     id="defs2" /><g
     inkscape:label="Layer 1"
     inkscape:groupmode="layer"
     id="layer1"
     transform="translate(-18,-10)"><path
       id="rect1519"
       style="color:#000000;fill:#7f7f7f7f;stroke-linecap:round;stroke-linejoin:round;-inkscape-stroke:none;paint-order:stroke fill markers"
       d="M 63.5 10 C 56.792317 10 50.773706 13.133001 46.820312 18 L 32 18 A 6.0006 6.0006 0 0 0 26 24 L 26 120 A 6.0006 6.0006 0 0 0 32 126 L 42 126 L 42 224.5 C 42 236.30719 51.692807 246 63.5 246 L 224.5 246 C 236.30719 246 246 236.30719 246 224.5 L 246 31.5 C 246 19.692807 236.30719 10 224.5 10 L 63.5 10 z M 63.5 22 L 224.5 22 C 229.86677 22 234 26.133227 234 31.5 L 234 224.5 C 234 229.86677 229.86677 234 224.5 234 L 63.5 234 C 58.133227 234 54 229.86677 54 224.5 L 54 120 L 54 31.5 C 54 26.133227 58.133227 22 63.5 22 z M 38 30 L 42.076172 30 C 42.041163 30.497656 42 30.99398 42 31.5 L 42 114 L 38 114 L 38 30 z M 138.84766 41.111328 A 2.0502113 2.0502113 0 0 0 136.88672 42.564453 C 133.7973 52.741787 125.51629 67.498227 117.91602 78.228516 C 114.28148 83.359851 111.78703 88.327877 110.95703 93.490234 C 110.12702 98.652592 111.04232 103.94348 113.92773 109.375 C 118.17772 117.37534 128.18985 124.96289 138.84766 124.96289 C 149.6608 124.96289 159.52957 117.35281 163.76758 109.375 C 166.30938 104.59023 167.33295 99.919028 166.96289 95.339844 C 166.49276 89.522402 163.8447 83.970927 159.77734 78.228516 C 152.17706 67.498229 143.89996 52.741789 140.81055 42.564453 A 2.0502113 2.0502113 0 0 0 138.84766 41.111328 z M 197.88477 108.16797 A 2.0502113 2.0502113 0 0 0 195.92383 109.62305 C 192.83441 119.80038 184.55534 134.55488 176.95508 145.28516 C 173.32054 150.4165 170.82219 155.38256 169.99219 160.54492 C 169.16218 165.70727 170.07943 171.00013 172.96484 176.43164 C 177.21484 184.43198 187.22697 192.01953 197.88477 192.01953 C 208.69791 192.01953 218.56668 184.40946 222.80469 176.43164 C 225.34648 171.64688 226.37005 166.97372 226 162.39453 C 225.52987 156.57709 222.88377 151.02758 218.81641 145.28516 C 211.21612 134.55489 202.93511 119.80038 199.8457 109.62305 A 2.0502113 2.0502113 0 0 0 197.88477 108.16797 z M 89.257812 131.03711 A 2.0502113 2.0502113 0 0 0 87.296875 132.49219 C 84.207465 142.66951 75.928397 157.42402 68.328125 168.1543 C 64.693593 173.28564 62.197196 178.2517 61.367188 183.41406 C 60.537179 188.57641 61.452528 193.86927 64.337891 199.30078 C 68.587888 207.30112 78.600003 214.88867 89.257812 214.88867 C 100.07096 214.88867 109.93972 207.2786 114.17773 199.30078 C 116.71953 194.51602 117.7431 189.84287 117.37305 185.26367 C 116.90291 179.44623 114.25682 173.89672 110.18945 168.1543 C 102.58917 157.42401 94.30816 142.66951 91.21875 132.49219 A 2.0502113 2.0502113 0 0 0 89.257812 131.03711 z " /><g
       inkscape:label="Layer 1"
       id="layer1-5"
       transform="matrix(0.95286635,0,0,0.95286635,5.1131928,40.360094)" /></g><metadata
     id="metadata134"><rdf:RDF><cc:Work
         rdf:about=""><cc:license
           rdf:resource="http://scripts.sil.org/OFL" /></cc:Work><cc:License
         rdf:about="http://scripts.sil.org/OFL"><cc:permits
           rdf:resource="http://scripts.sil.org/pub/OFL/Reproduction" /><cc:permits
           rdf:resource="http://scripts.sil.org/pub/OFL/Distribution" /><cc:permits
           rdf:resource="http://scripts.sil.org/pub/OFL/Embedding" /><cc:permits
           rdf:resource="http://scripts.sil.org/pub/OFL/DerivativeWorks" /><cc:requires
           rdf:resource="http://scripts.sil.org/pub/OFL/Notice" /><cc:requires
           rdf:resource="http://scripts.sil.org/pub/OFL/Attribution" /><cc:requires
           rdf:resource="http://scripts.sil.org/pub/OFL/ShareAlike" /><cc:requires
           rdf:resource="http://scripts.sil.org/pub/OFL/DerivativeRenaming" /><cc:requires
           rdf:resource="http://scripts.sil.org/pub/OFL/BundlingWhenSelling" /></cc:License></rdf:RDF></metadata></svg>
