<?xml version="1.0" encoding="UTF-8" standalone="no"?>
<!-- Created with Inkscape (http://www.inkscape.org/) -->

<svg
   width="236"
   height="236"
   viewBox="0 0 236 236"
   version="1.1"
   id="svg5"
   inkscape:version="1.2.2 (732a01da63, 2022-12-09)"
   sodipodi:docname="MoboTemp.svg"
   xml:space="preserve"
   xmlns:inkscape="http://www.inkscape.org/namespaces/inkscape"
   xmlns:sodipodi="http://sodipodi.sourceforge.net/DTD/sodipodi-0.dtd"
   xmlns="http://www.w3.org/2000/svg"
   xmlns:svg="http://www.w3.org/2000/svg"
   xmlns:rdf="http://www.w3.org/1999/02/22-rdf-syntax-ns#"
   xmlns:cc="http://creativecommons.org/ns#"><sodipodi:namedview
     id="namedview7"
     pagecolor="#ffffff"
     bordercolor="#000000"
     borderopacity="0.25"
     inkscape:showpageshadow="2"
     inkscape:pageopacity="0.0"
     inkscape:pagecheckerboard="true"
     inkscape:deskcolor="#d1d1d1"
     inkscape:document-units="px"
     showgrid="true"
     showguides="true"
     inkscape:zoom="2.1341966"
     inkscape:cx="134.47683"
     inkscape:cy="148.53364"
     inkscape:window-width="1920"
     inkscape:window-height="1027"
     inkscape:window-x="-8"
     inkscape:window-y="-8"
     inkscape:window-maximized="1"
     inkscape:current-layer="layer1"><inkscape:grid
       type="xygrid"
       id="grid132"
       empspacing="8"
       dotted="true"
       originx="-18"
       originy="-10" /><sodipodi:guide
       position="142,118"
       orientation="0,-1"
       id="guide138"
       inkscape:locked="false" /><sodipodi:guide
       position="126,150"
       orientation="1,0"
       id="guide890"
       inkscape:locked="false" /></sodipodi:namedview><defs
     id="defs2" /><g
     inkscape:label="Layer 1"
     inkscape:groupmode="layer"
     id="layer1"
     transform="translate(-18,-10)"><path
       id="rect1519"
       style="color:#000000;fill:#000000;stroke-linecap:round;stroke-linejoin:round;-inkscape-stroke:none;paint-order:stroke fill markers"
       d="M 63.5 10 C 56.792317 10 50.773706 13.133001 46.820312 18 L 32 18 A 6.0006 6.0006 0 0 0 26 24 L 26 120 A 6.0006 6.0006 0 0 0 32 126 L 42 126 L 42 224.5 C 42 236.30719 51.692807 246 63.5 246 L 224.5 246 C 236.30719 246 246 236.30719 246 224.5 L 246 31.5 C 246 19.692807 236.30719 10 224.5 10 L 63.5 10 z M 63.5 22 L 224.5 22 C 229.86677 22 234 26.133227 234 31.5 L 234 224.5 C 234 229.86677 229.86677 234 224.5 234 L 63.5 234 C 58.133227 234 54 229.86677 54 224.5 L 54 31.5 C 54 26.133227 58.133227 22 63.5 22 z M 132.87891 27.029297 C 128.05614 27.029297 123.71563 29.433573 121.42969 32.927734 C 119.14374 36.421897 118.51172 40.48552 118.51172 44.587891 L 118.51172 146.75781 L 118.51172 170.01172 C 109.10943 177.60599 104.93753 187.54154 105.75195 199.75781 A 4.7896387 4.7896387 0 0 0 105.80664 200.22656 C 107.6034 211.00715 113.40749 218.68908 120.85547 223.11133 C 128.30345 227.53356 137.10974 228.9707 145.65039 228.9707 C 154.19104 228.9707 162.99733 227.53356 170.44531 223.11133 C 177.8933 218.68908 183.69737 211.00714 185.49414 200.22656 A 4.7896387 4.7896387 0 0 0 185.54883 199.75781 C 186.3634 187.53924 182.18502 177.62338 172.78906 170.01562 L 172.78906 146.75781 L 172.78906 44.587891 C 172.78906 40.48552 172.15704 36.421897 169.87109 32.927734 C 167.58516 29.433573 163.24464 27.029297 158.42188 27.029297 L 132.87891 27.029297 z M 38 30 L 42.076172 30 C 42.041163 30.497656 42 30.99398 42 31.5 L 42 114 L 38 114 L 38 30 z M 132.87891 36.607422 L 158.42188 36.607422 C 160.67428 36.607422 161.12105 37.049293 161.85547 38.171875 C 162.58988 39.294457 163.21094 41.615094 163.21094 44.587891 L 163.21094 58.957031 L 139.26562 58.957031 A 4.7891598 4.7891598 0 0 0 134.47656 63.746094 A 4.7891598 4.7891598 0 0 0 139.26562 68.535156 L 163.21094 68.535156 L 163.21094 90.884766 L 139.26562 90.884766 A 4.7891598 4.7891598 0 0 0 134.47656 95.673828 A 4.7891598 4.7891598 0 0 0 139.26562 100.46289 L 163.21094 100.46289 L 163.21094 122.8125 L 139.26562 122.8125 A 4.7891598 4.7891598 0 0 0 134.47656 127.60156 A 4.7891598 4.7891598 0 0 0 139.26562 132.39062 L 163.21094 132.39062 L 163.21094 146.75781 L 163.21094 172.29883 A 4.7896387 4.7896387 0 0 0 165.20898 176.19141 C 174.11805 182.58262 176.65165 188.18807 175.98828 198.87305 C 174.55959 207.09414 170.8251 211.74765 165.55469 214.87695 C 160.23159 218.03754 153.07357 219.39258 145.65039 219.39258 C 138.22721 219.39258 131.06919 218.03754 125.74609 214.87695 C 120.47569 211.74765 116.74119 207.09414 115.3125 198.87305 C 114.64907 188.18725 117.18302 182.55889 126.08594 176.19531 A 4.7896387 4.7896387 0 0 0 128.08984 172.29883 L 128.08984 146.75781 L 128.08984 44.587891 C 128.08984 41.615094 128.7109 39.294457 129.44531 38.171875 C 130.17973 37.049293 130.6265 36.607422 132.87891 36.607422 z " /></g><metadata
     id="metadata134"><rdf:RDF><cc:Work
         rdf:about=""><cc:license
           rdf:resource="http://scripts.sil.org/OFL" /></cc:Work><cc:License
         rdf:about="http://scripts.sil.org/OFL"><cc:permits
           rdf:resource="http://scripts.sil.org/pub/OFL/Reproduction" /><cc:permits
           rdf:resource="http://scripts.sil.org/pub/OFL/Distribution" /><cc:permits
           rdf:resource="http://scripts.sil.org/pub/OFL/Embedding" /><cc:permits
           rdf:resource="http://scripts.sil.org/pub/OFL/DerivativeWorks" /><cc:requires
           rdf:resource="http://scripts.sil.org/pub/OFL/Notice" /><cc:requires
           rdf:resource="http://scripts.sil.org/pub/OFL/Attribution" /><cc:requires
           rdf:resource="http://scripts.sil.org/pub/OFL/ShareAlike" /><cc:requires
           rdf:resource="http://scripts.sil.org/pub/OFL/DerivativeRenaming" /><cc:requires
           rdf:resource="http://scripts.sil.org/pub/OFL/BundlingWhenSelling" /></cc:License></rdf:RDF></metadata></svg>
