<?xml version="1.0" encoding="UTF-8" standalone="no"?>
<!-- Created with Inkscape (http://www.inkscape.org/) -->

<svg
   width="236"
   height="236"
   viewBox="0 0 236 236"
   version="1.1"
   id="svg5"
   inkscape:version="1.2.2 (732a01da63, 2022-12-09)"
   sodipodi:docname="Mobo.svg.2023_12_28_05_39_45.0.svg"
   xmlns:inkscape="http://www.inkscape.org/namespaces/inkscape"
   xmlns:sodipodi="http://sodipodi.sourceforge.net/DTD/sodipodi-0.dtd"
   xmlns="http://www.w3.org/2000/svg"
   xmlns:svg="http://www.w3.org/2000/svg"
   xmlns:rdf="http://www.w3.org/1999/02/22-rdf-syntax-ns#"
   xmlns:cc="http://creativecommons.org/ns#">
  <sodipodi:namedview
     id="namedview7"
     pagecolor="#ffffff"
     bordercolor="#000000"
     borderopacity="0.25"
     inkscape:showpageshadow="2"
     inkscape:pageopacity="0.0"
     inkscape:pagecheckerboard="true"
     inkscape:deskcolor="#d1d1d1"
     inkscape:document-units="px"
     showgrid="true"
     showguides="true"
     inkscape:zoom="2.1341967"
     inkscape:cx="99.100519"
     inkscape:cy="16.399613"
     inkscape:window-width="1920"
     inkscape:window-height="1027"
     inkscape:window-x="-8"
     inkscape:window-y="-8"
     inkscape:window-maximized="1"
     inkscape:current-layer="layer1">
    <inkscape:grid
       type="xygrid"
       id="grid132"
       empspacing="8"
       dotted="true"
       originx="-18"
       originy="-10" />
    <sodipodi:guide
       position="110,166"
       orientation="1,0"
       id="guide136"
       inkscape:locked="false" />
    <sodipodi:guide
       position="142,118"
       orientation="0,-1"
       id="guide138"
       inkscape:locked="false" />
  </sodipodi:namedview>
  <defs
     id="defs2" />
  <g
     inkscape:label="Layer 1"
     inkscape:groupmode="layer"
     id="layer1"
     transform="translate(-18,-10)">
    <path
       id="path310"
       style="color:#000000;fill:#000000;stroke-linecap:round;stroke-linejoin:round;-inkscape-stroke:none;paint-order:stroke fill markers"
       d="M 63.5 10 C 56.792324 10 50.773703 13.133006 46.820312 18 L 32 18 C 28.686432 18.000331 26.000331 20.686432 26 24 L 26 120 C 26.000331 123.31357 28.686432 125.99967 32 126 L 42 126 L 42 224.5 C 42 236.30718 51.692819 246 63.5 246 L 224.5 246 C 236.30718 246 246 236.30718 246 224.5 L 246 31.5 C 246 19.692819 236.30718 10 224.5 10 L 63.5 10 z M 63.5 22 L 224.5 22 C 229.86676 22 234 26.133232 234 31.5 L 234 224.5 C 234 229.86676 229.86676 234 224.5 234 L 63.5 234 C 58.133232 234 54 229.86676 54 224.5 L 54 120 L 54 31.5 C 54 26.133232 58.133232 22 63.5 22 z M 76 25 A 2 2 0 0 0 74 27 A 2 2 0 0 0 76 29 L 87 29 A 2 2 0 0 0 89 27 A 2 2 0 0 0 87 25 L 76 25 z M 201 25 A 2 2 0 0 0 199 27 A 2 2 0 0 0 201 29 L 212 29 A 2 2 0 0 0 214 27 A 2 2 0 0 0 212 25 L 201 25 z M 38 30 L 42.076172 30 C 42.041163 30.497656 42 30.993981 42 31.5 L 42 114 L 38 114 L 38 30 z M 180 38 C 178.89543 38 178 38.895432 178 40 L 178 120 C 178.00011 121.10452 178.89548 121.99989 180 122 L 188 122 L 196 122 L 204 122 L 212 122 C 213.10452 121.99989 213.99989 121.10452 214 120 L 214 40 C 213.99989 38.895477 213.10452 38.00011 212 38 L 204 38 L 196 38 L 188 38 L 180 38 z M 96 39 C 95.447716 39 95 39.447716 95 40 C 95 40.552284 95.447716 41 96 41 L 144 41 C 144.55228 41 145 40.552284 145 40 C 145 39.447716 144.55228 39 144 39 L 96 39 z M 182 42 L 186 42 L 186 118 L 182 118 L 182 42 z M 190 42 L 194 42 L 194 118 L 190 118 L 190 42 z M 198 42 L 202 42 L 202 118 L 198 118 L 198 42 z M 206 42 L 210 42 L 210 118 L 206 118 L 206 42 z M 96 43 C 95.447716 43 95 43.447716 95 44 C 95 44.552284 95.447716 45 96 45 L 144 45 C 144.55228 45 145 44.552284 145 44 C 145 43.447716 144.55228 43 144 43 L 96 43 z M 228 49.880859 C 226.96229 49.880809 226.12104 50.722054 226.12109 51.759766 L 226.12109 80 C 226.12104 81.037711 226.96229 81.878956 228 81.878906 C 229.03771 81.878956 229.87896 81.037711 229.87891 80 L 229.87891 51.759766 C 229.87896 50.722054 229.03771 49.880809 228 49.880859 z M 96 54 C 94.895432 54 94 54.895432 94 56 L 94 104 C 94.00011 105.10452 94.895477 105.99989 96 106 L 144 106 C 145.10452 105.99989 145.99989 105.10452 146 104 L 146 56 C 145.99989 54.895477 145.10452 54.00011 144 54 L 96 54 z M 80 55 C 79.447716 55 79 55.447716 79 56 L 79 104 C 79 104.55228 79.447716 105 80 105 C 80.552284 105 81 104.55228 81 104 L 81 56 C 81 55.447716 80.552284 55 80 55 z M 84 55 C 83.447716 55 83 55.447716 83 56 L 83 104 C 83 104.55228 83.447716 105 84 105 C 84.552284 105 85 104.55228 85 104 L 85 56 C 85 55.447716 84.552284 55 84 55 z M 98 58 L 142 58 L 142 102 L 98 102 L 98 58 z M 104 63 C 103.44774 63.000055 103.00006 63.447739 103 64 L 103 96 C 103.00006 96.552261 103.44774 96.999945 104 97 L 136 97 C 136.55226 96.999945 136.99994 96.552261 137 96 L 137 64 C 136.99994 63.447739 136.55226 63.000055 136 63 L 104 63 z M 105 65 L 135 65 L 135 95 L 105 95 L 105 65 z M 228 88 A 2 2 0 0 0 226 90 L 226 101 A 2 2 0 0 0 228 103 A 2 2 0 0 0 230 101 L 230 90 A 2 2 0 0 0 228 88 z M 72.052734 134 C 70.919002 133.9999 69.999901 134.91901 70 136.05273 L 70 143.94727 C 69.999901 145.08099 70.919002 146.0001 72.052734 146 L 165.94727 146 C 167.08099 146.0001 168.0001 145.08099 168 143.94727 L 168 136.05273 C 168.0001 134.91901 167.08099 133.9999 165.94727 134 L 72.052734 134 z M 74.105469 138.10547 L 163.89453 138.10547 L 163.89453 141.89453 L 74.105469 141.89453 L 74.105469 138.10547 z M 228 153 A 2 2 0 0 0 226 155 L 226 173 A 2 2 0 0 0 228 175 A 2 2 0 0 0 230 173 L 230 155 A 2 2 0 0 0 228 153 z M 72 158 C 70.895477 158.00011 70.00011 158.89548 70 160 L 70 168 C 70.00011 169.10452 70.895477 169.99989 72 170 L 88 170 C 89.104523 169.99989 89.99989 169.10452 90 168 L 90 160 C 89.99989 158.89548 89.104523 158.00011 88 158 L 72 158 z M 180 158 C 178.89548 158.00011 178.00011 158.89548 178 160 L 178 192 C 178.00011 193.10452 178.89548 193.99989 180 194 L 212 194 C 213.10452 193.99989 213.99989 193.10452 214 192 L 214 160 C 213.99989 158.89548 213.10452 158.00011 212 158 L 180 158 z M 74 162 L 86 162 L 86 166 L 74 166 L 74 162 z M 182 162 L 210 162 L 210 190 L 182 190 L 182 162 z M 192 171 C 191.44774 171.00006 191.00006 171.44774 191 172 L 191 180 C 191.00006 180.55226 191.44774 180.99994 192 181 L 200 181 C 200.55226 180.99994 200.99994 180.55226 201 180 L 201 172 C 200.99994 171.44774 200.55226 171.00006 200 171 L 192 171 z M 193 173 L 199 173 L 199 179 L 193 179 L 193 173 z M 228 177 A 2 2 0 0 0 226 179 L 226 197 A 2 2 0 0 0 228 199 A 2 2 0 0 0 230 197 L 230 179 A 2 2 0 0 0 228 177 z M 72 182 C 70.895477 182.00011 70.00011 182.89548 70 184 L 70 192 C 70.00011 193.10452 70.895477 193.99989 72 194 L 88 194 C 89.104523 193.99989 89.99989 193.10452 90 192 L 90 184 C 89.99989 182.89548 89.104523 182.00011 88 182 L 72 182 z M 74 186 L 86 186 L 86 190 L 74 190 L 74 186 z M 72.052734 206 C 70.919002 205.9999 69.999901 206.91901 70 208.05273 L 70 215.94727 C 69.999901 217.08099 70.919002 218.0001 72.052734 218 L 165.94727 218 C 167.08099 218.0001 168.0001 217.08099 168 215.94727 L 168 208.05273 C 168.0001 206.91901 167.08099 205.9999 165.94727 206 L 72.052734 206 z M 74.105469 210.10547 L 163.89453 210.10547 L 163.89453 213.89453 L 74.105469 213.89453 L 74.105469 210.10547 z M 70 226 A 2 2 0 0 0 68 228 A 2 2 0 0 0 70 230 L 87 230 A 2 2 0 0 0 89 228 A 2 2 0 0 0 87 226 L 70 226 z M 94 226 A 2 2 0 0 0 92 228 A 2 2 0 0 0 94 230 L 112 230 A 2 2 0 0 0 114 228 A 2 2 0 0 0 112 226 L 94 226 z M 119 226 A 2 2 0 0 0 117 228 A 2 2 0 0 0 119 230 L 137 230 A 2 2 0 0 0 139 228 A 2 2 0 0 0 137 226 L 119 226 z M 152 226 A 2 2 0 0 0 150 228 A 2 2 0 0 0 152 230 L 170 230 A 2 2 0 0 0 172 228 A 2 2 0 0 0 170 226 L 152 226 z M 177 226 A 2 2 0 0 0 175 228 A 2 2 0 0 0 177 230 L 195 230 A 2 2 0 0 0 197 228 A 2 2 0 0 0 195 226 L 177 226 z M 202 226 A 2 2 0 0 0 200 228 A 2 2 0 0 0 202 230 L 220 230 A 2 2 0 0 0 222 228 A 2 2 0 0 0 220 226 L 202 226 z " />
  </g>
  <metadata
     id="metadata134">
    <rdf:RDF>
      <cc:Work
         rdf:about="">
        <cc:license
           rdf:resource="http://scripts.sil.org/OFL" />
      </cc:Work>
      <cc:License
         rdf:about="http://scripts.sil.org/OFL">
        <cc:permits
           rdf:resource="http://scripts.sil.org/pub/OFL/Reproduction" />
        <cc:permits
           rdf:resource="http://scripts.sil.org/pub/OFL/Distribution" />
        <cc:permits
           rdf:resource="http://scripts.sil.org/pub/OFL/Embedding" />
        <cc:permits
           rdf:resource="http://scripts.sil.org/pub/OFL/DerivativeWorks" />
        <cc:requires
           rdf:resource="http://scripts.sil.org/pub/OFL/Notice" />
        <cc:requires
           rdf:resource="http://scripts.sil.org/pub/OFL/Attribution" />
        <cc:requires
           rdf:resource="http://scripts.sil.org/pub/OFL/ShareAlike" />
        <cc:requires
           rdf:resource="http://scripts.sil.org/pub/OFL/DerivativeRenaming" />
        <cc:requires
           rdf:resource="http://scripts.sil.org/pub/OFL/BundlingWhenSelling" />
      </cc:License>
    </rdf:RDF>
  </metadata>
</svg>
