<?xml version="1.0" encoding="UTF-8" standalone="no"?>
<!-- Created with Inkscape (http://www.inkscape.org/) -->

<svg
   width="236"
   height="236"
   viewBox="0 0 236 236"
   version="1.1"
   id="svg5"
   inkscape:version="1.2.2 (732a01da63, 2022-12-09)"
   sodipodi:docname="MoboFlow.svg"
   xml:space="preserve"
   xmlns:inkscape="http://www.inkscape.org/namespaces/inkscape"
   xmlns:sodipodi="http://sodipodi.sourceforge.net/DTD/sodipodi-0.dtd"
   xmlns="http://www.w3.org/2000/svg"
   xmlns:svg="http://www.w3.org/2000/svg"
   xmlns:rdf="http://www.w3.org/1999/02/22-rdf-syntax-ns#"
   xmlns:cc="http://creativecommons.org/ns#"><sodipodi:namedview
     id="namedview7"
     pagecolor="#ffffff"
     bordercolor="#000000"
     borderopacity="0.25"
     inkscape:showpageshadow="2"
     inkscape:pageopacity="0.0"
     inkscape:pagecheckerboard="true"
     inkscape:deskcolor="#d1d1d1"
     inkscape:document-units="px"
     showgrid="true"
     showguides="true"
     inkscape:zoom="1.5091049"
     inkscape:cx="-44.065856"
     inkscape:cy="154.39616"
     inkscape:window-width="1920"
     inkscape:window-height="1027"
     inkscape:window-x="-8"
     inkscape:window-y="-8"
     inkscape:window-maximized="1"
     inkscape:current-layer="layer1"><inkscape:grid
       type="xygrid"
       id="grid132"
       empspacing="8"
       dotted="true"
       originx="-18"
       originy="-10" /><sodipodi:guide
       position="142,118"
       orientation="0,-1"
       id="guide138"
       inkscape:locked="false" /><sodipodi:guide
       position="126,150"
       orientation="1,0"
       id="guide890"
       inkscape:locked="false" /></sodipodi:namedview><defs
     id="defs2" /><g
     inkscape:label="Layer 1"
     inkscape:groupmode="layer"
     id="layer1"
     transform="translate(-18,-10)"><path
       id="rect1519"
       style="color:#000000;fill:#000000;stroke-linecap:round;stroke-linejoin:round;-inkscape-stroke:none;paint-order:stroke fill markers"
       d="M 63.5 10 C 56.792317 10 50.773706 13.133001 46.820312 18 L 32 18 A 6.0006 6.0006 0 0 0 26 24 L 26 120 A 6.0006 6.0006 0 0 0 32 126 L 42 126 L 42 224.5 C 42 236.30719 51.692807 246 63.5 246 L 224.5 246 C 236.30719 246 246 236.30719 246 224.5 L 246 31.5 C 246 19.692807 236.30719 10 224.5 10 L 63.5 10 z M 63.5 22 L 224.5 22 C 229.86677 22 234 26.133227 234 31.5 L 234 224.5 C 234 229.86677 229.86677 234 224.5 234 L 63.5 234 C 58.133227 234 54 229.86677 54 224.5 L 54 31.5 C 54 26.133227 58.133227 22 63.5 22 z M 38 30 L 42.076172 30 C 42.041163 30.497656 42 30.99398 42 31.5 L 42 114 L 38 114 L 38 30 z M 91.015625 54.564453 C 85.858657 54.564453 81.353556 57.245387 77.509766 59.607422 C 73.665975 61.969456 70.714844 64.324219 70.714844 64.324219 A 4.1512799 4.1512799 0 0 0 70.056641 70.158203 A 4.1512799 4.1512799 0 0 0 75.888672 70.816406 C 75.888672 70.816406 78.495372 68.745689 81.857422 66.679688 C 85.219472 64.613686 89.571667 62.865234 91.015625 62.865234 C 92.459583 62.865234 96.809825 64.613686 100.17188 66.679688 C 103.53393 68.745689 106.14062 70.816406 106.14062 70.816406 C 106.14062 70.816406 109.0898 73.173122 112.93359 75.535156 C 116.77738 77.897191 121.28248 80.580078 126.43945 80.580078 C 131.59642 80.580078 136.10152 77.897191 139.94531 75.535156 C 143.78911 73.173122 146.73828 70.816406 146.73828 70.816406 C 146.73828 70.816406 149.34303 68.745689 152.70508 66.679688 C 156.06713 64.613686 160.41932 62.865234 161.86328 62.865234 C 163.30724 62.865234 167.65944 64.613686 171.02148 66.679688 C 174.38354 68.745689 176.98828 70.816406 176.98828 70.816406 C 176.98828 70.816406 179.93942 73.173122 183.7832 75.535156 C 187.627 77.897191 192.13014 80.580078 197.28711 80.580078 C 202.44408 80.580078 206.94918 77.897191 210.79297 75.535156 C 214.63676 73.173122 217.58594 70.816406 217.58594 70.816406 A 4.1512799 4.1512799 0 0 0 218.24609 64.984375 A 4.1512799 4.1512799 0 0 0 212.41211 64.324219 C 212.41211 64.324219 209.80736 66.396889 206.44531 68.462891 C 203.08326 70.528892 198.73106 72.277344 197.28711 72.277344 C 195.84314 72.277344 191.49095 70.528892 188.12891 68.462891 C 184.76686 66.396889 182.16211 64.324219 182.16211 64.324219 C 182.16211 64.324219 179.21293 61.969456 175.36914 59.607422 C 171.52535 57.245387 167.02025 54.564453 161.86328 54.564453 C 156.70631 54.564453 152.20121 57.245387 148.35742 59.607422 C 144.51363 61.969456 141.56445 64.324219 141.56445 64.324219 C 141.56445 64.324219 138.9597 66.396889 135.59766 68.462891 C 132.23561 70.528892 127.88341 72.277344 126.43945 72.277344 C 124.99549 72.277344 120.6433 70.528892 117.28125 68.462891 C 113.9192 66.396889 111.31445 64.324219 111.31445 64.324219 C 111.31445 64.324219 108.36332 61.969456 104.51953 59.607422 C 100.67574 57.245387 96.172593 54.564453 91.015625 54.564453 z M 91.015625 84.908203 C 85.858657 84.908203 81.353556 87.589137 77.509766 89.951172 C 73.665975 92.313206 70.714844 94.669922 70.714844 94.669922 A 4.1512799 4.1512799 0 0 0 70.056641 100.50391 A 4.1512799 4.1512799 0 0 0 75.888672 101.16211 C 75.888672 101.16211 78.495372 99.091392 81.857422 97.025391 C 85.219472 94.959389 89.571667 93.210937 91.015625 93.210938 C 92.459583 93.210938 96.809825 94.959389 100.17188 97.025391 C 103.53393 99.091392 106.14062 101.16211 106.14062 101.16211 C 106.14062 101.16211 109.0898 103.51882 112.93359 105.88086 C 116.77739 108.24289 121.28248 110.92383 126.43945 110.92383 C 131.59642 110.92383 136.10152 108.24289 139.94531 105.88086 C 143.78911 103.51882 146.73828 101.16211 146.73828 101.16211 C 146.73828 101.16211 149.34303 99.091392 152.70508 97.025391 C 156.06713 94.959389 160.41932 93.210937 161.86328 93.210938 C 163.30724 93.210938 167.65944 94.959389 171.02148 97.025391 C 174.38354 99.091392 176.98828 101.16211 176.98828 101.16211 C 176.98828 101.16211 179.93942 103.51882 183.7832 105.88086 C 187.627 108.24289 192.13014 110.92383 197.28711 110.92383 C 202.44408 110.92383 206.94918 108.24289 210.79297 105.88086 C 214.63676 103.51882 217.58594 101.16211 217.58594 101.16211 A 4.1512799 4.1512799 0 0 0 218.24609 95.330078 A 4.1512799 4.1512799 0 0 0 212.41211 94.669922 C 212.41211 94.669922 209.80736 96.740639 206.44531 98.806641 C 203.08326 100.87264 198.73106 102.62109 197.28711 102.62109 C 195.84314 102.62109 191.49095 100.87264 188.12891 98.806641 C 184.76686 96.740639 182.16211 94.669922 182.16211 94.669922 C 182.16211 94.669922 179.21293 92.313206 175.36914 89.951172 C 171.52535 87.589137 167.02025 84.908203 161.86328 84.908203 C 156.70631 84.908203 152.20121 87.589137 148.35742 89.951172 C 144.51363 92.313206 141.56445 94.669922 141.56445 94.669922 C 141.56445 94.669922 138.9597 96.740639 135.59766 98.806641 C 132.23561 100.87264 127.88341 102.62109 126.43945 102.62109 C 124.9955 102.62109 120.6433 100.87264 117.28125 98.806641 C 113.9192 96.740639 111.31445 94.669922 111.31445 94.669922 C 111.31445 94.669922 108.36332 92.313206 104.51953 89.951172 C 100.67574 87.589137 96.172593 84.908203 91.015625 84.908203 z M 91.015625 114.99219 C 85.858657 114.99219 81.353556 117.67312 77.509766 120.03516 C 73.665975 122.39719 70.714844 124.75391 70.714844 124.75391 A 4.1512799 4.1512799 0 0 0 70.056641 130.58789 A 4.1512799 4.1512799 0 0 0 75.888672 131.24609 C 75.888672 131.24609 78.495372 129.17537 81.857422 127.10938 C 85.219472 125.04337 89.571667 123.29492 91.015625 123.29492 C 92.459583 123.29492 96.809825 125.04337 100.17188 127.10938 C 103.53393 129.17537 106.14062 131.24609 106.14062 131.24609 C 106.14062 131.24609 109.0898 133.60281 112.93359 135.96484 C 116.77738 138.32688 121.28248 141.00781 126.43945 141.00781 C 131.59642 141.00781 136.10152 138.32688 139.94531 135.96484 C 143.78911 133.60281 146.73828 131.24609 146.73828 131.24609 C 146.73828 131.24609 149.34303 129.17537 152.70508 127.10938 C 156.06713 125.04337 160.41932 123.29492 161.86328 123.29492 C 163.30724 123.29492 167.65944 125.04337 171.02148 127.10938 C 174.38354 129.17537 176.98828 131.24609 176.98828 131.24609 C 176.98828 131.24609 179.93942 133.60281 183.7832 135.96484 C 187.627 138.32688 192.13014 141.00781 197.28711 141.00781 C 202.44408 141.00781 206.94918 138.32688 210.79297 135.96484 C 214.63676 133.60281 217.58594 131.24609 217.58594 131.24609 A 4.1512799 4.1512799 0 0 0 218.24609 125.41211 A 4.1512799 4.1512799 0 0 0 212.41211 124.75391 C 212.41211 124.75391 209.80736 126.82463 206.44531 128.89062 C 203.08326 130.95663 198.73106 132.70508 197.28711 132.70508 C 195.84314 132.70508 191.49095 130.95663 188.12891 128.89062 C 184.76686 126.82463 182.16211 124.75391 182.16211 124.75391 C 182.16211 124.75391 179.21293 122.39719 175.36914 120.03516 C 171.52535 117.67312 167.02025 114.99219 161.86328 114.99219 C 156.70631 114.99219 152.20121 117.67312 148.35742 120.03516 C 144.51363 122.39719 141.56445 124.75391 141.56445 124.75391 C 141.56445 124.75391 138.9597 126.82463 135.59766 128.89062 C 132.23561 130.95663 127.88341 132.70508 126.43945 132.70508 C 124.99549 132.70508 120.6433 130.95663 117.28125 128.89062 C 113.9192 126.82463 111.31445 124.75391 111.31445 124.75391 C 111.31445 124.75391 108.36332 122.39719 104.51953 120.03516 C 100.67574 117.67312 96.172593 114.99219 91.015625 114.99219 z M 91.015625 145.07617 C 85.858657 145.07617 81.353556 147.75711 77.509766 150.11914 C 73.665975 152.48118 70.714844 154.83789 70.714844 154.83789 A 4.1512799 4.1512799 0 0 0 70.056641 160.66992 A 4.1512799 4.1512799 0 0 0 75.888672 161.33008 C 75.888672 161.33008 78.495372 159.25936 81.857422 157.19336 C 85.219471 155.12736 89.571668 153.37891 91.015625 153.37891 C 92.459584 153.37891 96.809826 155.12736 100.17188 157.19336 C 103.53392 159.25936 106.14062 161.33008 106.14062 161.33008 C 106.14062 161.33008 109.0898 163.68679 112.93359 166.04883 C 116.77739 168.41086 121.28248 171.0918 126.43945 171.0918 C 131.59642 171.0918 136.10152 168.41086 139.94531 166.04883 C 143.78911 163.68679 146.73828 161.33008 146.73828 161.33008 C 146.73828 161.33008 149.34303 159.25936 152.70508 157.19336 C 156.06713 155.12736 160.41932 153.37891 161.86328 153.37891 C 163.30724 153.37891 167.65944 155.12736 171.02148 157.19336 C 174.38354 159.25936 176.98828 161.33008 176.98828 161.33008 C 176.98828 161.33008 179.93942 163.68679 183.7832 166.04883 C 187.627 168.41086 192.13014 171.0918 197.28711 171.0918 C 202.44408 171.0918 206.94918 168.41086 210.79297 166.04883 C 214.63676 163.68679 217.58594 161.33008 217.58594 161.33008 A 4.1512799 4.1512799 0 0 0 218.24609 155.49609 A 4.1512799 4.1512799 0 0 0 212.41211 154.83789 C 212.41211 154.83789 209.80736 156.90861 206.44531 158.97461 C 203.08326 161.04061 198.73106 162.78906 197.28711 162.78906 C 195.84314 162.78906 191.49095 161.04061 188.12891 158.97461 C 184.76686 156.90861 182.16211 154.83789 182.16211 154.83789 C 182.16211 154.83789 179.21293 152.48118 175.36914 150.11914 C 171.52535 147.75711 167.02025 145.07617 161.86328 145.07617 C 156.70631 145.07617 152.20121 147.75711 148.35742 150.11914 C 144.51363 152.48118 141.56445 154.83789 141.56445 154.83789 C 141.56445 154.83789 138.9597 156.90861 135.59766 158.97461 C 132.23561 161.04061 127.88341 162.78906 126.43945 162.78906 C 124.9955 162.78906 120.6433 161.04061 117.28125 158.97461 C 113.9192 156.90861 111.31445 154.83789 111.31445 154.83789 C 111.31445 154.83789 108.36332 152.48118 104.51953 150.11914 C 100.67574 147.75711 96.172593 145.07617 91.015625 145.07617 z M 91.015625 175.41992 C 85.858657 175.41992 81.353556 178.10281 77.509766 180.46484 C 73.665976 182.82688 70.714844 185.18359 70.714844 185.18359 A 4.1512799 4.1512799 0 0 0 70.056641 191.01562 A 4.1512799 4.1512799 0 0 0 75.888672 191.67578 C 75.888672 191.67578 78.495372 189.60311 81.857422 187.53711 C 85.219471 185.47111 89.571668 183.72266 91.015625 183.72266 C 92.459584 183.72266 96.809826 185.47111 100.17188 187.53711 C 103.53392 189.60311 106.14062 191.67578 106.14062 191.67578 C 106.14062 191.67578 109.0898 194.03054 112.93359 196.39258 C 116.77739 198.75461 121.28248 201.43555 126.43945 201.43555 C 131.59642 201.43555 136.10152 198.75461 139.94531 196.39258 C 143.78911 194.03054 146.73828 191.67579 146.73828 191.67578 C 146.73828 191.67578 149.34303 189.60311 152.70508 187.53711 C 156.06713 185.47111 160.41932 183.72266 161.86328 183.72266 C 163.30724 183.72266 167.65944 185.47111 171.02148 187.53711 C 174.38354 189.60311 176.98828 191.67578 176.98828 191.67578 C 176.98828 191.67578 179.93942 194.03054 183.7832 196.39258 C 187.627 198.75461 192.13014 201.43555 197.28711 201.43555 C 202.44408 201.43555 206.94918 198.75461 210.79297 196.39258 C 214.63676 194.03054 217.58594 191.67579 217.58594 191.67578 A 4.1512799 4.1512799 0 0 0 218.24609 185.8418 A 4.1512799 4.1512799 0 0 0 212.41211 185.18359 C 212.41211 185.18359 209.80736 187.25431 206.44531 189.32031 C 203.08326 191.38631 198.73106 193.13477 197.28711 193.13477 C 195.84314 193.13477 191.49095 191.38631 188.12891 189.32031 C 184.76686 187.25431 182.16211 185.18359 182.16211 185.18359 C 182.16211 185.18359 179.21293 182.82688 175.36914 180.46484 C 171.52535 178.10281 167.02025 175.41992 161.86328 175.41992 C 156.70631 175.41992 152.20121 178.10281 148.35742 180.46484 C 144.51363 182.82688 141.56445 185.18359 141.56445 185.18359 C 141.56445 185.18359 138.9597 187.25431 135.59766 189.32031 C 132.23561 191.38631 127.88341 193.13477 126.43945 193.13477 C 124.9955 193.13477 120.6433 191.38631 117.28125 189.32031 C 113.9192 187.25431 111.31445 185.18359 111.31445 185.18359 C 111.31445 185.18359 108.36332 182.82688 104.51953 180.46484 C 100.67574 178.10281 96.172593 175.41992 91.015625 175.41992 z " /><g
       inkscape:label="Layer 1"
       id="layer1-4"
       transform="matrix(0.5859376,0,0,0.5859376,69.151266,52.999987)" /></g><metadata
     id="metadata134"><rdf:RDF><cc:Work
         rdf:about=""><cc:license
           rdf:resource="http://scripts.sil.org/OFL" /></cc:Work><cc:License
         rdf:about="http://scripts.sil.org/OFL"><cc:permits
           rdf:resource="http://scripts.sil.org/pub/OFL/Reproduction" /><cc:permits
           rdf:resource="http://scripts.sil.org/pub/OFL/Distribution" /><cc:permits
           rdf:resource="http://scripts.sil.org/pub/OFL/Embedding" /><cc:permits
           rdf:resource="http://scripts.sil.org/pub/OFL/DerivativeWorks" /><cc:requires
           rdf:resource="http://scripts.sil.org/pub/OFL/Notice" /><cc:requires
           rdf:resource="http://scripts.sil.org/pub/OFL/Attribution" /><cc:requires
           rdf:resource="http://scripts.sil.org/pub/OFL/ShareAlike" /><cc:requires
           rdf:resource="http://scripts.sil.org/pub/OFL/DerivativeRenaming" /><cc:requires
           rdf:resource="http://scripts.sil.org/pub/OFL/BundlingWhenSelling" /></cc:License></rdf:RDF></metadata></svg>
