<?xml version="1.0" encoding="UTF-8" standalone="no"?>
<!-- Created with Inkscape (http://www.inkscape.org/) -->

<svg
   width="236"
   height="236"
   viewBox="0 0 236 236"
   version="1.1"
   id="svg5"
   inkscape:version="1.2.2 (732a01da63, 2022-12-09)"
   sodipodi:docname="MoboVolts.svg"
   xml:space="preserve"
   xmlns:inkscape="http://www.inkscape.org/namespaces/inkscape"
   xmlns:sodipodi="http://sodipodi.sourceforge.net/DTD/sodipodi-0.dtd"
   xmlns="http://www.w3.org/2000/svg"
   xmlns:svg="http://www.w3.org/2000/svg"
   xmlns:rdf="http://www.w3.org/1999/02/22-rdf-syntax-ns#"
   xmlns:cc="http://creativecommons.org/ns#"><sodipodi:namedview
     id="namedview7"
     pagecolor="#ffffff"
     bordercolor="#000000"
     borderopacity="0.25"
     inkscape:showpageshadow="2"
     inkscape:pageopacity="0.0"
     inkscape:pagecheckerboard="true"
     inkscape:deskcolor="#d1d1d1"
     inkscape:document-units="px"
     showgrid="true"
     showguides="true"
     inkscape:zoom="2.1341966"
     inkscape:cx="31.393546"
     inkscape:cy="148.06508"
     inkscape:window-width="1920"
     inkscape:window-height="1027"
     inkscape:window-x="-8"
     inkscape:window-y="-8"
     inkscape:window-maximized="1"
     inkscape:current-layer="layer1"><inkscape:grid
       type="xygrid"
       id="grid132"
       empspacing="8"
       dotted="true"
       originx="-18"
       originy="-10" /><sodipodi:guide
       position="142,118"
       orientation="0,-1"
       id="guide138"
       inkscape:locked="false" /><sodipodi:guide
       position="126,150"
       orientation="1,0"
       id="guide890"
       inkscape:locked="false" /></sodipodi:namedview><defs
     id="defs2" /><g
     inkscape:label="Layer 1"
     inkscape:groupmode="layer"
     id="layer1"
     transform="translate(-18,-10)"><path
       id="rect1519"
       style="color:#000000;fill:#000000;stroke-linecap:round;stroke-linejoin:round;-inkscape-stroke:none;paint-order:stroke fill markers"
       d="M 63.5 10 C 56.792317 10 50.773706 13.133001 46.820312 18 L 32 18 A 6.0006 6.0006 0 0 0 26 24 L 26 120 A 6.0006 6.0006 0 0 0 32 126 L 42 126 L 42 224.5 C 42 236.30719 51.692807 246 63.5 246 L 224.5 246 C 236.30719 246 246 236.30719 246 224.5 L 246 31.5 C 246 19.692807 236.30719 10 224.5 10 L 63.5 10 z M 63.5 22 L 224.5 22 C 229.86677 22 234 26.133227 234 31.5 L 234 224.5 C 234 229.86677 229.86677 234 224.5 234 L 63.5 234 C 58.133227 234 54 229.86677 54 224.5 L 54 31.5 C 54 26.133227 58.133227 22 63.5 22 z M 38 30 L 42.076172 30 C 42.041163 30.497656 42 30.99398 42 31.5 L 42 114 L 38 114 L 38 30 z M 88.027344 39.791016 A 4.1673145 4.1673145 0 0 0 83.861328 43.958984 A 4.1673145 4.1673145 0 0 0 88.027344 48.126953 L 199.15625 48.126953 A 4.1673145 4.1673145 0 0 0 203.32422 43.958984 A 4.1673145 4.1673145 0 0 0 199.15625 39.791016 L 88.027344 39.791016 z M 88.027344 56.460938 A 4.1673145 4.1673145 0 0 0 83.861328 60.628906 A 4.1673145 4.1673145 0 0 0 88.027344 64.794922 L 110.25391 64.794922 A 4.1673145 4.1673145 0 0 0 114.42188 60.628906 A 4.1673145 4.1673145 0 0 0 110.25391 56.460938 L 88.027344 56.460938 z M 132.48047 56.460938 A 4.1673145 4.1673145 0 0 0 128.3125 60.628906 A 4.1673145 4.1673145 0 0 0 132.48047 64.794922 L 154.70508 64.794922 A 4.1673145 4.1673145 0 0 0 158.87305 60.628906 A 4.1673145 4.1673145 0 0 0 154.70508 56.460938 L 132.48047 56.460938 z M 176.93164 56.460938 A 4.1673145 4.1673145 0 0 0 172.76367 60.628906 A 4.1673145 4.1673145 0 0 0 176.93164 64.794922 L 199.15625 64.794922 A 4.1673145 4.1673145 0 0 0 203.32422 60.628906 A 4.1673145 4.1673145 0 0 0 199.15625 56.460938 L 176.93164 56.460938 z M 83.695312 74.001953 L 128.10938 216.20898 L 159.2793 216.20898 L 203.69531 74.001953 L 181.69141 74.001953 L 151.53906 167.51562 L 144 198.07617 L 136.25781 167.3125 L 106.30859 74.001953 L 83.695312 74.001953 z " /><g
       inkscape:label="Layer 1"
       id="layer1-3"
       transform="matrix(0.69455241,0,0,0.69455241,54.689784,38.402739)"><g
         aria-label="V"
         id="text1934"
         style="font-size:293.333px;font-family:'Azeret Mono';-inkscape-font-specification:'Azeret Mono';text-align:center;text-anchor:middle;display:inline;stroke-width:12;stroke-linecap:round;stroke-linejoin:round;paint-order:stroke fill markers" /></g></g><metadata
     id="metadata134"><rdf:RDF><cc:Work
         rdf:about=""><cc:license
           rdf:resource="http://scripts.sil.org/OFL" /></cc:Work><cc:License
         rdf:about="http://scripts.sil.org/OFL"><cc:permits
           rdf:resource="http://scripts.sil.org/pub/OFL/Reproduction" /><cc:permits
           rdf:resource="http://scripts.sil.org/pub/OFL/Distribution" /><cc:permits
           rdf:resource="http://scripts.sil.org/pub/OFL/Embedding" /><cc:permits
           rdf:resource="http://scripts.sil.org/pub/OFL/DerivativeWorks" /><cc:requires
           rdf:resource="http://scripts.sil.org/pub/OFL/Notice" /><cc:requires
           rdf:resource="http://scripts.sil.org/pub/OFL/Attribution" /><cc:requires
           rdf:resource="http://scripts.sil.org/pub/OFL/ShareAlike" /><cc:requires
           rdf:resource="http://scripts.sil.org/pub/OFL/DerivativeRenaming" /><cc:requires
           rdf:resource="http://scripts.sil.org/pub/OFL/BundlingWhenSelling" /></cc:License></rdf:RDF></metadata></svg>
