<?xml version="1.0" encoding="UTF-8" standalone="no"?>
<!-- Created with Inkscape (http://www.inkscape.org/) -->

<svg
   width="236"
   height="236"
   viewBox="0 0 236 236"
   version="1.1"
   id="svg5"
   inkscape:version="1.2.2 (732a01da63, 2022-12-09)"
   sodipodi:docname="MoboLiquid.svg"
   xml:space="preserve"
   xmlns:inkscape="http://www.inkscape.org/namespaces/inkscape"
   xmlns:sodipodi="http://sodipodi.sourceforge.net/DTD/sodipodi-0.dtd"
   xmlns="http://www.w3.org/2000/svg"
   xmlns:svg="http://www.w3.org/2000/svg"
   xmlns:rdf="http://www.w3.org/1999/02/22-rdf-syntax-ns#"
   xmlns:cc="http://creativecommons.org/ns#"><sodipodi:namedview
     id="namedview7"
     pagecolor="#ffffff"
     bordercolor="#000000"
     borderopacity="0.25"
     inkscape:showpageshadow="2"
     inkscape:pageopacity="0.0"
     inkscape:pagecheckerboard="true"
     inkscape:deskcolor="#d1d1d1"
     inkscape:document-units="px"
     showgrid="true"
     showguides="true"
     inkscape:zoom="3.0182098"
     inkscape:cx="8.614378"
     inkscape:cy="90.450969"
     inkscape:window-width="1920"
     inkscape:window-height="1027"
     inkscape:window-x="-8"
     inkscape:window-y="-8"
     inkscape:window-maximized="1"
     inkscape:current-layer="layer1"><inkscape:grid
       type="xygrid"
       id="grid132"
       empspacing="8"
       dotted="true"
       originx="-18"
       originy="-10" /><sodipodi:guide
       position="142,118"
       orientation="0,-1"
       id="guide138"
       inkscape:locked="false" /><sodipodi:guide
       position="126,150"
       orientation="1,0"
       id="guide890"
       inkscape:locked="false" /></sodipodi:namedview><defs
     id="defs2" /><g
     inkscape:label="Layer 1"
     inkscape:groupmode="layer"
     id="layer1"
     transform="translate(-18,-10)"><path
       id="rect1519"
       style="color:#000000;fill:#000000;stroke-linecap:round;stroke-linejoin:round;-inkscape-stroke:none;paint-order:stroke fill markers"
       d="M 63.5 10 C 56.792317 10 50.773706 13.133001 46.820312 18 L 32 18 A 6.0006 6.0006 0 0 0 26 24 L 26 120 A 6.0006 6.0006 0 0 0 32 126 L 42 126 L 42 224.5 C 42 236.30719 51.692807 246 63.5 246 L 224.5 246 C 236.30719 246 246 236.30719 246 224.5 L 246 31.5 C 246 19.692807 236.30719 10 224.5 10 L 63.5 10 z M 63.5 22 L 224.5 22 C 229.86677 22 234 26.133227 234 31.5 L 234 224.5 C 234 229.86677 229.86677 234 224.5 234 L 63.5 234 C 58.133227 234 54 229.86677 54 224.5 L 54 120 L 54 31.5 C 54 26.133227 58.133227 22 63.5 22 z M 38 30 L 42.076172 30 C 42.041163 30.497656 42 30.99398 42 31.5 L 42 114 L 38 114 L 38 30 z M 144.21484 38.751953 C 143.60194 38.746195 142.97708 38.870777 142.37695 39.142578 C 141.23217 39.660451 140.3657 40.645581 140 41.847656 C 133.42358 63.512133 115.79979 94.920172 99.621094 117.76172 C 91.884273 128.68478 86.571524 139.25895 84.804688 150.24805 C 83.037851 161.23716 84.986833 172.50433 91.128906 184.06641 C 100.17586 201.09672 121.48853 217.24805 144.17578 217.24805 C 145.6144 217.24805 147.04632 217.1853 148.4668 217.0625 C 149.88727 216.9397 151.2959 216.75759 152.69336 216.51953 C 172.2578 213.18665 189.32888 198.92596 197.22266 184.06641 C 197.899 182.79324 198.52571 181.52359 199.10156 180.25781 C 203.13253 171.3974 204.71271 162.71674 204.02344 154.1875 C 203.02267 141.80392 197.38866 129.98558 188.73047 117.76172 C 173.56294 96.347769 157.12708 67.404742 149.71289 46.019531 C 149.21861 44.593851 148.76454 43.201686 148.35352 41.847656 C 147.77863 39.956697 146.05355 38.769228 144.21484 38.751953 z " /><g
       id="path244"
       transform="matrix(0.72730689,0,0,0.72730689,21.622221,34.17738)" /></g><metadata
     id="metadata134"><rdf:RDF><cc:Work
         rdf:about=""><cc:license
           rdf:resource="http://scripts.sil.org/OFL" /></cc:Work><cc:License
         rdf:about="http://scripts.sil.org/OFL"><cc:permits
           rdf:resource="http://scripts.sil.org/pub/OFL/Reproduction" /><cc:permits
           rdf:resource="http://scripts.sil.org/pub/OFL/Distribution" /><cc:permits
           rdf:resource="http://scripts.sil.org/pub/OFL/Embedding" /><cc:permits
           rdf:resource="http://scripts.sil.org/pub/OFL/DerivativeWorks" /><cc:requires
           rdf:resource="http://scripts.sil.org/pub/OFL/Notice" /><cc:requires
           rdf:resource="http://scripts.sil.org/pub/OFL/Attribution" /><cc:requires
           rdf:resource="http://scripts.sil.org/pub/OFL/ShareAlike" /><cc:requires
           rdf:resource="http://scripts.sil.org/pub/OFL/DerivativeRenaming" /><cc:requires
           rdf:resource="http://scripts.sil.org/pub/OFL/BundlingWhenSelling" /></cc:License></rdf:RDF></metadata></svg>
