<?xml version="1.0" encoding="UTF-8" standalone="no"?>
<!-- Created with Inkscape (http://www.inkscape.org/) -->

<svg
   width="236"
   height="236"
   viewBox="0 0 236 236"
   version="1.1"
   id="svg5"
   inkscape:version="1.2.2 (732a01da63, 2022-12-09)"
   sodipodi:docname="MoboAmps.svg"
   xml:space="preserve"
   xmlns:inkscape="http://www.inkscape.org/namespaces/inkscape"
   xmlns:sodipodi="http://sodipodi.sourceforge.net/DTD/sodipodi-0.dtd"
   xmlns="http://www.w3.org/2000/svg"
   xmlns:svg="http://www.w3.org/2000/svg"
   xmlns:rdf="http://www.w3.org/1999/02/22-rdf-syntax-ns#"
   xmlns:cc="http://creativecommons.org/ns#"><sodipodi:namedview
     id="namedview7"
     pagecolor="#ffffff"
     bordercolor="#000000"
     borderopacity="0.25"
     inkscape:showpageshadow="2"
     inkscape:pageopacity="0.0"
     inkscape:pagecheckerboard="true"
     inkscape:deskcolor="#d1d1d1"
     inkscape:document-units="px"
     showgrid="true"
     showguides="true"
     inkscape:zoom="3.0182098"
     inkscape:cx="78.192047"
     inkscape:cy="121.92658"
     inkscape:window-width="1920"
     inkscape:window-height="1027"
     inkscape:window-x="-8"
     inkscape:window-y="-8"
     inkscape:window-maximized="1"
     inkscape:current-layer="layer1"><inkscape:grid
       type="xygrid"
       id="grid132"
       empspacing="8"
       dotted="true"
       originx="-18"
       originy="-10" /><sodipodi:guide
       position="142,118"
       orientation="0,-1"
       id="guide138"
       inkscape:locked="false" /><sodipodi:guide
       position="126,150"
       orientation="1,0"
       id="guide890"
       inkscape:locked="false" /></sodipodi:namedview><defs
     id="defs2" /><g
     inkscape:label="Layer 1"
     inkscape:groupmode="layer"
     id="layer1"
     transform="translate(-18,-10)"><path
       id="rect1519"
       style="color:#000000;fill:#000000;stroke-linecap:round;stroke-linejoin:round;-inkscape-stroke:none;paint-order:stroke fill markers"
       d="M 63.5 10 C 56.792317 10 50.773706 13.133001 46.820312 18 L 32 18 A 6.0006 6.0006 0 0 0 26 24 L 26 120 A 6.0006 6.0006 0 0 0 32 126 L 42 126 L 42 224.5 C 42 236.30719 51.692807 246 63.5 246 L 224.5 246 C 236.30719 246 246 236.30719 246 224.5 L 246 31.5 C 246 19.692807 236.30719 10 224.5 10 L 63.5 10 z M 63.5 22 L 224.5 22 C 229.86677 22 234 26.133227 234 31.5 L 234 224.5 C 234 229.86677 229.86677 234 224.5 234 L 63.5 234 C 58.133227 234 54 229.86677 54 224.5 L 54 31.5 C 54 26.133227 58.133227 22 63.5 22 z M 38 30 L 42.076172 30 C 42.041163 30.497656 42 30.99398 42 31.5 L 42 114 L 38 114 L 38 30 z M 88.185547 39.394531 A 4.1860465 4.1860465 0 0 0 84 43.582031 A 4.1860465 4.1860465 0 0 0 88.185547 47.767578 L 199.81445 47.767578 A 4.1860465 4.1860465 0 0 0 204 43.582031 A 4.1860465 4.1860465 0 0 0 199.81445 39.394531 L 88.185547 39.394531 z M 88.185547 56.138672 A 4.1860465 4.1860465 0 0 0 84 60.326172 A 4.1860465 4.1860465 0 0 0 88.185547 64.511719 L 110.51172 64.511719 A 4.1860465 4.1860465 0 0 0 114.69727 60.326172 A 4.1860465 4.1860465 0 0 0 110.51172 56.138672 L 88.185547 56.138672 z M 132.83789 56.138672 A 4.1860465 4.1860465 0 0 0 128.65039 60.326172 A 4.1860465 4.1860465 0 0 0 132.83789 64.511719 L 155.16211 64.511719 A 4.1860465 4.1860465 0 0 0 159.34961 60.326172 A 4.1860465 4.1860465 0 0 0 155.16211 56.138672 L 132.83789 56.138672 z M 177.48828 56.138672 A 4.1860465 4.1860465 0 0 0 173.30273 60.326172 A 4.1860465 4.1860465 0 0 0 177.48828 64.511719 L 199.81445 64.511719 A 4.1860465 4.1860465 0 0 0 204 60.326172 A 4.1860465 4.1860465 0 0 0 199.81445 56.138672 L 177.48828 56.138672 z M 128.44727 73.757812 L 84.242188 216.60547 L 106.13867 216.60547 L 117.19141 180.58594 L 170.40039 180.58594 L 181.45117 216.60547 L 203.75781 216.60547 L 159.55273 73.757812 L 128.44727 73.757812 z M 144 90.744141 L 152.5957 122.05664 L 164.875 162.16797 L 122.92188 162.16797 L 135.4043 122.25977 L 144 90.744141 z " /><g
       inkscape:label="Layer 1"
       id="layer1-1"
       transform="matrix(0.69767442,0,0,0.69767442,54.697632,38)"><g
         aria-label="A"
         id="text1934"
         style="font-size:293.333px;font-family:'Azeret Mono';-inkscape-font-specification:'Azeret Mono';text-align:center;text-anchor:middle;display:inline;stroke-width:12;stroke-linecap:round;stroke-linejoin:round;paint-order:stroke fill markers" /></g></g><metadata
     id="metadata134"><rdf:RDF><cc:Work
         rdf:about=""><cc:license
           rdf:resource="http://scripts.sil.org/OFL" /></cc:Work><cc:License
         rdf:about="http://scripts.sil.org/OFL"><cc:permits
           rdf:resource="http://scripts.sil.org/pub/OFL/Reproduction" /><cc:permits
           rdf:resource="http://scripts.sil.org/pub/OFL/Distribution" /><cc:permits
           rdf:resource="http://scripts.sil.org/pub/OFL/Embedding" /><cc:permits
           rdf:resource="http://scripts.sil.org/pub/OFL/DerivativeWorks" /><cc:requires
           rdf:resource="http://scripts.sil.org/pub/OFL/Notice" /><cc:requires
           rdf:resource="http://scripts.sil.org/pub/OFL/Attribution" /><cc:requires
           rdf:resource="http://scripts.sil.org/pub/OFL/ShareAlike" /><cc:requires
           rdf:resource="http://scripts.sil.org/pub/OFL/DerivativeRenaming" /><cc:requires
           rdf:resource="http://scripts.sil.org/pub/OFL/BundlingWhenSelling" /></cc:License></rdf:RDF></metadata></svg>
