<?xml version="1.0" encoding="UTF-8" standalone="no"?>
<!-- Created with Inkscape (http://www.inkscape.org/) -->

<svg
   width="236"
   height="236"
   viewBox="0 0 236 236"
   version="1.1"
   id="svg5"
   inkscape:version="1.2.2 (732a01da63, 2022-12-09)"
   sodipodi:docname="SATATemp.svg"
   xml:space="preserve"
   xmlns:inkscape="http://www.inkscape.org/namespaces/inkscape"
   xmlns:sodipodi="http://sodipodi.sourceforge.net/DTD/sodipodi-0.dtd"
   xmlns="http://www.w3.org/2000/svg"
   xmlns:svg="http://www.w3.org/2000/svg"
   xmlns:rdf="http://www.w3.org/1999/02/22-rdf-syntax-ns#"
   xmlns:cc="http://creativecommons.org/ns#"><sodipodi:namedview
     id="namedview7"
     pagecolor="#ffffff"
     bordercolor="#000000"
     borderopacity="0.25"
     inkscape:showpageshadow="2"
     inkscape:pageopacity="0.0"
     inkscape:pagecheckerboard="true"
     inkscape:deskcolor="#d1d1d1"
     inkscape:document-units="px"
     showgrid="true"
     showguides="true"
     inkscape:zoom="1.7457627"
     inkscape:cx="51.839806"
     inkscape:cy="96.23301"
     inkscape:window-width="1920"
     inkscape:window-height="1027"
     inkscape:window-x="-8"
     inkscape:window-y="-8"
     inkscape:window-maximized="1"
     inkscape:current-layer="layer1"><inkscape:grid
       type="xygrid"
       id="grid132"
       empspacing="8"
       dotted="true"
       originx="-34"
       originy="-10" /><sodipodi:guide
       position="94,166"
       orientation="1,0"
       id="guide136"
       inkscape:locked="false" /><sodipodi:guide
       position="126,118"
       orientation="0,-1"
       id="guide138"
       inkscape:locked="false" /></sodipodi:namedview><defs
     id="defs2" /><g
     inkscape:label="Layer 1"
     inkscape:groupmode="layer"
     id="layer1"
     transform="translate(-34,-10)"><path
       id="path20"
       style="color:#7f7f7f7f;fill:#7f7f7f7f;stroke-linecap:round;stroke-linejoin:round;-inkscape-stroke:none"
       d="m 64,10 c -3.313568,3.31e-4 -5.999669,2.686432 -6,6 v 224 c 3.31e-4,3.31357 2.686432,5.99967 6,6 h 32 24 c 3.31357,-3.3e-4 5.99967,-2.68643 6,-6 v -2 h 44 v 2 c 3.3e-4,3.31357 2.68643,5.99967 6,6 h 8 c 3.31357,-3.3e-4 5.99967,-2.68643 6,-6 v -2 h 20 v 2 c 3.3e-4,3.31357 2.68643,5.99967 6,6 h 24 c 3.31357,-3.3e-4 5.99967,-2.68643 6,-6 V 16 c -3.3e-4,-3.313568 -2.68643,-5.999669 -6,-6 z m 6,12 h 164 v 212 h -12 v -2 c -3.3e-4,-3.31357 -2.68643,-5.99967 -6,-6 h -31 -1 -8 -56 c -3.31357,3.3e-4 -5.99967,2.68643 -6,6 v 2 H 96 70 Z m 70.82422,17.646484 c -4.22009,0 -8.01925,2.104596 -10.01953,5.16211 -2.00029,3.057515 -2.55274,6.613406 -2.55274,10.203125 v 89.402341 20.34766 c -8.22749,6.64527 -11.87671,15.33757 -11.16406,26.02734 a 4.1911072,4.1911072 0 0 0 0.0469,0.41016 c 1.57223,9.43338 6.65268,16.15774 13.16992,20.02734 6.51721,3.86963 14.22194,5.12696 21.69531,5.12696 7.47337,0 15.17806,-1.25733 21.69531,-5.12696 6.51725,-3.86959 11.5977,-10.59396 13.16992,-20.02734 a 4.1911072,4.1911072 0 0 0 0.0469,-0.41016 c 0.71272,-10.69175 -2.94217,-19.36637 -11.16406,-26.02344 V 144.41406 55.011719 c 0,-3.589719 -0.55245,-7.14561 -2.55274,-10.203125 -2.0003,-3.057514 -5.79944,-5.16211 -10.01953,-5.16211 z m 0,8.38086 h 22.35156 c 1.97094,0 2.36128,0.386841 3.00391,1.36914 0.64264,0.982298 1.18554,3.013935 1.18554,5.615235 v 12.572265 h -20.95312 a 4.1906881,4.1906881 0 0 0 -4.18945,4.191407 4.1906881,4.1906881 0 0 0 4.18945,4.189453 h 20.95312 v 19.55664 h -20.95312 a 4.1906881,4.1906881 0 0 0 -4.18945,4.191407 4.1906881,4.1906881 0 0 0 4.18945,4.191409 h 20.95312 v 19.55664 h -20.95312 a 4.1906881,4.1906881 0 0 0 -4.18945,4.18945 4.1906881,4.1906881 0 0 0 4.18945,4.19141 h 20.95312 v 12.57226 22.34961 a 4.1911072,4.1911072 0 0 0 1.74805,3.4043 c 7.79568,5.5925 10.01402,10.50001 9.4336,19.84961 -1.25021,7.19347 -4.51721,11.26374 -9.12891,14.00195 -4.65789,2.76562 -10.92243,3.95313 -17.41797,3.95313 -6.49555,0 -12.76008,-1.18751 -17.41797,-3.95313 -4.6117,-2.73821 -7.8787,-6.80848 -9.12891,-14.00195 -0.58047,-9.35034 1.63548,-14.27545 9.42579,-19.84375 a 4.1911072,4.1911072 0 0 0 1.75586,-3.41016 V 144.41406 55.011719 c 0,-2.6013 0.5429,-4.632937 1.18554,-5.615235 0.64263,-0.982299 1.03297,-1.36914 3.00391,-1.36914 z" /></g><metadata
     id="metadata134"><rdf:RDF><cc:Work
         rdf:about=""><cc:license
           rdf:resource="http://scripts.sil.org/OFL" /></cc:Work><cc:License
         rdf:about="http://scripts.sil.org/OFL"><cc:permits
           rdf:resource="http://scripts.sil.org/pub/OFL/Reproduction" /><cc:permits
           rdf:resource="http://scripts.sil.org/pub/OFL/Distribution" /><cc:permits
           rdf:resource="http://scripts.sil.org/pub/OFL/Embedding" /><cc:permits
           rdf:resource="http://scripts.sil.org/pub/OFL/DerivativeWorks" /><cc:requires
           rdf:resource="http://scripts.sil.org/pub/OFL/Notice" /><cc:requires
           rdf:resource="http://scripts.sil.org/pub/OFL/Attribution" /><cc:requires
           rdf:resource="http://scripts.sil.org/pub/OFL/ShareAlike" /><cc:requires
           rdf:resource="http://scripts.sil.org/pub/OFL/DerivativeRenaming" /><cc:requires
           rdf:resource="http://scripts.sil.org/pub/OFL/BundlingWhenSelling" /></cc:License></rdf:RDF></metadata></svg>
