<?xml version="1.0" encoding="UTF-8" standalone="no"?>
<!-- Created with Inkscape (http://www.inkscape.org/) -->

<svg
   width="236"
   height="236"
   viewBox="0 0 236 236"
   version="1.1"
   id="svg5"
   inkscape:version="1.2.2 (732a01da63, 2022-12-09)"
   sodipodi:docname="SATAAmps.svg"
   xml:space="preserve"
   xmlns:inkscape="http://www.inkscape.org/namespaces/inkscape"
   xmlns:sodipodi="http://sodipodi.sourceforge.net/DTD/sodipodi-0.dtd"
   xmlns="http://www.w3.org/2000/svg"
   xmlns:svg="http://www.w3.org/2000/svg"
   xmlns:rdf="http://www.w3.org/1999/02/22-rdf-syntax-ns#"
   xmlns:cc="http://creativecommons.org/ns#"><sodipodi:namedview
     id="namedview7"
     pagecolor="#ffffff"
     bordercolor="#000000"
     borderopacity="0.25"
     inkscape:showpageshadow="2"
     inkscape:pageopacity="0.0"
     inkscape:pagecheckerboard="true"
     inkscape:deskcolor="#d1d1d1"
     inkscape:document-units="px"
     showgrid="true"
     showguides="true"
     inkscape:zoom="1.7457627"
     inkscape:cx="37.519418"
     inkscape:cy="96.23301"
     inkscape:window-width="1920"
     inkscape:window-height="1027"
     inkscape:window-x="-8"
     inkscape:window-y="-8"
     inkscape:window-maximized="1"
     inkscape:current-layer="layer1"><inkscape:grid
       type="xygrid"
       id="grid132"
       empspacing="8"
       dotted="true"
       originx="-34"
       originy="-10" /><sodipodi:guide
       position="94,166"
       orientation="1,0"
       id="guide136"
       inkscape:locked="false" /></sodipodi:namedview><defs
     id="defs2" /><g
     inkscape:label="Layer 1"
     inkscape:groupmode="layer"
     id="layer1"
     transform="translate(-34,-10)"><path
       id="path19"
       style="color:#7f7f7f7f;fill:#7f7f7f7f;stroke-linecap:round;stroke-linejoin:round;-inkscape-stroke:none"
       d="m 64,10 c -3.313568,3.31e-4 -5.999669,2.686432 -6,6 v 224 c 3.31e-4,3.31357 2.686432,5.99967 6,6 h 32 24 c 3.31357,-3.3e-4 5.99967,-2.68643 6,-6 v -2 h 44 v 2 c 3.3e-4,3.31357 2.68643,5.99967 6,6 h 8 c 3.31357,-3.3e-4 5.99967,-2.68643 6,-6 v -2 h 20 v 2 c 3.3e-4,3.31357 2.68643,5.99967 6,6 h 24 c 3.31357,-3.3e-4 5.99967,-2.68643 6,-6 V 16 c -3.3e-4,-3.313568 -2.68643,-5.999669 -6,-6 z m 6,12 h 164 v 212 h -12 v -2 c -3.3e-4,-3.31357 -2.68643,-5.99967 -6,-6 h -31 -1 -8 -56 c -3.31357,3.3e-4 -5.99967,2.68643 -6,6 v 2 H 96 70 Z M 96.185547,39.394531 A 4.1860465,4.1860465 0 0 0 92,43.582031 4.1860465,4.1860465 0 0 0 96.185547,47.767578 H 207.81445 A 4.1860465,4.1860465 0 0 0 212,43.582031 a 4.1860465,4.1860465 0 0 0 -4.18555,-4.1875 z m 0,16.744141 A 4.1860465,4.1860465 0 0 0 92,60.326172 a 4.1860465,4.1860465 0 0 0 4.185547,4.185547 h 22.326173 a 4.1860465,4.1860465 0 0 0 4.18555,-4.185547 4.1860465,4.1860465 0 0 0 -4.18555,-4.1875 z m 44.652343,0 a 4.1860465,4.1860465 0 0 0 -4.1875,4.1875 4.1860465,4.1860465 0 0 0 4.1875,4.185547 h 22.32422 a 4.1860465,4.1860465 0 0 0 4.1875,-4.185547 4.1860465,4.1860465 0 0 0 -4.1875,-4.1875 z m 44.65039,0 a 4.1860465,4.1860465 0 0 0 -4.18555,4.1875 4.1860465,4.1860465 0 0 0 4.18555,4.185547 h 22.32617 A 4.1860465,4.1860465 0 0 0 212,60.326172 a 4.1860465,4.1860465 0 0 0 -4.18555,-4.1875 z M 136.44727,73.757812 92.242188,216.60547 h 21.898442 l 11.05078,-36.01953 h 53.20898 l 11.05078,36.01953 h 22.30664 L 167.55273,73.757812 Z M 152,90.744141 l 8.5957,31.312499 12.2793,40.10938 h -41.95312 l 12.48242,-39.90625 z" /></g><metadata
     id="metadata134"><rdf:RDF><cc:Work
         rdf:about=""><cc:license
           rdf:resource="http://scripts.sil.org/OFL" /></cc:Work><cc:License
         rdf:about="http://scripts.sil.org/OFL"><cc:permits
           rdf:resource="http://scripts.sil.org/pub/OFL/Reproduction" /><cc:permits
           rdf:resource="http://scripts.sil.org/pub/OFL/Distribution" /><cc:permits
           rdf:resource="http://scripts.sil.org/pub/OFL/Embedding" /><cc:permits
           rdf:resource="http://scripts.sil.org/pub/OFL/DerivativeWorks" /><cc:requires
           rdf:resource="http://scripts.sil.org/pub/OFL/Notice" /><cc:requires
           rdf:resource="http://scripts.sil.org/pub/OFL/Attribution" /><cc:requires
           rdf:resource="http://scripts.sil.org/pub/OFL/ShareAlike" /><cc:requires
           rdf:resource="http://scripts.sil.org/pub/OFL/DerivativeRenaming" /><cc:requires
           rdf:resource="http://scripts.sil.org/pub/OFL/BundlingWhenSelling" /></cc:License></rdf:RDF></metadata></svg>
