<?xml version="1.0" encoding="UTF-8" standalone="no"?>
<!-- Created with Inkscape (http://www.inkscape.org/) -->

<svg
   width="236"
   height="236"
   viewBox="0 0 236 236"
   version="1.1"
   id="svg5"
   inkscape:version="1.2.2 (732a01da63, 2022-12-09)"
   sodipodi:docname="SATALiquidAlt.svg"
   xml:space="preserve"
   xmlns:inkscape="http://www.inkscape.org/namespaces/inkscape"
   xmlns:sodipodi="http://sodipodi.sourceforge.net/DTD/sodipodi-0.dtd"
   xmlns="http://www.w3.org/2000/svg"
   xmlns:svg="http://www.w3.org/2000/svg"
   xmlns:rdf="http://www.w3.org/1999/02/22-rdf-syntax-ns#"
   xmlns:cc="http://creativecommons.org/ns#"><sodipodi:namedview
     id="namedview7"
     pagecolor="#ffffff"
     bordercolor="#000000"
     borderopacity="0.25"
     inkscape:showpageshadow="2"
     inkscape:pageopacity="0.0"
     inkscape:pagecheckerboard="true"
     inkscape:deskcolor="#d1d1d1"
     inkscape:document-units="px"
     showgrid="true"
     showguides="true"
     inkscape:zoom="1.7457627"
     inkscape:cx="37.519418"
     inkscape:cy="96.23301"
     inkscape:window-width="1920"
     inkscape:window-height="1027"
     inkscape:window-x="-8"
     inkscape:window-y="-8"
     inkscape:window-maximized="1"
     inkscape:current-layer="layer1"><inkscape:grid
       type="xygrid"
       id="grid132"
       empspacing="8"
       dotted="true"
       originx="-34"
       originy="-10" /><sodipodi:guide
       position="94,166"
       orientation="1,0"
       id="guide136"
       inkscape:locked="false" /></sodipodi:namedview><defs
     id="defs2" /><g
     inkscape:label="Layer 1"
     inkscape:groupmode="layer"
     id="layer1"
     transform="translate(-34,-10)"><path
       id="path20"
       style="color:#7f7f7f7f;fill:#7f7f7f7f;stroke-linecap:round;stroke-linejoin:round;-inkscape-stroke:none"
       d="m 64,10 c -3.313568,3.31e-4 -5.999669,2.686432 -6,6 v 224 c 3.31e-4,3.31357 2.686432,5.99967 6,6 h 32 24 c 3.31357,-3.3e-4 5.99967,-2.68643 6,-6 v -2 h 44 v 2 c 3.3e-4,3.31357 2.68643,5.99967 6,6 h 8 c 3.31357,-3.3e-4 5.99967,-2.68643 6,-6 v -2 h 20 v 2 c 3.3e-4,3.31357 2.68643,5.99967 6,6 h 24 c 3.31357,-3.3e-4 5.99967,-2.68643 6,-6 V 16 c -3.3e-4,-3.313568 -2.68643,-5.999669 -6,-6 z m 6,12 h 164 v 212 h -12 v -2 c -3.3e-4,-3.31357 -2.68643,-5.99967 -6,-6 h -31 -1 -8 -56 c -3.31357,3.3e-4 -5.99967,2.68643 -6,6 v 2 H 96 70 Z m 77.99023,32.275391 a 1.7395732,1.7395732 0 0 0 -1.66406,1.234375 c -2.62133,8.635304 -9.647,21.155286 -16.0957,30.259765 -3.08385,4.353856 -5.20201,8.569041 -5.90625,12.949219 -0.70426,4.38018 0.0733,8.86996 2.52148,13.47852 3.60605,6.78817 12.10156,13.22656 21.14453,13.22656 9.1748,0 17.54864,-6.45751 21.14454,-13.22656 2.15665,-4.0598 3.02491,-8.0248 2.71093,-11.91016 -0.39891,-4.936012 -2.64462,-9.645236 -6.0957,-14.517579 -6.44872,-9.104477 -13.4744,-21.624459 -16.0957,-30.259765 a 1.7395732,1.7395732 0 0 0 -1.66407,-1.234375 z m 50.0918,56.896489 a 1.7395732,1.7395732 0 0 0 -1.66406,1.23632 c -2.62132,8.6353 -9.64506,21.15334 -16.09375,30.25782 -3.08386,4.35385 -5.20397,8.56904 -5.9082,12.94921 -0.70425,4.38018 0.0732,8.86997 2.52148,13.47852 3.60606,6.78816 12.10157,13.22656 21.14453,13.22656 9.17479,0 17.54864,-6.45752 21.14453,-13.22656 2.15667,-4.05979 3.02492,-8.02479 2.71094,-11.91016 -0.39891,-4.936 -2.64461,-9.64522 -6.0957,-14.51757 -6.44872,-9.10447 -13.4744,-21.62252 -16.09571,-30.25782 a 1.7395732,1.7395732 0 0 0 -1.66406,-1.23632 z m -92.16797,19.40429 a 1.7395732,1.7395732 0 0 0 -1.66406,1.23438 c -2.62131,8.6353 -9.64504,21.1553 -16.09375,30.25976 -3.083839,4.35387 -5.20395,8.56709 -5.908203,12.94727 -0.704244,4.38017 0.07326,8.87192 2.521484,13.48047 3.60606,6.78817 12.101555,13.22656 21.144529,13.22656 9.17479,0 17.54865,-6.45751 21.14453,-13.22656 2.15667,-4.05979 3.02492,-8.02478 2.71094,-11.91016 -0.39891,-4.93601 -2.64461,-9.64522 -6.0957,-14.51758 -6.44871,-9.10447 -13.47439,-21.62446 -16.0957,-30.25976 a 1.7395732,1.7395732 0 0 0 -1.66407,-1.23438 z" /></g><metadata
     id="metadata134"><rdf:RDF><cc:Work
         rdf:about=""><cc:license
           rdf:resource="http://scripts.sil.org/OFL" /></cc:Work><cc:License
         rdf:about="http://scripts.sil.org/OFL"><cc:permits
           rdf:resource="http://scripts.sil.org/pub/OFL/Reproduction" /><cc:permits
           rdf:resource="http://scripts.sil.org/pub/OFL/Distribution" /><cc:permits
           rdf:resource="http://scripts.sil.org/pub/OFL/Embedding" /><cc:permits
           rdf:resource="http://scripts.sil.org/pub/OFL/DerivativeWorks" /><cc:requires
           rdf:resource="http://scripts.sil.org/pub/OFL/Notice" /><cc:requires
           rdf:resource="http://scripts.sil.org/pub/OFL/Attribution" /><cc:requires
           rdf:resource="http://scripts.sil.org/pub/OFL/ShareAlike" /><cc:requires
           rdf:resource="http://scripts.sil.org/pub/OFL/DerivativeRenaming" /><cc:requires
           rdf:resource="http://scripts.sil.org/pub/OFL/BundlingWhenSelling" /></cc:License></rdf:RDF></metadata><style
     type="text/css"
     id="style5151">
	.st0{fill:#7f7f7f7f;}
</style></svg>
