<?xml version="1.0" encoding="UTF-8" standalone="no"?>
<!-- Created with Inkscape (http://www.inkscape.org/) -->

<svg
   width="236"
   height="236"
   viewBox="0 0 236 236"
   version="1.1"
   id="svg5"
   inkscape:version="1.2.2 (732a01da63, 2022-12-09)"
   sodipodi:docname="SATAFlow.svg"
   xml:space="preserve"
   xmlns:inkscape="http://www.inkscape.org/namespaces/inkscape"
   xmlns:sodipodi="http://sodipodi.sourceforge.net/DTD/sodipodi-0.dtd"
   xmlns="http://www.w3.org/2000/svg"
   xmlns:svg="http://www.w3.org/2000/svg"
   xmlns:rdf="http://www.w3.org/1999/02/22-rdf-syntax-ns#"
   xmlns:cc="http://creativecommons.org/ns#"><sodipodi:namedview
     id="namedview7"
     pagecolor="#ffffff"
     bordercolor="#000000"
     borderopacity="0.25"
     inkscape:showpageshadow="2"
     inkscape:pageopacity="0.0"
     inkscape:pagecheckerboard="true"
     inkscape:deskcolor="#d1d1d1"
     inkscape:document-units="px"
     showgrid="true"
     showguides="true"
     inkscape:zoom="1.7457627"
     inkscape:cx="37.519418"
     inkscape:cy="96.23301"
     inkscape:window-width="1920"
     inkscape:window-height="1027"
     inkscape:window-x="-8"
     inkscape:window-y="-8"
     inkscape:window-maximized="1"
     inkscape:current-layer="layer1"><inkscape:grid
       type="xygrid"
       id="grid132"
       empspacing="8"
       dotted="true"
       originx="-34"
       originy="-10" /><sodipodi:guide
       position="94,166"
       orientation="1,0"
       id="guide136"
       inkscape:locked="false" /></sodipodi:namedview><defs
     id="defs2" /><g
     inkscape:label="Layer 1"
     inkscape:groupmode="layer"
     id="layer1"
     transform="translate(-34,-10)"><path
       id="path20"
       style="color:#7f7f7f7f;fill:#7f7f7f7f;stroke-linecap:round;stroke-linejoin:round;-inkscape-stroke:none"
       d="m 64,10 c -3.313568,3.31e-4 -5.999669,2.686432 -6,6 v 224 c 3.31e-4,3.31357 2.686432,5.99967 6,6 h 32 24 c 3.31357,-3.3e-4 5.99967,-2.68643 6,-6 v -2 h 44 v 2 c 3.3e-4,3.31357 2.68643,5.99967 6,6 h 8 c 3.31357,-3.3e-4 5.99967,-2.68643 6,-6 v -2 h 20 v 2 c 3.3e-4,3.31357 2.68643,5.99967 6,6 h 24 c 3.31357,-3.3e-4 5.99967,-2.68643 6,-6 V 16 c -3.3e-4,-3.313568 -2.68643,-5.999669 -6,-6 z m 6,12 h 164 v 212 h -12 v -2 c -3.3e-4,-3.31357 -2.68643,-5.99967 -6,-6 h -31 -1 -8 -56 c -3.31357,3.3e-4 -5.99967,2.68643 -6,6 v 2 H 96 70 Z m 32.40625,37.460938 c -4.813175,0 -9.017935,2.500511 -12.605469,4.705078 -3.58754,2.204566 -6.339843,4.404296 -6.339843,4.404296 a 3.8745328,3.8745328 0 0 0 -0.615235,5.44336 3.8745328,3.8745328 0 0 0 5.443359,0.615234 c 0,0 2.430444,-1.933059 5.56836,-3.861328 3.13791,-1.928268 7.201128,-3.558594 8.548828,-3.558594 1.34769,0 5.40896,1.630326 8.54688,3.558594 3.13791,1.928269 5.57031,3.861328 5.57031,3.861328 0,0 2.7523,2.199732 6.33984,4.404297 3.58754,2.204566 7.7923,4.707031 12.60547,4.707031 4.81318,0 9.01794,-2.502465 12.60547,-4.707031 3.58756,-2.204566 6.33984,-4.404297 6.33984,-4.404297 0,0 2.4324,-1.933059 5.57032,-3.861328 3.1379,-1.928268 7.19918,-3.558594 8.54687,-3.558594 1.3477,0 5.41091,1.630327 8.54883,3.558594 3.13791,1.928269 5.56836,3.861328 5.56836,3.861328 0,0 2.75427,2.199732 6.34179,4.404297 3.58755,2.204566 7.79034,4.707031 12.60352,4.707031 4.81317,0 9.01793,-2.502465 12.60547,-4.707031 3.58754,-2.204566 6.33984,-4.404297 6.33984,-4.404297 a 3.8745328,3.8745328 0 0 0 0.61524,-5.443359 3.8745328,3.8745328 0 0 0 -5.44336,-0.615235 c 0,0 -2.43046,1.933061 -5.56836,3.861329 -3.13792,1.928268 -7.20114,3.560547 -8.54883,3.560547 -1.3477,0 -5.40897,-1.632279 -8.54687,-3.560547 -3.13791,-1.928268 -5.57032,-3.861329 -5.57032,-3.861329 0,0 -2.75229,-2.19973 -6.33984,-4.404296 -3.58753,-2.204567 -7.7923,-4.705078 -12.60547,-4.705078 -4.81318,0 -9.01793,2.500511 -12.60547,4.705078 -3.58756,2.204566 -6.33984,4.404296 -6.33984,4.404296 0,0 -2.4324,1.933061 -5.57032,3.861329 -3.1379,1.928268 -7.19917,3.560547 -8.54687,3.560547 -1.3477,0 -5.41091,-1.632279 -8.54883,-3.560547 -3.13791,-1.928268 -5.56836,-3.861329 -5.56836,-3.861329 0,0 -2.75425,-2.19973 -6.34179,-4.404296 -3.58754,-2.204567 -7.79035,-4.705078 -12.60352,-4.705078 z m 0,28.320312 c -4.813175,0 -9.017935,2.502464 -12.605469,4.707031 -3.58754,2.204567 -6.339843,4.404297 -6.339843,4.404297 a 3.8745328,3.8745328 0 0 0 -0.615235,5.443362 3.8745328,3.8745328 0 0 0 5.443359,0.61523 c 0,0 2.430444,-1.93305 5.56836,-3.861326 3.13791,-1.928269 7.201128,-3.558594 8.548828,-3.558594 1.34769,0 5.40896,1.630325 8.54688,3.558594 3.13791,1.928276 5.57031,3.861326 5.57031,3.861326 0,0 2.7523,2.19973 6.33984,4.4043 3.58754,2.20458 7.7923,4.70703 12.60547,4.70703 4.81318,0 9.01794,-2.50245 12.60547,-4.70703 3.58756,-2.20457 6.33984,-4.4043 6.33984,-4.4043 0,0 2.4324,-1.93305 5.57032,-3.861326 3.1379,-1.928269 7.19918,-3.558594 8.54687,-3.558594 1.3477,0 5.41091,1.630325 8.54883,3.558594 3.13791,1.928276 5.56836,3.861326 5.56836,3.861326 0,0 2.75427,2.19973 6.34179,4.4043 3.58755,2.20458 7.79034,4.70703 12.60352,4.70703 4.81317,0 9.01793,-2.50245 12.60547,-4.70703 3.58754,-2.20457 6.33984,-4.4043 6.33984,-4.4043 a 3.8745328,3.8745328 0 0 0 0.61524,-5.443358 3.8745328,3.8745328 0 0 0 -5.44336,-0.615234 c 0,0 -2.43046,1.933063 -5.56836,3.861332 -3.13792,1.92827 -7.20114,3.55859 -8.54883,3.55859 -1.3477,0 -5.40897,-1.63032 -8.54687,-3.55859 -3.13791,-1.928269 -5.57032,-3.861332 -5.57032,-3.861332 0,0 -2.75229,-2.19973 -6.33984,-4.404297 -3.58753,-2.204567 -7.7923,-4.707031 -12.60547,-4.707031 -4.81318,0 -9.01793,2.502464 -12.60547,4.707031 -3.58756,2.204567 -6.33984,4.404296 -6.33984,4.404297 0,0 -2.4324,1.933063 -5.57032,3.861332 -3.1379,1.92827 -7.19917,3.55859 -8.54687,3.55859 -1.3477,0 -5.41091,-1.63032 -8.54883,-3.55859 -3.13791,-1.928269 -5.56836,-3.861332 -5.56836,-3.861332 0,0 -2.75425,-2.19973 -6.34179,-4.404297 -3.58754,-2.204567 -7.79035,-4.707031 -12.60352,-4.707031 z m 0,28.07813 c -4.813175,0 -9.017935,2.50246 -12.605469,4.70703 -3.58754,2.20456 -6.339843,4.40429 -6.339843,4.40429 a 3.8745328,3.8745328 0 0 0 -0.615235,5.44336 3.8745328,3.8745328 0 0 0 5.443359,0.61524 c 0,0 2.430444,-1.93308 5.56836,-3.86133 3.13791,-1.92828 7.201128,-3.5586 8.548828,-3.55859 1.34769,0 5.40896,1.63031 8.54688,3.55859 3.13791,1.92825 5.57031,3.86133 5.57031,3.86133 0,0 2.7523,2.19972 6.33984,4.40429 3.58754,2.20457 7.7923,4.70704 12.60547,4.70703 4.81318,0 9.01794,-2.50246 12.60547,-4.70703 3.58756,-2.20457 6.33984,-4.40429 6.33984,-4.40429 0,0 2.4324,-1.93308 5.57032,-3.86133 3.1379,-1.92828 7.19918,-3.5586 8.54687,-3.55859 1.3477,0 5.41091,1.63031 8.54883,3.55859 3.13791,1.92825 5.56836,3.86133 5.56836,3.86133 0,0 2.75427,2.19972 6.34179,4.40429 3.58755,2.20457 7.79034,4.70704 12.60352,4.70703 4.81317,0 9.01793,-2.50246 12.60547,-4.70703 3.58754,-2.20457 6.33984,-4.40429 6.33984,-4.40429 a 3.8745328,3.8745328 0 0 0 0.61524,-5.44336 3.8745328,3.8745328 0 0 0 -5.44336,-0.61524 c 0,0 -2.43046,1.93307 -5.56836,3.86133 -3.13792,1.92828 -7.20114,3.55859 -8.54883,3.55859 -1.3477,0 -5.40897,-1.63031 -8.54687,-3.55859 -3.13791,-1.92826 -5.57032,-3.86133 -5.57032,-3.86133 0,0 -2.75229,-2.19973 -6.33984,-4.40429 -3.58753,-2.20457 -7.7923,-4.70703 -12.60547,-4.70703 -4.81318,0 -9.01793,2.50246 -12.60547,4.70703 -3.58756,2.20456 -6.33984,4.40429 -6.33984,4.40429 0,0 -2.4324,1.93307 -5.57032,3.86133 -3.1379,1.92828 -7.19917,3.55859 -8.54687,3.55859 -1.3477,0 -5.41091,-1.63031 -8.54883,-3.55859 -3.13791,-1.92826 -5.56836,-3.86133 -5.56836,-3.86133 0,0 -2.75425,-2.19973 -6.34179,-4.40429 -3.58754,-2.20457 -7.79035,-4.70703 -12.60352,-4.70703 z m 0,28.07812 c -4.813175,0 -9.017935,2.50246 -12.605469,4.70703 -3.58754,2.20457 -6.339843,4.4043 -6.339843,4.4043 a 3.8745328,3.8745328 0 0 0 -0.615235,5.44336 3.8745328,3.8745328 0 0 0 5.443359,0.61523 c 0,0 2.430444,-1.93308 5.56836,-3.86133 3.13791,-1.92827 7.201128,-3.55859 8.548828,-3.55859 1.34769,0 5.40896,1.63032 8.54688,3.55859 3.13791,1.92825 5.57031,3.86133 5.57031,3.86133 0,0 2.7523,2.19973 6.33984,4.4043 3.58754,2.20456 7.7923,4.70703 12.60547,4.70703 4.81318,0 9.01794,-2.50247 12.60547,-4.70703 3.58756,-2.20457 6.33984,-4.4043 6.33984,-4.4043 0,0 2.4324,-1.93308 5.57032,-3.86133 3.1379,-1.92827 7.19918,-3.55859 8.54687,-3.55859 1.3477,0 5.41091,1.63032 8.54883,3.55859 3.13791,1.92825 5.56836,3.86133 5.56836,3.86133 0,0 2.75427,2.19973 6.34179,4.4043 3.58755,2.20456 7.79034,4.70703 12.60352,4.70703 4.81317,0 9.01793,-2.50247 12.60547,-4.70703 3.58754,-2.20457 6.33984,-4.4043 6.33984,-4.4043 a 3.8745328,3.8745328 0 0 0 0.61524,-5.44336 3.8745328,3.8745328 0 0 0 -5.44336,-0.61523 c 0,0 -2.43046,1.93305 -5.56836,3.86133 -3.13792,1.92826 -7.20114,3.55859 -8.54883,3.55859 -1.3477,0 -5.40897,-1.63033 -8.54687,-3.55859 -3.13791,-1.92828 -5.57032,-3.86133 -5.57032,-3.86133 0,0 -2.75229,-2.19973 -6.33984,-4.4043 -3.58753,-2.20457 -7.7923,-4.70703 -12.60547,-4.70703 -4.81318,0 -9.01793,2.50246 -12.60547,4.70703 -3.58756,2.20457 -6.33984,4.4043 -6.33984,4.4043 0,0 -2.4324,1.93305 -5.57032,3.86133 -3.1379,1.92826 -7.19917,3.55859 -8.54687,3.55859 -1.3477,0 -5.41091,-1.63033 -8.54883,-3.55859 -3.13791,-1.92828 -5.56836,-3.86133 -5.56836,-3.86133 0,0 -2.75425,-2.19973 -6.34179,-4.4043 -3.58754,-2.20457 -7.79035,-4.70703 -12.60352,-4.70703 z m 0,28.32227 c -4.813175,0 -9.017935,2.50246 -12.605469,4.70703 -3.58754,2.20457 -6.339843,4.40429 -6.339843,4.40429 a 3.8745328,3.8745328 0 0 0 -0.615235,5.44336 3.8745328,3.8745328 0 0 0 5.443359,0.61524 c 0,0 2.430444,-1.93305 5.56836,-3.86133 3.13791,-1.92827 7.201128,-3.56055 8.548828,-3.56055 1.34769,0 5.40896,1.63228 8.54688,3.56055 3.13791,1.92828 5.57031,3.86133 5.57031,3.86133 0,0 2.7523,2.19972 6.33984,4.40429 3.58754,2.20457 7.7923,4.70508 12.60547,4.70508 4.81318,0 9.01794,-2.50051 12.60547,-4.70508 3.58756,-2.20457 6.33984,-4.40429 6.33984,-4.40429 0,0 2.4324,-1.93305 5.57032,-3.86133 3.1379,-1.92827 7.19918,-3.56055 8.54687,-3.56055 1.3477,0 5.41091,1.63228 8.54883,3.56055 3.13791,1.92828 5.56836,3.86133 5.56836,3.86133 0,0 2.75427,2.19972 6.34179,4.40429 3.58755,2.20457 7.79034,4.70508 12.60352,4.70508 4.81317,0 9.01793,-2.50051 12.60547,-4.70508 3.58754,-2.20457 6.33984,-4.40429 6.33984,-4.40429 a 3.8745328,3.8745328 0 0 0 0.61524,-5.44336 3.8745328,3.8745328 0 0 0 -5.44336,-0.61524 c 0,0 -2.43046,1.93306 -5.56836,3.86133 -3.13792,1.92828 -7.20114,3.5586 -8.54883,3.5586 -1.3477,0 -5.40897,-1.63032 -8.54687,-3.5586 -3.13791,-1.92827 -5.57032,-3.86133 -5.57032,-3.86133 0,0 -2.75229,-2.19972 -6.33984,-4.40429 -3.58753,-2.20457 -7.7923,-4.70703 -12.60547,-4.70703 -4.81318,0 -9.01793,2.50246 -12.60547,4.70703 -3.58756,2.20457 -6.33984,4.40429 -6.33984,4.40429 0,0 -2.4324,1.93306 -5.57032,3.86133 -3.1379,1.92828 -7.19917,3.5586 -8.54687,3.5586 -1.3477,0 -5.41091,-1.63032 -8.54883,-3.5586 -3.13791,-1.92827 -5.56836,-3.86133 -5.56836,-3.86133 0,0 -2.75425,-2.19972 -6.34179,-4.40429 -3.58754,-2.20457 -7.79035,-4.70703 -12.60352,-4.70703 z" /></g><metadata
     id="metadata134"><rdf:RDF><cc:Work
         rdf:about=""><cc:license
           rdf:resource="http://scripts.sil.org/OFL" /></cc:Work><cc:License
         rdf:about="http://scripts.sil.org/OFL"><cc:permits
           rdf:resource="http://scripts.sil.org/pub/OFL/Reproduction" /><cc:permits
           rdf:resource="http://scripts.sil.org/pub/OFL/Distribution" /><cc:permits
           rdf:resource="http://scripts.sil.org/pub/OFL/Embedding" /><cc:permits
           rdf:resource="http://scripts.sil.org/pub/OFL/DerivativeWorks" /><cc:requires
           rdf:resource="http://scripts.sil.org/pub/OFL/Notice" /><cc:requires
           rdf:resource="http://scripts.sil.org/pub/OFL/Attribution" /><cc:requires
           rdf:resource="http://scripts.sil.org/pub/OFL/ShareAlike" /><cc:requires
           rdf:resource="http://scripts.sil.org/pub/OFL/DerivativeRenaming" /><cc:requires
           rdf:resource="http://scripts.sil.org/pub/OFL/BundlingWhenSelling" /></cc:License></rdf:RDF></metadata><style
     type="text/css"
     id="style5151">
	.st0{fill:#7f7f7f7f;}
</style></svg>
