<?xml version="1.0" encoding="UTF-8" standalone="no"?>
<!-- Created with Inkscape (http://www.inkscape.org/) -->

<svg
   width="236"
   height="236"
   viewBox="0 0 236 236"
   version="1.1"
   id="svg5"
   inkscape:version="1.2.2 (732a01da63, 2022-12-09)"
   sodipodi:docname="SATAVolts.svg"
   xml:space="preserve"
   xmlns:inkscape="http://www.inkscape.org/namespaces/inkscape"
   xmlns:sodipodi="http://sodipodi.sourceforge.net/DTD/sodipodi-0.dtd"
   xmlns="http://www.w3.org/2000/svg"
   xmlns:svg="http://www.w3.org/2000/svg"
   xmlns:rdf="http://www.w3.org/1999/02/22-rdf-syntax-ns#"
   xmlns:cc="http://creativecommons.org/ns#"><sodipodi:namedview
     id="namedview7"
     pagecolor="#ffffff"
     bordercolor="#000000"
     borderopacity="0.25"
     inkscape:showpageshadow="2"
     inkscape:pageopacity="0.0"
     inkscape:pagecheckerboard="true"
     inkscape:deskcolor="#d1d1d1"
     inkscape:document-units="px"
     showgrid="true"
     showguides="true"
     inkscape:zoom="1.7457627"
     inkscape:cx="37.519418"
     inkscape:cy="96.23301"
     inkscape:window-width="1920"
     inkscape:window-height="1027"
     inkscape:window-x="-8"
     inkscape:window-y="-8"
     inkscape:window-maximized="1"
     inkscape:current-layer="layer1"><inkscape:grid
       type="xygrid"
       id="grid132"
       empspacing="8"
       dotted="true"
       originx="-34"
       originy="-10" /><sodipodi:guide
       position="94,166"
       orientation="1,0"
       id="guide136"
       inkscape:locked="false" /></sodipodi:namedview><defs
     id="defs2" /><g
     inkscape:label="Layer 1"
     inkscape:groupmode="layer"
     id="layer1"
     transform="translate(-34,-10)"><path
       id="path19"
       style="color:#7f7f7f7f;fill:#7f7f7f7f;stroke-linecap:round;stroke-linejoin:round;-inkscape-stroke:none"
       d="m 64,10 c -3.313568,3.31e-4 -5.999669,2.686432 -6,6 v 224 c 3.31e-4,3.31357 2.686432,5.99967 6,6 h 32 24 c 3.31357,-3.3e-4 5.99967,-2.68643 6,-6 v -2 h 44 v 2 c 3.3e-4,3.31357 2.68643,5.99967 6,6 h 8 c 3.31357,-3.3e-4 5.99967,-2.68643 6,-6 v -2 h 20 v 2 c 3.3e-4,3.31357 2.68643,5.99967 6,6 h 24 c 3.31357,-3.3e-4 5.99967,-2.68643 6,-6 V 16 c -3.3e-4,-3.313568 -2.68643,-5.999669 -6,-6 z m 6,12 h 164 v 212 h -12 v -2 c -3.3e-4,-3.31357 -2.68643,-5.99967 -6,-6 h -31 -1 -8 -56 c -3.31357,3.3e-4 -5.99967,2.68643 -6,6 v 2 H 96 70 Z m 26.333984,17.791016 a 4.1673076,4.1673076 0 0 0 -4.167968,4.167968 4.1673076,4.1673076 0 0 0 4.167968,4.167969 H 207.46289 a 4.1673076,4.1673076 0 0 0 4.16602,-4.167969 4.1673076,4.1673076 0 0 0 -4.16602,-4.167968 z m 0,16.669922 a 4.1673076,4.1673076 0 0 0 -4.167968,4.167968 4.1673076,4.1673076 0 0 0 4.167968,4.166016 h 22.226566 a 4.1673076,4.1673076 0 0 0 4.16601,-4.166016 4.1673076,4.1673076 0 0 0 -4.16601,-4.167968 z m 44.451176,0 a 4.1673076,4.1673076 0 0 0 -4.16797,4.167968 4.1673076,4.1673076 0 0 0 4.16797,4.166016 h 22.22656 a 4.1673076,4.1673076 0 0 0 4.16601,-4.166016 4.1673076,4.1673076 0 0 0 -4.16601,-4.167968 z m 44.45117,0 a 4.1673076,4.1673076 0 0 0 -4.16602,4.167968 4.1673076,4.1673076 0 0 0 4.16602,4.166016 h 22.22656 a 4.1673076,4.1673076 0 0 0 4.16602,-4.166016 4.1673076,4.1673076 0 0 0 -4.16602,-4.167968 z M 92,74.001953 136.41406,216.20898 h 31.17188 L 212,74.001953 h -22.00391 l -30.15234,93.513667 -7.53906,30.5586 -7.74219,-30.76367 -29.94727,-93.308597 z" /></g><metadata
     id="metadata134"><rdf:RDF><cc:Work
         rdf:about=""><cc:license
           rdf:resource="http://scripts.sil.org/OFL" /></cc:Work><cc:License
         rdf:about="http://scripts.sil.org/OFL"><cc:permits
           rdf:resource="http://scripts.sil.org/pub/OFL/Reproduction" /><cc:permits
           rdf:resource="http://scripts.sil.org/pub/OFL/Distribution" /><cc:permits
           rdf:resource="http://scripts.sil.org/pub/OFL/Embedding" /><cc:permits
           rdf:resource="http://scripts.sil.org/pub/OFL/DerivativeWorks" /><cc:requires
           rdf:resource="http://scripts.sil.org/pub/OFL/Notice" /><cc:requires
           rdf:resource="http://scripts.sil.org/pub/OFL/Attribution" /><cc:requires
           rdf:resource="http://scripts.sil.org/pub/OFL/ShareAlike" /><cc:requires
           rdf:resource="http://scripts.sil.org/pub/OFL/DerivativeRenaming" /><cc:requires
           rdf:resource="http://scripts.sil.org/pub/OFL/BundlingWhenSelling" /></cc:License></rdf:RDF></metadata></svg>
