<?xml version="1.0" encoding="UTF-8" standalone="no"?>
<!-- Created with Inkscape (http://www.inkscape.org/) -->

<svg
   width="236"
   height="236"
   viewBox="0 0 236 236"
   version="1.1"
   id="svg5"
   inkscape:version="1.2.2 (732a01da63, 2022-12-09)"
   sodipodi:docname="SATASSD.svg"
   xmlns:inkscape="http://www.inkscape.org/namespaces/inkscape"
   xmlns:sodipodi="http://sodipodi.sourceforge.net/DTD/sodipodi-0.dtd"
   xmlns="http://www.w3.org/2000/svg"
   xmlns:svg="http://www.w3.org/2000/svg"
   xmlns:rdf="http://www.w3.org/1999/02/22-rdf-syntax-ns#"
   xmlns:cc="http://creativecommons.org/ns#">
  <sodipodi:namedview
     id="namedview7"
     pagecolor="#ffffff"
     bordercolor="#000000"
     borderopacity="0.25"
     inkscape:showpageshadow="2"
     inkscape:pageopacity="0.0"
     inkscape:pagecheckerboard="true"
     inkscape:deskcolor="#d1d1d1"
     inkscape:document-units="px"
     showgrid="true"
     showguides="true"
     inkscape:zoom="0.87288139"
     inkscape:cx="-1.7184465"
     inkscape:cy="97.378637"
     inkscape:window-width="1920"
     inkscape:window-height="1027"
     inkscape:window-x="-8"
     inkscape:window-y="-8"
     inkscape:window-maximized="1"
     inkscape:current-layer="layer1">
    <inkscape:grid
       type="xygrid"
       id="grid132"
       empspacing="8"
       dotted="true"
       originx="-34"
       originy="-10" />
    <sodipodi:guide
       position="94,166"
       orientation="1,0"
       id="guide136"
       inkscape:locked="false" />
    <sodipodi:guide
       position="126,118"
       orientation="0,-1"
       id="guide138"
       inkscape:locked="false" />
  </sodipodi:namedview>
  <defs
     id="defs2" />
  <g
     inkscape:label="Layer 1"
     inkscape:groupmode="layer"
     id="layer1"
     transform="translate(-34,-10)">
    <path
       id="path14"
       style="color:#7f7f7f7f;fill:#7f7f7f7f;stroke-linecap:round;stroke-linejoin:round;-inkscape-stroke:none"
       d="m 64,10 a 6.0006,6.0006 0 0 0 -6,6 v 224 a 6.0006,6.0006 0 0 0 6,6 h 32 24 a 6.0006,6.0006 0 0 0 6,-6 v -2 h 44 v 2 a 6.0006,6.0006 0 0 0 6,6 h 8 a 6.0006,6.0006 0 0 0 6,-6 v -2 h 20 v 2 a 6.0006,6.0006 0 0 0 6,6 h 24 a 6.0006,6.0006 0 0 0 6,-6 V 16 a 6.0006,6.0006 0 0 0 -6,-6 z m 6,12 h 164 v 212 h -12 v -2 a 6.0006,6.0006 0 0 0 -6,-6 h -31 -9 -56 a 6.0006,6.0006 0 0 0 -6,6 v 2 H 96 70 Z m 18,18 c -4.362799,0 -8,3.637201 -8,8 v 32 c 0,4.362799 3.637201,8 8,8 h 48 c 4.36281,0 8,-3.637201 8,-8 V 48 c 0,-4.362799 -3.63719,-8 -8,-8 z m 80,0 c -4.36281,0 -8,3.637201 -8,8 v 32 c 0,4.362799 3.63719,8 8,8 h 48 c 4.36281,0 8,-3.637201 8,-8 V 48 c 0,-4.362799 -3.63719,-8 -8,-8 z m -80,64 c -4.362799,0 -8,3.63719 -8,8 v 32 c 0,4.36281 3.637201,8 8,8 h 48 c 4.36281,0 8,-3.63719 8,-8 v -32 c 0,-4.36281 -3.63719,-8 -8,-8 z m 80,0 c -4.36281,0 -8,3.63719 -8,8 v 32 c 0,4.36281 3.63719,8 8,8 h 48 c 4.36281,0 8,-3.63719 8,-8 v -32 c 0,-4.36281 -3.63719,-8 -8,-8 z m 8,64 c -4.36281,0 -8,3.63719 -8,8 v 32 c 0,4.36281 3.63719,8 8,8 h 32 c 4.36281,0 8,-3.63719 8,-8 v -32 c 0,-4.36281 -3.63719,-8 -8,-8 z m -72,8 c -4.362799,0 -8,3.63719 -8,8 v 16 c 0,4.36281 3.637201,8 8,8 h 16 c 4.36281,0 8,-3.63719 8,-8 v -16 c 0,-4.36281 -3.63719,-8 -8,-8 z" />
  </g>
  <metadata
     id="metadata134">
    <rdf:RDF>
      <cc:Work
         rdf:about="">
        <cc:license
           rdf:resource="http://scripts.sil.org/OFL" />
      </cc:Work>
      <cc:License
         rdf:about="http://scripts.sil.org/OFL">
        <cc:permits
           rdf:resource="http://scripts.sil.org/pub/OFL/Reproduction" />
        <cc:permits
           rdf:resource="http://scripts.sil.org/pub/OFL/Distribution" />
        <cc:permits
           rdf:resource="http://scripts.sil.org/pub/OFL/Embedding" />
        <cc:permits
           rdf:resource="http://scripts.sil.org/pub/OFL/DerivativeWorks" />
        <cc:requires
           rdf:resource="http://scripts.sil.org/pub/OFL/Notice" />
        <cc:requires
           rdf:resource="http://scripts.sil.org/pub/OFL/Attribution" />
        <cc:requires
           rdf:resource="http://scripts.sil.org/pub/OFL/ShareAlike" />
        <cc:requires
           rdf:resource="http://scripts.sil.org/pub/OFL/DerivativeRenaming" />
        <cc:requires
           rdf:resource="http://scripts.sil.org/pub/OFL/BundlingWhenSelling" />
      </cc:License>
    </rdf:RDF>
  </metadata>
</svg>
