<?xml version="1.0" encoding="UTF-8" standalone="no"?>
<!-- Created with Inkscape (http://www.inkscape.org/) -->

<svg
   width="236"
   height="236"
   viewBox="0 0 236 236"
   version="1.1"
   id="svg5"
   inkscape:version="1.2.2 (732a01da63, 2022-12-09)"
   sodipodi:docname="SATAHotspot.svg"
   xml:space="preserve"
   xmlns:inkscape="http://www.inkscape.org/namespaces/inkscape"
   xmlns:sodipodi="http://sodipodi.sourceforge.net/DTD/sodipodi-0.dtd"
   xmlns="http://www.w3.org/2000/svg"
   xmlns:svg="http://www.w3.org/2000/svg"
   xmlns:rdf="http://www.w3.org/1999/02/22-rdf-syntax-ns#"
   xmlns:cc="http://creativecommons.org/ns#"><sodipodi:namedview
     id="namedview7"
     pagecolor="#ffffff"
     bordercolor="#000000"
     borderopacity="0.25"
     inkscape:showpageshadow="2"
     inkscape:pageopacity="0.0"
     inkscape:pagecheckerboard="true"
     inkscape:deskcolor="#d1d1d1"
     inkscape:document-units="px"
     showgrid="true"
     showguides="true"
     inkscape:zoom="1.7457627"
     inkscape:cx="37.519418"
     inkscape:cy="96.23301"
     inkscape:window-width="1920"
     inkscape:window-height="1027"
     inkscape:window-x="-8"
     inkscape:window-y="-8"
     inkscape:window-maximized="1"
     inkscape:current-layer="layer1"><inkscape:grid
       type="xygrid"
       id="grid132"
       empspacing="8"
       dotted="true"
       originx="-34"
       originy="-10" /><sodipodi:guide
       position="94,166"
       orientation="1,0"
       id="guide136"
       inkscape:locked="false" /><sodipodi:guide
       position="126,118"
       orientation="0,-1"
       id="guide138"
       inkscape:locked="false" /></sodipodi:namedview><defs
     id="defs2" /><g
     inkscape:label="Layer 1"
     inkscape:groupmode="layer"
     id="layer1"
     transform="translate(-34,-10)"><path
       id="path21"
       style="color:#7f7f7f7f;fill:#7f7f7f7f;stroke-linecap:round;stroke-linejoin:round;-inkscape-stroke:none"
       d="m 64,10 c -3.313568,3.31e-4 -5.999669,2.686432 -6,6 v 224 c 3.31e-4,3.31357 2.686432,5.99967 6,6 h 32 24 c 3.31357,-3.3e-4 5.99967,-2.68643 6,-6 v -2 h 44 v 2 c 3.3e-4,3.31357 2.68643,5.99967 6,6 h 8 c 3.31357,-3.3e-4 5.99967,-2.68643 6,-6 v -2 h 20 v 2 c 3.3e-4,3.31357 2.68643,5.99967 6,6 h 24 c 3.31357,-3.3e-4 5.99967,-2.68643 6,-6 V 16 c -3.3e-4,-3.313568 -2.68643,-5.999669 -6,-6 z m 6,12 h 164 v 212 h -12 v -2 c -3.3e-4,-3.31357 -2.68643,-5.99967 -6,-6 h -31 -1 -8 -56 c -3.31357,3.3e-4 -5.99967,2.68643 -6,6 v 2 H 96 70 Z m 72.66406,18.013672 c -1.06788,-0.06324 -2.10057,0.809761 -2.01172,2.035156 0.78617,10.850994 0.0741,41.948926 -27.20898,79.101562 -24.737655,34.46318 -15.151432,60.93099 -11.75,68.09961 6.50324,13.73311 15.57279,21.79941 24.43164,26.50977 1.71898,0.91383 3.5329,-1.0672 2.48047,-2.70508 -5.71247,-8.89077 -11.12041,-23.84989 -2.50195,-43.11719 14.37233,-32.13 23.11718,-48.77148 23.11718,-48.77148 0,0 4.65207,19.42039 17.26172,36.6875 12.13606,16.61839 18.77926,37.51823 8.07031,54.92968 -1.00498,1.63415 0.76685,3.56332 2.47461,2.68946 13.25607,-6.78101 28.12322,-20.3835 29.80078,-47.45118 0.61853,-8.27109 -0.30879,-19.85045 -4.94726,-34.46289 -5.96408,-18.51995 -13.29683,-27.16192 -17.53906,-30.87304 -1.26896,-1.11024 -3.24082,-0.1261 -3.13672,1.55664 1.23618,19.98301 -6.28152,25.0531 -10.56055,13.625 -1.70891,-4.56457 -2.70703,-12.45969 -2.70703,-22.074221 0,-16.00648 -4.64264,-32.48356 -14.88086,-45.873047 -2.66243,-3.481945 -5.77927,-6.735194 -9.35352,-9.509766 -0.32349,-0.251175 -0.6831,-0.375403 -1.03906,-0.396484 z" /><g
       id="g4"
       transform="matrix(0.28755076,0,0,0.28755076,64.009426,40.009086)">
	
</g></g><metadata
     id="metadata134"><rdf:RDF><cc:Work
         rdf:about=""><cc:license
           rdf:resource="http://scripts.sil.org/OFL" /></cc:Work><cc:License
         rdf:about="http://scripts.sil.org/OFL"><cc:permits
           rdf:resource="http://scripts.sil.org/pub/OFL/Reproduction" /><cc:permits
           rdf:resource="http://scripts.sil.org/pub/OFL/Distribution" /><cc:permits
           rdf:resource="http://scripts.sil.org/pub/OFL/Embedding" /><cc:permits
           rdf:resource="http://scripts.sil.org/pub/OFL/DerivativeWorks" /><cc:requires
           rdf:resource="http://scripts.sil.org/pub/OFL/Notice" /><cc:requires
           rdf:resource="http://scripts.sil.org/pub/OFL/Attribution" /><cc:requires
           rdf:resource="http://scripts.sil.org/pub/OFL/ShareAlike" /><cc:requires
           rdf:resource="http://scripts.sil.org/pub/OFL/DerivativeRenaming" /><cc:requires
           rdf:resource="http://scripts.sil.org/pub/OFL/BundlingWhenSelling" /></cc:License></rdf:RDF></metadata></svg>
