<?xml version="1.0" encoding="UTF-8" standalone="no"?>
<!-- Created with Inkscape (http://www.inkscape.org/) -->

<svg
   width="240"
   height="240"
   viewBox="0 0 240 240"
   version="1.1"
   id="svg5"
   inkscape:version="1.2.2 (732a01da63, 2022-12-09)"
   sodipodi:docname="InternetUpload.svg"
   xmlns:inkscape="http://www.inkscape.org/namespaces/inkscape"
   xmlns:sodipodi="http://sodipodi.sourceforge.net/DTD/sodipodi-0.dtd"
   xmlns="http://www.w3.org/2000/svg"
   xmlns:svg="http://www.w3.org/2000/svg"
   xmlns:rdf="http://www.w3.org/1999/02/22-rdf-syntax-ns#"
   xmlns:cc="http://creativecommons.org/ns#">
  <sodipodi:namedview
     id="namedview7"
     pagecolor="#ffffff"
     bordercolor="#000000"
     borderopacity="0.25"
     inkscape:showpageshadow="2"
     inkscape:pageopacity="0.0"
     inkscape:pagecheckerboard="true"
     inkscape:deskcolor="#d1d1d1"
     inkscape:document-units="px"
     showgrid="true"
     showguides="true"
     inkscape:zoom="3.0182099"
     inkscape:cx="8.6143776"
     inkscape:cy="72.559565"
     inkscape:window-width="1920"
     inkscape:window-height="1027"
     inkscape:window-x="-8"
     inkscape:window-y="-8"
     inkscape:window-maximized="1"
     inkscape:current-layer="layer1">
    <inkscape:grid
       type="xygrid"
       id="grid132"
       empspacing="8"
       dotted="true"
       originx="0"
       originy="-55.808091" />
    <sodipodi:guide
       position="82.999999,116.80809"
       orientation="1,0"
       id="guide136"
       inkscape:locked="false" />
    <sodipodi:guide
       position="-61,60.80809"
       orientation="0,-1"
       id="guide138"
       inkscape:locked="false" />
  </sodipodi:namedview>
  <defs
     id="defs2" />
  <g
     inkscape:label="Layer 1"
     inkscape:groupmode="layer"
     id="layer1"
     transform="translate(-45,-108.80809)">
    <path
       id="path14"
       style="display:inline;fill:#000000;fill-opacity:1;stroke:none;stroke-width:6;stroke-linecap:round;stroke-linejoin:round;stroke-dasharray:none;stroke-opacity:1;paint-order:stroke fill markers"
       d="M 245 142.53856 L 205 182.53856 L 229 182.53856 L 229 254.53856 L 261 254.53856 L 261 182.53856 L 285 182.53856 L 245 142.53856 z M 112 164.9995 C 110 164.9995 109 165.9995 109 167.9995 L 109 199.9995 C 109 201.99949 110 202.9995 112 202.9995 L 125 202.9995 L 125 236.9995 L 64 236.9995 C 62.000002 236.9995 61 237.9995 61 239.9995 L 61 276.9995 L 48 276.9995 C 46.000002 276.9995 45 277.9995 45 279.9995 L 45 311.9995 C 45 313.99949 46.000002 314.9995 48 314.9995 L 80 314.9995 C 81.999998 314.9995 83 313.99949 83 311.9995 L 83 279.9995 C 83 277.9995 81.999998 276.9995 80 276.9995 L 67 276.9995 L 67 242.9995 L 125 242.9995 L 125 276.9995 L 112 276.9995 C 110 276.9995 109 277.9995 109 279.9995 L 109 311.9995 C 109 313.99949 110 314.9995 112 314.9995 L 144 314.9995 C 146 314.9995 147 313.99949 147 311.9995 L 147 279.9995 C 147 277.9995 146 276.9995 144 276.9995 L 131 276.9995 L 131 242.9995 L 189 242.9995 L 189 276.9995 L 176 276.9995 C 174 276.9995 173 277.9995 173 279.9995 L 173 311.9995 C 173 313.99949 174 314.9995 176 314.9995 L 208 314.9995 C 210 314.9995 211 313.99949 211 311.9995 L 211 279.9995 C 211 277.9995 210 276.9995 208 276.9995 L 195 276.9995 L 195 239.9995 C 195 237.9995 194 236.9995 192 236.9995 L 131 236.9995 L 131 202.9995 L 144 202.9995 C 146 202.9995 147 201.99949 147 199.9995 L 147 167.9995 C 147 165.9995 146 164.9995 144 164.9995 L 112 164.9995 z " />
  </g>
  <metadata
     id="metadata134">
    <rdf:RDF>
      <cc:Work
         rdf:about="">
        <cc:license
           rdf:resource="http://scripts.sil.org/OFL" />
      </cc:Work>
      <cc:License
         rdf:about="http://scripts.sil.org/OFL">
        <cc:permits
           rdf:resource="http://scripts.sil.org/pub/OFL/Reproduction" />
        <cc:permits
           rdf:resource="http://scripts.sil.org/pub/OFL/Distribution" />
        <cc:permits
           rdf:resource="http://scripts.sil.org/pub/OFL/Embedding" />
        <cc:permits
           rdf:resource="http://scripts.sil.org/pub/OFL/DerivativeWorks" />
        <cc:requires
           rdf:resource="http://scripts.sil.org/pub/OFL/Notice" />
        <cc:requires
           rdf:resource="http://scripts.sil.org/pub/OFL/Attribution" />
        <cc:requires
           rdf:resource="http://scripts.sil.org/pub/OFL/ShareAlike" />
        <cc:requires
           rdf:resource="http://scripts.sil.org/pub/OFL/DerivativeRenaming" />
        <cc:requires
           rdf:resource="http://scripts.sil.org/pub/OFL/BundlingWhenSelling" />
      </cc:License>
    </rdf:RDF>
  </metadata>
</svg>
