<?xml version="1.0" encoding="UTF-8" standalone="no"?>
<!-- Uploaded to: SVG Repo, www.svgrepo.com, Generator: SVG Repo Mixer Tools -->

<svg
   width="256"
   height="256"
   viewBox="0 0 6.4 6.4"
   version="1.1"
   id="svg12"
   sodipodi:docname="Wifi.svg"
   inkscape:version="1.2.2 (732a01da63, 2022-12-09)"
   xmlns:inkscape="http://www.inkscape.org/namespaces/inkscape"
   xmlns:sodipodi="http://sodipodi.sourceforge.net/DTD/sodipodi-0.dtd"
   xmlns="http://www.w3.org/2000/svg"
   xmlns:svg="http://www.w3.org/2000/svg"
   xmlns:rdf="http://www.w3.org/1999/02/22-rdf-syntax-ns#"
   xmlns:cc="http://creativecommons.org/ns#"
   xmlns:dc="http://purl.org/dc/elements/1.1/">
  <sodipodi:namedview
     id="namedview14"
     pagecolor="#e6e6e6"
     bordercolor="#ffffff"
     borderopacity="1"
     inkscape:showpageshadow="false"
     inkscape:pageopacity="0"
     inkscape:pagecheckerboard="true"
     inkscape:deskcolor="#404040"
     showgrid="true"
     inkscape:zoom="2.9945972"
     inkscape:cx="67.621782"
     inkscape:cy="116.54322"
     inkscape:window-width="1920"
     inkscape:window-height="1027"
     inkscape:window-x="-8"
     inkscape:window-y="-8"
     inkscape:window-maximized="1"
     inkscape:current-layer="Page-1">
    <inkscape:grid
       type="xygrid"
       id="grid247"
       empspacing="16"
       dotted="true"
       originx="0"
       originy="0" />
  </sodipodi:namedview>
  <title
     id="title2">wifi [#1018]</title>
  <desc
     id="desc4">Created with Sketch.</desc>
  <defs
     id="defs6" />
  <g
     id="Page-1"
     stroke="none"
     stroke-width="1"
     fill="none"
     fill-rule="evenodd"
     transform="translate(0,0.639975)">
    <g
       id="Dribbble-Light-Preview"
       transform="translate(-60,-3681)"
       fill="#7f7f7f7f">
      <g
         id="icons"
         transform="translate(56,160)">
        <path
           id="path16"
           style="stroke-width:0.320001"
           d="M 7.2 3521.0001 C 6.0418259 3521.0001 4.8836421 3521.4374 4 3522.3121 L 4.4570801 3522.7649 C 5.9696322 3521.2676 8.4303678 3521.2676 9.9429199 3522.7649 L 10.4 3522.3121 C 9.5163579 3521.4374 8.3581741 3521.0001 7.2 3521.0001 z M 7.2 3522.2802 C 6.3726865 3522.2802 5.5453821 3522.5926 4.914209 3523.2173 L 5.3712891 3523.6698 C 6.3795497 3522.6718 8.0204502 3522.6718 9.0287109 3523.6698 L 9.485791 3523.2173 C 8.8546178 3522.5926 8.0273135 3522.2802 7.2 3522.2802 z M 7.2 3523.5599 C 6.7036281 3523.5599 6.2072346 3523.7474 5.8283691 3524.1223 L 6.285791 3524.5751 C 6.7897591 3524.0759 7.6102405 3524.0759 8.114209 3524.5751 L 8.5716309 3524.1223 C 8.1927655 3523.7474 7.6963719 3523.5599 7.2 3523.5599 z M 7.2 3524.76 C 6.876736 3524.76 6.5534668 3525 6.5534668 3525.48 C 6.5534668 3525.8 6.8427936 3526.12 7.2 3526.12 C 7.5572064 3526.12 7.8465332 3525.8 7.8465332 3525.48 C 7.8465332 3525 7.523264 3524.76 7.2 3524.76 z " />
      </g>
    </g>
  </g>
  <metadata
     id="metadata245">
    <rdf:RDF>
      <cc:Work
         rdf:about="">
        <dc:title>wifi [#1018]</dc:title>
      </cc:Work>
    </rdf:RDF>
  </metadata>
</svg>
