<?xml version="1.0" encoding="UTF-8" standalone="no"?>
<!-- Created with Inkscape (http://www.inkscape.org/) -->

<svg
   width="222"
   height="222"
   viewBox="0 0 222 222"
   version="1.1"
   id="svg5"
   inkscape:version="1.2.2 (732a01da63, 2022-12-09)"
   sodipodi:docname="GPU.svg"
   xmlns:inkscape="http://www.inkscape.org/namespaces/inkscape"
   xmlns:sodipodi="http://sodipodi.sourceforge.net/DTD/sodipodi-0.dtd"
   xmlns="http://www.w3.org/2000/svg"
   xmlns:svg="http://www.w3.org/2000/svg"
   xmlns:rdf="http://www.w3.org/1999/02/22-rdf-syntax-ns#"
   xmlns:cc="http://creativecommons.org/ns#">
  <sodipodi:namedview
     id="namedview7"
     pagecolor="#ffffff"
     bordercolor="#000000"
     borderopacity="0.25"
     inkscape:showpageshadow="2"
     inkscape:pageopacity="0.0"
     inkscape:pagecheckerboard="true"
     inkscape:deskcolor="#d1d1d1"
     inkscape:document-units="px"
     showgrid="true"
     showguides="true"
     inkscape:zoom="2.8284271"
     inkscape:cx="153.08862"
     inkscape:cy="100.40916"
     inkscape:window-width="1920"
     inkscape:window-height="1027"
     inkscape:window-x="-8"
     inkscape:window-y="-8"
     inkscape:window-maximized="1"
     inkscape:current-layer="layer1">
    <inkscape:grid
       type="xygrid"
       id="grid132"
       empspacing="8"
       dotted="true"
       originx="-24.604542"
       originy="-24.604542" />
    <sodipodi:guide
       position="111.39546,182.60454"
       orientation="1,0"
       id="guide136"
       inkscape:locked="false" />
    <sodipodi:guide
       position="255.39546,110.60454"
       orientation="0,-1"
       id="guide138"
       inkscape:locked="false" />
  </sodipodi:namedview>
  <defs
     id="defs2" />
  <g
     inkscape:label="Layer 1"
     inkscape:groupmode="layer"
     id="layer1"
     transform="translate(-24.604542,-24.604542)">
    <path
       id="path1663"
       style="color:#000000;fill:#000000;stroke-linecap:round;stroke-linejoin:round;-inkscape-stroke:none"
       d="M 77.409229 24.606495 A 6.5985597 6.5985597 0 0 0 70.811573 31.204151 L 70.811573 40.565479 L 38.614308 40.565479 A 6.5978999 6.5978999 0 0 0 32.016651 47.163136 A 6.5978999 6.5978999 0 0 0 38.614308 53.760792 L 61.102589 53.760792 L 61.067433 76.092823 L 48.338917 76.092823 A 6.0006 6.0006 0 0 0 42.338917 82.092823 L 42.338917 203.73735 A 6.0006 6.0006 0 0 0 48.338917 209.73735 L 60.860401 209.73735 L 60.813526 239.99126 A 6.5985597 6.5985597 0 0 0 67.411183 246.60064 L 203.41118 246.60064 A 6.5985597 6.5985597 0 0 0 210.00884 240.00493 L 210.09087 53.760792 L 232.59282 53.760792 A 6.5985597 6.5985597 0 0 0 239.19048 47.163136 L 239.19048 31.204151 A 6.5978999 6.5978999 0 0 0 232.59282 24.606495 A 6.5978999 6.5978999 0 0 0 225.99517 31.204151 L 225.99517 40.565479 L 200.39556 40.565479 L 200.39556 31.204151 A 6.5985597 6.5985597 0 0 0 193.7979 24.606495 L 145.30181 24.606495 A 6.5985597 6.5985597 0 0 0 138.70415 31.204151 L 138.70415 40.565479 L 132.50298 40.565479 L 132.50298 31.204151 A 6.5985597 6.5985597 0 0 0 125.90532 24.606495 L 77.409229 24.606495 z M 84.008839 37.801808 L 119.30767 37.801808 L 119.30767 40.565479 L 84.008839 40.565479 L 84.008839 37.801808 z M 151.89946 37.801808 L 187.19829 37.801808 L 187.19829 40.565479 L 151.89946 40.565479 L 151.89946 37.801808 z M 74.299854 53.760792 L 196.89556 53.760792 L 196.81743 233.40532 L 74.020558 233.40532 L 74.299854 53.760792 z M 86.917042 69.075245 A 3.298955 3.298955 0 0 0 83.618214 72.374073 A 3.298955 3.298955 0 0 0 86.917042 75.672901 L 183.90728 75.672901 A 3.298955 3.298955 0 0 0 187.2061 72.374073 A 3.298955 3.298955 0 0 0 183.90728 69.075245 L 86.917042 69.075245 z M 86.917042 77.055714 A 3.298955 3.298955 0 0 0 83.618214 80.354542 A 3.298955 3.298955 0 0 0 86.917042 83.65337 L 183.90728 83.65337 A 3.298955 3.298955 0 0 0 187.2061 80.354542 A 3.298955 3.298955 0 0 0 183.90728 77.055714 L 86.917042 77.055714 z M 54.338917 88.092823 L 61.049854 88.092823 L 60.879933 197.73735 L 54.338917 197.73735 L 54.338917 88.092823 z M 113.2061 89.864308 A 3.4113411 3.4113411 0 0 0 109.794 93.276417 L 109.794 102.45415 A 3.4113411 3.4113411 0 0 0 113.2061 105.86431 L 122.21978 105.86431 A 3.4113411 3.4113411 0 0 0 125.63189 102.45415 L 125.63189 93.276417 A 3.4113411 3.4113411 0 0 0 122.21978 89.864308 L 113.2061 89.864308 z M 130.71196 89.864308 A 3.4113411 3.4113411 0 0 0 127.30181 93.276417 L 127.30181 102.45415 A 3.4113411 3.4113411 0 0 0 130.71196 105.86431 L 139.72759 105.86431 A 3.4113411 3.4113411 0 0 0 143.13775 102.45415 L 143.13775 93.276417 A 3.4113411 3.4113411 0 0 0 139.72759 89.864308 L 130.71196 89.864308 z M 148.2061 90.042042 A 3.4113411 3.4113411 0 0 0 144.794 93.454151 L 144.794 102.63189 A 3.4113411 3.4113411 0 0 0 148.2061 106.04204 L 157.21978 106.04204 A 3.4113411 3.4113411 0 0 0 160.63189 102.63189 L 160.63189 93.454151 A 3.4113411 3.4113411 0 0 0 157.21978 90.042042 L 148.2061 90.042042 z M 116.61626 96.686573 L 118.80962 96.686573 L 118.80962 99.042042 L 116.61626 99.042042 L 116.61626 96.686573 z M 134.12407 96.686573 L 136.31743 96.686573 L 136.31743 99.042042 L 134.12407 99.042042 L 134.12407 96.686573 z M 151.61626 96.864308 L 153.80962 96.864308 L 153.80962 99.219776 L 151.61626 99.219776 L 151.61626 96.864308 z M 125.93071 112.18853 A 3.5555601 3.5555601 0 0 0 122.37407 115.74321 L 122.37407 121.67095 L 116.44829 121.67095 A 3.5559157 3.5559157 0 0 0 112.8936 125.22564 L 112.8936 131.15142 L 106.96782 131.15142 A 3.5555601 3.5555601 0 0 0 103.41118 134.7061 A 3.5555601 3.5555601 0 0 0 106.96782 138.26275 L 112.8936 138.26275 L 112.8936 150.11431 L 106.96782 150.11431 A 3.5555601 3.5555601 0 0 0 103.41118 153.67095 A 3.5555601 3.5555601 0 0 0 106.96782 157.22564 L 112.8936 157.22564 L 112.8936 163.15142 A 3.5559157 3.5559157 0 0 0 116.44829 166.70806 L 122.37407 166.70806 L 122.37407 172.63384 A 3.5555601 3.5555601 0 0 0 125.93071 176.18853 A 3.5555601 3.5555601 0 0 0 129.4854 172.63384 L 129.4854 166.70806 L 141.33696 166.70806 L 141.33696 172.63384 A 3.5555601 3.5555601 0 0 0 144.8936 176.18853 A 3.5555601 3.5555601 0 0 0 148.44829 172.63384 L 148.44829 166.70806 L 154.37407 166.70806 A 3.5559157 3.5559157 0 0 0 157.93071 163.15142 L 157.93071 157.22564 L 163.8565 157.22564 A 3.5555601 3.5555601 0 0 0 167.41118 153.67095 A 3.5555601 3.5555601 0 0 0 163.8565 150.11431 L 157.93071 150.11431 L 157.93071 138.26275 L 163.8565 138.26275 A 3.5555601 3.5555601 0 0 0 167.41118 134.7061 A 3.5555601 3.5555601 0 0 0 163.8565 131.15142 L 157.93071 131.15142 L 157.93071 125.22564 A 3.5559157 3.5559157 0 0 0 154.37407 121.67095 L 148.44829 121.67095 L 148.44829 115.74321 A 3.5555601 3.5555601 0 0 0 144.8936 112.18853 A 3.5555601 3.5555601 0 0 0 141.33696 115.74321 L 141.33696 121.67095 L 129.4854 121.67095 L 129.4854 115.74321 A 3.5555601 3.5555601 0 0 0 125.93071 112.18853 z M 82.491261 117.59868 A 3.4113411 3.4113411 0 0 0 79.081104 121.01079 L 79.081104 130.18853 A 3.4113411 3.4113411 0 0 0 82.491261 133.59868 L 91.506886 133.59868 A 3.4113411 3.4113411 0 0 0 94.917042 130.18853 L 94.917042 121.01079 A 3.4113411 3.4113411 0 0 0 91.506886 117.59868 L 82.491261 117.59868 z M 178.57329 117.59868 A 3.4113411 3.4113411 0 0 0 175.16314 121.01079 L 175.16314 130.18853 A 3.4113411 3.4113411 0 0 0 178.57329 133.59868 L 187.58892 133.59868 A 3.4113411 3.4113411 0 0 0 190.99907 130.18853 L 190.99907 121.01079 A 3.4113411 3.4113411 0 0 0 187.58892 117.59868 L 178.57329 117.59868 z M 85.90337 124.42095 L 88.094776 124.42095 L 88.094776 126.77837 L 85.90337 126.77837 L 85.90337 124.42095 z M 181.98345 124.42095 L 184.17681 124.42095 L 184.17681 126.77837 L 181.98345 126.77837 L 181.98345 124.42095 z M 120.00493 128.78032 L 150.81939 128.78032 L 150.81939 159.59673 L 120.00493 159.59673 L 120.00493 128.78032 z M 82.573292 136.18853 A 3.4113411 3.4113411 0 0 0 79.163136 139.59868 L 79.163136 148.77837 A 3.4113411 3.4113411 0 0 0 82.573292 152.18853 L 91.588917 152.18853 A 3.4113411 3.4113411 0 0 0 94.999073 148.77837 L 94.999073 139.59868 A 3.4113411 3.4113411 0 0 0 91.588917 136.18853 L 82.573292 136.18853 z M 178.57329 136.18853 A 3.4113411 3.4113411 0 0 0 175.16314 139.59868 L 175.16314 148.77837 A 3.4113411 3.4113411 0 0 0 178.57329 152.18853 L 187.58892 152.18853 A 3.4113411 3.4113411 0 0 0 190.99907 148.77837 L 190.99907 139.59868 A 3.4113411 3.4113411 0 0 0 187.58892 136.18853 L 178.57329 136.18853 z M 85.983448 143.01079 L 88.176808 143.01079 L 88.176808 145.36626 L 85.983448 145.36626 L 85.983448 143.01079 z M 181.98345 143.01079 L 184.17681 143.01079 L 184.17681 145.36626 L 181.98345 145.36626 L 181.98345 143.01079 z M 82.491261 154.77837 A 3.4113411 3.4113411 0 0 0 79.081104 158.18853 L 79.081104 167.36626 A 3.4113411 3.4113411 0 0 0 82.491261 170.77837 L 91.506886 170.77837 A 3.4113411 3.4113411 0 0 0 94.917042 167.36626 L 94.917042 158.18853 A 3.4113411 3.4113411 0 0 0 91.506886 154.77837 L 82.491261 154.77837 z M 178.57329 154.77837 A 3.4113411 3.4113411 0 0 0 175.16314 158.18853 L 175.16314 167.36626 A 3.4113411 3.4113411 0 0 0 178.57329 170.77837 L 187.58892 170.77837 A 3.4113411 3.4113411 0 0 0 190.99907 167.36626 L 190.99907 158.18853 A 3.4113411 3.4113411 0 0 0 187.58892 154.77837 L 178.57329 154.77837 z M 85.90337 161.59868 L 88.094776 161.59868 L 88.094776 163.9561 L 85.90337 163.9561 L 85.90337 161.59868 z M 181.98345 161.59868 L 184.17681 161.59868 L 184.17681 163.9561 L 181.98345 163.9561 L 181.98345 161.59868 z M 113.2061 181.86431 A 3.4113411 3.4113411 0 0 0 109.794 185.27642 L 109.794 194.45415 A 3.4113411 3.4113411 0 0 0 113.2061 197.86431 L 122.21978 197.86431 A 3.4113411 3.4113411 0 0 0 125.63189 194.45415 L 125.63189 185.27642 A 3.4113411 3.4113411 0 0 0 122.21978 181.86431 L 113.2061 181.86431 z M 130.71196 181.86431 A 3.4113411 3.4113411 0 0 0 127.30181 185.27642 L 127.30181 194.45415 A 3.4113411 3.4113411 0 0 0 130.71196 197.86431 L 139.72759 197.86431 A 3.4113411 3.4113411 0 0 0 143.13775 194.45415 L 143.13775 185.27642 A 3.4113411 3.4113411 0 0 0 139.72759 181.86431 L 130.71196 181.86431 z M 148.2061 182.04204 A 3.4113411 3.4113411 0 0 0 144.794 185.45415 L 144.794 194.63189 A 3.4113411 3.4113411 0 0 0 148.2061 198.04204 L 157.21978 198.04204 A 3.4113411 3.4113411 0 0 0 160.63189 194.63189 L 160.63189 185.45415 A 3.4113411 3.4113411 0 0 0 157.21978 182.04204 L 148.2061 182.04204 z M 116.61626 188.68657 L 118.80962 188.68657 L 118.80962 191.04204 L 116.61626 191.04204 L 116.61626 188.68657 z M 134.12407 188.68657 L 136.31743 188.68657 L 136.31743 191.04204 L 134.12407 191.04204 L 134.12407 188.68657 z M 151.61626 188.86431 L 153.80962 188.86431 L 153.80962 191.21978 L 151.61626 191.21978 L 151.61626 188.86431 z M 86.917042 204.72368 A 3.298955 3.298955 0 0 0 83.618214 208.02251 A 3.298955 3.298955 0 0 0 86.917042 211.32134 L 183.90728 211.32134 A 3.298955 3.298955 0 0 0 187.2061 208.02251 A 3.298955 3.298955 0 0 0 183.90728 204.72368 L 86.917042 204.72368 z M 86.917042 212.70415 A 3.298955 3.298955 0 0 0 83.618214 216.00298 A 3.298955 3.298955 0 0 0 86.917042 219.30181 L 183.90728 219.30181 A 3.298955 3.298955 0 0 0 187.2061 216.00298 A 3.298955 3.298955 0 0 0 183.90728 212.70415 L 86.917042 212.70415 z " />
  </g>
  <metadata
     id="metadata134">
    <rdf:RDF>
      <cc:Work
         rdf:about="">
        <cc:license
           rdf:resource="http://scripts.sil.org/OFL" />
      </cc:Work>
      <cc:License
         rdf:about="http://scripts.sil.org/OFL">
        <cc:permits
           rdf:resource="http://scripts.sil.org/pub/OFL/Reproduction" />
        <cc:permits
           rdf:resource="http://scripts.sil.org/pub/OFL/Distribution" />
        <cc:permits
           rdf:resource="http://scripts.sil.org/pub/OFL/Embedding" />
        <cc:permits
           rdf:resource="http://scripts.sil.org/pub/OFL/DerivativeWorks" />
        <cc:requires
           rdf:resource="http://scripts.sil.org/pub/OFL/Notice" />
        <cc:requires
           rdf:resource="http://scripts.sil.org/pub/OFL/Attribution" />
        <cc:requires
           rdf:resource="http://scripts.sil.org/pub/OFL/ShareAlike" />
        <cc:requires
           rdf:resource="http://scripts.sil.org/pub/OFL/DerivativeRenaming" />
        <cc:requires
           rdf:resource="http://scripts.sil.org/pub/OFL/BundlingWhenSelling" />
      </cc:License>
    </rdf:RDF>
  </metadata>
</svg>
