<?xml version="1.0" encoding="UTF-8" standalone="no"?>
<!-- Created with Inkscape (http://www.inkscape.org/) -->

<svg
   width="222"
   height="222"
   viewBox="0 0 222 222"
   version="1.1"
   id="svg5"
   inkscape:version="1.2.2 (732a01da63, 2022-12-09)"
   sodipodi:docname="GPUCore.svg"
   xml:space="preserve"
   xmlns:inkscape="http://www.inkscape.org/namespaces/inkscape"
   xmlns:sodipodi="http://sodipodi.sourceforge.net/DTD/sodipodi-0.dtd"
   xmlns="http://www.w3.org/2000/svg"
   xmlns:svg="http://www.w3.org/2000/svg"
   xmlns:rdf="http://www.w3.org/1999/02/22-rdf-syntax-ns#"
   xmlns:cc="http://creativecommons.org/ns#"><sodipodi:namedview
     id="namedview7"
     pagecolor="#ffffff"
     bordercolor="#000000"
     borderopacity="0.25"
     inkscape:showpageshadow="2"
     inkscape:pageopacity="0.0"
     inkscape:pagecheckerboard="true"
     inkscape:deskcolor="#d1d1d1"
     inkscape:document-units="px"
     showgrid="true"
     showguides="true"
     inkscape:zoom="4"
     inkscape:cx="18.5"
     inkscape:cy="98.25"
     inkscape:window-width="1920"
     inkscape:window-height="1027"
     inkscape:window-x="-8"
     inkscape:window-y="-8"
     inkscape:window-maximized="1"
     inkscape:current-layer="layer1"><inkscape:grid
       type="xygrid"
       id="grid132"
       empspacing="8"
       dotted="true"
       originx="-24.604542"
       originy="-24.604542" /><sodipodi:guide
       position="111.39546,182.60454"
       orientation="1,0"
       id="guide136"
       inkscape:locked="false" /><sodipodi:guide
       position="103.39546,102.60454"
       orientation="0,-1"
       id="guide1402"
       inkscape:locked="false" /></sodipodi:namedview><defs
     id="defs2" /><g
     inkscape:label="Layer 1"
     inkscape:groupmode="layer"
     id="layer1"
     transform="translate(-24.604542,-24.604542)"><path
       id="path1663"
       style="color:#000000;fill:#7f7f7f7f;stroke-linecap:round;stroke-linejoin:round;-inkscape-stroke:none"
       d="M 77.409229 24.606495 A 6.5985597 6.5985597 0 0 0 70.811573 31.204151 L 70.811573 40.565479 L 38.614308 40.565479 A 6.5978999 6.5978999 0 0 0 32.016651 47.163136 A 6.5978999 6.5978999 0 0 0 38.614308 53.760792 L 61.102589 53.760792 L 61.067433 76.092823 L 48.338917 76.092823 A 6.0006 6.0006 0 0 0 42.338917 82.092823 L 42.338917 203.73735 A 6.0006 6.0006 0 0 0 48.338917 209.73735 L 60.860401 209.73735 L 60.813526 239.99126 A 6.5985597 6.5985597 0 0 0 67.411183 246.60064 L 203.41118 246.60064 A 6.5985597 6.5985597 0 0 0 210.00884 240.00493 L 210.09087 53.760792 L 232.59282 53.760792 A 6.5985597 6.5985597 0 0 0 239.19048 47.163136 L 239.19048 31.204151 A 6.5978999 6.5978999 0 0 0 232.59282 24.606495 A 6.5978999 6.5978999 0 0 0 225.99517 31.204151 L 225.99517 40.565479 L 200.39556 40.565479 L 200.39556 31.204151 A 6.5985597 6.5985597 0 0 0 193.7979 24.606495 L 145.30181 24.606495 A 6.5985597 6.5985597 0 0 0 138.70415 31.204151 L 138.70415 40.565479 L 132.50298 40.565479 L 132.50298 31.204151 A 6.5985597 6.5985597 0 0 0 125.90532 24.606495 L 77.409229 24.606495 z M 84.008839 37.801808 L 119.30767 37.801808 L 119.30767 40.565479 L 84.008839 40.565479 L 84.008839 37.801808 z M 151.89946 37.801808 L 187.19829 37.801808 L 187.19829 40.565479 L 151.89946 40.565479 L 151.89946 37.801808 z M 74.299854 53.760792 L 196.89556 53.760792 L 196.81743 233.40532 L 74.020558 233.40532 L 74.299854 53.760792 z M 54.338917 88.092823 L 61.049854 88.092823 L 60.879933 197.73735 L 54.338917 197.73735 L 54.338917 88.092823 z M 119.01079 89.481495 A 6.22225 6.22225 0 0 0 112.78814 95.702198 L 112.78814 106.07329 L 102.419 106.07329 A 6.2228722 6.2228722 0 0 0 96.196339 112.29595 L 96.196339 122.66509 L 85.825245 122.66509 A 6.22225 6.22225 0 0 0 79.604542 128.88775 A 6.22225 6.22225 0 0 0 85.825245 135.1104 L 96.196339 135.1104 L 96.196339 155.85064 L 85.825245 155.85064 A 6.22225 6.22225 0 0 0 79.604542 162.07329 A 6.22225 6.22225 0 0 0 85.825245 168.29595 L 96.196339 168.29595 L 96.196339 178.66509 A 6.2228722 6.2228722 0 0 0 102.419 184.88775 L 112.78814 184.88775 L 112.78814 195.25884 A 6.22225 6.22225 0 0 0 119.01079 201.4815 A 6.22225 6.22225 0 0 0 125.23345 195.25884 L 125.23345 184.88775 L 145.97368 184.88775 L 145.97368 195.25884 A 6.22225 6.22225 0 0 0 152.19634 201.4815 A 6.22225 6.22225 0 0 0 158.419 195.25884 L 158.419 184.88775 L 168.78814 184.88775 A 6.2228722 6.2228722 0 0 0 175.01079 178.66509 L 175.01079 168.29595 L 185.38189 168.29595 A 6.22225 6.22225 0 0 0 191.60454 162.07329 A 6.22225 6.22225 0 0 0 185.38189 155.85064 L 175.01079 155.85064 L 175.01079 135.1104 L 185.38189 135.1104 A 6.22225 6.22225 0 0 0 191.60454 128.88775 A 6.22225 6.22225 0 0 0 185.38189 122.66509 L 175.01079 122.66509 L 175.01079 112.29595 A 6.2228722 6.2228722 0 0 0 168.78814 106.07329 L 158.419 106.07329 L 158.419 95.702198 A 6.22225 6.22225 0 0 0 152.19634 89.481495 A 6.22225 6.22225 0 0 0 145.97368 95.702198 L 145.97368 106.07329 L 125.23345 106.07329 L 125.23345 95.702198 A 6.22225 6.22225 0 0 0 119.01079 89.481495 z M 108.64165 118.51665 L 119.01079 118.51665 L 152.19634 118.51665 L 162.56743 118.51665 L 162.56743 128.88775 L 162.56743 162.07329 L 162.56743 172.44439 L 152.19634 172.44439 L 119.01079 172.44439 L 108.64165 172.44439 L 108.64165 162.07329 L 108.64165 128.88775 L 108.64165 118.51665 z " /></g><metadata
     id="metadata134"><rdf:RDF><cc:Work
         rdf:about=""><cc:license
           rdf:resource="http://scripts.sil.org/OFL" /></cc:Work><cc:License
         rdf:about="http://scripts.sil.org/OFL"><cc:permits
           rdf:resource="http://scripts.sil.org/pub/OFL/Reproduction" /><cc:permits
           rdf:resource="http://scripts.sil.org/pub/OFL/Distribution" /><cc:permits
           rdf:resource="http://scripts.sil.org/pub/OFL/Embedding" /><cc:permits
           rdf:resource="http://scripts.sil.org/pub/OFL/DerivativeWorks" /><cc:requires
           rdf:resource="http://scripts.sil.org/pub/OFL/Notice" /><cc:requires
           rdf:resource="http://scripts.sil.org/pub/OFL/Attribution" /><cc:requires
           rdf:resource="http://scripts.sil.org/pub/OFL/ShareAlike" /><cc:requires
           rdf:resource="http://scripts.sil.org/pub/OFL/DerivativeRenaming" /><cc:requires
           rdf:resource="http://scripts.sil.org/pub/OFL/BundlingWhenSelling" /></cc:License></rdf:RDF></metadata></svg>
