<?xml version="1.0" encoding="UTF-8" standalone="no"?>
<!-- Created with Inkscape (http://www.inkscape.org/) -->

<svg
   width="222"
   height="222"
   viewBox="0 0 222 222"
   version="1.1"
   id="svg5"
   inkscape:version="1.2.2 (732a01da63, 2022-12-09)"
   sodipodi:docname="GPUFan.svg"
   xml:space="preserve"
   xmlns:inkscape="http://www.inkscape.org/namespaces/inkscape"
   xmlns:sodipodi="http://sodipodi.sourceforge.net/DTD/sodipodi-0.dtd"
   xmlns="http://www.w3.org/2000/svg"
   xmlns:svg="http://www.w3.org/2000/svg"
   xmlns:rdf="http://www.w3.org/1999/02/22-rdf-syntax-ns#"
   xmlns:cc="http://creativecommons.org/ns#"><sodipodi:namedview
     id="namedview7"
     pagecolor="#ffffff"
     bordercolor="#000000"
     borderopacity="0.25"
     inkscape:showpageshadow="2"
     inkscape:pageopacity="0.0"
     inkscape:pagecheckerboard="true"
     inkscape:deskcolor="#d1d1d1"
     inkscape:document-units="px"
     showgrid="true"
     showguides="true"
     inkscape:zoom="2.8284271"
     inkscape:cx="48.790368"
     inkscape:cy="124.09724"
     inkscape:window-width="1920"
     inkscape:window-height="1027"
     inkscape:window-x="-8"
     inkscape:window-y="-8"
     inkscape:window-maximized="1"
     inkscape:current-layer="layer1"><inkscape:grid
       type="xygrid"
       id="grid132"
       empspacing="8"
       dotted="true"
       originx="-24.604542"
       originy="-24.604542" /><sodipodi:guide
       position="111.39546,182.60454"
       orientation="1,0"
       id="guide136"
       inkscape:locked="false" /><sodipodi:guide
       position="103.39546,102.60454"
       orientation="0,-1"
       id="guide1402"
       inkscape:locked="false" /></sodipodi:namedview><defs
     id="defs2" /><g
     inkscape:label="Layer 1"
     inkscape:groupmode="layer"
     id="layer1"
     transform="translate(-24.604542,-24.604542)"><path
       id="path1663"
       style="color:#000000;fill:#000000;stroke-linecap:round;stroke-linejoin:round;-inkscape-stroke:none"
       d="M 77.409229 24.606495 A 6.5985597 6.5985597 0 0 0 70.811573 31.204151 L 70.811573 40.565479 L 38.614308 40.565479 A 6.5978999 6.5978999 0 0 0 32.016651 47.163136 A 6.5978999 6.5978999 0 0 0 38.614308 53.760792 L 61.102589 53.760792 L 61.067433 76.092823 L 48.338917 76.092823 A 6.0006 6.0006 0 0 0 42.338917 82.092823 L 42.338917 203.73735 A 6.0006 6.0006 0 0 0 48.338917 209.73735 L 60.860401 209.73735 L 60.813526 239.99126 A 6.5985597 6.5985597 0 0 0 67.411183 246.60064 L 203.41118 246.60064 A 6.5985597 6.5985597 0 0 0 210.00884 240.00493 L 210.09087 53.760792 L 232.59282 53.760792 A 6.5985597 6.5985597 0 0 0 239.19048 47.163136 L 239.19048 31.204151 A 6.5978999 6.5978999 0 0 0 232.59282 24.606495 A 6.5978999 6.5978999 0 0 0 225.99517 31.204151 L 225.99517 40.565479 L 200.39556 40.565479 L 200.39556 31.204151 A 6.5985597 6.5985597 0 0 0 193.7979 24.606495 L 145.30181 24.606495 A 6.5985597 6.5985597 0 0 0 138.70415 31.204151 L 138.70415 40.565479 L 132.50298 40.565479 L 132.50298 31.204151 A 6.5985597 6.5985597 0 0 0 125.90532 24.606495 L 77.409229 24.606495 z M 84.008839 37.801808 L 119.30767 37.801808 L 119.30767 40.565479 L 84.008839 40.565479 L 84.008839 37.801808 z M 151.89946 37.801808 L 187.19829 37.801808 L 187.19829 40.565479 L 151.89946 40.565479 L 151.89946 37.801808 z M 74.299854 53.760792 L 196.89556 53.760792 L 196.81743 233.40532 L 74.020558 233.40532 L 74.299854 53.760792 z M 146.97173 85.944386 C 142.29533 86.102277 138.11199 88.604605 136.60259 92.690479 C 133.26609 101.699 130.8844 111.24609 130.78032 120.47368 C 135.79039 119.43868 140.95646 120.05983 145.52837 122.12407 C 151.93571 113.51691 160.79217 105.91755 170.64556 100.77446 C 171.94911 100.09395 173.38267 97.773116 170.52056 95.643604 C 164.86418 91.436334 158.36827 88.671615 151.7315 86.596729 C 150.14403 86.100146 148.53053 85.891755 146.97173 85.944386 z M 54.338917 88.092823 L 61.049854 88.092823 L 60.879933 197.73735 L 54.338917 197.73735 L 54.338917 88.092823 z M 113.27446 89.170948 C 112.6946 89.121444 111.99983 89.235652 111.18267 89.588917 C 104.70747 92.385714 99.065946 96.626221 93.946339 101.33892 C 89.056447 105.84317 87.952422 113.0222 91.659229 117.48735 C 97.800056 124.87926 104.86959 131.71797 112.80962 136.4229 C 114.42051 131.56646 117.54237 127.39905 121.61431 124.47173 C 117.36555 114.624 115.21346 103.1481 115.68267 92.043995 C 115.72946 90.945387 115.01405 89.31946 113.27446 89.170948 z M 181.60845 119.08501 C 181.25218 119.10397 180.89395 119.14485 180.53618 119.2061 C 171.06317 120.82473 161.60597 123.52915 153.56157 128.05181 C 156.96592 131.87555 159.01025 136.66542 159.51079 141.65728 C 170.16689 142.90043 181.177 146.77473 190.55571 152.73345 C 191.79659 153.52062 194.52262 153.60283 194.93462 150.05767 C 195.75315 143.0559 194.90423 136.05061 193.38189 129.26275 C 192.01345 123.17781 186.95244 118.80065 181.60845 119.08501 z M 135.60259 126.60845 C 125.99934 126.60845 118.21587 134.3963 118.21587 143.99907 C 118.21587 153.60473 125.99934 161.39165 135.60259 161.39165 C 145.21073 161.39165 152.99907 153.60473 152.99907 143.99907 C 152.99936 134.3963 145.21102 126.60845 135.60259 126.60845 z M 78.831104 134.83306 C 77.693108 134.92804 76.530008 135.72671 76.272511 137.94243 C 75.454271 144.94363 76.305542 151.94977 77.833058 158.73735 C 79.287547 165.22795 84.948382 169.77408 90.672901 168.794 C 100.14563 167.17508 109.60369 164.47066 117.64751 159.94829 C 114.24316 156.12455 112.19884 151.33468 111.69829 146.34282 C 101.04219 145.0991 90.031794 141.22566 80.65337 135.26665 C 80.188043 134.97146 79.513902 134.77607 78.831104 134.83306 z M 158.39946 151.5811 C 156.78857 156.43439 153.66671 160.60162 149.59478 163.52837 C 153.84382 173.37639 155.99563 184.85172 155.52642 195.9561 C 155.46403 197.42092 156.75845 199.82424 160.03228 198.41118 C 166.5023 195.6141 172.1486 191.37192 177.26275 186.65923 C 182.15264 182.15497 183.25666 174.9779 179.54985 170.51275 C 173.4142 163.12343 166.3395 156.28345 158.39946 151.5811 z M 125.68657 165.87798 C 119.28469 174.48285 110.42696 182.08221 100.57329 187.22759 C 99.27003 187.90551 97.836464 190.22698 100.69829 192.3565 C 106.35496 196.56377 112.85087 199.3282 119.48735 201.40337 C 125.8372 203.38942 132.60372 200.75745 134.61626 195.30962 C 137.95276 186.3011 140.3364 176.75855 140.44048 167.52837 C 135.4307 168.56337 130.25877 167.93993 125.68657 165.87798 z " /><g
       id="g5169"
       transform="matrix(0.28750562,0,0,0.2875,61.651763,68.464704)">
	
	
	
	
	
	
	
	
</g></g><metadata
     id="metadata134"><rdf:RDF><cc:Work
         rdf:about=""><cc:license
           rdf:resource="http://scripts.sil.org/OFL" /></cc:Work><cc:License
         rdf:about="http://scripts.sil.org/OFL"><cc:permits
           rdf:resource="http://scripts.sil.org/pub/OFL/Reproduction" /><cc:permits
           rdf:resource="http://scripts.sil.org/pub/OFL/Distribution" /><cc:permits
           rdf:resource="http://scripts.sil.org/pub/OFL/Embedding" /><cc:permits
           rdf:resource="http://scripts.sil.org/pub/OFL/DerivativeWorks" /><cc:requires
           rdf:resource="http://scripts.sil.org/pub/OFL/Notice" /><cc:requires
           rdf:resource="http://scripts.sil.org/pub/OFL/Attribution" /><cc:requires
           rdf:resource="http://scripts.sil.org/pub/OFL/ShareAlike" /><cc:requires
           rdf:resource="http://scripts.sil.org/pub/OFL/DerivativeRenaming" /><cc:requires
           rdf:resource="http://scripts.sil.org/pub/OFL/BundlingWhenSelling" /></cc:License></rdf:RDF></metadata><style
     type="text/css"
     id="style5151">
	.st0{fill:#000000;}
</style></svg>
