<?xml version="1.0" encoding="UTF-8" standalone="no"?>
<!-- Created with Inkscape (http://www.inkscape.org/) -->

<svg
   width="222"
   height="222"
   viewBox="0 0 222 222"
   version="1.1"
   id="svg5"
   inkscape:version="1.2.2 (732a01da63, 2022-12-09)"
   sodipodi:docname="GPUFlow.svg"
   xml:space="preserve"
   xmlns:inkscape="http://www.inkscape.org/namespaces/inkscape"
   xmlns:sodipodi="http://sodipodi.sourceforge.net/DTD/sodipodi-0.dtd"
   xmlns="http://www.w3.org/2000/svg"
   xmlns:svg="http://www.w3.org/2000/svg"
   xmlns:rdf="http://www.w3.org/1999/02/22-rdf-syntax-ns#"
   xmlns:cc="http://creativecommons.org/ns#"><sodipodi:namedview
     id="namedview7"
     pagecolor="#ffffff"
     bordercolor="#000000"
     borderopacity="0.25"
     inkscape:showpageshadow="2"
     inkscape:pageopacity="0.0"
     inkscape:pagecheckerboard="true"
     inkscape:deskcolor="#d1d1d1"
     inkscape:document-units="px"
     showgrid="true"
     showguides="true"
     inkscape:zoom="2.8284271"
     inkscape:cx="-5.8336309"
     inkscape:cy="112.07642"
     inkscape:window-width="1920"
     inkscape:window-height="1027"
     inkscape:window-x="-8"
     inkscape:window-y="-8"
     inkscape:window-maximized="1"
     inkscape:current-layer="layer1"><inkscape:grid
       type="xygrid"
       id="grid132"
       empspacing="8"
       dotted="true"
       originx="-24.604542"
       originy="-24.604542" /><sodipodi:guide
       position="111.39546,182.60454"
       orientation="1,0"
       id="guide136"
       inkscape:locked="false" /><sodipodi:guide
       position="103.39546,102.60454"
       orientation="0,-1"
       id="guide1402"
       inkscape:locked="false" /></sodipodi:namedview><defs
     id="defs2" /><g
     inkscape:label="Layer 1"
     inkscape:groupmode="layer"
     id="layer1"
     transform="translate(-24.604542,-24.604542)"><path
       id="path1663"
       style="color:#000000;fill:#7f7f7f7f;stroke-linecap:round;stroke-linejoin:round;-inkscape-stroke:none"
       d="M 77.409229 24.606495 A 6.5985597 6.5985597 0 0 0 70.811573 31.204151 L 70.811573 40.565479 L 38.614308 40.565479 A 6.5978999 6.5978999 0 0 0 32.016651 47.163136 A 6.5978999 6.5978999 0 0 0 38.614308 53.760792 L 61.102589 53.760792 L 61.067433 76.092823 L 48.338917 76.092823 A 6.0006 6.0006 0 0 0 42.338917 82.092823 L 42.338917 203.73735 A 6.0006 6.0006 0 0 0 48.338917 209.73735 L 60.860401 209.73735 L 60.813526 239.99126 A 6.5985597 6.5985597 0 0 0 67.411183 246.60064 L 203.41118 246.60064 A 6.5985597 6.5985597 0 0 0 210.00884 240.00493 L 210.09087 53.760792 L 232.59282 53.760792 A 6.5985597 6.5985597 0 0 0 239.19048 47.163136 L 239.19048 31.204151 A 6.5978999 6.5978999 0 0 0 232.59282 24.606495 A 6.5978999 6.5978999 0 0 0 225.99517 31.204151 L 225.99517 40.565479 L 200.39556 40.565479 L 200.39556 31.204151 A 6.5985597 6.5985597 0 0 0 193.7979 24.606495 L 145.30181 24.606495 A 6.5985597 6.5985597 0 0 0 138.70415 31.204151 L 138.70415 40.565479 L 132.50298 40.565479 L 132.50298 31.204151 A 6.5985597 6.5985597 0 0 0 125.90532 24.606495 L 77.409229 24.606495 z M 84.008839 37.801808 L 119.30767 37.801808 L 119.30767 40.565479 L 84.008839 40.565479 L 84.008839 37.801808 z M 151.89946 37.801808 L 187.19829 37.801808 L 187.19829 40.565479 L 151.89946 40.565479 L 151.89946 37.801808 z M 74.299854 53.760792 L 196.89556 53.760792 L 196.81743 233.40532 L 74.020558 233.40532 L 74.299854 53.760792 z M 54.338917 88.092823 L 61.049854 88.092823 L 60.879933 197.73735 L 54.338917 197.73735 L 54.338917 88.092823 z M 96.637745 90.338917 C 92.855968 90.338917 89.552228 92.304024 86.733448 94.036183 C 83.914669 95.768341 81.751026 97.49712 81.751026 97.49712 A 3.0442719 3.0442719 0 0 0 81.268604 101.77446 A 3.0442719 3.0442719 0 0 0 85.545948 102.25689 C 85.545948 102.25689 87.455445 100.73875 89.920948 99.223683 C 92.386451 97.708615 95.578843 96.426808 96.637745 96.426808 C 97.696648 96.426808 100.88904 97.708615 103.35454 99.223683 C 105.82005 100.73875 107.72954 102.25689 107.72954 102.25689 C 107.72954 102.25689 109.89318 103.98567 112.71196 105.71782 C 115.53074 107.44998 118.83448 109.41509 122.61626 109.41509 C 126.39804 109.41509 129.69983 107.44998 132.5186 105.71782 C 135.33739 103.98567 137.50298 102.25689 137.50298 102.25689 C 137.50298 102.25689 139.41248 100.73875 141.87798 99.223683 C 144.34348 97.708615 147.53392 96.426808 148.59282 96.426808 C 149.65173 96.426808 152.84412 97.708615 155.30962 99.223683 C 157.77513 100.73875 159.68462 102.25689 159.68462 102.25689 C 159.68462 102.25689 161.85022 103.98567 164.669 105.71782 C 167.48778 107.44998 170.78956 109.41509 174.57134 109.41509 C 178.35311 109.41509 181.65686 107.44998 184.47564 105.71782 C 187.29442 103.98567 189.45806 102.25689 189.45806 102.25689 A 3.0442719 3.0442719 0 0 0 189.94048 97.979542 A 3.0442719 3.0442719 0 0 0 185.66314 97.49712 C 185.66314 97.49712 183.75364 99.015255 181.28814 100.53032 C 178.82263 102.04539 175.63024 103.3272 174.57134 103.3272 C 173.51243 103.3272 170.32004 102.04539 167.85454 100.53032 C 165.38904 99.015255 163.47954 97.49712 163.47954 97.49712 C 163.47954 97.49712 161.3159 95.768341 158.49712 94.036183 C 155.67834 92.304024 152.3746 90.338917 148.59282 90.338917 C 144.81104 90.338917 141.50926 92.304024 138.69048 94.036183 C 135.8717 95.768341 133.7061 97.49712 133.7061 97.49712 C 133.7061 97.49712 131.79661 99.015255 129.3311 100.53032 C 126.8656 102.04539 123.67516 103.3272 122.61626 103.3272 C 121.55736 103.3272 118.36497 102.04539 115.89946 100.53032 C 113.43396 99.015255 111.52446 97.49712 111.52446 97.49712 C 111.52446 97.49712 109.35887 95.768341 106.54009 94.036183 C 103.72131 92.304024 100.41952 90.338917 96.637745 90.338917 z M 96.637745 112.59087 C 92.855968 112.59087 89.552228 114.55598 86.733448 116.28814 C 83.914669 118.02029 81.751026 119.74907 81.751026 119.74907 A 3.0442719 3.0442719 0 0 0 81.268604 124.02642 A 3.0442719 3.0442719 0 0 0 85.545948 124.51079 C 85.545948 124.51079 87.455445 122.9907 89.920948 121.47564 C 92.386451 119.96057 95.578843 118.67876 96.637745 118.67876 C 97.696648 118.67876 100.88904 119.96057 103.35454 121.47564 C 105.82005 122.9907 107.72954 124.51079 107.72954 124.51079 C 107.72954 124.51079 109.89318 126.23762 112.71196 127.96978 C 115.53074 129.70194 118.83448 131.669 122.61626 131.669 C 126.39804 131.669 129.69983 129.70194 132.5186 127.96978 C 135.33739 126.23762 137.50298 124.51079 137.50298 124.51079 C 137.50298 124.51079 139.41248 122.9907 141.87798 121.47564 C 144.34348 119.96057 147.53392 118.67876 148.59282 118.67876 C 149.65173 118.67876 152.84412 119.96057 155.30962 121.47564 C 157.77513 122.9907 159.68462 124.51079 159.68462 124.51079 C 159.68462 124.51079 161.85022 126.23762 164.669 127.96978 C 167.48778 129.70194 170.78956 131.669 174.57134 131.669 C 178.35311 131.669 181.65686 129.70194 184.47564 127.96978 C 187.29442 126.23762 189.45806 124.51079 189.45806 124.51079 A 3.0442719 3.0442719 0 0 0 189.94048 120.23345 A 3.0442719 3.0442719 0 0 0 185.66314 119.74907 C 185.66314 119.74907 183.75364 121.26721 181.28814 122.78228 C 178.82263 124.29734 175.63024 125.5811 174.57134 125.5811 C 173.51243 125.5811 170.32004 124.29734 167.85454 122.78228 C 165.38904 121.26721 163.47954 119.74907 163.47954 119.74907 C 163.47954 119.74907 161.3159 118.02029 158.49712 116.28814 C 155.67834 114.55598 152.3746 112.59087 148.59282 112.59087 C 144.81104 112.59087 141.50926 114.55598 138.69048 116.28814 C 135.8717 118.02029 133.7061 119.74907 133.7061 119.74907 C 133.7061 119.74907 131.79661 121.26721 129.3311 122.78228 C 126.8656 124.29734 123.67516 125.5811 122.61626 125.5811 C 121.55736 125.5811 118.36497 124.29734 115.89946 122.78228 C 113.43396 121.26721 111.52446 119.74907 111.52446 119.74907 C 111.52446 119.74907 109.35887 118.02029 106.54009 116.28814 C 103.72131 114.55598 100.41952 112.59087 96.637745 112.59087 z M 96.637745 134.65142 C 92.855968 134.65142 89.552228 136.61848 86.733448 138.35064 C 83.914669 140.08279 81.751026 141.80962 81.751026 141.80962 A 3.0442719 3.0442719 0 0 0 81.268604 146.08892 A 3.0442719 3.0442719 0 0 0 85.545948 146.57134 C 85.545948 146.57134 87.455445 145.0532 89.920948 143.53814 C 92.386451 142.02307 95.578843 140.74126 96.637745 140.74126 C 97.696648 140.74126 100.88904 142.02307 103.35454 143.53814 C 105.82005 145.0532 107.72954 146.57134 107.72954 146.57134 C 107.72954 146.57134 109.89318 148.30012 112.71196 150.03228 C 115.53074 151.76444 118.83448 153.72954 122.61626 153.72954 C 126.39804 153.72954 129.69983 151.76444 132.5186 150.03228 C 135.33739 148.30012 137.50298 146.57134 137.50298 146.57134 C 137.50298 146.57134 139.41248 145.0532 141.87798 143.53814 C 144.34348 142.02307 147.53392 140.74126 148.59282 140.74126 C 149.65173 140.74126 152.84412 142.02307 155.30962 143.53814 C 157.77513 145.0532 159.68462 146.57134 159.68462 146.57134 C 159.68462 146.57134 161.85022 148.30012 164.669 150.03228 C 167.48778 151.76444 170.78956 153.72954 174.57134 153.72954 C 178.35311 153.72954 181.65686 151.76444 184.47564 150.03228 C 187.29442 148.30012 189.45806 146.57134 189.45806 146.57134 A 3.0442719 3.0442719 0 0 0 189.94048 142.294 A 3.0442719 3.0442719 0 0 0 185.66314 141.80962 C 185.66314 141.80962 183.75364 143.32971 181.28814 144.84478 C 178.82263 146.35984 175.63024 147.64165 174.57134 147.64165 C 173.51243 147.64165 170.32004 146.35984 167.85454 144.84478 C 165.38904 143.32971 163.47954 141.80962 163.47954 141.80962 C 163.47954 141.80962 161.3159 140.08279 158.49712 138.35064 C 155.67834 136.61848 152.3746 134.65142 148.59282 134.65142 C 144.81104 134.65142 141.50926 136.61848 138.69048 138.35064 C 135.8717 140.08279 133.7061 141.80962 133.7061 141.80962 C 133.7061 141.80962 131.79661 143.32971 129.3311 144.84478 C 126.8656 146.35984 123.67516 147.64165 122.61626 147.64165 C 121.55736 147.64165 118.36497 146.35984 115.89946 144.84478 C 113.43396 143.32971 111.52446 141.80962 111.52446 141.80962 C 111.52446 141.80962 109.35887 140.08279 106.54009 138.35064 C 103.72131 136.61848 100.41952 134.65142 96.637745 134.65142 z M 96.637745 156.71392 C 92.855969 156.71392 89.552228 158.67902 86.733448 160.41118 C 83.914669 162.14334 81.751026 163.87212 81.751026 163.87212 A 3.0442719 3.0442719 0 0 0 81.268604 168.14946 A 3.0442719 3.0442719 0 0 0 85.545948 168.63384 C 85.545948 168.63384 87.455445 167.11375 89.920948 165.59868 C 92.386451 164.08361 95.578843 162.80181 96.637745 162.80181 C 97.696648 162.80181 100.88904 164.08361 103.35454 165.59868 C 105.82005 167.11375 107.72954 168.63384 107.72954 168.63384 C 107.72954 168.63384 109.89318 170.36066 112.71196 172.09282 C 115.53074 173.82498 118.83448 175.79204 122.61626 175.79204 C 126.39804 175.79204 129.69983 173.82498 132.5186 172.09282 C 135.33739 170.36066 137.50298 168.63384 137.50298 168.63384 C 137.50298 168.63384 139.41248 167.11375 141.87798 165.59868 C 144.34348 164.08361 147.53392 162.80181 148.59282 162.80181 C 149.65173 162.80181 152.84412 164.08361 155.30962 165.59868 C 157.77513 167.11375 159.68462 168.63384 159.68462 168.63384 C 159.68462 168.63384 161.85022 170.36066 164.669 172.09282 C 167.48778 173.82498 170.78956 175.79204 174.57134 175.79204 C 178.35311 175.79204 181.65686 173.82498 184.47564 172.09282 C 187.29442 170.36066 189.45806 168.63384 189.45806 168.63384 A 3.0442719 3.0442719 0 0 0 189.94048 164.35454 A 3.0442719 3.0442719 0 0 0 185.66314 163.87212 C 185.66314 163.87212 183.75364 165.39025 181.28814 166.90532 C 178.82263 168.42039 175.63024 169.7022 174.57134 169.7022 C 173.51243 169.7022 170.32004 168.42039 167.85454 166.90532 C 165.38904 165.39025 163.47954 163.87212 163.47954 163.87212 C 163.47954 163.87212 161.3159 162.14334 158.49712 160.41118 C 155.67834 158.67902 152.3746 156.71392 148.59282 156.71392 C 144.81104 156.71392 141.50926 158.67902 138.69048 160.41118 C 135.8717 162.14334 133.7061 163.87212 133.7061 163.87212 C 133.7061 163.87212 131.79661 165.39025 129.3311 166.90532 C 126.8656 168.42039 123.67516 169.7022 122.61626 169.7022 C 121.55736 169.7022 118.36497 168.42039 115.89946 166.90532 C 113.43396 165.39025 111.52446 163.87212 111.52446 163.87212 C 111.52446 163.87212 109.35887 162.14334 106.54009 160.41118 C 103.72131 158.67902 100.41952 156.71392 96.637745 156.71392 z M 96.637745 178.96587 C 92.855968 178.96587 89.552228 180.93293 86.733448 182.66509 C 83.914669 184.39725 81.751026 186.12603 81.751026 186.12603 A 3.0442719 3.0442719 0 0 0 81.268604 190.40337 A 3.0442719 3.0442719 0 0 0 85.545948 190.88579 C 85.545948 190.88579 87.455445 189.36766 89.920948 187.85259 C 92.386451 186.33752 95.578843 185.05571 96.637745 185.05571 C 97.696648 185.05571 100.88904 186.33752 103.35454 187.85259 C 105.82005 189.36766 107.72954 190.88579 107.72954 190.88579 C 107.72954 190.88579 109.89318 192.61457 112.71196 194.34673 C 115.53074 196.07889 118.83448 198.044 122.61626 198.044 C 126.39804 198.044 129.69983 196.07889 132.5186 194.34673 C 135.33739 192.61457 137.50298 190.8858 137.50298 190.88579 C 137.50298 190.88579 139.41248 189.36766 141.87798 187.85259 C 144.34348 186.33752 147.53392 185.05571 148.59282 185.05571 C 149.65173 185.05571 152.84412 186.33752 155.30962 187.85259 C 157.77513 189.36766 159.68462 190.88579 159.68462 190.88579 C 159.68462 190.88579 161.85022 192.61457 164.669 194.34673 C 167.48778 196.07889 170.78956 198.044 174.57134 198.044 C 178.35311 198.044 181.65686 196.07889 184.47564 194.34673 C 187.29442 192.61457 189.45806 190.8858 189.45806 190.88579 A 3.0442719 3.0442719 0 0 0 189.94048 186.60845 A 3.0442719 3.0442719 0 0 0 185.66314 186.12603 C 185.66314 186.12603 183.75364 187.64416 181.28814 189.15923 C 178.82263 190.6743 175.63024 191.9561 174.57134 191.9561 C 173.51243 191.9561 170.32004 190.6743 167.85454 189.15923 C 165.38904 187.64416 163.47954 186.12603 163.47954 186.12603 C 163.47954 186.12603 161.3159 184.39725 158.49712 182.66509 C 155.67834 180.93293 152.3746 178.96587 148.59282 178.96587 C 144.81104 178.96587 141.50926 180.93293 138.69048 182.66509 C 135.8717 184.39725 133.7061 186.12603 133.7061 186.12603 C 133.7061 186.12603 131.79661 187.64416 129.3311 189.15923 C 126.8656 190.6743 123.67516 191.9561 122.61626 191.9561 C 121.55736 191.9561 118.36497 190.6743 115.89946 189.15923 C 113.43396 187.64416 111.52446 186.12603 111.52446 186.12603 C 111.52446 186.12603 109.35887 184.39725 106.54009 182.66509 C 103.72131 180.93293 100.41952 178.96587 96.637745 178.96587 z " /><g
       inkscape:label="Layer 1"
       id="layer1-9"
       transform="matrix(0.42968757,0,0,0.42968757,80.604532,89.191099)" /></g><metadata
     id="metadata134"><rdf:RDF><cc:Work
         rdf:about=""><cc:license
           rdf:resource="http://scripts.sil.org/OFL" /></cc:Work><cc:License
         rdf:about="http://scripts.sil.org/OFL"><cc:permits
           rdf:resource="http://scripts.sil.org/pub/OFL/Reproduction" /><cc:permits
           rdf:resource="http://scripts.sil.org/pub/OFL/Distribution" /><cc:permits
           rdf:resource="http://scripts.sil.org/pub/OFL/Embedding" /><cc:permits
           rdf:resource="http://scripts.sil.org/pub/OFL/DerivativeWorks" /><cc:requires
           rdf:resource="http://scripts.sil.org/pub/OFL/Notice" /><cc:requires
           rdf:resource="http://scripts.sil.org/pub/OFL/Attribution" /><cc:requires
           rdf:resource="http://scripts.sil.org/pub/OFL/ShareAlike" /><cc:requires
           rdf:resource="http://scripts.sil.org/pub/OFL/DerivativeRenaming" /><cc:requires
           rdf:resource="http://scripts.sil.org/pub/OFL/BundlingWhenSelling" /></cc:License></rdf:RDF></metadata><style
     type="text/css"
     id="style5151">
	.st0{fill:#7f7f7f7f;}
</style></svg>
