<?xml version="1.0" encoding="UTF-8" standalone="no"?>
<!-- Created with Inkscape (http://www.inkscape.org/) -->

<svg
   width="222"
   height="222"
   viewBox="0 0 222 222"
   version="1.1"
   id="svg5"
   inkscape:version="1.2.2 (732a01da63, 2022-12-09)"
   sodipodi:docname="GPULiquidAlt.svg"
   xml:space="preserve"
   xmlns:inkscape="http://www.inkscape.org/namespaces/inkscape"
   xmlns:sodipodi="http://sodipodi.sourceforge.net/DTD/sodipodi-0.dtd"
   xmlns="http://www.w3.org/2000/svg"
   xmlns:svg="http://www.w3.org/2000/svg"
   xmlns:rdf="http://www.w3.org/1999/02/22-rdf-syntax-ns#"
   xmlns:cc="http://creativecommons.org/ns#"><sodipodi:namedview
     id="namedview7"
     pagecolor="#ffffff"
     bordercolor="#000000"
     borderopacity="0.25"
     inkscape:showpageshadow="2"
     inkscape:pageopacity="0.0"
     inkscape:pagecheckerboard="true"
     inkscape:deskcolor="#d1d1d1"
     inkscape:document-units="px"
     showgrid="true"
     showguides="true"
     inkscape:zoom="2"
     inkscape:cx="-101.25"
     inkscape:cy="32.5"
     inkscape:window-width="1920"
     inkscape:window-height="1027"
     inkscape:window-x="-8"
     inkscape:window-y="-8"
     inkscape:window-maximized="1"
     inkscape:current-layer="layer1"><inkscape:grid
       type="xygrid"
       id="grid132"
       empspacing="8"
       dotted="true"
       originx="-24.604542"
       originy="-24.604542" /><sodipodi:guide
       position="111.39546,182.60454"
       orientation="1,0"
       id="guide136"
       inkscape:locked="false" /><sodipodi:guide
       position="103.39546,102.60454"
       orientation="0,-1"
       id="guide1402"
       inkscape:locked="false" /></sodipodi:namedview><defs
     id="defs2" /><g
     inkscape:label="Layer 1"
     inkscape:groupmode="layer"
     id="layer1"
     transform="translate(-24.604542,-24.604542)"><path
       id="path1663"
       style="color:#000000;fill:#7f7f7f7f;stroke-linecap:round;stroke-linejoin:round;-inkscape-stroke:none"
       d="M 77.409229 24.606495 A 6.5985597 6.5985597 0 0 0 70.811573 31.204151 L 70.811573 40.565479 L 38.614308 40.565479 A 6.5978999 6.5978999 0 0 0 32.016651 47.163136 A 6.5978999 6.5978999 0 0 0 38.614308 53.760792 L 61.102589 53.760792 L 61.067433 76.092823 L 48.338917 76.092823 A 6.0006 6.0006 0 0 0 42.338917 82.092823 L 42.338917 203.73735 A 6.0006 6.0006 0 0 0 48.338917 209.73735 L 60.860401 209.73735 L 60.813526 239.99126 A 6.5985597 6.5985597 0 0 0 67.411183 246.60064 L 203.41118 246.60064 A 6.5985597 6.5985597 0 0 0 210.00884 240.00493 L 210.09087 53.760792 L 232.59282 53.760792 A 6.5985597 6.5985597 0 0 0 239.19048 47.163136 L 239.19048 31.204151 A 6.5978999 6.5978999 0 0 0 232.59282 24.606495 A 6.5978999 6.5978999 0 0 0 225.99517 31.204151 L 225.99517 40.565479 L 200.39556 40.565479 L 200.39556 31.204151 A 6.5985597 6.5985597 0 0 0 193.7979 24.606495 L 145.30181 24.606495 A 6.5985597 6.5985597 0 0 0 138.70415 31.204151 L 138.70415 40.565479 L 132.50298 40.565479 L 132.50298 31.204151 A 6.5985597 6.5985597 0 0 0 125.90532 24.606495 L 77.409229 24.606495 z M 84.008839 37.801808 L 119.30767 37.801808 L 119.30767 40.565479 L 84.008839 40.565479 L 84.008839 37.801808 z M 151.89946 37.801808 L 187.19829 37.801808 L 187.19829 40.565479 L 151.89946 40.565479 L 151.89946 37.801808 z M 74.299854 53.760792 L 196.89556 53.760792 L 196.81743 233.40532 L 74.020558 233.40532 L 74.299854 53.760792 z M 132.31157 82.987354 A 1.4289351 1.4289351 0 0 0 130.94439 83.999073 C 128.79115 91.092366 123.01889 101.37781 117.72173 108.8565 C 115.18857 112.43288 113.45061 115.89521 112.87212 119.49321 C 112.29363 123.09122 112.93139 126.77987 114.94243 130.56548 C 117.90455 136.14147 124.8834 141.42876 132.31157 141.42876 C 139.84801 141.42876 146.72499 136.12577 149.67876 130.56548 C 151.45032 127.23064 152.16519 123.97383 151.90728 120.78228 C 151.57961 116.7277 149.73233 112.85878 146.89751 108.8565 C 141.60034 101.37781 135.83199 91.092368 133.67876 83.999073 A 1.4289351 1.4289351 0 0 0 132.31157 82.987354 z M 54.338917 88.092823 L 61.049854 88.092823 L 60.879933 197.73735 L 54.338917 197.73735 L 54.338917 88.092823 z M 173.45806 129.72368 A 1.4289351 1.4289351 0 0 0 172.09087 130.73735 C 169.93764 137.83065 164.16732 148.11414 158.87017 155.59282 C 156.33701 159.16921 154.59709 162.63153 154.0186 166.22954 C 153.44011 169.82754 154.07787 173.51621 156.08892 177.30181 C 159.05104 182.8778 166.02989 188.16509 173.45806 188.16509 C 180.99449 188.16509 187.87343 182.8621 190.8272 177.30181 C 192.59875 173.96698 193.31168 170.71016 193.05376 167.5186 C 192.72609 163.46402 190.88078 159.59512 188.04595 155.59282 C 182.74878 148.11415 176.97847 137.83065 174.82525 130.73735 A 1.4289351 1.4289351 0 0 0 173.45806 129.72368 z M 97.749073 145.66118 A 1.4289351 1.4289351 0 0 0 96.381886 146.67681 C 94.228661 153.7701 88.458342 164.0536 83.161183 171.53228 C 80.628024 175.10867 78.888111 178.56903 78.30962 182.16704 C 77.731129 185.76504 78.368923 189.45371 80.379933 193.23931 C 83.342052 198.8153 90.320903 204.10454 97.749073 204.10454 C 105.28551 204.10454 112.16249 198.7996 115.11626 193.23931 C 116.88782 189.90448 117.60269 186.64766 117.34478 183.4561 C 117.01711 179.40152 115.17179 175.53457 112.33696 171.53228 C 107.0398 164.05359 101.26949 153.7701 99.116261 146.67681 A 1.4289351 1.4289351 0 0 0 97.749073 145.66118 z " /><g
       inkscape:label="Layer 1"
       id="layer1-5"
       transform="matrix(0.66411897,0,0,0.66411897,39.101972,82.463301)" /></g><metadata
     id="metadata134"><rdf:RDF><cc:Work
         rdf:about=""><cc:license
           rdf:resource="http://scripts.sil.org/OFL" /></cc:Work><cc:License
         rdf:about="http://scripts.sil.org/OFL"><cc:permits
           rdf:resource="http://scripts.sil.org/pub/OFL/Reproduction" /><cc:permits
           rdf:resource="http://scripts.sil.org/pub/OFL/Distribution" /><cc:permits
           rdf:resource="http://scripts.sil.org/pub/OFL/Embedding" /><cc:permits
           rdf:resource="http://scripts.sil.org/pub/OFL/DerivativeWorks" /><cc:requires
           rdf:resource="http://scripts.sil.org/pub/OFL/Notice" /><cc:requires
           rdf:resource="http://scripts.sil.org/pub/OFL/Attribution" /><cc:requires
           rdf:resource="http://scripts.sil.org/pub/OFL/ShareAlike" /><cc:requires
           rdf:resource="http://scripts.sil.org/pub/OFL/DerivativeRenaming" /><cc:requires
           rdf:resource="http://scripts.sil.org/pub/OFL/BundlingWhenSelling" /></cc:License></rdf:RDF></metadata><style
     type="text/css"
     id="style5151">
	.st0{fill:#7f7f7f7f;}
</style></svg>
