<?xml version="1.0" encoding="UTF-8" standalone="no"?>
<!-- Created with Inkscape (http://www.inkscape.org/) -->

<svg
   width="222"
   height="222"
   viewBox="0 0 222 222"
   version="1.1"
   id="svg5"
   inkscape:version="1.2.2 (732a01da63, 2022-12-09)"
   sodipodi:docname="GPULiquid.svg"
   xml:space="preserve"
   xmlns:inkscape="http://www.inkscape.org/namespaces/inkscape"
   xmlns:sodipodi="http://sodipodi.sourceforge.net/DTD/sodipodi-0.dtd"
   xmlns="http://www.w3.org/2000/svg"
   xmlns:svg="http://www.w3.org/2000/svg"
   xmlns:rdf="http://www.w3.org/1999/02/22-rdf-syntax-ns#"
   xmlns:cc="http://creativecommons.org/ns#"><sodipodi:namedview
     id="namedview7"
     pagecolor="#ffffff"
     bordercolor="#000000"
     borderopacity="0.25"
     inkscape:showpageshadow="2"
     inkscape:pageopacity="0.0"
     inkscape:pagecheckerboard="true"
     inkscape:deskcolor="#d1d1d1"
     inkscape:document-units="px"
     showgrid="true"
     showguides="true"
     inkscape:zoom="1"
     inkscape:cx="133"
     inkscape:cy="169"
     inkscape:window-width="1920"
     inkscape:window-height="1027"
     inkscape:window-x="-8"
     inkscape:window-y="-8"
     inkscape:window-maximized="1"
     inkscape:current-layer="layer1"><inkscape:grid
       type="xygrid"
       id="grid132"
       empspacing="8"
       dotted="true"
       originx="-24.604542"
       originy="-24.604542" /><sodipodi:guide
       position="111.39546,182.60454"
       orientation="1,0"
       id="guide136"
       inkscape:locked="false" /><sodipodi:guide
       position="103.39546,102.60454"
       orientation="0,-1"
       id="guide1402"
       inkscape:locked="false" /></sodipodi:namedview><defs
     id="defs2" /><g
     inkscape:label="Layer 1"
     inkscape:groupmode="layer"
     id="layer1"
     transform="translate(-24.604542,-24.604542)"><path
       id="path1663"
       style="color:#000000;fill:#7f7f7f7f;stroke-linecap:round;stroke-linejoin:round;-inkscape-stroke:none"
       d="M 77.409229 24.606495 A 6.5985597 6.5985597 0 0 0 70.811573 31.204151 L 70.811573 40.565479 L 38.614308 40.565479 A 6.5978999 6.5978999 0 0 0 32.016651 47.163136 A 6.5978999 6.5978999 0 0 0 38.614308 53.760792 L 61.102589 53.760792 L 61.067433 76.092823 L 48.338917 76.092823 A 6.0006 6.0006 0 0 0 42.338917 82.092823 L 42.338917 203.73735 A 6.0006 6.0006 0 0 0 48.338917 209.73735 L 60.860401 209.73735 L 60.813526 239.99126 A 6.5985597 6.5985597 0 0 0 67.411183 246.60064 L 203.41118 246.60064 A 6.5985597 6.5985597 0 0 0 210.00884 240.00493 L 210.09087 53.760792 L 232.59282 53.760792 A 6.5985597 6.5985597 0 0 0 239.19048 47.163136 L 239.19048 31.204151 A 6.5978999 6.5978999 0 0 0 232.59282 24.606495 A 6.5978999 6.5978999 0 0 0 225.99517 31.204151 L 225.99517 40.565479 L 200.39556 40.565479 L 200.39556 31.204151 A 6.5985597 6.5985597 0 0 0 193.7979 24.606495 L 145.30181 24.606495 A 6.5985597 6.5985597 0 0 0 138.70415 31.204151 L 138.70415 40.565479 L 132.50298 40.565479 L 132.50298 31.204151 A 6.5985597 6.5985597 0 0 0 125.90532 24.606495 L 77.409229 24.606495 z M 84.008839 37.801808 L 119.30767 37.801808 L 119.30767 40.565479 L 84.008839 40.565479 L 84.008839 37.801808 z M 151.89946 37.801808 L 187.19829 37.801808 L 187.19829 40.565479 L 151.89946 40.565479 L 151.89946 37.801808 z M 74.299854 53.760792 L 196.89556 53.760792 L 196.81743 233.40532 L 74.020558 233.40532 L 74.299854 53.760792 z M 135.63384 70.157276 C 135.12309 70.152478 134.60074 70.256948 134.10064 70.483448 C 133.14665 70.915009 132.42492 71.735625 132.12017 72.737354 C 126.63982 90.791085 111.95397 116.96445 98.471729 135.99907 C 92.024379 145.10163 87.596437 153.91375 86.124073 163.07134 C 84.651709 172.22893 86.277163 181.61792 91.395558 191.25298 C 98.934685 205.4449 116.69459 218.90532 135.60064 218.90532 C 136.79949 218.90532 137.99308 218.85336 139.17681 218.75103 C 140.36054 218.6487 141.53569 218.49629 142.70025 218.2979 C 159.00395 215.5205 173.22757 203.63594 179.80571 191.25298 C 180.36933 190.19201 180.89224 189.13396 181.37212 188.07915 C 184.73126 180.69548 186.04807 173.46224 185.47368 166.35454 C 184.63971 156.03489 179.9447 146.18562 172.72954 135.99907 C 160.93258 119.34378 148.21462 97.223013 141.5479 79.858448 C 140.59551 77.377796 139.76615 74.994071 139.0811 72.737354 C 138.60203 71.161555 137.16609 70.171672 135.63384 70.157276 z M 54.338917 88.092823 L 61.049854 88.092823 L 60.879933 197.73735 L 54.338917 197.73735 L 54.338917 88.092823 z " /><g
       id="path244"
       transform="matrix(0.60608908,0,0,0.60608908,33.472559,66.345922)" /></g><metadata
     id="metadata134"><rdf:RDF><cc:Work
         rdf:about=""><cc:license
           rdf:resource="http://scripts.sil.org/OFL" /></cc:Work><cc:License
         rdf:about="http://scripts.sil.org/OFL"><cc:permits
           rdf:resource="http://scripts.sil.org/pub/OFL/Reproduction" /><cc:permits
           rdf:resource="http://scripts.sil.org/pub/OFL/Distribution" /><cc:permits
           rdf:resource="http://scripts.sil.org/pub/OFL/Embedding" /><cc:permits
           rdf:resource="http://scripts.sil.org/pub/OFL/DerivativeWorks" /><cc:requires
           rdf:resource="http://scripts.sil.org/pub/OFL/Notice" /><cc:requires
           rdf:resource="http://scripts.sil.org/pub/OFL/Attribution" /><cc:requires
           rdf:resource="http://scripts.sil.org/pub/OFL/ShareAlike" /><cc:requires
           rdf:resource="http://scripts.sil.org/pub/OFL/DerivativeRenaming" /><cc:requires
           rdf:resource="http://scripts.sil.org/pub/OFL/BundlingWhenSelling" /></cc:License></rdf:RDF></metadata><style
     type="text/css"
     id="style5151">
	.st0{fill:#7f7f7f7f;}
</style></svg>
