<?xml version="1.0" encoding="UTF-8" standalone="no"?>
<!-- Created with Inkscape (http://www.inkscape.org/) -->

<svg
   width="222"
   height="222"
   viewBox="0 0 222 222"
   version="1.1"
   id="svg5"
   inkscape:version="1.2.2 (732a01da63, 2022-12-09)"
   sodipodi:docname="GPUMem.svg"
   xml:space="preserve"
   xmlns:inkscape="http://www.inkscape.org/namespaces/inkscape"
   xmlns:sodipodi="http://sodipodi.sourceforge.net/DTD/sodipodi-0.dtd"
   xmlns="http://www.w3.org/2000/svg"
   xmlns:svg="http://www.w3.org/2000/svg"
   xmlns:rdf="http://www.w3.org/1999/02/22-rdf-syntax-ns#"
   xmlns:cc="http://creativecommons.org/ns#"><sodipodi:namedview
     id="namedview7"
     pagecolor="#ffffff"
     bordercolor="#000000"
     borderopacity="0.25"
     inkscape:showpageshadow="2"
     inkscape:pageopacity="0.0"
     inkscape:pagecheckerboard="true"
     inkscape:deskcolor="#d1d1d1"
     inkscape:document-units="px"
     showgrid="true"
     showguides="true"
     inkscape:zoom="2"
     inkscape:cx="-97.5"
     inkscape:cy="114.5"
     inkscape:window-width="1920"
     inkscape:window-height="1027"
     inkscape:window-x="-8"
     inkscape:window-y="-8"
     inkscape:window-maximized="1"
     inkscape:current-layer="layer1"><inkscape:grid
       type="xygrid"
       id="grid132"
       empspacing="8"
       dotted="true"
       originx="-24.604542"
       originy="-24.604542" /><sodipodi:guide
       position="111.39546,182.60454"
       orientation="1,0"
       id="guide136"
       inkscape:locked="false" /><sodipodi:guide
       position="255.39546,110.60454"
       orientation="0,-1"
       id="guide138"
       inkscape:locked="false" /></sodipodi:namedview><defs
     id="defs2" /><g
     inkscape:label="Layer 1"
     inkscape:groupmode="layer"
     id="layer1"
     transform="translate(-24.604542,-24.604542)"><path
       id="path1663"
       style="color:#000000;fill:#7f7f7f7f;stroke-linecap:round;stroke-linejoin:round;-inkscape-stroke:none"
       d="M 77.409229 24.606495 A 6.5985597 6.5985597 0 0 0 70.811573 31.204151 L 70.811573 40.565479 L 38.614308 40.565479 A 6.5978999 6.5978999 0 0 0 32.016651 47.163136 A 6.5978999 6.5978999 0 0 0 38.614308 53.760792 L 61.102589 53.760792 L 61.067433 76.092823 L 48.338917 76.092823 A 6.0006 6.0006 0 0 0 42.338917 82.092823 L 42.338917 203.73735 A 6.0006 6.0006 0 0 0 48.338917 209.73735 L 60.860401 209.73735 L 60.813526 239.99126 A 6.5985597 6.5985597 0 0 0 67.411183 246.60064 L 203.41118 246.60064 A 6.5985597 6.5985597 0 0 0 210.00884 240.00493 L 210.09087 53.760792 L 232.59282 53.760792 A 6.5985597 6.5985597 0 0 0 239.19048 47.163136 L 239.19048 31.204151 A 6.5978999 6.5978999 0 0 0 232.59282 24.606495 A 6.5978999 6.5978999 0 0 0 225.99517 31.204151 L 225.99517 40.565479 L 200.39556 40.565479 L 200.39556 31.204151 A 6.5985597 6.5985597 0 0 0 193.7979 24.606495 L 145.30181 24.606495 A 6.5985597 6.5985597 0 0 0 138.70415 31.204151 L 138.70415 40.565479 L 132.50298 40.565479 L 132.50298 31.204151 A 6.5985597 6.5985597 0 0 0 125.90532 24.606495 L 77.409229 24.606495 z M 84.008839 37.801808 L 119.30767 37.801808 L 119.30767 40.565479 L 84.008839 40.565479 L 84.008839 37.801808 z M 151.89946 37.801808 L 187.19829 37.801808 L 187.19829 40.565479 L 151.89946 40.565479 L 151.89946 37.801808 z M 74.299854 53.760792 L 196.89556 53.760792 L 196.81743 233.40532 L 74.020558 233.40532 L 74.299854 53.760792 z M 83.604542 65.999073 A 6.0006 6.0006 0 0 0 77.604542 71.999073 L 77.604542 95.999073 A 6.0006 6.0006 0 0 0 83.604542 101.99907 L 107.60454 101.99907 A 6.0006 6.0006 0 0 0 113.60454 95.999073 L 113.60454 71.999073 A 6 6 0 0 0 113.30962 70.145558 A 6 6 0 0 0 111.12993 67.145558 A 6 6 0 0 0 109.45806 66.292042 A 6 6 0 0 0 107.60454 65.999073 L 83.604542 65.999073 z M 123.60454 65.999073 A 6.0006 6.0006 0 0 0 117.60454 71.999073 L 117.60454 95.999073 A 6.0006 6.0006 0 0 0 123.60454 101.99907 L 147.60454 101.99907 A 6.0006 6.0006 0 0 0 153.60454 95.999073 L 153.60454 71.999073 A 6 6 0 0 0 153.30962 70.145558 A 6 6 0 0 0 151.12993 67.145558 A 6 6 0 0 0 149.45806 66.292042 A 6 6 0 0 0 147.60454 65.999073 L 123.60454 65.999073 z M 89.604542 77.999073 L 101.60454 77.999073 L 101.60454 89.999073 L 89.604542 89.999073 L 89.604542 77.999073 z M 129.60454 77.999073 L 141.60454 77.999073 L 141.60454 89.999073 L 129.60454 89.999073 L 129.60454 77.999073 z M 54.338917 88.092823 L 61.049854 88.092823 L 60.879933 197.73735 L 54.338917 197.73735 L 54.338917 88.092823 z M 163.60454 105.99907 A 6.0006 6.0006 0 0 0 157.60454 111.99907 L 157.60454 135.99907 A 6.0006 6.0006 0 0 0 163.60454 141.99907 L 187.60454 141.99907 A 6.0006 6.0006 0 0 0 193.60454 135.99907 L 193.60454 111.99907 A 6 6 0 0 0 193.30962 110.14556 A 6 6 0 0 0 191.12993 107.14556 A 6 6 0 0 0 189.45806 106.29204 A 6 6 0 0 0 187.60454 105.99907 L 163.60454 105.99907 z M 169.60454 117.99907 L 181.60454 117.99907 L 181.60454 129.99907 L 169.60454 129.99907 L 169.60454 117.99907 z M 163.60454 145.99907 A 6.0006 6.0006 0 0 0 157.60454 151.99907 L 157.60454 175.99907 A 6.0006 6.0006 0 0 0 163.60454 181.99907 L 187.60454 181.99907 A 6.0006 6.0006 0 0 0 193.60454 175.99907 L 193.60454 151.99907 A 6 6 0 0 0 193.30962 150.14556 A 6 6 0 0 0 191.12993 147.14556 A 6 6 0 0 0 189.45806 146.29204 A 6 6 0 0 0 187.60454 145.99907 L 163.60454 145.99907 z M 169.60454 157.99907 L 181.60454 157.99907 L 181.60454 169.99907 L 169.60454 169.99907 L 169.60454 157.99907 z M 83.604542 185.99907 A 6.0006 6.0006 0 0 0 77.604542 191.99907 L 77.604542 215.99907 A 6.0006 6.0006 0 0 0 83.604542 221.99907 L 107.60454 221.99907 A 6.0006 6.0006 0 0 0 113.60454 215.99907 L 113.60454 191.99907 A 6 6 0 0 0 113.30962 190.14556 A 6 6 0 0 0 111.12993 187.14556 A 6 6 0 0 0 109.45806 186.29204 A 6 6 0 0 0 107.60454 185.99907 L 83.604542 185.99907 z M 123.60454 185.99907 A 6.0006 6.0006 0 0 0 117.60454 191.99907 L 117.60454 215.99907 A 6.0006 6.0006 0 0 0 123.60454 221.99907 L 147.60454 221.99907 A 6.0006 6.0006 0 0 0 153.60454 215.99907 L 153.60454 191.99907 A 6 6 0 0 0 153.30962 190.14556 A 6 6 0 0 0 151.12993 187.14556 A 6 6 0 0 0 149.45806 186.29204 A 6 6 0 0 0 147.60454 185.99907 L 123.60454 185.99907 z M 89.604542 197.99907 L 101.60454 197.99907 L 101.60454 209.99907 L 89.604542 209.99907 L 89.604542 197.99907 z M 129.60454 197.99907 L 141.60454 197.99907 L 141.60454 209.99907 L 129.60454 209.99907 L 129.60454 197.99907 z " /></g><metadata
     id="metadata134"><rdf:RDF><cc:Work
         rdf:about=""><cc:license
           rdf:resource="http://scripts.sil.org/OFL" /></cc:Work><cc:License
         rdf:about="http://scripts.sil.org/OFL"><cc:permits
           rdf:resource="http://scripts.sil.org/pub/OFL/Reproduction" /><cc:permits
           rdf:resource="http://scripts.sil.org/pub/OFL/Distribution" /><cc:permits
           rdf:resource="http://scripts.sil.org/pub/OFL/Embedding" /><cc:permits
           rdf:resource="http://scripts.sil.org/pub/OFL/DerivativeWorks" /><cc:requires
           rdf:resource="http://scripts.sil.org/pub/OFL/Notice" /><cc:requires
           rdf:resource="http://scripts.sil.org/pub/OFL/Attribution" /><cc:requires
           rdf:resource="http://scripts.sil.org/pub/OFL/ShareAlike" /><cc:requires
           rdf:resource="http://scripts.sil.org/pub/OFL/DerivativeRenaming" /><cc:requires
           rdf:resource="http://scripts.sil.org/pub/OFL/BundlingWhenSelling" /></cc:License></rdf:RDF></metadata></svg>
