<?xml version="1.0" encoding="UTF-8" standalone="no"?>
<!-- Created with Inkscape (http://www.inkscape.org/) -->

<svg
   width="222"
   height="222"
   viewBox="0 0 222 222"
   version="1.1"
   id="svg5"
   inkscape:version="1.2.2 (732a01da63, 2022-12-09)"
   sodipodi:docname="GPUTemp.svg"
   xml:space="preserve"
   xmlns:inkscape="http://www.inkscape.org/namespaces/inkscape"
   xmlns:sodipodi="http://sodipodi.sourceforge.net/DTD/sodipodi-0.dtd"
   xmlns="http://www.w3.org/2000/svg"
   xmlns:svg="http://www.w3.org/2000/svg"
   xmlns:rdf="http://www.w3.org/1999/02/22-rdf-syntax-ns#"
   xmlns:cc="http://creativecommons.org/ns#"><sodipodi:namedview
     id="namedview7"
     pagecolor="#ffffff"
     bordercolor="#000000"
     borderopacity="0.25"
     inkscape:showpageshadow="2"
     inkscape:pageopacity="0.0"
     inkscape:pagecheckerboard="true"
     inkscape:deskcolor="#d1d1d1"
     inkscape:document-units="px"
     showgrid="true"
     showguides="true"
     inkscape:zoom="2.8284271"
     inkscape:cx="76.367532"
     inkscape:cy="128.69343"
     inkscape:window-width="1920"
     inkscape:window-height="1027"
     inkscape:window-x="-8"
     inkscape:window-y="-8"
     inkscape:window-maximized="1"
     inkscape:current-layer="layer1"><inkscape:grid
       type="xygrid"
       id="grid132"
       empspacing="8"
       dotted="true"
       originx="-24.604542"
       originy="-24.604542" /><sodipodi:guide
       position="111.39546,182.60454"
       orientation="1,0"
       id="guide136"
       inkscape:locked="false" /><sodipodi:guide
       position="103.39546,102.60454"
       orientation="0,-1"
       id="guide1402"
       inkscape:locked="false" /></sodipodi:namedview><defs
     id="defs2" /><g
     inkscape:label="Layer 1"
     inkscape:groupmode="layer"
     id="layer1"
     transform="translate(-24.604542,-24.604542)"><path
       id="path1663"
       style="color:#000000;fill:#7f7f7f7f;stroke-linecap:round;stroke-linejoin:round;-inkscape-stroke:none"
       d="M 77.409229 24.606495 A 6.5985597 6.5985597 0 0 0 70.811573 31.204151 L 70.811573 40.565479 L 38.614308 40.565479 A 6.5978999 6.5978999 0 0 0 32.016651 47.163136 A 6.5978999 6.5978999 0 0 0 38.614308 53.760792 L 61.102589 53.760792 L 61.067433 76.092823 L 48.338917 76.092823 A 6.0006 6.0006 0 0 0 42.338917 82.092823 L 42.338917 203.73735 A 6.0006 6.0006 0 0 0 48.338917 209.73735 L 60.860401 209.73735 L 60.813526 239.99126 A 6.5985597 6.5985597 0 0 0 67.411183 246.60064 L 203.41118 246.60064 A 6.5985597 6.5985597 0 0 0 210.00884 240.00493 L 210.09087 53.760792 L 232.59282 53.760792 A 6.5985597 6.5985597 0 0 0 239.19048 47.163136 L 239.19048 31.204151 A 6.5978999 6.5978999 0 0 0 232.59282 24.606495 A 6.5978999 6.5978999 0 0 0 225.99517 31.204151 L 225.99517 40.565479 L 200.39556 40.565479 L 200.39556 31.204151 A 6.5985597 6.5985597 0 0 0 193.7979 24.606495 L 145.30181 24.606495 A 6.5985597 6.5985597 0 0 0 138.70415 31.204151 L 138.70415 40.565479 L 132.50298 40.565479 L 132.50298 31.204151 A 6.5985597 6.5985597 0 0 0 125.90532 24.606495 L 77.409229 24.606495 z M 84.008839 37.801808 L 119.30767 37.801808 L 119.30767 40.565479 L 84.008839 40.565479 L 84.008839 37.801808 z M 151.89946 37.801808 L 187.19829 37.801808 L 187.19829 40.565479 L 151.89946 40.565479 L 151.89946 37.801808 z M 74.299854 53.760792 L 196.89556 53.760792 L 196.81743 233.40532 L 74.020558 233.40532 L 74.299854 53.760792 z M 124.85259 59.335011 C 120.79266 59.335012 117.13829 61.360333 115.21392 64.301808 C 113.28955 67.243284 112.75689 70.664734 112.75689 74.118214 L 112.75689 160.12603 L 112.75689 179.87212 C 104.93784 186.25129 101.33302 194.51612 102.0147 204.74126 A 4.0320532 4.0320532 0 0 0 102.06157 205.13579 C 103.57413 214.21115 108.46159 220.68061 114.7315 224.40337 C 121.0014 228.12612 128.41481 229.33501 135.60454 229.33501 C 142.79427 229.33501 150.20574 228.12612 156.47564 224.40337 C 162.74554 220.68061 167.63299 214.21115 169.14556 205.13579 A 4.0320532 4.0320532 0 0 0 169.19439 204.74126 C 169.87621 194.51377 166.26483 186.26432 158.45025 179.87407 L 158.45025 160.12603 L 158.45025 74.118214 C 158.45025 70.664734 157.91758 67.243283 155.99321 64.301808 C 154.06885 61.360334 150.41641 59.335012 146.3565 59.335011 L 124.85259 59.335011 z M 124.85259 67.397511 L 146.35454 67.397511 C 148.25066 67.397511 148.62693 67.770856 149.24517 68.71587 C 149.86342 69.660884 150.38579 71.615644 150.38579 74.118214 L 150.38579 86.211964 L 130.22759 86.211964 A 4.0316501 4.0316501 0 0 0 126.19634 90.243214 A 4.0316501 4.0316501 0 0 0 130.22759 94.276417 L 150.38579 94.276417 L 150.38579 113.08892 L 130.22759 113.08892 A 4.0316501 4.0316501 0 0 0 126.19634 117.12212 A 4.0316501 4.0316501 0 0 0 130.22759 121.15337 L 150.38579 121.15337 L 150.38579 139.96782 L 130.22759 139.96782 A 4.0316501 4.0316501 0 0 0 126.19634 143.99907 A 4.0316501 4.0316501 0 0 0 130.22759 148.03032 L 150.38579 148.03032 L 150.38579 160.12603 L 150.38579 181.62798 A 4.0320532 4.0320532 0 0 0 152.06743 184.90337 C 159.56854 190.28452 161.70108 195.00517 161.14165 204.00298 C 159.93834 210.92084 156.79619 214.83603 152.3604 217.46978 C 147.8793 220.13043 141.85356 221.27251 135.60454 221.27251 C 129.35553 221.27251 123.32784 220.13043 118.84673 217.46978 C 114.41093 214.83603 111.26877 210.92084 110.06548 204.00298 C 109.50597 195.00444 111.63788 190.26518 119.13384 184.90728 A 4.0320532 4.0320532 0 0 0 120.82134 181.62798 L 120.82134 160.12603 L 120.82134 74.118214 C 120.82134 71.615644 121.34371 69.660883 121.96196 68.71587 C 122.58021 67.770857 122.95646 67.397511 124.85259 67.397511 z M 54.338917 88.092823 L 61.049854 88.092823 L 60.879933 197.73735 L 54.338917 197.73735 L 54.338917 88.092823 z " /></g><metadata
     id="metadata134"><rdf:RDF><cc:Work
         rdf:about=""><cc:license
           rdf:resource="http://scripts.sil.org/OFL" /></cc:Work><cc:License
         rdf:about="http://scripts.sil.org/OFL"><cc:permits
           rdf:resource="http://scripts.sil.org/pub/OFL/Reproduction" /><cc:permits
           rdf:resource="http://scripts.sil.org/pub/OFL/Distribution" /><cc:permits
           rdf:resource="http://scripts.sil.org/pub/OFL/Embedding" /><cc:permits
           rdf:resource="http://scripts.sil.org/pub/OFL/DerivativeWorks" /><cc:requires
           rdf:resource="http://scripts.sil.org/pub/OFL/Notice" /><cc:requires
           rdf:resource="http://scripts.sil.org/pub/OFL/Attribution" /><cc:requires
           rdf:resource="http://scripts.sil.org/pub/OFL/ShareAlike" /><cc:requires
           rdf:resource="http://scripts.sil.org/pub/OFL/DerivativeRenaming" /><cc:requires
           rdf:resource="http://scripts.sil.org/pub/OFL/BundlingWhenSelling" /></cc:License></rdf:RDF></metadata><style
     type="text/css"
     id="style5151">
	.st0{fill:#7f7f7f7f;}
</style></svg>
