<?xml version="1.0" encoding="UTF-8" standalone="no"?>
<!-- Created with Inkscape (http://www.inkscape.org/) -->

<svg
   width="222"
   height="222"
   viewBox="0 0 222 222"
   version="1.1"
   id="svg5"
   inkscape:version="1.2.2 (732a01da63, 2022-12-09)"
   sodipodi:docname="GPUWaterPump.svg"
   xml:space="preserve"
   xmlns:inkscape="http://www.inkscape.org/namespaces/inkscape"
   xmlns:sodipodi="http://sodipodi.sourceforge.net/DTD/sodipodi-0.dtd"
   xmlns="http://www.w3.org/2000/svg"
   xmlns:svg="http://www.w3.org/2000/svg"
   xmlns:rdf="http://www.w3.org/1999/02/22-rdf-syntax-ns#"
   xmlns:cc="http://creativecommons.org/ns#"><sodipodi:namedview
     id="namedview7"
     pagecolor="#ffffff"
     bordercolor="#000000"
     borderopacity="0.25"
     inkscape:showpageshadow="2"
     inkscape:pageopacity="0.0"
     inkscape:pagecheckerboard="true"
     inkscape:deskcolor="#d1d1d1"
     inkscape:document-units="px"
     showgrid="true"
     showguides="true"
     inkscape:zoom="2.8284271"
     inkscape:cx="93.868426"
     inkscape:cy="136.47161"
     inkscape:window-width="1920"
     inkscape:window-height="1027"
     inkscape:window-x="-8"
     inkscape:window-y="-8"
     inkscape:window-maximized="1"
     inkscape:current-layer="layer1"><inkscape:grid
       type="xygrid"
       id="grid132"
       empspacing="8"
       dotted="true"
       originx="-24.604542"
       originy="-24.604542" /><sodipodi:guide
       position="111.39546,182.60454"
       orientation="1,0"
       id="guide136"
       inkscape:locked="false" /><sodipodi:guide
       position="255.39546,110.60454"
       orientation="0,-1"
       id="guide138"
       inkscape:locked="false" /></sodipodi:namedview><defs
     id="defs2" /><g
     inkscape:label="Layer 1"
     inkscape:groupmode="layer"
     id="layer1"
     transform="translate(-24.604542,-24.604542)"><path
       id="path1663"
       style="color:#000000;fill:#7f7f7f7f;stroke-linecap:round;stroke-linejoin:round;-inkscape-stroke:none"
       d="M 77.409229 24.606495 A 6.5985597 6.5985597 0 0 0 70.811573 31.204151 L 70.811573 40.565479 L 38.614308 40.565479 A 6.5978999 6.5978999 0 0 0 32.016651 47.163136 A 6.5978999 6.5978999 0 0 0 38.614308 53.760792 L 61.102589 53.760792 L 61.067433 76.092823 L 48.338917 76.092823 A 6.0006 6.0006 0 0 0 42.338917 82.092823 L 42.338917 203.73735 A 6.0006 6.0006 0 0 0 48.338917 209.73735 L 60.860401 209.73735 L 60.813526 239.99126 A 6.5985597 6.5985597 0 0 0 67.411183 246.60064 L 203.41118 246.60064 A 6.5985597 6.5985597 0 0 0 210.00884 240.00493 L 210.09087 53.760792 L 232.59282 53.760792 A 6.5985597 6.5985597 0 0 0 239.19048 47.163136 L 239.19048 31.204151 A 6.5978999 6.5978999 0 0 0 232.59282 24.606495 A 6.5978999 6.5978999 0 0 0 225.99517 31.204151 L 225.99517 40.565479 L 200.39556 40.565479 L 200.39556 31.204151 A 6.5985597 6.5985597 0 0 0 193.7979 24.606495 L 145.30181 24.606495 A 6.5985597 6.5985597 0 0 0 138.70415 31.204151 L 138.70415 40.565479 L 132.50298 40.565479 L 132.50298 31.204151 A 6.5985597 6.5985597 0 0 0 125.90532 24.606495 L 77.409229 24.606495 z M 84.008839 37.801808 L 119.30767 37.801808 L 119.30767 40.565479 L 84.008839 40.565479 L 84.008839 37.801808 z M 151.89946 37.801808 L 187.19829 37.801808 L 187.19829 40.565479 L 151.89946 40.565479 L 151.89946 37.801808 z M 74.299854 53.760792 L 196.89556 53.760792 L 196.81743 233.40532 L 74.020558 233.40532 L 74.299854 53.760792 z M 135.60845 83.893604 C 102.50527 83.893604 75.604541 110.79434 75.604542 143.89751 C 75.604539 177.00068 102.50527 203.89165 135.60845 203.89165 C 168.71163 203.89165 195.60259 177.00068 195.60259 143.89751 C 195.60259 110.79434 168.71163 83.893604 135.60845 83.893604 z M 54.338917 88.092823 L 61.049854 88.092823 L 60.879933 197.73735 L 54.338917 197.73735 L 54.338917 88.092823 z M 135.60845 89.610401 C 142.13848 89.610401 148.39569 90.761326 154.19048 92.868214 C 151.76909 94.283018 149.45579 95.81949 147.2647 97.471729 C 142.21794 101.2765 137.81099 105.68039 134.15532 110.5186 C 130.50002 115.35682 127.59438 120.63041 124.68853 125.90337 C 120.86635 123.50747 117.04435 121.11074 113.6065 118.07525 C 110.16864 115.03975 107.1152 111.36455 104.59478 107.14751 C 103.52535 105.35817 102.55257 103.47162 101.68462 101.49712 C 110.97375 94.058982 122.76361 89.610401 135.60845 89.610401 z M 165.36431 98.473683 C 180.13964 108.16653 189.88579 124.87733 189.88579 143.89751 C 189.88579 144.32469 189.87994 144.75006 189.87017 145.17485 C 187.84447 143.39224 185.74195 141.73934 183.57329 140.22759 C 178.38735 136.61366 172.83133 133.79185 167.09087 131.81743 C 161.35004 129.84302 155.42619 128.71547 149.50298 127.58696 C 150.605 123.21924 151.70734 118.85225 153.53814 114.65142 C 155.36855 110.45058 157.92744 106.41512 161.16704 102.71978 C 162.45884 101.24637 163.86145 99.829449 165.36431 98.473683 z M 92.954151 110.28814 C 93.569077 113.17645 94.35269 115.99383 95.297901 118.72173 C 97.364231 124.68771 100.1993 130.2298 103.68071 135.19439 C 107.16176 140.15935 111.28797 144.54541 115.41509 148.93267 C 111.95102 151.82006 108.48773 154.70785 104.53228 157.03228 C 100.5772 159.35706 96.13062 161.11898 91.333058 162.20806 C 89.239853 162.68315 87.079789 163.02881 84.866261 163.24126 C 82.57878 157.23412 81.321338 150.71527 81.321339 143.89751 C 81.321339 131.198 85.667309 119.528 92.954151 110.28814 z M 136.56939 130.99712 C 143.70574 130.99712 149.48931 136.77186 149.48931 143.8936 C 149.48931 151.01535 143.70574 156.78814 136.56939 156.78814 C 129.43304 156.78814 123.64751 151.01535 123.64751 143.8936 C 123.64751 136.77186 129.43304 130.99712 136.56939 130.99712 z M 136.56939 136.52446 C 132.49137 136.52446 129.18462 139.82393 129.18462 143.8936 C 129.18462 147.96328 132.49137 151.26079 136.56939 151.26079 C 140.6474 151.26079 143.9522 147.96328 143.9522 143.8936 C 143.9522 139.82393 140.6474 136.52446 136.56939 136.52446 z M 164.02446 151.27056 C 165.72281 151.26544 167.42813 151.32463 169.14165 151.48931 C 173.71068 151.92884 178.34532 153.11317 182.86821 155.04595 C 184.64265 155.80422 186.39897 156.67947 188.12798 157.66704 C 183.33753 176.04141 169.17937 190.59707 151.04204 195.9522 C 152.21742 193.30268 153.22105 190.61215 154.0479 187.90142 C 155.88977 181.86249 156.86035 175.71573 156.96782 169.65728 C 157.07563 163.59845 156.3201 157.62964 155.56548 151.65923 C 158.37983 151.46948 161.19389 151.27909 164.02446 151.27056 z M 134.49907 164.85064 C 136.18034 169.03084 137.86106 173.21221 138.85454 177.68462 C 139.84769 182.15698 140.15258 186.92141 139.70806 191.81157 C 139.51955 193.88315 139.19695 195.97777 138.73735 198.0811 C 137.70181 198.13974 136.65888 198.1729 135.60845 198.1729 C 116.82676 198.1729 100.29625 188.67276 90.551808 174.20806 C 93.553849 174.53059 96.53961 174.66542 99.489308 174.6104 C 105.81345 174.4925 111.97146 173.5151 117.77837 171.74517 C 123.58566 169.97523 129.04251 167.41229 134.49907 164.85064 z " /><g
       id="g275"
       transform="matrix(5.4919902,0,0,5.4919902,75.604543,83.893136)" /></g><metadata
     id="metadata134"><rdf:RDF><cc:Work
         rdf:about=""><cc:license
           rdf:resource="http://scripts.sil.org/OFL" /></cc:Work><cc:License
         rdf:about="http://scripts.sil.org/OFL"><cc:permits
           rdf:resource="http://scripts.sil.org/pub/OFL/Reproduction" /><cc:permits
           rdf:resource="http://scripts.sil.org/pub/OFL/Distribution" /><cc:permits
           rdf:resource="http://scripts.sil.org/pub/OFL/Embedding" /><cc:permits
           rdf:resource="http://scripts.sil.org/pub/OFL/DerivativeWorks" /><cc:requires
           rdf:resource="http://scripts.sil.org/pub/OFL/Notice" /><cc:requires
           rdf:resource="http://scripts.sil.org/pub/OFL/Attribution" /><cc:requires
           rdf:resource="http://scripts.sil.org/pub/OFL/ShareAlike" /><cc:requires
           rdf:resource="http://scripts.sil.org/pub/OFL/DerivativeRenaming" /><cc:requires
           rdf:resource="http://scripts.sil.org/pub/OFL/BundlingWhenSelling" /></cc:License></rdf:RDF></metadata></svg>
